<svg version="1.1" xmlns="http://www.w3.org/2000/svg" style="display: block;" viewBox="0 0 2048 2048" width="1024" height="1024">
<defs>
	<linearGradient id="Gradient1" gradientUnits="userSpaceOnUse" x1="1267.77" y1="605.658" x2="1410.7" y2="691.829">
		<stop class="stop0" offset="0" stop-opacity="1" stop-color="rgb(229,136,130)"/>
		<stop class="stop1" offset="1" stop-opacity="1" stop-color="rgb(255,169,165)"/>
	</linearGradient>
	<linearGradient id="Gradient2" gradientUnits="userSpaceOnUse" x1="1184.87" y1="1006.03" x2="2014.91" y2="1379.77">
		<stop class="stop0" offset="0" stop-opacity="1" stop-color="rgb(75,36,47)"/>
		<stop class="stop1" offset="1" stop-opacity="1" stop-color="rgb(73,28,61)"/>
	</linearGradient>
	<linearGradient id="Gradient3" gradientUnits="userSpaceOnUse" x1="1491.54" y1="1431.18" x2="1158.13" y2="1203.47">
		<stop class="stop0" offset="0" stop-opacity="1" stop-color="rgb(248,151,107)"/>
		<stop class="stop1" offset="1" stop-opacity="1" stop-color="rgb(250,185,147)"/>
	</linearGradient>
	<linearGradient id="Gradient4" gradientUnits="userSpaceOnUse" x1="949.282" y1="1478.51" x2="1037.54" y2="1496.33">
		<stop class="stop0" offset="0" stop-opacity="1" stop-color="rgb(243,169,171)"/>
		<stop class="stop1" offset="1" stop-opacity="1" stop-color="rgb(255,202,204)"/>
	</linearGradient>
</defs>
<path transform="translate(0,0)" fill="rgb(254,254,254)" d="M 0 0 L 2048 0 L 2048 2048 L 0 2048 L 0 0 z"/>
<path transform="translate(0,0)" fill="rgb(232,125,120)" d="M 977.97 307.201 C 980.865 311.397 1015.45 435.678 1020.54 452.849 C 1032.39 492.859 1045.45 532.578 1056.95 572.669 C 1050.48 575.932 1043.83 578.909 1037.27 582.001 C 1030.61 571.267 1024.43 560.163 1018.05 549.25 C 980.921 482.742 939.603 418.42 903.747 351.189 C 912.641 344.348 923.137 338.986 932.857 333.371 L 977.97 307.201 z"/>
<path transform="translate(0,0)" fill="rgb(232,125,120)" d="M 702.583 623.287 C 727.265 634.707 750.801 648.59 774.853 661.251 A 6361.35 6361.35 0 0 0 918.892 734.623 L 907.171 761.681 C 900.244 760.406 893.354 758.717 886.474 757.197 C 812.881 741.469 739.945 724.014 666.84 706.192 C 677.508 678.22 690.665 650.769 702.583 623.287 z"/>
<path transform="translate(0,0)" fill="rgb(232,125,120)" d="M 805.153 421.801 C 823.611 440.921 840.773 461.274 858.517 481.049 L 945.986 577.183 C 962.595 595.102 978.229 614.54 996.917 630.339 L 978.623 649.165 L 955.561 633.121 C 931.719 616.5 908.668 598.863 885.168 581.772 C 853.191 558.515 820.833 535.762 789.023 512.277 C 774.375 501.462 760.758 489.283 745.886 478.797 C 766.087 460.177 784.122 439.542 805.153 421.801 z"/>
<path transform="translate(0,0)" fill="rgb(71,29,53)" d="M 1778.56 81.0278 C 1784.79 82.0306 1808.34 84.1183 1811.39 89.5437 C 1815.29 96.4809 1812.73 119.56 1812.73 128.79 C 1812.78 242.446 1788 356.671 1747.52 462.59 C 1747.1 463.686 1746.61 464.719 1746.11 465.779 C 1737.75 467.202 1713.28 471.949 1706.28 468.846 C 1705.41 467.532 1704.8 466.332 1704.51 464.766 C 1702.89 456.244 1702.92 446.948 1702.22 438.289 C 1701.34 427.426 1699.66 416.826 1697.44 406.156 C 1672.75 444.074 1647.7 481.287 1620.38 517.373 C 1567.43 587.322 1508.83 653.262 1449.03 717.377 A 3738.37 3738.37 0 0 1 1261.68 907.188 C 1233.23 934.319 1204.4 960.862 1175.44 987.435 C 1159.98 1001.61 1144.7 1016.92 1128.26 1029.92 C 1124.28 1026.16 1120.35 1022.32 1116.19 1018.76 C 1144.96 994.466 1171.74 968.369 1199.52 943 A 3768.94 3768.94 0 0 0 1556.58 571.377 C 1581.24 541.652 1606.12 510.855 1628.75 479.547 A 2561.85 2561.85 0 0 0 1676.97 409.315 C 1683.67 399.249 1689.56 388.005 1697.16 378.629 C 1700 375.115 1702.51 372.41 1706.67 370.552 C 1709.26 370.42 1710.61 370.604 1712.76 372.163 C 1724.87 380.946 1732.16 439.309 1733.55 455.116 C 1739.06 441.94 1743.41 428.132 1748.09 414.641 C 1782.74 314.827 1796.65 213.979 1796.21 108.572 C 1735.59 175.097 1647.25 237.166 1564.78 273.006 C 1581.46 273.262 1658.34 264.503 1667.41 271.521 C 1668.74 272.551 1668.83 274.262 1668.76 275.849 C 1668.19 289.279 1632.64 346.182 1624.24 359.788 C 1501.22 559.067 1340.87 734.265 1171.8 895.231 C 1132.18 932.957 1093.3 971.698 1051.58 1007.13 C 1046.63 1008.49 1041.84 1009.63 1036.75 1010.39 C 1030.23 1011.74 1023.73 1013.08 1017.3 1014.81 C 1007.11 1022.52 976.207 1034.48 962.322 1041.64 C 973.432 1026.91 988.683 1015.46 1002.55 1003.42 L 1048.37 963.269 A 3301.14 3301.14 0 0 0 1157.78 862.379 C 1339.68 688.086 1501.42 503.926 1629.57 285.883 C 1598.37 286.481 1566.75 289.538 1535.6 288.814 L 1534.41 287.752 C 1527.84 281.956 1515.09 279.798 1511.41 272.085 C 1512.59 269.333 1514.25 268.358 1516.78 266.728 C 1523.73 262.266 1531.77 259.018 1539.1 255.193 A 1393.21 1393.21 0 0 0 1578.5 233.494 C 1627.28 205.222 1675.32 173.279 1718.17 136.536 C 1729.93 126.452 1741.71 116.248 1752.85 105.479 C 1761.22 97.3855 1769.17 87.8964 1778.56 81.0278 z"/>
<path transform="translate(0,0)" fill="rgb(232,125,120)" d="M 1709.22 385.57 C 1714.62 390.456 1721.76 435.39 1723.2 444.49 C 1723.79 448.188 1725.13 451.639 1722.88 454.766 C 1720.51 454.755 1718.83 454.68 1716.62 453.818 C 1713.16 441.873 1713.39 427.879 1711.54 415.475 C 1710.71 409.885 1708.69 404.834 1707.3 399.406 C 1705.73 393.287 1705.98 391.04 1709.22 385.57 z"/>
<path transform="translate(0,0)" fill="rgb(232,125,120)" d="M 1784.38 95.8537 C 1787.04 95.9617 1789 95.9064 1791.32 97.4412 L 1791.56 99.2401 C 1783.64 110.069 1772.02 119.879 1762.27 129.142 A 770.552 770.552 0 0 1 1566.57 263.576 C 1560.38 266.592 1556.1 272.232 1549.55 274.385 C 1546.66 274.029 1543.58 273.975 1541.44 271.81 C 1543.32 268.354 1613.08 230.271 1624.07 223.352 C 1667.57 195.95 1707.74 164.864 1746.39 131.026 C 1759.38 119.661 1771.23 107.01 1784.38 95.8537 z"/>
<path transform="translate(0,0)" fill="url(#Gradient1)" d="M 1017.3 1014.81 C 1033.36 993.995 1065.1 969.464 1085.09 951.147 A 4938.97 4938.97 0 0 0 1206.3 835.61 C 1342.37 700.73 1469.41 558.65 1576.16 399.036 C 1597.45 367.199 1616.69 334.142 1636.52 301.403 C 1640.09 295.515 1645.66 285.351 1652.76 283.611 L 1653.65 284.748 C 1652.47 301.092 1618.57 351.684 1608.52 367.976 C 1544.21 472.248 1466.84 568.657 1385.89 660.381 A 3521.72 3521.72 0 0 1 1194.15 862.154 C 1164.8 890.805 1135.1 919.455 1104.91 947.213 C 1082.2 968.092 1058.25 988.283 1036.75 1010.39 C 1030.23 1011.74 1023.73 1013.08 1017.3 1014.81 z"/>
<path transform="translate(0,0)" fill="rgb(232,125,120)" d="M 1564.78 273.006 C 1647.25 237.166 1735.59 175.097 1796.21 108.572 C 1796.65 213.979 1782.74 314.827 1748.09 414.641 C 1743.41 428.132 1739.06 441.94 1733.55 455.116 C 1732.16 439.309 1724.87 380.946 1712.76 372.163 C 1710.61 370.604 1709.26 370.42 1706.67 370.552 C 1702.51 372.41 1700 375.115 1697.16 378.629 C 1689.56 388.005 1683.67 399.249 1676.97 409.315 A 2561.85 2561.85 0 0 1 1628.75 479.547 C 1606.12 510.855 1581.24 541.652 1556.58 571.377 A 3768.94 3768.94 0 0 1 1199.52 943 C 1171.74 968.369 1144.96 994.466 1116.19 1018.76 C 1094.73 1005.8 1075.95 1005.29 1051.58 1007.13 C 1093.3 971.698 1132.18 932.957 1171.8 895.231 C 1340.87 734.265 1501.22 559.067 1624.24 359.788 C 1632.64 346.182 1668.19 289.279 1668.76 275.849 C 1668.83 274.262 1668.74 272.551 1667.41 271.521 C 1658.34 264.503 1581.46 273.262 1564.78 273.006 z"/>
<path transform="translate(0,0)" fill="url(#Gradient2)" d="M 1873.34 580.807 C 1887.05 587.136 1925.5 609.765 1936.4 620.482 L 1927.7 1417.03 A 10975.3 10975.3 0 0 0 1926.66 1541.9 C 1926.59 1552.45 1928.29 1563.09 1927.95 1573.52 C 1927.86 1576.48 1928.01 1579.42 1926.37 1581.94 C 1903.13 1590.46 1875.19 1592.26 1850.78 1596.68 C 1790.87 1607.55 1731.11 1617.56 1671.01 1627.28 L 1323.2 1686.09 C 1258.49 1697.27 1193.39 1707.4 1128.93 1719.95 C 1134.54 1709.24 1142.98 1698.29 1152.31 1690.59 C 1200.72 1629.48 1227.33 1538.02 1229.24 1460.85 C 1228.69 1417.31 1218.71 1375.55 1206.63 1333.96 C 1200.89 1314.23 1195.12 1294.8 1186.51 1276.08 C 1170.91 1242.18 1150.67 1210.51 1130 1179.55 C 1126.51 1176.33 1124.51 1172.84 1122.46 1168.6 C 1126.22 1155.11 1129.05 1141.53 1131.5 1127.75 C 1132.27 1123.64 1133.01 1119.69 1133.16 1115.49 C 1156.6 1108.65 1180.89 1102.53 1204.76 1097.42 C 1214.24 1102.36 1269.43 1128.32 1272.18 1135.8 C 1275.49 1144.8 1273.1 1209.45 1273.01 1224.5 L 1268.92 1569.92 C 1268.68 1604.09 1266.98 1638.47 1267.57 1672.61 C 1280.25 1671.01 1293.06 1668.86 1305.51 1665.97 A 37897.2 37897.2 0 0 0 1308.06 941.243 C 1321.37 933.308 1339.96 930.804 1354.97 926.932 C 1380.12 920.446 1405.64 914.511 1430.51 907.069 C 1442.05 912.462 1453.07 919.365 1464.14 925.67 C 1474.62 931.634 1485.59 937.264 1495.78 943.672 C 1497.31 974.714 1496.55 1006.13 1496.33 1037.21 L 1495.54 1171.44 A 30212.6 30212.6 0 0 1 1490.31 1634.16 C 1504.35 1631.77 1518.97 1630.05 1532.78 1626.65 A 42740.6 42740.6 0 0 0 1535.1 917.481 C 1534.72 876.045 1535.4 834.569 1534.49 793.142 C 1534.36 787.362 1532.23 764.953 1535.81 761.698 C 1540.66 757.294 1643.22 732.813 1654.96 731.196 C 1667.55 735.312 1707.69 760.793 1717.32 770.108 C 1718.83 793.633 1717.69 817.668 1717.68 841.252 A 12616.5 12616.5 0 0 1 1716.22 998.552 A 24630.3 24630.3 0 0 1 1711.42 1412.32 L 1709.87 1529.66 C 1709.52 1553.33 1708.1 1577.9 1709.71 1601.52 A 687.494 687.494 0 0 0 1750 1596.31 L 1758.85 806.413 C 1759.26 765.564 1758.94 724.677 1758.76 683.825 C 1758.7 669.442 1756.34 623.817 1760.05 611.79 C 1771.42 604.594 1854.15 585.333 1873.34 580.807 z"/>
<path transform="translate(0,0)" fill="rgb(249,187,185)" d="M 1869.62 596.071 C 1875.94 597.367 1901.04 614.285 1909.96 618.988 A 5334.86 5334.86 0 0 1 1817.69 642.148 L 1802.37 645.688 A 1460.63 1460.63 0 0 0 1777.84 620.784 C 1789.13 616.433 1801.36 613.853 1813.08 610.852 A 2938.4 2938.4 0 0 0 1869.62 596.071 z"/>
<path transform="translate(0,0)" fill="rgb(166,211,180)" d="M 1647.48 746.115 C 1648.03 746.031 1648.58 745.925 1649.14 745.862 C 1656.9 744.984 1683.48 763.275 1690.18 769.068 A 2623.98 2623.98 0 0 1 1593.03 797.06 L 1579.83 799.611 A 405.476 405.476 0 0 1 1551.6 770.181 C 1565.72 766.114 1580.42 763.427 1594.73 760.056 A 1307.84 1307.84 0 0 0 1647.48 746.115 z"/>
<path transform="translate(0,0)" fill="rgb(244,165,106)" d="M 1203.9 1111.72 C 1221.12 1118.84 1237.04 1128.59 1253.65 1136.96 L 1159.9 1159.9 C 1147.5 1162.92 1134.74 1165.19 1122.46 1168.6 C 1126.22 1155.11 1129.05 1141.53 1131.5 1127.75 C 1155.21 1122.91 1180.49 1117.75 1203.9 1111.72 z"/>
<path transform="translate(0,0)" fill="rgb(254,213,94)" d="M 1428.51 922.212 C 1433.92 922.794 1464.43 941.173 1471.15 945.13 C 1437.8 957.099 1401.56 964.856 1367.25 973.742 L 1357.05 976.483 C 1346.77 967.429 1336.14 958.554 1326.53 948.791 C 1337.88 943.683 1351.37 941.293 1363.4 938.221 A 2668.16 2668.16 0 0 1 1428.51 922.212 z"/>
<path transform="translate(0,0)" fill="rgb(152,114,166)" d="M 1229.24 1460.85 C 1229.8 1463.55 1229.54 1465.93 1230.68 1468.57 C 1237.36 1472.51 1244.9 1470.37 1252.32 1471.89 C 1252.74 1471.98 1253.16 1472.07 1253.58 1472.16 C 1256.09 1465.92 1254.21 1456.38 1255.58 1449.41 C 1255.64 1449.09 1255.71 1448.77 1255.78 1448.44 C 1255.39 1523.76 1252.7 1599.17 1252.97 1674.49 C 1230.36 1678.65 1207.54 1682.04 1184.81 1685.49 C 1174.06 1687.12 1162.88 1688.15 1152.31 1690.59 C 1200.72 1629.48 1227.33 1538.02 1229.24 1460.85 z"/>
<path transform="translate(0,0)" fill="url(#Gradient3)" d="M 1319.12 960.653 L 1346.47 985.519 C 1345.06 1043.16 1345.82 1100.95 1345.29 1158.62 L 1341.3 1502.8 L 1340.48 1612.15 C 1340.4 1625.26 1342.18 1646.55 1339.52 1658.87 L 1337.76 1659.87 L 1314.37 1664.39 C 1313.33 1563.15 1317.48 1461.57 1318.6 1360.3 L 1319.12 960.653 z"/>
<path transform="translate(0,0)" fill="rgb(166,211,180)" d="M 1545.59 783.634 C 1550.46 787.768 1554.49 792.903 1558.66 797.723 C 1563.25 802.648 1567.82 807.551 1572.65 812.231 A 50642.3 50642.3 0 0 1 1565.75 1327.95 A 15269.9 15269.9 0 0 1 1563.28 1520.05 C 1562.8 1554.02 1562.82 1588.07 1561.32 1622.02 C 1555.25 1622.91 1549.18 1623.85 1543.1 1624.66 L 1546.54 1076.22 L 1546.27 888.155 C 1546.25 863.782 1544.38 833.468 1545.86 810.186 C 1544.46 801.596 1545.2 792.284 1545.59 783.634 z"/>
<path transform="translate(0,0)" fill="rgb(232,125,120)" d="M 1771 633.469 C 1779.18 639.264 1787.15 647.788 1794.16 654.939 C 1795.53 689.765 1793.2 725.451 1792.78 760.336 L 1789.7 980.499 L 1780.35 1586.77 C 1773.99 1588.72 1767.39 1590.07 1760.91 1591.6 L 1771 633.469 z"/>
<path transform="translate(0,0)" fill="rgb(244,165,106)" d="M 1130 1179.55 A 4624.02 4624.02 0 0 0 1260.12 1149.49 A 23392.8 23392.8 0 0 1 1255.78 1448.44 C 1255.71 1448.77 1255.64 1449.09 1255.58 1449.41 C 1254.21 1456.38 1256.09 1465.92 1253.58 1472.16 C 1253.16 1472.07 1252.74 1471.98 1252.32 1471.89 C 1244.9 1470.37 1237.36 1472.51 1230.68 1468.57 C 1229.54 1465.93 1229.8 1463.55 1229.24 1460.85 C 1228.69 1417.31 1218.71 1375.55 1206.63 1333.96 C 1200.89 1314.23 1195.12 1294.8 1186.51 1276.08 C 1170.91 1242.18 1150.67 1210.51 1130 1179.55 z"/>
<path transform="translate(0,0)" fill="rgb(254,213,94)" d="M 1479.92 958.348 L 1480.96 958.813 C 1485.18 965.762 1476.98 1564.94 1476.97 1636.55 A 10295.2 10295.2 0 0 0 1353.23 1656.75 L 1352.09 1656.46 C 1350.66 1654.05 1351.02 1651.23 1351.02 1648.52 A 16734.9 16734.9 0 0 1 1353.86 1442.6 L 1358.15 989.916 C 1378.24 983.61 1398.72 978.716 1419.05 973.279 C 1439.08 967.924 1459.48 961.699 1479.92 958.348 z"/>
<path transform="translate(0,0)" fill="rgb(166,211,180)" d="M 1696.85 783.23 C 1698.19 783.015 1699.47 783.11 1700.83 783.15 C 1702.43 785.051 1702.59 787.444 1702.67 789.84 C 1703.6 816.89 1702.41 844.547 1702.29 871.66 L 1701.55 1038.77 L 1697.63 1597.51 C 1657.15 1603.98 1616.83 1612.09 1576.49 1619.45 L 1573.11 1619.54 C 1571.47 1616.74 1571.92 1611.97 1571.92 1608.71 A 37470 37470 0 0 1 1580.76 1043.14 L 1582.5 893.686 C 1582.78 867.114 1582.65 840.491 1583.97 813.947 C 1621.6 804.036 1658.95 791.973 1696.85 783.23 z"/>
<path transform="translate(0,0)" fill="rgb(232,125,120)" d="M 1917.59 631.081 C 1919.92 630.989 1919.97 630.51 1921.84 632.107 C 1924.46 639.297 1921.34 754.019 1921.23 775.647 L 1917.43 1269.87 A 19750 19750 0 0 1 1914.03 1561.45 C 1874.7 1568.08 1835.04 1575.18 1796.06 1583.59 C 1794.32 1583.9 1792.79 1583.91 1791.02 1583.84 C 1788.91 1579.33 1792.54 1479.59 1792.74 1465.31 L 1806.05 659.375 C 1842.94 649.146 1880.61 641.229 1917.59 631.081 z"/>
<path transform="translate(0,0)" fill="rgb(71,29,53)" d="M 194.242 767.156 C 196.988 766.92 199.816 766.632 202.572 766.823 C 207.477 767.162 213.41 770.537 216.381 774.429 C 219.902 779.041 218.94 784.198 216.104 788.824 C 212.281 795.061 204.165 800.416 198.771 805.485 C 182.28 820.983 172.237 845.497 170.296 867.813 C 168.345 890.249 174.061 909.749 188.538 926.988 C 194.612 911.22 200.283 895.872 210.822 882.44 C 225.008 864.36 245.905 848.982 269.28 846.397 A 56.9359 56.9359 0 0 1 312.262 859.216 C 323.503 868.402 329.918 881.243 331.303 895.601 C 333.251 915.794 325.714 935.609 312.9 951.014 C 294.087 973.631 267.847 985.653 238.956 988.379 C 241.039 993.823 243.386 998.949 247.295 1003.35 C 259.914 1017.57 278.477 1021.42 296.555 1022.48 C 308.436 1014.68 319.558 1005.66 331.353 997.676 C 372.336 969.918 416.533 947.507 465.155 936.732 C 512.247 926.296 561.944 926.324 609.592 932.886 C 722.364 948.417 866.104 1009.05 961.539 1070.28 L 962.553 1069.73 C 993.507 1052.74 1051.97 1021.71 1087.18 1032.89 C 1094.71 1035.28 1100.79 1040.31 1104.39 1047.37 C 1117.98 1074.1 1098.04 1144.99 1088.19 1173.64 C 1106.37 1194.75 1124.06 1216.67 1138.71 1240.42 C 1179.02 1305.74 1201.62 1386.93 1205.21 1463.35 C 1208.74 1538.58 1183.54 1610.45 1138.25 1670.05 C 1128.43 1682.98 1117.29 1695 1106.38 1707.01 C 1102.77 1735.27 1095.92 1763.39 1087.75 1790.65 C 1084.17 1802.61 1078.46 1814.81 1076.26 1827 L 1077.38 1828.3 C 1097.93 1832.47 1118.39 1837.63 1137.83 1845.6 C 1149.25 1850.28 1164.81 1857.59 1169.44 1869.87 C 1171.1 1874.27 1170.85 1878.81 1168.69 1883 C 1160.55 1898.81 1130.4 1907.3 1114.68 1911.75 C 1057.32 1928.02 995.572 1934.21 936.334 1939.66 A 3025.34 3025.34 0 0 1 372.77 1936.69 C 323.435 1931.63 231.563 1921.73 188.683 1897.57 C 181.452 1893.49 171.547 1886.91 169.558 1878.39 C 168.382 1873.36 170.439 1868.87 173.217 1864.76 C 186.301 1845.38 238.133 1831.92 260.726 1827.36 A 2612.3 2612.3 0 0 1 202.656 1710.05 C 194.414 1692.03 185.765 1674.21 178.186 1655.9 C 141.881 1568.18 115.033 1471.53 115.882 1376 C 116.954 1255.44 160.126 1153.87 245.944 1069.45 A 147.026 147.026 0 0 1 241.989 1067.44 C 201.422 1046.29 193.598 1024.69 180.587 983.161 C 159.005 969.351 143.474 958.349 132.768 934.299 C 118.396 902.015 122.231 861.967 134.715 829.718 C 146.135 800.216 165.352 779.782 194.242 767.156 z"/>
<path transform="translate(0,0)" fill="rgb(253,228,225)" d="M 1070.2 1042.42 C 1072.54 1042.17 1074.18 1041.94 1076.47 1042.61 C 1073.38 1047.19 1063.28 1051.3 1058.56 1055.03 C 1039.8 1069.84 1025.35 1086.71 1013.31 1107.2 C 1007.91 1102.57 1002.12 1098.45 996.393 1094.23 C 988.474 1088.78 980.643 1083.31 973.028 1077.43 C 1002.24 1059.21 1035.54 1044.69 1070.2 1042.42 z"/>
<path transform="translate(0,0)" fill="url(#Gradient4)" d="M 1057.43 1379.34 L 1062.73 1379.23 C 1058 1382.31 1050.19 1382.84 1044.7 1384.99 C 1021.39 1394.13 999.478 1408.41 985.609 1429.68 C 966.404 1459.14 964.004 1498.74 971.463 1532.37 C 977.043 1557.53 989.646 1581.27 1010.57 1596.95 C 1015.91 1600.95 1021.96 1603.85 1027.59 1607.43 C 1024.31 1608.33 1020.44 1607.08 1017.14 1606.41 C 1007.56 1602.86 998.293 1598.42 989.866 1592.61 C 967.457 1577.16 954.578 1552.97 949.846 1526.55 C 943.941 1493.57 947.232 1458 967.092 1430.09 C 988.014 1400.68 1022.81 1385.21 1057.43 1379.34 z"/>
<path transform="translate(0,0)" fill="rgb(253,228,225)" d="M 1090.85 1048.97 C 1092.97 1049.32 1093.1 1049.41 1094.25 1051.28 C 1106.54 1071.28 1086.04 1141.97 1079.47 1164.84 A 3466.76 3466.76 0 0 0 1054.18 1140.89 C 1043.51 1131.37 1032.24 1122.5 1021.42 1113.14 C 1037.61 1086.39 1061.19 1060.48 1090.85 1048.97 z"/>
<path transform="translate(0,0)" fill="rgb(253,228,225)" d="M 1087.91 1724.18 L 1088.48 1725.39 C 1078.66 1772.5 1063.46 1817.34 1047.03 1862.47 C 1023.5 1868.76 984.522 1874.3 960.878 1868.38 L 950.062 1851.39 C 942.571 1839.74 934.991 1827.97 926.193 1817.26 C 960.573 1800.9 995.256 1785.71 1027.95 1766.02 C 1048.75 1753.5 1068.44 1738.67 1087.91 1724.18 z"/>
<path transform="translate(0,0)" fill="rgb(253,228,225)" d="M 196.899 780.833 C 199.428 781.036 199.473 780.519 201.279 782.512 C 200.398 785.16 182.565 801.949 179.052 806.579 A 116.649 116.649 0 0 0 162.269 837.943 C 153.555 862.404 152.126 892.639 163.657 916.459 C 171.75 933.177 183.794 942.03 201.064 947.969 C 201.634 935.525 204.348 923.911 209.438 912.509 C 218.761 891.621 236.172 872.571 257.952 864.508 C 270.207 859.972 283.628 859.606 295.541 865.473 C 305.299 870.279 312.238 878.868 315.461 889.206 C 319.453 902.011 316.953 915.71 310.939 927.432 C 298.02 952.613 273.114 965.88 247.151 974.144 C 238.43 976.249 229.682 977.107 220.782 978.024 C 223.79 989.942 227.786 1002.44 235.532 1012.19 C 247.237 1026.93 263.392 1032.65 281.437 1035 A 1517.66 1517.66 0 0 0 257.325 1058.47 C 245.197 1053.8 233.072 1046.02 223.63 1037.11 C 205.632 1020.12 196.035 994.109 195.495 969.67 C 191.785 968.667 188.072 967.406 184.458 966.102 C 166.526 959.633 154.138 946.553 146.117 929.527 C 133.01 901.704 135.209 870 145.431 841.639 C 155.781 812.919 169.116 794.067 196.899 780.833 z"/>
<path transform="translate(0,0)" fill="rgb(71,29,53)" d="M 262.115 885.182 C 268.488 884.404 273.319 884.654 279.37 886.947 C 283.477 888.503 286.856 890.763 288.599 894.955 C 291.23 901.286 289.345 909.346 286.584 915.307 C 278.801 932.108 263.061 942.958 246.084 948.858 C 238.142 951.334 230.044 952.115 221.802 952.958 C 223.471 941.725 225.166 930.49 229.385 919.877 C 235.822 903.686 245.842 892.105 262.115 885.182 z"/>
<path transform="translate(0,0)" fill="rgb(254,254,254)" d="M 263.478 900.1 C 265.592 899.796 268.241 899.523 270.357 899.979 C 272.837 900.514 273.75 901.458 275.1 903.478 C 275.19 904.949 275.186 906.237 274.702 907.654 C 270.817 919.018 259.302 927.298 249.037 932.309 L 238.742 935.667 C 244.275 921.504 250.233 908.588 263.478 900.1 z"/>
<path transform="translate(0,0)" fill="rgb(249,187,185)" d="M 1075.69 1384.37 L 1077.11 1384.17 C 1102.42 1380.91 1131.13 1388.84 1151.22 1404.53 C 1169.66 1418.92 1183.45 1440.97 1186.05 1464.4 C 1189.89 1499.15 1180.78 1539.73 1158.76 1567.27 C 1140.01 1590.74 1114.97 1604.21 1085.24 1607.47 C 1084.84 1607.54 1084.44 1607.63 1084.04 1607.69 C 1060.72 1611.08 1032.53 1604.2 1013.59 1590.16 C 990.979 1573.39 979.614 1547.87 975.55 1520.58 C 970.891 1489.3 974.036 1455.54 993.626 1429.64 C 1013.35 1403.56 1043.77 1388.62 1075.69 1384.37 z"/>
<path transform="translate(0,0)" fill="rgb(71,29,53)" d="M 1123.35 1423 A 47.9773 47.9773 0 0 1 1125.4 1422.88 C 1131.93 1422.66 1136.72 1425.8 1141.24 1430.31 C 1157.64 1446.66 1164.18 1477.97 1163.59 1500.32 C 1163.26 1512.56 1160.77 1523.99 1151.59 1532.68 C 1149.8 1533.09 1147.88 1533.61 1146.02 1533.53 C 1140.19 1533.29 1134.2 1528.32 1130.74 1524.01 C 1115.66 1505.23 1110.06 1470.53 1112.49 1447.15 C 1113.47 1437.64 1115.64 1429.2 1123.35 1423 z"/>
<path transform="translate(0,0)" fill="rgb(232,125,120)" d="M 1125.42 1431.71 C 1127.37 1431.82 1129.12 1431.99 1130.82 1433.04 C 1141.88 1439.8 1148.58 1456.88 1151.66 1468.95 C 1156.02 1485.97 1158.68 1510.19 1149.44 1525.84 C 1146.75 1525.69 1144.39 1524.84 1142.09 1523.47 C 1131.52 1517.14 1127.28 1501.42 1124.51 1490.15 C 1120.42 1473.47 1115.97 1447.22 1125.42 1431.71 z"/>
<path transform="translate(0,0)" fill="rgb(71,29,53)" d="M 1020.95 1432.97 C 1023.35 1432.84 1025.61 1432.72 1027.98 1433.3 C 1036.11 1435.3 1043.18 1444.82 1047.11 1451.67 C 1058.89 1472.22 1068.79 1513 1061.9 1536.16 C 1059.6 1543.89 1056.38 1547.76 1049.36 1551.59 C 1047.81 1551.63 1046.28 1551.66 1044.75 1551.36 C 1036.9 1549.82 1029.91 1542.06 1025.83 1535.64 C 1014.06 1517.12 1003.58 1469.82 1009.04 1448.88 C 1011.01 1441.31 1014.27 1436.93 1020.95 1432.97 z"/>
<path transform="translate(0,0)" fill="rgb(232,125,120)" d="M 1023.25 1441.67 C 1025.97 1441.46 1027.98 1441.67 1030.33 1443.22 C 1044.51 1452.56 1051.05 1480.42 1053.94 1496.12 C 1056.66 1510.89 1058.87 1530.61 1049.87 1543.58 C 1049.54 1543.64 1049.21 1543.72 1048.88 1543.76 C 1045.32 1544.14 1042.21 1541.94 1039.58 1539.77 C 1024.48 1527.36 1020.35 1494.12 1018.55 1476.11 C 1017.44 1465 1015.78 1450.85 1023.25 1441.67 z"/>
<path transform="translate(0,0)" fill="rgb(188,227,232)" d="M 434.523 1812.43 C 452.516 1817.19 470.017 1824.53 487.86 1829.94 A 717.552 717.552 0 0 0 592.793 1854.01 C 601.106 1873.2 607.208 1897.99 618.028 1915.31 C 619.978 1916.32 621.893 1917.23 623.963 1917.97 C 644.803 1925.45 725.822 1928.55 745.884 1918.64 C 759.32 1912 766.086 1874.74 770.835 1860.45 C 819.092 1852.12 865.479 1839.78 911.084 1822.02 C 926.264 1840.93 938.043 1862.14 953.12 1880.94 C 978.586 1888.49 1021.5 1886.66 1046.29 1877.69 C 1064.83 1870.97 1065.97 1850.95 1073.29 1835.06 C 1099.35 1839.82 1130.26 1847.54 1152.77 1861.49 C 1157 1864.11 1162.81 1867.86 1163.47 1873.25 C 1163.82 1876.07 1162.58 1878.59 1160.88 1880.74 C 1138.36 1909.4 1024.31 1922.79 987.775 1927.29 A 2882.37 2882.37 0 0 1 340.496 1925.91 C 297.816 1920.56 227.968 1911.69 190.788 1890.82 C 185.442 1887.82 178.082 1883.27 176.849 1876.77 C 176.279 1873.77 177.441 1870.87 179.209 1868.49 C 191.431 1852.07 243.497 1837.53 264.647 1834.12 C 264.728 1834.23 264.807 1834.34 264.888 1834.46 C 275.405 1848.92 282.357 1865.71 293.681 1879.56 C 314.599 1883.96 386.868 1889.86 405.843 1880.84 C 417.883 1875.13 429.962 1826.43 434.523 1812.43 z"/>
<path transform="translate(0,0)" fill="rgb(253,228,225)" d="M 520.142 943.417 C 530.319 942.361 541.062 942.715 551.297 942.847 C 692.586 944.671 902.327 1035.05 1013.64 1122.27 C 1122.37 1207.45 1169.44 1295.67 1186.27 1431.51 C 1179.52 1420.78 1172.42 1410.98 1163.01 1402.39 C 1135.22 1377.02 1096.24 1369.12 1059.53 1371.19 C 1025.48 1373.11 988.474 1390.42 965.921 1416.17 C 943.093 1442.24 936.586 1478.03 939.047 1511.66 C 941.278 1542.15 953.205 1574.45 977.008 1594.71 C 1002.02 1616 1036.09 1623.53 1068.31 1620.64 C 1110.07 1616.89 1145.21 1597.58 1171.7 1565.67 C 1161.39 1594.71 1145.53 1614.8 1118.99 1630.78 C 1077.01 1656.05 1025.1 1657.64 978.586 1645.69 C 904.245 1626.59 856.06 1573.6 818.253 1510.19 C 823.208 1500.79 827.091 1489.15 825.61 1478.33 C 825.26 1475.77 824.838 1474.75 822.803 1473.22 C 821.878 1473.3 820.839 1473 820.029 1473.45 C 819.907 1473.52 816.171 1497.69 813.895 1501.69 C 805.642 1516.17 786.666 1515.89 780.342 1523.57 C 779.271 1524.87 779.696 1524.61 780.007 1526.58 C 780.995 1527.25 781.097 1527.4 782.396 1527.8 C 790.63 1530.27 806.226 1519.74 813.043 1515.42 C 820.506 1530.31 829.877 1544.53 839.969 1557.78 C 880.551 1611.06 935.854 1649.64 1003.43 1658.6 C 1039.98 1663.45 1081.35 1660.93 1114.43 1643.21 C 1127.46 1636.23 1138.97 1627.22 1150.65 1618.24 C 1135.58 1649.1 1106.68 1684.65 1081.33 1707.66 C 1068.7 1719.13 1054.75 1729.12 1040.87 1738.99 C 976.873 1782.58 852.053 1835.83 774.749 1844.59 C 777.398 1834.2 795.642 1776.34 794.388 1770.29 C 793.831 1767.59 792.786 1767.19 790.713 1765.63 C 787.674 1765.05 786.589 1765.06 783.622 1766.35 C 779.461 1770.99 747.539 1888.3 742.761 1904.93 C 704.786 1912.54 665.691 1910.14 627.631 1904.58 C 622.25 1890.3 581.895 1776.28 578.404 1773.54 C 577.365 1772.72 575.377 1772.76 574.165 1773.05 C 572.608 1773.43 571.367 1774.2 570.799 1775.68 C 567.209 1785.05 583.843 1826.82 587.906 1837.69 C 570.168 1835.85 552.451 1831.05 535.128 1826.95 A 703.617 703.617 0 0 1 260.115 1694.74 C 257.649 1692.8 254.361 1690.59 251.031 1691.37 C 248.514 1691.96 247.145 1693.07 245.765 1695.16 C 245.46 1697 245.502 1697.96 246.134 1699.77 C 249.258 1708.72 263.743 1717.36 271.419 1722.81 C 318.065 1755.89 369.444 1783.3 421.792 1806.19 A 1398.43 1398.43 0 0 0 402.006 1868.01 C 368.455 1873.35 333.522 1868.97 300.129 1864.56 C 287.504 1839.6 271.554 1816.31 258.537 1791.49 C 247.811 1771.04 238.072 1750.03 228.074 1729.22 C 180.799 1630.82 140.359 1527.48 131.498 1417.62 C 122.776 1309.49 152.855 1198.23 223.771 1114.91 C 300.419 1024.86 398.974 953.159 520.142 943.417 z"/>
<path transform="translate(0,0)" fill="rgb(71,29,53)" d="M 170.656 1398.28 L 173.523 1399.38 C 176.455 1405.65 174.909 1424.13 175.361 1432.17 C 176.444 1451.45 179.998 1470.06 185.345 1488.61 C 187.725 1496.86 196.756 1514.6 194.917 1522.18 C 191.086 1520.28 189.871 1517.33 188.049 1513.6 C 176.962 1490.92 162.482 1422.39 170.656 1398.28 z"/>
<path transform="translate(0,0)" fill="rgb(71,29,53)" d="M 252.787 1606.47 C 257.583 1609.09 267.962 1628.93 272.132 1635 A 337.008 337.008 0 0 0 326.149 1696.94 A 423.479 423.479 0 0 0 370.589 1732.83 C 377.608 1737.75 384.816 1742.75 392.257 1747.01 C 398.24 1750.44 404.953 1753.02 410.509 1757.13 C 412.469 1758.58 412.984 1759.32 413.896 1761.48 L 412.614 1763.72 C 403.518 1760.9 395.314 1756.48 387.197 1751.55 C 339.583 1722.63 300.643 1684.7 267.979 1639.77 C 262.419 1632.13 252.806 1621 250.943 1611.67 C 250.404 1608.97 251.248 1608.58 252.787 1606.47 z"/>
<path transform="translate(0,0)" fill="rgb(71,29,53)" d="M 237.159 1118.96 C 237.898 1121.77 233.444 1127.08 231.843 1129.58 C 190.102 1194.84 171.262 1256.05 162.694 1332.6 C 153.394 1415.71 160.601 1491.58 197.353 1567.51 C 206.456 1586.31 216.669 1605.06 229.315 1621.73 C 240.521 1636.5 252.265 1650.12 265.346 1663.26 C 273.796 1671.75 283.509 1679.63 290.974 1688.99 C 291.337 1691.88 290.254 1692.25 288.569 1694.44 A 372.691 372.691 0 0 1 156.505 1448.62 C 143.746 1341.07 169.032 1205.29 237.159 1118.96 z"/>
<path transform="translate(0,0)" fill="rgb(254,254,254)" d="M 438.745 1095.5 C 446.075 1095.46 451.597 1095.42 458.311 1098.92 C 462.38 1101.05 465.012 1103.94 466.089 1108.45 C 467.985 1116.4 462.221 1127.37 457.993 1133.94 C 442.219 1158.44 408.057 1181.12 379.752 1187.27 C 379.377 1187.4 379.01 1187.56 378.626 1187.67 C 372.766 1189.35 360.397 1189.68 355.209 1186.04 C 352.625 1184.23 351.088 1181.25 350.566 1178.2 C 348.753 1167.58 354.182 1156.34 360.024 1147.78 C 376.803 1123.18 409.361 1100.96 438.745 1095.5 z"/>
<path transform="translate(0,0)" fill="rgb(71,29,53)" d="M 1076.3 1228.91 C 1079 1229.25 1081.88 1229.76 1084.38 1230.87 C 1097.98 1236.91 1107.27 1255.48 1112.52 1268.65 C 1121.07 1290.11 1130.38 1328.5 1120.32 1350.6 C 1117.19 1357.48 1112.81 1361.41 1105.86 1364.16 C 1101.59 1364.31 1097.04 1364.73 1092.95 1363.28 C 1081.09 1359.06 1072.85 1347.13 1067.9 1336.05 C 1057.29 1312.28 1052.04 1268.24 1062.16 1243.76 C 1065.28 1236.2 1068.82 1232.12 1076.3 1228.91 z"/>
<path transform="translate(0,0)" fill="rgb(254,254,254)" d="M 1075.13 1249.43 C 1076.31 1249.73 1077.19 1250.12 1078.16 1250.87 C 1085.18 1256.27 1092.92 1268.1 1093.95 1277.02 C 1094.3 1280 1093.68 1281.67 1091.77 1283.89 C 1087.01 1283.29 1086.03 1276.82 1081.04 1275.94 L 1079.39 1277.56 C 1078.83 1280.32 1079.04 1281.85 1079.87 1284.45 C 1081.84 1290.58 1083.93 1295.88 1087.03 1301.53 C 1087.13 1301.69 1087.22 1301.86 1087.32 1302.02 C 1088.6 1304.19 1091.16 1307.7 1091.37 1310.23 C 1091.63 1313.42 1089.47 1316.34 1087.41 1318.47 C 1085.71 1318.86 1084.93 1319.25 1083.4 1318.05 C 1077.21 1313.19 1073.86 1299.66 1072.34 1292.13 C 1069.72 1279.1 1067.36 1260.97 1075.13 1249.43 z"/>
<path transform="translate(0,0)" fill="rgb(71,29,53)" d="M 898.214 1262.98 C 901.012 1262.95 904.078 1263.36 906.7 1264.36 C 918.947 1269.05 927.095 1283.56 931.886 1295.11 C 943.61 1323.39 949.356 1366.38 936.866 1395.31 C 933.278 1403.62 929.266 1407.89 920.981 1411.35 C 918.343 1411.24 915.521 1411 912.977 1410.25 C 902.327 1407.12 894.089 1396.08 889.226 1386.59 C 875.101 1359.01 869.499 1315.98 879.401 1286.24 C 882.933 1275.63 888.113 1267.97 898.214 1262.98 z"/>
<path transform="translate(0,0)" fill="rgb(254,254,254)" d="M 894.88 1283.52 C 896.485 1283.86 897.891 1284.18 899.322 1285.02 C 907.396 1289.73 915.07 1303.21 917.21 1312.14 C 917.881 1314.93 918.258 1317.64 916.802 1320.15 L 914.356 1320.07 C 910.942 1317.34 909.737 1311.91 907.253 1308.2 L 905.594 1308.37 C 904.062 1310.7 903.12 1312.67 902.67 1315.46 C 901.053 1325.48 906.165 1335.58 911.725 1343.53 C 911.959 1343.8 912.244 1344.03 912.427 1344.33 C 913.158 1345.55 913.609 1346.67 913.406 1348.05 C 912.721 1352.7 912.084 1356.26 908.115 1359.18 C 905.33 1359.4 903.901 1359.38 901.53 1357.74 C 893.659 1352.29 889.573 1338.39 887.856 1329.28 C 884.975 1313.99 885.982 1296.68 894.88 1283.52 z"/>
<path transform="translate(0,0)" fill="rgb(71,29,53)" d="M 592.646 958.761 C 604.172 959.653 617.895 965.477 629.17 968.818 C 692.855 987.688 753.799 1010.37 813.783 1038.87 C 831.903 1047.48 850.52 1055.49 867.291 1066.58 C 846.014 1078.22 826.053 1089.37 807.086 1104.72 C 803.986 1107.65 800.512 1110.19 797.149 1112.81 C 778.776 1103.29 761.48 1091.92 742.708 1083.02 A 1295.92 1295.92 0 0 0 649.102 1043.38 C 612.139 1029.78 574.458 1018.18 537.223 1005.37 C 553.133 987.883 572.784 971.526 592.646 958.761 z"/>
<path transform="translate(0,0)" fill="rgb(232,125,120)" d="M 589.828 972.669 L 591.676 973.635 C 592.938 979.483 592.351 985.947 592.315 991.917 C 581.006 996.129 570.357 1000.42 558.243 1001.63 L 556.957 1001.54 L 556.537 1000.01 C 564.004 990.363 579.778 980.264 589.828 972.669 z"/>
<path transform="translate(0,0)" fill="rgb(232,125,120)" d="M 602.714 968.565 C 633.228 978.995 664.367 987.596 694.81 998.362 A 1284.21 1284.21 0 0 1 850.532 1065.81 L 839.603 1071.86 C 833.352 1075.33 826.928 1078.53 820.584 1081.82 C 750.914 1045.44 675.796 1015.82 600.813 992.388 C 601.914 984.524 602.198 976.491 602.714 968.565 z"/>
<path transform="translate(0,0)" fill="rgb(71,29,53)" d="M 708.198 1091.22 C 711.14 1091.03 714.153 1090.79 717.097 1091.02 C 736.13 1092.53 756.952 1113.73 768.855 1127.22 C 793.412 1155.03 814.088 1191.61 824.874 1226.96 C 826.976 1233.85 829.669 1241.9 829.038 1249.17 C 828.924 1250.49 828.655 1252.71 827.512 1253.59 C 825.43 1255.17 781.13 1261.81 774.37 1263.41 A 321.278 321.278 0 0 0 648.025 1323.72 C 633.58 1335.1 617.462 1355.18 599.433 1360.33 C 592.355 1362.35 584.155 1362.39 577.716 1358.41 C 570.098 1353.71 566.386 1344.95 564.491 1336.55 C 561.947 1325.27 562.112 1313.3 562.652 1301.82 A 232.499 232.499 0 0 1 598.064 1187.56 C 622.599 1148.48 661.55 1101.99 708.198 1091.22 z"/>
<path transform="translate(0,0)" fill="rgb(253,228,225)" d="M 708.795 1102.25 C 717.674 1101.01 726.011 1104.4 733.382 1109.08 C 773.384 1134.49 808.758 1200.52 819.08 1245.69 C 752.757 1252.97 699.807 1273.85 645.5 1312.26 C 631.004 1323.17 612.244 1346.3 594.939 1350.33 C 590.642 1351.33 586.093 1351.23 582.337 1348.68 C 577.595 1345.46 575.644 1339.49 574.489 1334.16 C 572.102 1323.14 572.56 1310.85 573.308 1299.68 C 575.948 1260.25 587.342 1222.8 609.153 1189.72 C 630.212 1157.77 670.427 1110.17 708.795 1102.25 z"/>
<path transform="translate(0,0)" fill="rgb(71,29,53)" d="M 661.316 1166.63 C 661.595 1166.96 661.939 1167.25 662.154 1167.62 C 664.419 1171.56 656.586 1180.74 654.46 1184.01 C 641.744 1203.55 629.259 1224.85 621.57 1246.94 C 617.964 1257.3 616.202 1268.58 612.234 1278.69 C 611.991 1279.31 611.735 1279.92 611.486 1280.54 C 609.269 1277.74 608.802 1275.8 609.003 1272.3 C 610.395 1248.07 641.874 1183.3 661.316 1166.63 z"/>
<path transform="translate(0,0)" fill="rgb(71,29,53)" d="M 698.616 1120.99 C 699.052 1121.6 699.151 1122.4 699.386 1123.11 C 696.597 1128.78 687.615 1133.58 682.723 1137.76 A 281.125 281.125 0 0 0 621.134 1211.2 C 612.918 1225.21 605.916 1240.09 601.278 1255.69 C 599.18 1262.75 590.972 1306.19 590.777 1306.44 L 589.987 1307.45 C 589.239 1306.29 589.179 1306.28 588.571 1304.97 C 582.942 1292.87 594.494 1254.15 599.061 1241.94 C 615.465 1198.07 654.917 1140.7 698.616 1120.99 z"/>
</svg>