<svg version="1.1" xmlns="http://www.w3.org/2000/svg" style="display: block;" viewBox="0 0 2048 2048" width="1024" height="1024">
<path transform="translate(0,0)" fill="rgb(244,226,197)" d="M 0 0 L 2048 0 L 2048 2048 L 0 2048 L 0 0 z"/>
<path transform="translate(0,0)" fill="rgb(38,70,83)" d="M 1546.87 35.2441 C 1567.68 34.5595 1591.16 47.6214 1608.88 57.4426 C 1633.65 71.177 1718.36 120.425 1724.8 146.005 C 1727.45 156.541 1722.39 168.569 1719.54 178.702 C 1714.68 195.999 1710.23 214.232 1702.93 230.669 C 1697.46 242.997 1689.75 254.465 1682.7 265.934 L 1652.59 314.945 C 1683.76 321.418 1714.5 330.253 1745.36 338.034 L 1881.29 371.231 L 1936.44 384.547 C 1947.76 387.246 1959.22 390.532 1970.8 391.821 C 1998.23 416.934 2021.11 447.688 2047.64 473.886 C 2011.44 554.205 1978.62 636.22 1943.24 716.932 L 1648.23 1394.12 C 1702.73 1367.17 1757.94 1341.15 1812.93 1315.21 C 1827.94 1324.36 1855.21 1355.59 1868.45 1369.19 C 1897.87 1399.43 1929.55 1429.64 1956.4 1462.18 C 1957.07 1475.67 1956.35 1489.43 1956.16 1502.94 A 2985.92 2985.92 0 0 1 1954.77 1567.98 C 1945.94 1575.52 1933.5 1580.64 1923.25 1586.03 C 1901.61 1597.43 1879.59 1608.34 1858.89 1621.42 L 1908.08 1671.41 C 1919.94 1683.49 1933.44 1695.66 1942.93 1709.7 C 1940.91 1733.69 1940.21 1757.82 1939.06 1781.86 C 1938.45 1794.54 1938.37 1807.53 1936.26 1820.06 C 1923.76 1831.54 1896.48 1842.1 1880.7 1849.9 A 8229.01 8229.01 0 0 1 1800.73 1889.41 C 1783.09 1898 1765.51 1908.01 1747.46 1915.55 C 1742.95 1917.44 1738.37 1918.9 1733.48 1919.3 C 1722.01 1911.2 1703.64 1888.43 1692.86 1877.32 C 1657.81 1841.18 1617.97 1803.05 1585.28 1765.32 C 1585.83 1747.94 1587.92 1730.37 1589.15 1713.01 C 1590.51 1693.93 1591.13 1674.7 1593.3 1655.69 C 1602.48 1648.66 1614.06 1643.84 1624.38 1638.7 C 1644.49 1628.68 1665.22 1619.15 1684.51 1607.64 C 1667.93 1594.41 1653.43 1576.72 1638.74 1561.34 C 1625.98 1547.99 1611.89 1535.04 1600.16 1520.82 C 1600.32 1497.62 1604.79 1466.55 1606.89 1442.65 C 1586.36 1437.86 1418.23 1392.28 1408.75 1385.53 C 1408.68 1377.48 1470.17 1239.07 1478.36 1220.07 L 1761.99 566.506 C 1685.55 546.412 1607.88 530.721 1531.32 511.037 C 1514.84 535.553 1500.01 561.367 1484.65 586.589 L 1408.93 710.917 C 1402.44 721.6 1373.96 771.828 1366.69 778.128 C 1362.78 781.514 1351 778.954 1346.15 778.393 L 1220.34 995.629 C 1230.56 1020.13 1239.1 1052.44 1247.43 1078.25 L 1296.92 1231.09 L 1446.11 1695.33 C 1450.16 1709.79 1468.29 1755.16 1465.37 1767.7 C 1460.11 1773.15 1445.97 1774.44 1438.59 1776.36 C 1443.14 1790.02 1462.85 1835.32 1461.04 1846.64 C 1458.3 1848.24 1455.53 1849.06 1452.47 1849.82 C 1439.58 1853.01 1425.99 1854.63 1412.9 1856.99 A 5624.9 5624.9 0 0 1 1330.15 1871.46 L 1143.91 1903.89 A 40808.4 40808.4 0 0 1 574.275 1999.6 C 566.2 2000.87 513.694 2011.44 510.518 2008.98 C 507.884 2006.94 505.994 2000.99 504.877 1997.86 C 491.022 1959.14 480.042 1918.76 467.914 1879.42 L 402.129 1666.45 L 128.089 772.302 L 43.3737 490.837 A 6903.31 6903.31 0 0 0 18.3739 409.428 C 12.6477 391.253 5.97581 372.876 1.88258 354.277 C 17.4874 343.653 32.8502 321.911 48.2899 314.389 C 56.0579 310.604 65.4537 309.228 73.7116 306.486 C 71.9134 291.451 62.2051 270.517 63.7373 256.855 C 68.1166 253.191 76.0226 252.301 81.6039 251.509 L 452.734 199.681 L 538.499 188.213 C 553.895 186.218 569.575 184.711 584.835 181.879 C 618.61 175.61 652.2 166.511 685.562 158.344 L 872.464 112.372 C 890.362 108.097 933.077 94.9327 949.09 95.1832 C 951.858 97.1701 953.092 101.733 954.135 104.887 C 966.677 142.797 977.773 181.193 989.599 219.328 L 1061.72 450.051 L 1132.47 669.697 C 1139.68 692.299 1147.63 714.706 1154.42 737.434 C 1164.95 720.291 1173.67 702.105 1184.4 685.064 C 1181.92 680.025 1179.69 675.056 1177.73 669.792 C 1181.06 659.572 1187.59 649.789 1192.7 640.357 A 2575.62 2575.62 0 0 0 1214.07 599.911 A 15549.9 15549.9 0 0 1 1409.82 235.176 A 3154.72 3154.72 0 0 1 1443.48 174.971 C 1448.52 166.102 1454.71 157.115 1459.04 147.937 C 1459.64 146.665 1459.66 145.632 1459.51 144.264 C 1457.9 142.893 1457.53 142.61 1455.29 142.646 C 1449.08 142.747 1441.02 146.725 1436.84 151.257 C 1428.3 160.51 1422 174.799 1415.74 185.837 L 1381.7 245.971 A 10073.4 10073.4 0 0 1 1245.38 480.888 C 1236.97 494.693 1222.91 524.276 1212.33 534.005 C 1208.63 537.407 1203.81 539.818 1198.67 539.29 C 1193.01 538.708 1187.63 534.332 1184.32 529.944 C 1181.06 525.633 1180.33 520.028 1181.05 514.786 C 1181.79 509.374 1184.02 504.19 1186.47 499.346 C 1195.35 481.811 1206.25 464.827 1216.03 447.746 L 1272.76 348.058 L 1347.54 216.894 C 1363.87 188.27 1379.73 158.895 1397.38 131.074 C 1401.9 123.955 1408.12 114.612 1415.1 109.771 C 1435.28 95.7808 1463.1 97.4435 1486.09 100.827 C 1498.98 83.2239 1518.26 50.0005 1536.69 38.6315 C 1539.83 36.6905 1543.29 35.9743 1546.87 35.2441 z"/>
<path transform="translate(0,0)" fill="rgb(233,196,106)" d="M 1969.69 405.588 C 1978.15 411.327 1986.34 422.999 1993.28 430.695 A 5467.23 5467.23 0 0 0 2034.8 476.21 A 659.816 659.816 0 0 0 2027.36 491.331 A 3213.69 3213.69 0 0 1 1987.3 452.568 C 1978.5 443.91 1969.9 434.672 1960.35 426.853 A 777.266 777.266 0 0 1 1969.69 405.588 z"/>
<path transform="translate(0,0)" fill="rgb(233,196,106)" d="M 1631.2 350.571 C 1636.57 357.122 1640.72 365.984 1644.97 373.363 C 1653.27 387.795 1661.84 402.147 1669.47 416.949 C 1660.8 415.412 1652.2 413.235 1643.62 411.291 C 1629.01 407.353 1614.19 404.006 1599.49 400.394 A 2937.28 2937.28 0 0 1 1631.2 350.571 z"/>
<path transform="translate(0,0)" fill="rgb(233,196,106)" d="M 1884.41 382.862 C 1909.59 389.741 1936.1 392.848 1960.98 400.541 C 1955.15 415.238 1948.47 429.613 1942.02 444.042 A 872.548 872.548 0 0 0 1932.66 465.888 A 6684.22 6684.22 0 0 1 1884.41 382.862 z"/>
<path transform="translate(0,0)" fill="rgb(233,196,106)" d="M 1486.24 120.603 C 1491.41 126.49 1495.57 133.443 1500.82 139.426 C 1532.1 175.094 1612.69 218.837 1658.38 231.94 C 1668.43 234.825 1678.09 236.17 1688.52 236.891 L 1681.61 248.299 C 1672.81 248.117 1664.28 246.276 1655.82 243.944 C 1602.26 229.18 1507.5 180.829 1479.58 132.103 L 1486.24 120.603 z"/>
<path transform="translate(0,0)" fill="rgb(42,157,143)" d="M 931.985 1185.62 C 958.889 1219.18 999.806 1240.63 1040.66 1251.78 C 1035.2 1257.04 1029.99 1262.61 1024.68 1268.04 L 1018.55 1273.75 C 980.435 1263.58 949.01 1242.28 923.086 1212.92 C 925.35 1203.63 928.817 1194.63 931.985 1185.62 z"/>
<path transform="translate(0,0)" fill="rgb(233,196,106)" d="M 1956.35 437.399 C 1962.68 441.604 1968.59 448.828 1974.11 454.161 C 1990.42 469.918 2006.47 487.012 2024.11 501.248 C 2015.97 518.359 2008.62 535.876 2001 553.226 C 1994.8 551.406 1942.43 499.733 1933.58 491.263 A 2953.76 2953.76 0 0 0 1956.35 437.399 z"/>
<path transform="translate(0,0)" fill="rgb(42,157,143)" d="M 1192.39 694.491 C 1200.35 700.98 1206.66 709.865 1214.7 716.524 C 1249.13 745.059 1292.74 764.793 1335.52 776.852 C 1331.15 784.421 1326.96 792.169 1321.78 799.224 A 74.6715 74.6715 0 0 1 1318.68 799.095 C 1308.26 798.505 1297.4 795.334 1287.46 792.296 C 1245.38 779.425 1206.11 755.685 1177.03 722.446 L 1192.39 694.491 z"/>
<path transform="translate(0,0)" fill="rgb(233,196,106)" d="M 1928.92 501.528 C 1951.52 522.248 1973.92 543.017 1996.04 564.256 C 1988.57 583.638 1980.11 602.62 1971.85 621.673 C 1964.58 616.544 1957.63 608.508 1951.14 602.357 A 6118.31 6118.31 0 0 0 1904.16 558.13 C 1913.22 539.56 1920.59 520.407 1928.92 501.528 z"/>
<path transform="translate(0,0)" fill="rgb(233,196,106)" d="M 1900.33 568.408 C 1923.74 588.105 1945.67 610.459 1968.03 631.374 C 1959.32 650.281 1951.29 669.527 1943.02 688.632 C 1920.71 667.429 1897.31 647.271 1874.68 626.377 C 1882.71 606.869 1890.88 587.284 1900.33 568.408 z"/>
<path transform="translate(0,0)" fill="rgb(233,196,106)" d="M 1870.24 636.371 C 1894.18 655.675 1916.46 677.701 1939.14 698.497 C 1931.09 718.043 1921.82 737.387 1912.63 756.426 L 1911.55 755.761 L 1911.79 756.758 C 1905.37 752.707 1898.65 744.4 1893.06 739.079 A 2282.46 2282.46 0 0 0 1845.18 694.127 C 1852.74 674.52 1861.48 655.459 1870.24 636.371 z"/>
<path transform="translate(0,0)" fill="rgb(233,196,106)" d="M 1630.27 1182.45 C 1654.74 1201.01 1677.21 1224.21 1699.96 1244.97 C 1691.48 1264.58 1682.15 1283.79 1673.7 1303.4 C 1655.71 1285.09 1625.07 1256.82 1604.72 1241.34 A 1519.53 1519.53 0 0 1 1630.27 1182.45 z"/>
<path transform="translate(0,0)" fill="rgb(233,196,106)" d="M 1719.75 977.468 C 1728.01 982.101 1736.67 992.293 1743.79 998.8 A 5503.55 5503.55 0 0 0 1789.24 1039.69 C 1782.4 1059.52 1773.15 1079.21 1763.98 1098.07 C 1760.21 1096.96 1702.36 1042.75 1694.13 1035.79 C 1704.08 1017.2 1711.44 996.847 1719.75 977.468 z"/>
<path transform="translate(0,0)" fill="rgb(233,196,106)" d="M 1840.87 703.657 C 1863.09 725.331 1886.58 745.716 1908.88 767.349 C 1902.09 783.964 1892.57 810.215 1882.34 824.248 C 1859.23 804.28 1837.66 782.651 1814.05 763.242 C 1823.44 743.603 1830.8 722.994 1840.87 703.657 z"/>
<path transform="translate(0,0)" fill="rgb(233,196,106)" d="M 1690.22 1045.98 C 1714.79 1064.33 1736.22 1087.41 1759.8 1107.1 C 1755 1123.72 1741.45 1149.67 1733.99 1166.38 C 1731.03 1165.96 1672.11 1110.05 1664.66 1103.67 L 1690.22 1045.98 z"/>
<path transform="translate(0,0)" fill="rgb(233,196,106)" d="M 1749.34 908.801 C 1758.74 916.514 1767.45 925.438 1776.37 933.732 A 3695.1 3695.1 0 0 1 1818.72 972.984 A 2626.74 2626.74 0 0 1 1794.35 1031.06 C 1769.7 1012.13 1747 988.757 1724.18 967.606 L 1749.34 908.801 z"/>
<path transform="translate(0,0)" fill="rgb(233,196,106)" d="M 1809.5 772.624 C 1831.08 788.749 1859.12 815.985 1878.84 835.124 C 1871.7 855.231 1862.09 874.677 1853.11 894.027 C 1844.58 887.992 1836.95 879.25 1829.23 872.077 L 1783.81 830.617 C 1791.81 811.08 1800.8 791.865 1809.5 772.624 z"/>
<path transform="translate(0,0)" fill="rgb(233,196,106)" d="M 1660.87 1113.73 C 1683.72 1134.67 1707.36 1154.91 1729.81 1176.25 A 1463.6 1463.6 0 0 1 1703.75 1235.99 C 1681.79 1214.33 1658.35 1193.15 1634.68 1173.37 C 1642.93 1153.34 1650.64 1132.86 1660.87 1113.73 z"/>
<path transform="translate(0,0)" fill="rgb(233,196,106)" d="M 1600.59 1250.36 C 1611.11 1255.84 1658.63 1301.38 1670.33 1312.49 C 1662.29 1332.37 1653.16 1351.84 1644.37 1371.4 C 1621.61 1350.44 1598.76 1329.1 1574.73 1309.61 C 1582.3 1289.76 1591.1 1269.37 1600.59 1250.36 z"/>
<path transform="translate(0,0)" fill="rgb(233,196,106)" d="M 1779.22 840.311 C 1788.07 846.226 1796.17 854.827 1804.04 862.019 L 1849.51 903.681 C 1841.54 923.498 1832.09 943.015 1823.38 962.54 C 1814.89 957.458 1806.54 948.053 1799.24 941.241 A 2502.76 2502.76 0 0 0 1753.68 899.117 L 1779.22 840.311 z"/>
<path transform="translate(0,0)" fill="rgb(233,196,106)" d="M 1713.97 340.546 C 1736.81 347.988 1761.28 352.943 1784.63 358.712 A 4714.96 4714.96 0 0 1 1819.53 419.596 C 1826.89 432.445 1835.04 445.264 1841.17 458.75 C 1818.3 453.749 1795.68 447.572 1772.83 442.449 C 1752.26 409.04 1733.76 374.417 1713.97 340.546 z"/>
<path transform="translate(0,0)" fill="rgb(233,196,106)" d="M 1798.56 361.873 A 1726.43 1726.43 0 0 0 1869.65 378.643 C 1880.14 395.016 1889.75 412.14 1899.52 428.953 C 1909.29 445.769 1919.53 462.594 1927.82 480.191 C 1919.03 478.803 1910.11 475.591 1901.46 473.404 C 1886.01 469.501 1870.47 466.012 1855.06 461.962 C 1848.54 447.368 1839.82 433.407 1831.79 419.605 A 5137.36 5137.36 0 0 1 1798.56 361.873 z"/>
<path transform="translate(0,0)" fill="rgb(233,196,106)" d="M 1647.9 323.599 C 1665.28 326.823 1682.5 332.909 1699.85 336.71 C 1718.4 370.344 1737.48 404.237 1757.83 436.805 C 1754.54 438.004 1752.64 437.116 1749.26 436.423 C 1727.11 431.896 1704.86 426.181 1682.96 420.506 C 1668.73 393.053 1652.68 366.338 1637.82 339.206 C 1641.34 334.13 1644.57 328.805 1647.9 323.599 z"/>
<path transform="translate(0,0)" fill="rgb(233,196,106)" d="M 1570.52 1318.5 C 1580.89 1324.62 1590.53 1335.36 1599.46 1343.54 C 1612.99 1355.93 1626.49 1368.03 1640.97 1379.32 C 1637.66 1387.52 1633.96 1395.44 1630.06 1403.37 C 1624.7 1406.71 1609.39 1412.23 1608.52 1418.68 C 1608.02 1422.32 1608.86 1425.71 1607.56 1429.28 L 1605.82 1429.36 C 1580.98 1423.76 1556.73 1415.66 1531.83 1410.41 C 1535.45 1399.85 1540.51 1389.52 1544.89 1379.24 A 4222.92 4222.92 0 0 0 1570.52 1318.5 z"/>
<path transform="translate(0,0)" fill="rgb(231,111,81)" d="M 463.222 212.424 C 465.385 212.257 467.073 212.181 469.192 212.686 C 465.396 215.159 438.285 219.943 431.856 221.545 A 27762 27762 0 0 1 89.6263 303.45 A 1158.57 1158.57 0 0 0 80.1606 267.718 C 129.623 258.398 180.331 253.759 230.155 246.412 L 396.385 223 C 418.703 219.853 440.854 215.057 463.222 212.424 z"/>
<path transform="translate(0,0)" fill="rgb(233,196,106)" d="M 1448.65 110.265 A 192.702 192.702 0 0 1 1481.18 110.988 C 1477.09 117.657 1473.43 124.579 1469.71 131.456 C 1461.41 130.861 1452.72 130.162 1444.59 132.344 C 1435.63 134.747 1429.38 140.408 1424.02 147.734 C 1413.39 162.267 1405.38 179.575 1396.68 195.331 A 3142.63 3142.63 0 0 1 1362.04 255.641 A 16979.5 16979.5 0 0 1 1211.47 514.59 C 1209.33 518.614 1207.32 524.371 1202.51 525.605 C 1200.04 526.239 1197.37 525.956 1195.22 524.519 C 1193.35 523.267 1192.25 521.364 1192.12 519.112 C 1191.83 514.382 1195.55 508.363 1197.75 504.285 C 1213.34 475.353 1230.49 446.937 1246.71 418.332 A 12057.8 12057.8 0 0 1 1345.43 245.567 A 2171.4 2171.4 0 0 0 1378.44 187.481 C 1388.4 169.394 1398.13 150.5 1410.02 133.61 C 1420.2 119.133 1431.51 113.257 1448.65 110.265 z"/>
<path transform="translate(0,0)" fill="rgb(233,196,106)" d="M 870.723 1347.84 C 878.981 1348.51 911.029 1372.51 919.277 1378.18 C 914.688 1399.15 911.073 1420.28 906.298 1441.22 C 874.692 1465.64 842.781 1489.57 811.524 1514.46 L 810.036 1514.14 L 808.417 1511.36 C 808.553 1505.68 851.503 1441.89 858.057 1431.5 C 861.604 1426.11 865.337 1420.83 868.867 1415.44 C 870.58 1412.83 871.092 1409.81 870.17 1406.77 C 869.371 1404.13 867.463 1403.2 865.226 1402.02 C 862.391 1402.11 861.102 1402.39 858.955 1404.34 C 853.578 1409.21 849.7 1418.06 845.791 1424.26 C 835.869 1440.01 825.644 1455.55 816.004 1471.48 C 810.631 1480.36 806.147 1489.9 800.241 1498.43 C 798.452 1501.01 796.791 1503.42 793.967 1504.93 L 792.869 1503.97 C 792.795 1502.45 792.747 1501.06 792.943 1499.54 C 795.048 1483.27 801.795 1465.97 806.332 1450.16 C 811.391 1432.54 815.435 1414.43 821.53 1397.13 C 823.022 1392.9 824.819 1388.78 827.467 1385.13 C 835.937 1373.45 859.022 1357.51 870.723 1347.84 z"/>
<path transform="translate(0,0)" fill="rgb(231,111,81)" d="M 1622.46 1440.4 C 1647.36 1465.76 1671.47 1491.82 1696.11 1517.44 C 1713.76 1535.79 1732.47 1553.5 1749.15 1572.71 C 1748.71 1583.27 1748.17 1643.7 1745.07 1648.22 L 1616.65 1515.06 C 1619.03 1490.15 1621.46 1465.42 1622.46 1440.4 z"/>
<path transform="translate(0,0)" fill="rgb(233,196,106)" d="M 1608.16 1680.66 A 3792.35 3792.35 0 0 0 1734.32 1812.02 A 1210.61 1210.61 0 0 0 1731.19 1862.84 C 1730.78 1872.36 1731.24 1882.92 1729.46 1892.24 C 1687.85 1847.23 1642.97 1805.12 1601.77 1759.73 C 1604.44 1733.48 1604.65 1706.76 1608.16 1680.66 z"/>
<path transform="translate(0,0)" fill="rgb(231,111,81)" d="M 1939.72 1482.79 C 1941.3 1491.34 1939.89 1501.95 1939.67 1510.65 C 1939.28 1526.67 1938.99 1542.75 1939.96 1558.76 C 1922.08 1570.46 1902.27 1579.82 1883.47 1589.99 A 3804.87 3804.87 0 0 1 1763.23 1653.11 C 1760.86 1649.03 1765.17 1584.44 1765.72 1573.08 C 1780.08 1564.67 1795.41 1557.7 1810.24 1550.17 C 1853.38 1528.25 1898.06 1507.34 1939.72 1482.79 z"/>
<path transform="translate(0,0)" fill="rgb(233,196,106)" d="M 1924.51 1726.06 C 1927.35 1735.55 1921.62 1796.47 1920.94 1811.58 L 1745.38 1899.38 C 1743.49 1888.46 1745.69 1875.16 1746.49 1864.07 C 1747.68 1847.65 1748.92 1831.27 1749.45 1814.81 C 1782.79 1796.34 1817.45 1780.02 1851.59 1763.09 C 1876.01 1750.98 1900.01 1738.01 1924.51 1726.06 z"/>
<path transform="translate(0,0)" fill="rgb(42,157,143)" d="M 1531.78 54.6242 C 1535.82 57.686 1539 64.9341 1542.19 69.135 C 1548.35 77.2683 1554.75 84.1927 1562.58 90.7539 C 1593.87 116.978 1650.31 153.181 1690.01 160.938 C 1698.53 162.603 1706.08 162.451 1714.69 161.69 C 1711.62 172.704 1699.32 219.518 1692.8 225.237 C 1689.38 228.232 1681.57 227.103 1677.33 226.919 A 176.844 176.844 0 0 1 1651.63 220.258 C 1608.26 205.818 1537.14 166.214 1506.54 132.566 C 1500.57 125.999 1496.26 119.181 1492.31 111.262 C 1497.69 103.771 1501.98 95.2841 1507.08 87.5459 C 1514.63 76.0939 1523.28 65.3726 1531.78 54.6242 z"/>
<path transform="translate(0,0)" fill="rgb(231,111,81)" d="M 1421.97 1780.2 C 1425.67 1782.69 1440.15 1827.46 1443 1835.34 C 1402.88 1843.9 1362.29 1850.03 1321.88 1856.99 L 1149.43 1886.93 L 706.079 1962.75 C 700.606 1963.47 693.039 1965.61 687.709 1964.86 C 706.656 1956.61 730.017 1953.23 750.117 1948.3 A 5353.64 5353.64 0 0 0 855.533 1921.48 C 1043.76 1872.12 1233.43 1828.29 1421.97 1780.2 z"/>
<path transform="translate(0,0)" fill="rgb(233,196,106)" d="M 1695.09 1621.08 C 1715.96 1636.97 1730.97 1660.62 1752.15 1676.24 C 1781.03 1664.77 1816.59 1643.06 1845.33 1628.54 C 1871.03 1655.42 1897.76 1681.77 1922.19 1709.78 C 1895.38 1723.42 1868.6 1737.31 1841.64 1750.66 A 6329.65 6329.65 0 0 0 1744.66 1799.54 L 1668.47 1721.19 C 1649.8 1701.94 1630.61 1683.24 1613.39 1662.64 C 1639.7 1647.44 1667.87 1634.56 1695.09 1621.08 z"/>
<path transform="translate(0,0)" fill="rgb(231,111,81)" d="M 1810.91 1332.98 C 1820.03 1338.91 1833.66 1355.65 1841.84 1364.05 C 1874.53 1397.58 1907.76 1430.68 1938.63 1465.91 A 6619.41 6619.41 0 0 1 1818.84 1528.26 C 1802.45 1536.78 1776.14 1552.73 1759.43 1558.02 C 1732.78 1534.73 1708.86 1506.76 1684.5 1481.06 C 1665.91 1461.44 1646.04 1442.85 1628 1422.74 C 1671.03 1399.3 1715.8 1379.04 1759.98 1357.86 C 1776.96 1349.72 1794.38 1342.01 1810.91 1332.98 z"/>
<path transform="translate(0,0)" fill="rgb(231,111,81)" d="M 42.9544 337.79 C 49.069 343.768 137.871 647.385 146.346 675.012 L 407.438 1521.52 L 496.38 1810.86 C 514.022 1868.7 530.83 1926.66 549.302 1984.27 L 525.28 1991.52 C 523.485 1991.94 522.374 1991.95 520.563 1991.87 C 514.147 1982.97 498.925 1925.08 494.057 1909.55 L 403.425 1616.75 L 19.0954 358.979 C 27.6793 352.742 35.3465 345.161 42.9544 337.79 z"/>
<path transform="translate(0,0)" fill="rgb(244,162,97)" d="M 748.984 1259.24 C 752.541 1262.6 797.555 1408.16 801.905 1426.08 A 8524.28 8524.28 0 0 0 778.48 1510.16 C 767.693 1512.07 756.893 1515.39 746.243 1518.03 A 5192.97 5192.97 0 0 0 675.967 1535.91 C 639.361 1545.38 601.909 1553.26 565.76 1564.24 L 562.398 1552.44 C 540.448 1476.14 516.951 1400.3 495.816 1323.76 C 520.433 1314.12 558.057 1307.14 584.749 1300.46 L 748.984 1259.24 z"/>
<path transform="translate(0,0)" fill="rgb(38,70,83)" d="M 721.326 1294.57 C 724.798 1295.29 727.736 1295.92 729.963 1298.89 C 730.63 1301.37 730.781 1303.28 730.116 1305.8 C 728.791 1310.81 726.049 1315.48 724.417 1320.43 L 701.052 1389.33 C 691.618 1417.17 683.835 1447.85 673.631 1474.86 C 672.084 1478.96 670.676 1483.52 666.855 1485.9 C 654.34 1481.15 636.603 1465.07 625.113 1456.78 C 607.491 1444.08 589.621 1431.7 571.834 1419.22 C 567.846 1416.41 564.128 1413.71 560.687 1410.21 C 560.198 1407.83 560.257 1407.17 561.496 1404.9 C 562.768 1402.56 564.074 1401.83 566.505 1401.1 C 576.489 1403.29 648.022 1458.26 661.769 1468.35 L 696.722 1363.2 C 704.264 1340.51 710.7 1315.96 721.326 1294.57 z"/>
<path transform="translate(0,0)" fill="rgb(233,196,106)" d="M 1593.34 409.924 C 1602.19 413.343 1612.85 414.82 1622.18 417.061 L 1680.69 431.268 L 1830.85 467.51 C 1861.26 474.769 1891.93 481.485 1922.12 489.578 C 1883.04 585.329 1838.66 679.053 1796.64 773.531 L 1622.79 1171.08 C 1614.13 1190.86 1522.73 1404.89 1519.85 1407.6 L 1517.74 1407.47 C 1486.08 1397.55 1453.97 1389.12 1422.25 1379.39 C 1448.18 1314.85 1477.09 1251.42 1504.62 1187.54 L 1712.26 708.129 L 1752.77 615.071 C 1758.82 601.293 1772.82 575.057 1774.77 561.361 C 1772.32 557.604 1766.59 556.537 1762.36 555.283 C 1730.6 545.855 1697 539.803 1664.7 532.215 C 1622.16 522.22 1579.84 510.872 1537.24 501.243 C 1556.01 470.861 1574.21 440.072 1593.34 409.924 z"/>
<path transform="translate(0,0)" fill="rgb(42,157,143)" d="M 1473.72 142.63 C 1484.43 151.514 1492.46 163.812 1503.26 172.829 C 1545.73 208.284 1621 250.992 1676.15 256.743 C 1668.17 271.398 1658.3 285.405 1649.57 299.673 L 1565.74 433.846 L 1436.73 644.226 A 9972.46 9972.46 0 0 1 1372.38 749.583 C 1368.31 756.308 1364.42 763.24 1359.45 769.35 C 1344.2 768.727 1328.3 763.555 1313.82 758.855 C 1270.29 744.722 1211.64 712.893 1190.01 670.507 C 1203.75 640.724 1221.01 611.875 1236.43 582.873 L 1310.64 442.084 C 1364.5 342.107 1416.8 240.91 1473.72 142.63 z"/>
<path transform="translate(0,0)" fill="rgb(38,70,83)" d="M 1477.28 230.753 C 1479.22 230.875 1480.95 230.953 1482.76 231.691 C 1493.12 235.921 1516.76 249.252 1520.87 259.456 C 1519.96 267.279 1474.56 343.361 1468.21 354.668 L 1355.01 554.042 L 1322.22 612.137 C 1315.28 624.405 1308.61 638.056 1299.64 648.929 C 1297.91 649.486 1296.61 649.816 1294.76 649.641 C 1286.86 648.895 1264.07 634.852 1259.36 628.781 C 1257.55 626.455 1256.64 623.922 1257.16 620.969 C 1259.41 608.217 1283.24 570.47 1290.45 557.54 L 1339.5 469.301 A 11583.6 11583.6 0 0 1 1422.05 320.639 C 1436.31 295.182 1450.08 269.077 1465.49 244.298 C 1468.98 238.692 1471.6 234.442 1477.28 230.753 z"/>
<path transform="translate(0,0)" fill="rgb(244,226,197)" d="M 57.5367 327.766 C 80.2832 319.752 105.74 315.676 129.295 310.082 A 13680.8 13680.8 0 0 0 289.773 272.13 L 629.024 188.507 A 18146.2 18146.2 0 0 0 939.533 111.938 A 32117.1 32117.1 0 0 0 1143.26 757.841 C 1126.6 787.889 1112.23 820.116 1093.77 849.038 C 1089.9 856.414 1086.13 863.862 1081.92 871.044 C 1066.67 899.539 1052.15 928.951 1035.31 956.52 L 1025.77 974.876 L 998.321 1026.99 C 993.233 1036.67 988.447 1047.32 982.383 1056.38 C 978.881 1062.87 975.457 1069.4 971.508 1075.63 A 3465.69 3465.69 0 0 0 941.368 1131.67 C 935.424 1142.88 928.601 1154.22 923.996 1166.06 C 920.899 1174.02 920.699 1182.48 919.189 1190.79 C 917.873 1198.03 914.786 1205.69 911.657 1212.33 L 904.576 1231.83 C 891.89 1267.33 878.741 1302.76 867.108 1338.61 C 852.123 1350 825.495 1366.88 816.726 1383.08 C 811.9 1391.99 809.308 1402.53 806.28 1412.18 C 802.332 1396.03 759.715 1257.38 755.487 1251.7 L 754.077 1251.39 L 754.063 1251.36 C 740.751 1251.59 496.905 1313.6 487.68 1318.27 L 487.477 1318.6 L 487.759 1319.67 C 487.609 1320.26 487.355 1320.82 487.311 1321.42 C 486.725 1329.42 498.351 1362.28 501.185 1371.98 A 8348.66 8348.66 0 0 0 545.679 1521.64 C 549.62 1534.79 552.621 1548.31 556.917 1561.34 C 558.062 1564.82 559.347 1567.85 561.644 1570.71 C 570.418 1572.54 747.893 1525.35 775.187 1519.51 C 774.695 1525.84 772.728 1535.26 776.855 1540.75 C 778.688 1543.19 780.963 1543.71 783.724 1544.42 C 798.37 1540.26 895.209 1462.8 915.487 1447.57 C 920.602 1431.72 922.655 1413.99 925.625 1397.6 C 927.231 1392.39 927.507 1384.54 930.94 1380.34 C 944.085 1363.71 960.888 1348.86 975.627 1333.56 C 991.503 1317.08 1007.13 1298.17 1024.67 1283.54 C 1030.6 1276.75 1036.38 1269.7 1043.07 1263.64 L 1052.33 1251.65 C 1054.43 1251.43 1056.58 1251.22 1058.64 1250.75 C 1060.12 1250.41 1061.71 1249.91 1062.92 1248.95 C 1073.14 1240.82 1106.01 1184.28 1115.18 1169.45 C 1118.63 1163.09 1122.13 1156.9 1126.13 1150.86 L 1208.56 1015.07 A 40801.2 40801.2 0 0 1 1366.2 1498.98 A 11810.2 11810.2 0 0 1 1447.86 1756.74 C 1414.8 1766.13 1381.31 1773.71 1347.93 1781.8 L 1207.06 1816.48 L 674.448 1951.28 C 637.669 1960.95 600.656 1969.77 563.979 1979.81 L 57.5367 327.766 z"/>
<path transform="translate(0,0)" fill="rgb(231,111,81)" d="M 1126.13 1150.86 C 1126.44 1150.89 1126.76 1150.93 1127.08 1150.96 C 1139.93 1151.92 1163.54 1136.7 1173.94 1148.17 C 1175.13 1149.49 1174.6 1150.28 1174.41 1151.83 C 1166.97 1160.65 1129.12 1168.27 1116.8 1169.33 C 1116.26 1169.38 1115.72 1169.41 1115.18 1169.45 C 1118.63 1163.09 1122.13 1156.9 1126.13 1150.86 z"/>
<path transform="translate(0,0)" fill="rgb(231,111,81)" d="M 911.657 1212.33 L 904.576 1231.83 C 891.416 1233.58 878.193 1239.25 865.169 1240.26 C 861.772 1240.52 860.283 1239.41 857.879 1237.2 C 856.892 1234.51 856.571 1233.43 857.236 1230.52 C 863.628 1220.56 898.147 1216.67 910.375 1212.75 L 911.657 1212.33 z"/>
<path transform="translate(0,0)" fill="rgb(231,111,81)" d="M 930.94 1380.34 C 956.789 1376.05 982.102 1369.44 1007.52 1363.17 C 1017.71 1360.66 1028.2 1357.32 1038.52 1355.62 C 1041.02 1355.21 1044.14 1354.53 1046.38 1356.07 C 1048.62 1357.61 1049.82 1359.28 1050.16 1362.01 C 1050.48 1364.58 1049.72 1366.29 1047.95 1368.09 C 1042.41 1373.71 940.521 1395.78 925.625 1397.6 C 927.231 1392.39 927.507 1384.54 930.94 1380.34 z"/>
<path transform="translate(0,0)" fill="rgb(231,111,81)" d="M 766.872 458.275 C 767.877 458.438 769.061 458.568 769.985 459.021 C 772.285 460.148 773.394 462.54 774.452 464.698 C 774.368 466.351 774.631 467.441 773.599 468.841 C 771.173 472.134 766.805 473.811 763.046 475.056 C 747.045 480.356 729.384 482.968 712.946 486.907 C 689.992 492.407 667.344 499.089 644.185 503.799 C 641.364 502.363 639.722 501.341 638.134 498.496 C 636.888 496.263 637.127 494.667 637.656 492.302 C 639.161 490.293 640.407 489.505 642.786 488.644 C 658.095 483.107 675.58 480.368 691.488 476.489 C 716.513 470.386 741.631 463.311 766.872 458.275 z"/>
<path transform="translate(0,0)" fill="rgb(231,111,81)" d="M 1143.86 1678.3 C 1146.35 1677.97 1148.38 1677.71 1150.79 1678.62 C 1153.38 1679.6 1154.84 1681.3 1155.99 1683.76 C 1156.02 1685.37 1155.94 1686.53 1155.03 1687.95 C 1153.12 1690.95 1149.25 1692.19 1146.08 1693.34 C 1133.18 1698.02 1118.68 1700.52 1105.34 1703.91 A 6271.52 6271.52 0 0 1 1019.18 1725.39 C 1017.98 1725.5 1016.48 1725.72 1015.26 1725.49 C 1012.37 1724.94 1011.09 1723.49 1009.33 1721.31 C 1008.7 1718.43 1008.67 1716.88 1010.11 1714.22 C 1011.51 1711.62 1014.45 1709.59 1017.16 1708.59 C 1028.06 1704.59 1047.76 1701.46 1060 1698.52 C 1087.91 1691.8 1115.73 1684.02 1143.86 1678.3 z"/>
<path transform="translate(0,0)" fill="rgb(231,111,81)" d="M 866.233 756.251 C 868.279 755.946 869.321 756.155 871.313 756.561 C 873.082 757.835 874.243 758.605 875.167 760.693 C 876.029 762.642 876.36 765.364 875.299 767.325 C 874.001 769.725 870.508 771.227 868.042 772.085 C 862.074 774.159 855.547 774.81 849.392 776.204 C 841.659 777.954 833.979 780.254 826.255 782.124 C 796.056 789.435 765.873 797.117 735.522 803.757 C 734.471 803.635 733.504 803.57 732.484 803.214 C 730.14 802.394 727.977 800.317 727.084 797.993 C 726.04 795.275 726.716 793.864 727.646 791.346 C 734.171 785.229 848.142 760.346 866.233 756.251 z"/>
<path transform="translate(0,0)" fill="rgb(231,111,81)" d="M 982.383 1056.38 C 978.881 1062.87 975.457 1069.4 971.508 1075.63 C 944.853 1077.23 838.639 1113.23 822.564 1107.72 C 820.65 1107.06 819.712 1106.43 818.938 1104.49 C 817.983 1102.1 818.708 1099.46 819.801 1097.31 C 827.777 1090.56 961.104 1061.91 982.383 1056.38 z"/>
<path transform="translate(0,0)" fill="rgb(231,111,81)" d="M 1043.07 1263.64 C 1072.1 1257.24 1101.27 1250.72 1130.17 1243.76 C 1148.11 1239.44 1166.37 1233.85 1184.58 1230.92 C 1188.66 1230.26 1193.03 1229.49 1196.97 1231.03 C 1198.52 1232.72 1199.51 1233.57 1199.38 1236.09 C 1199.2 1239.45 1196.97 1242.43 1194.17 1244.11 C 1188.73 1247.37 1179.59 1247.86 1173.36 1249.39 C 1148.61 1255.47 1123.78 1261.02 1098.97 1266.84 C 1079.98 1271.29 1061.2 1276.9 1042.14 1281 C 1036.32 1282.25 1030.62 1283.28 1024.67 1283.54 C 1030.6 1276.75 1036.38 1269.7 1043.07 1263.64 z"/>
<path transform="translate(0,0)" fill="rgb(231,111,81)" d="M 1025.77 974.876 C 1021.04 973.49 998.75 980.788 992.154 982.395 L 875.47 1010.34 C 853.08 1015.81 830.293 1022.57 807.73 1026.99 C 804.604 1027.6 801.197 1027.78 798.089 1026.94 C 795.069 1026.11 793.863 1024.73 792.407 1022.07 C 792.573 1019.33 793.124 1018.07 795.054 1016.05 C 797.647 1013.34 802.182 1011.71 805.708 1010.73 C 822.02 1006.17 838.94 1002.81 855.427 998.813 A 7112.51 7112.51 0 0 1 956.602 974.232 L 1004.16 962.845 C 1014.26 960.427 1024.94 957.038 1035.31 956.52 L 1025.77 974.876 z"/>
<path transform="translate(0,0)" fill="rgb(231,111,81)" d="M 883.368 249.138 C 886.662 248.647 888.967 248.128 892.131 249.571 C 894.294 251.692 895.822 253.096 896.683 256.119 C 896.579 257.71 896.42 258.694 895.397 260.014 C 892.811 263.352 888.15 265.079 884.244 266.219 C 872.119 269.756 859.35 271.536 847.05 274.444 L 784.367 289.619 A 11567.2 11567.2 0 0 1 595.174 335.118 C 592.413 335.657 589.612 336.311 586.908 335.109 C 584.886 334.21 582.726 332.306 582.146 330.084 C 581.582 327.922 582.025 325.729 583.398 323.97 C 584.972 321.952 587.424 320.926 589.805 320.251 C 615.515 312.963 642.031 307.757 668.014 301.425 L 883.368 249.138 z"/>
<path transform="translate(0,0)" fill="rgb(231,111,81)" d="M 915.913 332.337 C 916.659 332.457 917.275 332.518 917.995 332.845 C 920.235 333.861 922.485 335.467 923.035 338.046 C 923.54 340.414 923.318 342.532 921.741 344.458 C 919.842 346.776 915.665 348.054 912.925 348.879 C 893.043 354.864 871.977 358.903 851.762 363.845 A 11766.9 11766.9 0 0 1 730.551 393.211 C 694.808 401.638 650.467 415.164 615.238 419.718 C 612.599 418.457 610.137 417.317 608.862 414.47 C 607.944 412.421 608.253 410.337 609.564 408.533 C 610.873 406.73 613.453 405.355 615.499 404.671 C 627.862 400.545 641.449 398.164 654.157 395.049 L 735.28 375.352 A 8151.93 8151.93 0 0 1 859.181 345.466 C 878.04 341.04 896.888 335.973 915.913 332.337 z"/>
<path transform="translate(0,0)" fill="rgb(231,111,81)" d="M 1010.59 632.232 C 1011.91 632.091 1013.52 632.349 1014.85 632.438 C 1017.17 633.758 1019.19 634.752 1020.09 637.505 C 1020.86 639.878 1020.42 641.589 1019.5 643.794 C 1016.47 646.046 1013.29 647.356 1009.7 648.471 C 986.145 655.794 961.025 659.977 937.034 665.886 C 861.98 684.37 786.124 700.982 711.422 720.756 C 710.285 720.869 709.124 721.04 707.977 720.883 C 705.357 720.523 703.007 718.848 701.648 716.606 C 700.283 714.353 700.338 712.572 700.933 710.13 C 702.297 708.201 703.339 706.943 705.614 706.096 C 715.764 702.315 727.114 700.131 737.635 697.514 C 761.011 691.698 784.519 686.43 807.937 680.783 C 875.417 664.514 942.846 647.309 1010.59 632.232 z"/>
<path transform="translate(0,0)" fill="rgb(231,111,81)" d="M 980.257 547.179 C 982.479 546.891 984.765 546.545 987.008 546.528 C 989.567 546.51 992.067 547.844 993.597 549.893 C 995.354 552.247 995.005 553.2 994.489 555.842 C 991.62 559.454 988.575 561.126 984.229 562.645 C 962.527 570.228 938.428 573.317 916.153 579.166 A 13282 13282 0 0 1 689.749 634.341 C 686.939 635.074 682.422 636.625 679.513 635.933 C 677.122 635.365 675.491 634.193 674.356 631.952 C 673.076 629.425 673.45 627.108 674.139 624.52 C 676.276 621.328 680.358 620.312 683.868 619.25 C 720.295 608.233 758.731 601.03 795.785 592.306 A 11199.5 11199.5 0 0 0 980.257 547.179 z"/>
<path transform="translate(0,0)" fill="rgb(231,111,81)" d="M 1260.54 1466.15 C 1261.72 1466.07 1263.35 1465.83 1264.55 1466 C 1267.33 1466.4 1268.62 1467 1270.4 1469.2 C 1272.22 1471.46 1272.27 1472.94 1271.69 1475.62 C 1268.62 1479.25 1265.11 1481.11 1260.65 1482.69 C 1250.32 1486.35 1238.79 1488.38 1228.11 1490.97 L 1169.33 1505.42 A 7669.07 7669.07 0 0 1 967.312 1554.83 C 966.385 1554.91 965.456 1555.01 964.525 1555.02 C 961.515 1555.03 957.834 1552.47 956.122 1550.02 C 954.724 1548.03 955.276 1547.12 955.841 1544.99 C 959.335 1541.01 963.221 1539.29 968.229 1537.69 C 978.318 1534.48 989.334 1532.69 999.686 1530.36 A 2673.33 2673.33 0 0 0 1052.8 1517.79 L 1260.54 1466.15 z"/>
<path transform="translate(0,0)" fill="rgb(231,111,81)" d="M 1081.92 871.044 C 1079.26 870.308 1077.24 870.751 1074.55 871.291 C 1046.96 876.834 1019.47 884.443 992.1 891.051 L 836.997 928.479 C 823.886 931.662 788.714 942.156 777.72 942.379 C 775.018 942.434 772.162 942.237 770.315 940 C 768.539 937.851 767.999 935.922 768.109 933.26 C 770.81 928.937 774.662 927.213 779.394 925.622 C 788.375 922.601 798.252 920.89 807.499 918.769 A 3895.59 3895.59 0 0 0 853.034 908.06 L 999.236 872.913 C 1030.72 865.384 1062.92 858.822 1093.77 849.038 C 1089.9 856.414 1086.13 863.862 1081.92 871.044 z"/>
<path transform="translate(0,0)" fill="rgb(231,111,81)" d="M 1283.54 1553.21 C 1286.76 1552.81 1289.04 1552.42 1292.14 1553.73 C 1293.79 1555.35 1295.35 1556.66 1295.99 1558.97 C 1296.39 1560.41 1295.95 1561.78 1295.08 1562.98 C 1293 1565.84 1288.26 1567.51 1285.04 1568.51 C 1262.52 1575.53 1238.51 1579.99 1215.58 1585.79 C 1140.13 1604.86 1063.78 1621.36 988.717 1641.79 C 987.069 1641.95 985.111 1642.26 983.472 1642.06 C 981.287 1641.79 978.47 1639.62 977.399 1637.66 C 976.3 1635.65 975.899 1633.86 977.092 1631.77 C 979.202 1628.07 984.54 1625.82 988.346 1624.51 C 1009.78 1617.12 1036.1 1613.77 1058.48 1607.88 A 7391.96 7391.96 0 0 1 1283.54 1553.21 z"/>
<path transform="translate(0,0)" fill="rgb(38,70,83)" d="M 564.051 639.246 C 564.94 639.562 565.101 639.542 565.933 640.314 C 567.724 641.975 568.546 644.146 569.316 646.408 C 574.708 662.253 578.832 678.806 583.661 694.859 L 613.167 791.95 L 630.939 850.618 C 634.641 862.868 639.155 875.434 641.11 888.087 C 639.805 890.12 638.497 890.899 636.211 891.633 C 627.004 894.586 616.998 896.581 607.587 898.961 A 5686.62 5686.62 0 0 1 539.904 915.558 L 378.151 956.445 L 375.704 955.669 C 373.002 953.155 372.015 950.179 370.846 946.752 C 364.383 927.804 359.334 908.225 353.762 888.989 L 326.963 797.82 L 310.547 743.136 C 306.971 731.297 301.685 717.986 300.806 705.642 C 306.785 700.306 535.933 645.677 564.051 639.246 z"/>
<path transform="translate(0,0)" fill="rgb(244,162,97)" d="M 559.568 648.232 L 560.267 648.288 C 560.774 648.735 561.393 649.081 561.788 649.63 C 564.833 653.86 573.812 689.318 576.348 697.726 L 632.56 884.106 A 16078.8 16078.8 0 0 1 381.963 946.805 L 380.967 946.769 C 378.5 945.376 377.817 942.598 376.922 940.069 C 368.534 916.363 362.603 890.92 355.512 866.753 A 8558.1 8558.1 0 0 0 308.915 709.947 L 486.973 666.046 C 511.154 660.211 535.231 653.327 559.568 648.232 z"/>
<path transform="translate(0,0)" fill="rgb(38,70,83)" d="M 537.039 681.717 C 538.061 681.809 538.498 681.824 539.582 682.055 C 542.542 682.688 543.373 683.289 545.098 685.721 C 545.557 689.08 544.905 691.866 543.904 695.089 C 538.153 713.612 529.454 731.846 522.556 750.037 L 496.615 817.896 C 490.941 832.659 486.123 849.375 477.414 862.6 L 475.98 862.643 L 477.15 862.756 L 476.247 863.644 C 468.874 861.884 392.613 806.13 380.514 797.633 C 376.468 794.817 372.611 791.768 368.723 788.74 C 370.291 785.299 372.094 781.96 373.824 778.597 C 386.737 783.978 399.071 794.199 410.563 802.188 C 430.989 816.388 451.666 830.503 471.243 845.86 C 478.582 830.5 484.003 813.713 489.959 797.758 A 3076.64 3076.64 0 0 1 520.09 718.992 C 524.701 707.356 529.062 691.336 537.039 681.717 z"/>
<path transform="translate(0,0)" fill="rgb(38,70,83)" d="M 844.115 1555.23 C 846.136 1554.85 847.444 1554.75 849.462 1555.17 C 851.639 1558.03 852.734 1561.56 853.808 1564.96 C 866.846 1606.24 878.265 1648.3 890.685 1689.8 C 900.629 1723.03 911.883 1756.12 921.102 1789.52 C 922.095 1793.12 922.952 1796.36 922.682 1800.13 C 920.571 1803.33 916.164 1804.53 912.67 1805.67 C 882.224 1815.56 844.936 1823.15 813.349 1831.19 L 658.542 1871.81 C 658.469 1871.81 658.394 1871.82 658.322 1871.8 C 655.996 1871.42 654.565 1871.51 653.243 1869.34 C 649.131 1862.56 633.077 1802.89 629.196 1790.01 C 614.207 1740.25 597.134 1690.8 583.316 1640.75 C 581.958 1635.83 579.321 1628.92 580.795 1623.92 C 582.789 1621.62 584.309 1621.07 587.214 1620.26 C 637.954 1606.2 690.045 1595.34 741.165 1582.56 C 775.554 1573.95 809.531 1562.81 844.115 1555.23 z"/>
<path transform="translate(0,0)" fill="rgb(244,162,97)" d="M 843.352 1564.15 L 844.304 1564.41 C 849.046 1571.75 862.234 1623.74 866.09 1636.78 L 914.098 1796.36 C 891.117 1804.47 866.036 1809.3 842.431 1815.45 C 781.672 1831.3 719.819 1845.61 659.776 1863.88 C 655.788 1851.72 652.726 1839.26 649.015 1827.01 L 620.459 1734.05 C 609.646 1698.81 597.292 1663.89 587.676 1628.3 C 610.709 1620.18 642.423 1614.7 666.843 1608.68 C 725.793 1594.13 784.691 1579.84 843.352 1564.15 z"/>
<path transform="translate(0,0)" fill="rgb(38,70,83)" d="M 811.329 1594.75 C 815.389 1594.78 818.016 1594.81 821.206 1597.57 C 823.145 1600.98 823.084 1604.05 822.264 1607.8 C 820.771 1614.65 817.41 1621.37 815.056 1627.97 L 799.043 1673.67 C 787.168 1707.86 777.138 1742.84 764.746 1776.8 C 763.543 1780.09 761.802 1785.8 758.744 1787.69 C 756.462 1787.79 755.058 1787.32 753.097 1786.25 C 743.215 1780.87 733.776 1773.2 724.481 1766.78 A 3411.14 3411.14 0 0 0 665.354 1726.51 C 662.197 1724.39 658.324 1722.17 655.74 1719.38 C 653.832 1717.32 652.666 1713.91 653.08 1711.12 C 653.317 1709.53 653.495 1709.96 655.111 1708.97 C 659.218 1708.83 662.222 1709.75 665.915 1711.56 C 675.019 1716.03 683.651 1722.72 692.074 1728.36 C 712.45 1742.01 732.321 1755.93 751.817 1770.81 C 767.344 1726.12 780.857 1680.54 796.052 1635.68 C 799.792 1624.64 804.716 1603.55 811.329 1594.75 z"/>
<path transform="translate(0,0)" fill="rgb(38,70,83)" d="M 657.053 943.2 L 659.705 944.591 C 664.711 952.281 735.272 1183.28 736.09 1196.59 C 734.39 1198.58 732.546 1199.02 730.055 1199.77 C 721.171 1202.47 711.75 1204.01 702.725 1206.28 A 3666.05 3666.05 0 0 1 635.362 1223.03 L 473.21 1263 C 471.405 1263.13 470.271 1263.31 468.583 1262.49 C 466.878 1261.66 465.957 1259.46 465.289 1257.76 C 460.569 1245.79 457.223 1232.92 453.523 1220.58 L 430.814 1142.38 C 419.012 1101.97 404.162 1059.51 394.277 1018.88 C 393.645 1016.28 392.87 1013.7 393.956 1011.14 C 396.051 1009.03 398.039 1008.4 400.877 1007.52 C 426.089 999.739 456.356 993.579 482.345 986.921 A 11474.6 11474.6 0 0 1 657.053 943.2 z"/>
<path transform="translate(0,0)" fill="rgb(244,162,97)" d="M 651.465 952.151 C 652.5 952.079 653.185 952.481 654.135 952.853 C 657.742 959.61 659.332 967.629 661.638 974.932 A 3115.32 3115.32 0 0 1 678.902 1031.52 L 727.911 1191.68 C 707.946 1197.45 687.375 1201.68 667.228 1206.85 L 478.246 1254.33 C 476.3 1254.92 475.264 1255.19 473.27 1254.71 C 465.704 1242.6 456.674 1201.8 451.957 1185.86 A 12699.3 12699.3 0 0 1 401.776 1015.49 C 412.035 1012.14 422.951 1009.91 433.422 1007.25 L 494.218 992.009 L 651.465 952.151 z"/>
<path transform="translate(0,0)" fill="rgb(38,70,83)" d="M 631.147 985.764 C 633.064 986.146 634.89 986.789 636.75 987.382 C 637.953 988.725 638.713 989.04 638.882 990.921 C 639.124 993.611 638.188 996.456 637.365 998.976 C 633.472 1010.91 628.448 1022.68 624.065 1034.47 L 603.687 1090.52 C 595.199 1113.57 587.962 1137.39 578.629 1160.09 C 576.873 1164.36 575.052 1168.8 572.033 1172.34 C 562.811 1169.97 488.876 1116.86 474.48 1106.57 C 471.37 1104.18 467.734 1101.79 464.975 1099.03 C 462.848 1096.9 463.233 1095.43 463.437 1092.6 C 464.341 1091.52 464.7 1090.58 466.166 1090.26 C 469.723 1089.48 473.684 1091.24 476.742 1092.92 C 488.837 1099.55 500.304 1108.91 511.606 1116.82 A 2380.42 2380.42 0 0 0 566.877 1154.38 L 602.51 1056.55 C 610.229 1035.2 618.766 1004.18 631.147 985.764 z"/>
<path transform="translate(0,0)" fill="rgb(38,70,83)" d="M 470.493 330.211 C 472.88 330.265 472.507 330.259 474.278 331.414 C 478.344 338.074 550.021 575.538 550.713 583.514 C 547.878 586.995 541.499 588.738 537.261 590.044 C 506.821 599.431 474.602 605.601 443.598 613.157 L 288.665 651.324 L 283.487 651.14 C 280.789 649.343 280.547 648.32 279.478 645.244 C 275.023 632.425 271.792 618.84 267.937 605.807 L 240.077 510.442 C 230.015 476.159 216.906 440.785 208.615 406.292 C 207.765 402.757 207.007 399.811 208.693 396.42 C 210.965 394.258 214.41 393.488 217.374 392.634 C 256.02 381.504 295.991 373.105 335.036 363.319 C 379.945 352.062 425.115 339.253 470.493 330.211 z"/>
<path transform="translate(0,0)" fill="rgb(244,162,97)" d="M 465.951 339.27 L 467.708 339.262 C 469.716 340.788 470.37 342.773 471.187 345.086 C 472.769 349.567 473.509 354.294 474.976 358.809 A 2000.63 2000.63 0 0 1 491.657 413.073 A 11807.7 11807.7 0 0 0 542.267 580.588 C 499.974 592.182 457.051 601.828 414.438 612.179 L 291.219 643.042 L 288.52 643.336 C 286.367 641.424 285.737 639.38 284.872 636.719 C 283.278 631.818 282.755 626.606 281.224 621.682 C 273.324 596.278 266.102 570.683 258.624 545.145 L 215.483 401.575 C 248.202 392.524 281.517 384.923 314.426 376.512 C 364.781 363.642 415.156 350.293 465.951 339.27 z"/>
<path transform="translate(0,0)" fill="rgb(38,70,83)" d="M 441.277 371.323 C 443.294 371.397 446.266 371.696 448.052 372.78 C 449.214 373.485 450.716 374.471 451.047 375.888 C 451.65 378.463 450.599 381.307 449.781 383.746 C 442.138 406.534 433.07 428.931 425.147 451.642 C 418.249 471.412 395.154 547.992 387.12 558.892 L 386.23 557.803 L 385.741 559.571 L 385.744 558.459 C 374.614 552.991 364.234 545.621 353.665 539.136 A 5836.84 5836.84 0 0 1 288.68 498.879 C 285.056 496.643 280.97 494.616 278.219 491.313 C 277.552 488.37 277.564 488.193 278.727 485.409 C 280.107 484.264 281.26 483.18 283.116 482.903 C 290.971 481.732 370.633 534.133 381.751 541.142 A 2314.1 2314.1 0 0 1 419.626 427.502 C 426.42 408.713 433.078 389.54 441.277 371.323 z"/>
</svg>