<svg version="1.1" xmlns="http://www.w3.org/2000/svg" style="display: block;" viewBox="0 0 2048 2048" width="1024" height="1024">
<defs>
	<linearGradient id="Gradient1" gradientUnits="userSpaceOnUse" x1="1777.02" y1="1682.49" x2="1752.78" y2="1620.94">
		<stop class="stop0" offset="0" stop-opacity="1" stop-color="rgb(255,213,95)"/>
		<stop class="stop1" offset="1" stop-opacity="1" stop-color="rgb(255,145,121)"/>
	</linearGradient>
</defs>
<path transform="translate(0,0)" fill="rgb(38,70,83)" d="M 0 0 L 1431.66 0 L 1443.42 0 L 2048 0 L 2048 329.548 L 2048 409.998 L 2048 566.33 L 2048 639.459 L 2048 774.978 L 2048 877.545 L 2048 887.754 L 2048 1697.62 L 2048 1804.42 L 2048 1819.04 L 2048 2048 L 1343.04 2048 L 1105.62 2048 L 852.053 2048 L 710.446 2048 L 702.463 2048 L 0 2048 L 0 284.547 L 0 0 z"/>
<path transform="translate(0,0)" fill="rgb(233,196,106)" d="M 1156.77 1115.24 C 1164.27 1114.54 1171.89 1115.18 1178.68 1118.66 A 29.9968 29.9968 0 0 1 1193.69 1136.48 A 30.8069 30.8069 0 0 1 1191.14 1160.81 C 1185.93 1170.12 1177.98 1173.93 1168.24 1176.85 C 1160.19 1177.72 1152.78 1176.68 1145.68 1172.55 A 31.6229 31.6229 0 0 1 1130.88 1152.58 C 1128.9 1144.28 1130.01 1135.16 1134.8 1127.99 C 1140.15 1120 1147.79 1117.09 1156.77 1115.24 z"/>
<path transform="translate(0,0)" fill="rgb(233,196,106)" d="M 702.463 2048 C 710.441 2019.8 725.063 1994.45 744.247 1972.4 C 760.233 1954.03 779.884 1939.45 796.641 1921.87 C 823.267 1893.94 843.898 1854.9 823.031 1817.47 C 809.98 1794.05 787.039 1783.63 762.184 1776.77 C 726.637 1766.97 674.713 1761.15 654.039 1726.12 C 649.51 1718.45 648.043 1710.08 650.358 1701.41 C 652.582 1693.1 664.726 1676.71 661.145 1668.85 C 657.009 1659.78 621.854 1647.73 611.836 1641.94 C 601.432 1635.92 591.331 1628.13 583.75 1618.74 C 581.38 1615.8 577.853 1611.55 578.426 1607.55 C 580.534 1606.53 580.495 1606.56 582.605 1607.34 C 588.377 1609.48 599.217 1623.89 606.598 1629.14 C 622.805 1640.66 661.616 1649.88 668.297 1667.22 C 670.562 1673.1 669.646 1679.44 666.999 1685.03 C 661.655 1696.33 655.093 1704.83 659.506 1717.88 C 664.463 1732.53 681.555 1742.29 694.832 1748.42 C 742.352 1770.32 814.089 1765.03 835.418 1823.38 C 843.585 1845.72 839.672 1869.61 829.571 1890.64 C 811.774 1927.68 776.05 1949.47 749.535 1979.44 C 731.75 1999.54 719.637 2022.9 710.446 2048 L 702.463 2048 z"/>
<path transform="translate(0,0)" fill="rgb(233,196,106)" d="M 288.723 1606.07 C 294.718 1608.35 306.937 1640.25 311.968 1647.93 C 303.381 1670.98 276.238 1684.7 255.047 1694.32 C 235.26 1703.29 197.187 1716.35 175.757 1707.89 C 169.03 1705.23 165.938 1700.91 163.308 1694.35 C 159.93 1685.93 157.891 1676.52 155.415 1667.78 C 161.618 1667.87 167.954 1668.32 174.068 1667.09 C 181.652 1667.21 190.411 1664.75 197.712 1662.78 C 229.775 1654.13 271.451 1636.35 288.723 1606.07 z"/>
<path transform="translate(0,0)" fill="rgb(233,196,106)" d="M 633.63 1534.9 C 636.363 1547.39 643.178 1565.57 635.656 1577.14 C 625.826 1592.27 602.308 1597.33 585.777 1600.36 C 558.599 1605.34 517.09 1608.07 492.913 1591.93 C 488.695 1589.11 486.249 1585.91 483.569 1581.67 L 483.144 1581.01 C 482.781 1568.06 482.659 1555.26 484.379 1542.39 C 485.361 1542.74 486.342 1543.09 487.332 1543.42 C 533.249 1558.52 590.176 1556.57 633.63 1534.9 z"/>
<path transform="translate(0,0)" fill="rgb(233,196,106)" d="M 493.631 1502.92 C 491.94 1504.82 490.52 1506.48 488.12 1507.46 C 481.577 1510.16 432.365 1513.9 419.842 1515.76 C 378.204 1521.96 336.562 1530.93 295.513 1540.3 C 267.32 1546.73 238.663 1553.03 211.152 1561.94 C 202.23 1564.83 192.547 1567.61 184.225 1571.93 C 178.535 1574.88 173.055 1580.82 167.195 1582.62 L 166.85 1580.61 C 167.474 1579.42 168.058 1578.33 168.907 1577.28 C 179.004 1564.82 198.181 1555.88 212.46 1548.9 C 280.33 1515.7 386.083 1481.76 460.631 1471.88 C 461.168 1472.15 461.701 1472.42 462.243 1472.68 C 473.059 1477.81 488.733 1477.61 494.069 1490.56 C 495.598 1494.26 494.984 1496.77 494.165 1500.46 L 493.839 1502 L 493.631 1502.92 z"/>
<path transform="translate(0,0)" fill="rgb(111,225,167)" d="M 460.631 1471.88 C 501.121 1463.71 557.451 1448.6 594.932 1473.24 C 614.355 1486.01 625.151 1506.4 631.101 1528.39 C 598.243 1549.89 541.25 1550.26 503.989 1542.6 C 498.008 1541.37 491.558 1539.6 486.583 1535.98 L 485.541 1534.06 C 488.955 1524.52 491.394 1512.9 493.631 1502.92 L 493.839 1502 L 494.165 1500.46 C 494.984 1496.77 495.598 1494.26 494.069 1490.56 C 488.733 1477.61 473.059 1477.81 462.243 1472.68 C 461.701 1472.42 461.168 1472.15 460.631 1471.88 z"/>
<path transform="translate(0,0)" fill="rgb(233,196,106)" d="M 1132.43 1187.99 L 1191.91 1188.12 L 1191.98 1374.05 L 1132.9 1374.11 A 16619.9 16619.9 0 0 0 1132.43 1187.99 z"/>
<path transform="translate(0,0)" fill="rgb(233,196,106)" d="M 265.262 1722.81 C 274.089 1731.99 284.479 1754.84 291.281 1766.67 L 336.922 1845.17 C 346.879 1862.25 356.382 1879.87 367.561 1896.18 C 362.252 1923.32 358.172 1950.98 351.419 1977.79 L 350.695 1976.78 L 350.875 1978.79 L 348.131 1975.37 C 339.823 1961.42 332.42 1946.8 324.64 1932.54 C 296.324 1880.64 269.761 1827.26 239.872 1776.3 C 248.913 1758.66 257.453 1741.04 265.262 1722.81 z"/>
<path transform="translate(0,0)" fill="rgb(111,225,167)" d="M 164.416 1662.66 C 161.195 1662.52 158.246 1662.19 155.082 1661.56 C 153.442 1659.43 153.273 1657.41 153.022 1654.8 C 150.962 1633.43 154.775 1608.5 168.866 1591.55 C 174.623 1584.63 181.847 1579.43 189.956 1575.59 C 207.862 1567.1 228.695 1562.72 247.81 1557.7 C 324.59 1537.5 404.822 1521.02 483.959 1514.3 L 482.14 1524.41 C 412.366 1534.1 337.095 1561.68 273.862 1592.41 L 285.998 1603.17 C 279.596 1610.63 273.259 1617.79 265.556 1623.96 C 240.546 1644.01 202.894 1659.88 170.79 1662.3 A 190.695 190.695 0 0 1 164.416 1662.66 z"/>
<path transform="translate(0,0)" fill="rgb(233,196,106)" d="M 1498.87 870.336 C 1499.78 870.183 1500 870.128 1501.04 870.063 C 1506.02 869.756 1512.49 869.392 1516.51 872.709 C 1519.38 883.386 1514.66 923.582 1513.89 937.577 C 1505.8 936.099 1497.62 934.844 1489.37 935.392 C 1479.38 936.057 1469.96 939.403 1463.36 947.205 C 1446.03 967.674 1454.26 1039.36 1455.89 1066.1 L 1397.22 1066.16 C 1396.16 1064.9 1396.1 1063.33 1396.04 1061.71 C 1395.2 1041.12 1396.1 1020.14 1396.1 999.502 L 1396 872.765 A 2607.31 2607.31 0 0 1 1444.66 872.436 C 1448.14 879.545 1451.33 887.173 1455.66 893.791 C 1468.39 880.295 1480.54 873.361 1498.87 870.336 z"/>
<path transform="translate(0,0)" fill="rgb(233,196,106)" d="M 783.327 1187.39 A 3441.05 3441.05 0 0 0 844.595 1187.81 C 858.537 1209.94 869.991 1234.45 882.264 1257.57 C 893.585 1234.24 905.553 1211.2 917.07 1187.97 L 978.424 1188.04 C 972.797 1201.9 965.174 1215.07 958.085 1228.23 L 924.599 1289.59 A 3859.28 3859.28 0 0 1 877.021 1375.28 C 856.299 1374.93 835.553 1375.05 814.827 1374.98 C 825.002 1353.26 838.341 1332.88 850.098 1311.99 A 4745.39 4745.39 0 0 0 807.32 1233.78 C 800.705 1221.79 786.315 1199.88 783.327 1187.39 z"/>
<path transform="translate(0,0)" fill="rgb(233,196,106)" d="M 1070.07 1137.86 L 1071.58 1138.58 C 1073.64 1154.28 1071.95 1172.06 1071.87 1187.99 L 1108.82 1187.84 L 1108.58 1236.03 L 1071.25 1235.92 C 1071.3 1250.38 1068.28 1310.48 1076.85 1318.71 C 1082.04 1323.69 1095.51 1320.38 1101.73 1319.47 C 1102.67 1336.61 1105.67 1353.99 1109.51 1370.69 C 1094.89 1375.17 1081.34 1378.93 1065.93 1378.54 C 1053.79 1377.23 1042.2 1372.49 1033.42 1363.86 C 1011.39 1342.2 1012.8 1309.36 1012.7 1280.92 L 1012.59 1235.85 L 985.637 1236.06 L 985.742 1187.92 L 1009.45 1187.92 C 1009.67 1175.01 1009.22 1162.02 1009.06 1149.1 C 1031.9 1149.05 1049.53 1148.41 1070.07 1137.86 z"/>
<path transform="translate(0,0)" fill="rgb(233,196,106)" d="M 935.445 533.432 L 936.752 533.99 C 934.311 549.12 926.54 563.068 924.077 578.658 A 3009.24 3009.24 0 0 1 963.224 578.791 C 961.784 597.233 961.913 615.606 961.944 634.085 L 922.248 634.001 C 922.304 651.446 919.737 687.848 922.681 702.879 C 923.793 708.56 926.386 714.102 931.505 717.197 C 940.086 722.386 950.09 719.677 959.163 717.607 L 958.942 769.281 C 944.815 774.46 933.115 776.159 918.068 775.921 C 904.109 774.244 891.381 770.33 881.247 759.963 C 861.165 739.42 864.8 708.995 864.956 682.726 L 865.06 634.001 L 836.038 634.054 L 836.018 579.567 L 868.013 579.229 C 868.885 567.197 868.91 555.129 869.076 543.071 C 891.034 539.475 913.376 536.325 935.445 533.432 z"/>
<path transform="translate(0,0)" fill="rgb(233,196,106)" d="M 1618.55 826.176 L 1620.2 826.343 C 1622.75 832.017 1619.12 863.941 1618.56 872.209 C 1630.46 870.143 1643 869.562 1655.06 868.739 L 1655.04 926.151 C 1642.72 926.174 1630.39 925.905 1618.08 925.757 C 1618.28 946.401 1613.8 988.049 1618.17 1005.79 C 1618.78 1008.25 1619.61 1010.88 1622.07 1012.04 C 1629.98 1015.77 1642.33 1010.85 1650.08 1008.22 C 1652.78 1024.25 1657.41 1040.22 1661.75 1055.88 A 138.299 138.299 0 0 1 1622.23 1069.83 C 1618.46 1070.24 1614.59 1070.33 1610.8 1070.33 C 1597.31 1070.33 1583.59 1065.67 1574.07 1055.86 C 1567.26 1048.84 1562.8 1039.81 1560.5 1030.35 C 1555.21 1008.56 1557.99 951.134 1558.08 925.732 L 1532.36 926.24 C 1532.14 908.067 1532.3 889.877 1532.3 871.702 L 1559 871.673 L 1558.9 835.731 C 1579.28 834.335 1598.69 830.687 1618.55 826.176 z"/>
<path transform="translate(0,0)" fill="rgb(233,196,106)" d="M 551.984 875.903 L 611.047 875.86 L 610.879 939.974 C 610.849 953.368 609.68 967.908 612.15 981.088 C 613.645 989.068 616.797 997.271 622.259 1003.37 C 627.052 1008.73 633.307 1011.66 640.492 1011.88 C 648.138 1012.11 655.343 1009.41 660.715 1003.92 C 666.082 998.446 669.056 991.307 670.712 983.921 C 674.274 968.029 672.831 950.284 672.759 934.044 L 672.511 876.014 L 731.065 875.892 L 731.166 931.702 L 731.466 964.512 C 731.506 993.943 725.208 1024.11 703.57 1045.55 C 687.109 1061.87 664.654 1069.57 641.709 1069.46 C 618.19 1069.36 595.113 1061.28 578.439 1044.33 C 550.045 1015.45 551.909 976.147 551.918 938.727 L 551.984 875.903 z"/>
<path transform="translate(0,0)" fill="rgb(233,196,106)" d="M 689.842 1184.29 C 692.609 1183.99 695.335 1183.86 698.116 1183.85 C 717.719 1183.71 735.147 1189.85 749.158 1203.85 C 777.961 1232.63 775.007 1271.15 775.009 1308.59 L 774.962 1374.77 A 4533.53 4533.53 0 0 0 717.856 1374.43 C 717.896 1352.08 720.676 1281.47 714.904 1264.02 C 712.495 1256.73 708.002 1249.5 700.898 1246.05 C 693.505 1242.45 685.808 1243.9 678.402 1246.54 A 44.7594 44.7594 0 0 0 670.33 1252.81 C 665.989 1257.12 661.606 1262.22 659.857 1268.19 C 656.973 1278.02 658.394 1357.08 658.299 1374.28 L 600.019 1374.35 L 600.004 1195.35 A 2764.74 2764.74 0 0 1 648.868 1194.71 C 649.237 1199.1 649.952 1203.46 650.579 1207.82 C 662.812 1195.53 672.237 1187.54 689.842 1184.29 z"/>
<path transform="translate(0,0)" fill="rgb(111,225,167)" d="M 651.64 1804.33 C 655.427 1811.59 662.92 1884.67 665.085 1899.32 C 629.02 1909.07 593.245 1920.08 557.374 1930.52 A 18213 18213 0 0 1 368.216 1984.03 L 356.458 1986.97 C 361.272 1957.69 367.238 1928.55 372.825 1899.41 A 10894.3 10894.3 0 0 0 517.108 1855.65 C 556.402 1843.38 619.335 1827.81 651.64 1804.33 z"/>
<path transform="translate(0,0)" fill="rgb(233,196,106)" d="M 1574.6 1183.33 C 1581.82 1182.46 1589.43 1182.46 1596.65 1183.41 A 87.2284 87.2284 0 0 1 1653.91 1216.57 C 1671.38 1239.63 1677.57 1269.7 1673.72 1298.02 L 1552.9 1298.25 C 1554.04 1300.96 1555.26 1303.65 1556.78 1306.17 C 1561.46 1313.89 1569.55 1319.47 1578.27 1321.55 C 1597.67 1326.19 1615.46 1318.52 1631.53 1308.41 C 1640.43 1316.28 1648.87 1324.51 1657.28 1332.9 C 1661.25 1336.71 1664.91 1340.74 1668.58 1344.83 C 1652.66 1362.32 1633.14 1372.92 1609.79 1376.89 C 1582.8 1381.48 1553.94 1375.98 1531.56 1359.86 A 90.9791 90.9791 0 0 1 1494.86 1299.82 C 1490.57 1272.29 1497.5 1241.4 1514.13 1218.91 C 1529.01 1198.8 1550.05 1186.98 1574.6 1183.33 z"/>
<path transform="translate(0,0)" fill="rgb(38,70,83)" d="M 1580.95 1230.25 C 1586.78 1229.83 1592.82 1230.22 1598.18 1232.77 C 1607.14 1237.02 1610.81 1245.12 1614.13 1253.85 L 1587.5 1253.89 L 1553.2 1253.93 C 1554.36 1250.65 1555.62 1247.52 1557.53 1244.59 C 1563.17 1235.93 1571.15 1232.32 1580.95 1230.25 z"/>
<path transform="translate(0,0)" fill="rgb(233,196,106)" d="M 460.088 1131 L 479.153 1130.91 C 488.747 1151.19 497.155 1172 506.254 1192.51 L 586.001 1374.15 C 565.368 1374.83 544.683 1374.92 524.039 1375.2 C 520.604 1365.06 516.003 1355.33 511.465 1345.64 L 479.681 1345.8 A 1968.08 1968.08 0 0 1 425.282 1344.89 C 421.698 1355 417.758 1365.02 413.914 1375.03 L 353.054 1374.98 C 389.064 1293.84 423.396 1211.82 460.088 1131 z"/>
<path transform="translate(0,0)" fill="rgb(38,70,83)" d="M 468.328 1243.74 C 472.987 1249.82 485.751 1285.66 489.388 1294.68 L 471.197 1294.23 L 449.023 1294.85 C 455.303 1277.75 462.605 1261.05 468.328 1243.74 z"/>
<path transform="translate(0,0)" fill="rgb(233,196,106)" d="M 437.573 811.415 C 467.728 808.88 496.435 822.394 521.176 838.202 C 515.937 856.763 510.32 875.099 503.666 893.206 C 489.048 882.962 471.933 872.113 453.82 869.945 C 445.611 868.963 436.252 870.115 429.645 875.495 C 426.708 877.888 424.664 881.165 424.562 885.027 C 424.06 903.913 469.061 920.815 483.703 929.419 C 494.645 935.849 505.084 943.251 513.538 952.803 C 526.699 967.674 532.317 986.57 530.963 1006.28 A 66.0256 66.0256 0 0 1 507.475 1052.75 C 486.388 1070.77 459.492 1072.95 432.962 1070.76 C 400.572 1065.98 377.938 1053.49 352.166 1034.02 A 1457.2 1457.2 0 0 0 383.757 986.274 C 399.161 999.082 424.53 1015.44 445.239 1015.39 C 451.153 1015.37 460.965 1013.56 465.219 1009.08 C 467.968 1006.18 468.965 1002.37 468.592 998.443 C 466.727 978.874 433.784 966.971 418.64 958.614 C 409.982 953.836 401.531 948.507 393.792 942.336 C 377.601 929.426 365.786 912.539 363.695 891.514 A 72.4166 72.4166 0 0 1 379.856 838.923 C 394.711 821.062 414.989 813.509 437.573 811.415 z"/>
<path transform="translate(0,0)" fill="rgb(233,196,106)" d="M 713.955 573.416 C 716.781 573.105 719.755 573.101 722.599 573.092 C 746.352 573.018 769.632 581.269 786.379 598.382 C 812.667 625.247 817.378 662.369 817.131 698.159 A 4151.74 4151.74 0 0 1 682.528 698.953 C 689.673 711.376 700.135 719.843 713.975 723.69 C 736.719 730.012 755.227 722.442 774.828 711.224 C 778.812 717.366 782.153 723.975 785.641 730.411 A 876.324 876.324 0 0 1 800.164 758.019 C 785.035 766.952 767.042 773.061 749.628 775.337 C 719.562 779.267 688.12 774.562 663.791 755.481 A 101.068 101.068 0 0 1 625.124 686.777 C 621.796 658.91 627.605 628.794 645.489 606.592 C 662.948 584.917 687.035 576.164 713.955 573.416 z"/>
<path transform="translate(0,0)" fill="rgb(38,70,83)" d="M 713.58 622.337 C 720.834 621.98 727.558 622.35 734.283 625.484 C 747.157 631.484 752.565 643.283 756.94 655.916 L 723.315 655.97 L 679.928 656.13 C 681.921 650.932 684.203 645.461 687.214 640.753 C 693.784 630.479 701.692 624.896 713.58 622.337 z"/>
<path transform="translate(0,0)" fill="rgb(233,196,106)" d="M 1262.57 869.29 C 1285.04 865.656 1311.18 871.884 1329.74 884.899 A 99.9822 99.9822 0 0 1 1370.35 949.355 C 1375 977.009 1369.82 1005.87 1353.22 1028.77 C 1337.24 1050.82 1313.77 1064.4 1287.07 1068.74 C 1262.38 1072.23 1238.1 1066.79 1217.5 1052.57 A 97.5587 97.5587 0 0 1 1176.85 988.761 A 105.744 105.744 0 0 1 1194.57 910.246 C 1211.24 886.999 1234.66 873.999 1262.57 869.29 z"/>
<path transform="translate(0,0)" fill="rgb(38,70,83)" d="M 1271.45 925.294 C 1281.09 924.903 1290.92 927.413 1298.73 933.194 C 1308.12 940.149 1313.86 950.91 1315.51 962.382 C 1317.25 974.498 1314.39 987.11 1306.66 996.727 C 1298.88 1006.41 1288.78 1010.15 1276.86 1011.53 C 1268.01 1012.34 1258.33 1010.47 1250.78 1005.74 C 1241.1 999.665 1235.17 989.564 1233.06 978.477 C 1230.69 966.038 1232.79 952.689 1240.35 942.35 C 1248.03 931.856 1258.96 927.119 1271.45 925.294 z"/>
<path transform="translate(0,0)" fill="rgb(233,196,106)" d="M 855.662 871.278 A 97.5068 97.5068 0 0 1 862.002 870.814 C 883.899 870.071 906.186 880.622 921.828 895.558 C 941.76 914.591 951.912 941.805 952.247 969.093 C 952.588 996.854 943.751 1024.47 924.044 1044.54 C 909.689 1059.16 890.556 1068.06 869.966 1068.22 C 855.076 1068.33 840.065 1063.58 829.366 1052.88 C 827.094 1050.61 824.713 1047.29 821.585 1046.54 L 820.975 1048.75 L 820.256 1096.79 A 5722.95 5722.95 0 0 0 762.179 1096.56 A 20753.3 20753.3 0 0 0 762.541 876.692 A 969.016 969.016 0 0 1 798.938 876.771 C 804.282 881.09 808.511 885.655 812.633 891.126 C 825.672 879.989 838.803 874.164 855.662 871.278 z"/>
<path transform="translate(0,0)" fill="rgb(38,70,83)" d="M 850.971 930.109 C 858.398 929.533 864.599 929.796 871.535 933.005 C 880.731 937.259 887.41 945.657 890.465 955.212 C 894.11 966.615 892.977 980.35 887.096 990.831 C 881.526 1000.76 873.082 1005.65 862.513 1008.73 C 853.68 1009.19 845.981 1008.82 838.028 1004.31 A 35.4794 35.4794 0 0 1 821.286 982.284 C 818.304 971.036 819.363 957.996 825.328 947.876 C 831.336 937.681 840.004 933.142 850.971 930.109 z"/>
<path transform="translate(0,0)" fill="rgb(233,196,106)" d="M 481.53 525.443 C 517.211 524.789 546.259 536.577 573.638 558.766 C 565.754 574.321 554.616 590.836 543.653 604.405 C 538.89 600.514 534.135 596.699 528.846 593.538 C 510.366 582.49 489.413 578.316 468.405 583.809 C 450.8 588.413 436 599.311 426.897 615.138 C 415.807 634.419 413.721 659.867 419.565 681.158 A 69.7393 69.7393 0 0 0 452.252 723.688 C 468.049 732.619 488.102 734.993 505.515 729.777 C 523.207 724.478 534.225 712.826 542.824 697.016 L 489.011 697.757 L 488.983 649.42 C 509.377 649.026 529.85 649.51 550.25 649.614 L 607.14 649.917 C 607.272 684.784 601.396 717.025 578.141 744.268 C 556.959 769.083 527.15 781.692 494.934 783.9 C 459.901 786.301 424.426 776.22 397.929 752.614 C 372.769 730.199 358.916 700.131 356.993 666.648 C 354.922 630.591 363.159 595.175 387.796 567.814 C 412.661 540.199 444.961 527.459 481.53 525.443 z"/>
<path transform="translate(0,0)" fill="rgb(233,196,106)" d="M 1069.29 869.224 C 1072.02 869.014 1074.77 868.788 1077.5 868.743 C 1097.36 868.416 1115.86 877.701 1129.86 891.391 C 1149.97 911.047 1160.67 940.193 1160.82 968.057 C 1160.97 996.615 1151.78 1026.67 1131.3 1047.22 C 1117.63 1060.94 1100.1 1068.42 1080.66 1068.23 C 1059.85 1068.04 1045.1 1059.01 1030.94 1044.43 L 1030.92 1056.75 C 1030.9 1071.53 1031.17 1086.39 1030.55 1101.16 L 973.024 1100.94 L 972.945 876.254 C 987.005 876.003 1001.66 875.244 1015.6 877.17 C 1020.11 881.382 1024.1 886.374 1028.19 891.007 C 1040.67 878.742 1052.11 872.646 1069.29 869.224 z"/>
<path transform="translate(0,0)" fill="rgb(38,70,83)" d="M 1062.84 927.303 C 1070.29 926.949 1077.27 928.178 1083.82 931.885 C 1092.5 936.796 1098.37 945.51 1101.04 954.982 C 1104.39 966.839 1103.28 980.811 1097.05 991.559 C 1091.27 1001.54 1082.81 1006.07 1072.07 1008.98 C 1062.19 1009.59 1053.91 1009.31 1045.33 1003.53 C 1036.43 997.532 1031.02 987.853 1029.16 977.407 C 1026.98 965.176 1029.16 951.561 1036.74 941.502 C 1043.49 932.539 1052.13 928.955 1062.84 927.303 z"/>
<path transform="translate(0,0)" fill="rgb(233,196,106)" d="M 1362.81 1212.06 A 459.109 459.109 0 0 1 1370.77 1202.94 C 1381.34 1191.28 1394.2 1182.92 1410.46 1182.45 C 1424.05 1182.06 1437.06 1186.96 1446.75 1196.55 C 1474.35 1223.89 1470.1 1272.8 1470.09 1308.34 L 1470.02 1374 L 1413.04 1374.13 L 1413.09 1307.41 C 1413.09 1294.99 1414.08 1281.54 1412.1 1269.3 C 1411 1262.49 1408.94 1255.02 1404.45 1249.62 C 1402.4 1247.16 1399.68 1245.32 1396.4 1245.2 C 1392.27 1245.05 1387.1 1247.73 1384.15 1250.5 C 1380.15 1254.26 1378.16 1260.13 1377.14 1265.38 C 1374.89 1277.08 1375.93 1290.06 1375.93 1301.97 L 1376.02 1360.5 L 1376.02 1374.07 L 1317.99 1374.03 L 1317.94 1306.19 C 1317.92 1293.63 1319.03 1279.73 1316.81 1267.41 C 1315.68 1261.16 1313.61 1254.65 1309.04 1250.01 C 1306.36 1247.28 1302.94 1245.67 1299.06 1245.79 C 1295.04 1245.91 1291.67 1247.77 1288.94 1250.66 C 1284.48 1255.37 1282.09 1262.14 1281.04 1268.43 C 1278.87 1281.34 1279.97 1295.34 1280 1308.42 L 1280.09 1374.02 L 1222.05 1373.97 L 1222.36 1188.02 L 1266.77 1188.1 A 1438.1 1438.1 0 0 1 1279.52 1207.72 C 1279.94 1206.95 1280.36 1206.18 1280.83 1205.44 C 1288.59 1193.22 1299.2 1186.42 1313.14 1183.17 C 1318.36 1182.88 1323.71 1182.85 1328.85 1183.87 C 1345.33 1187.11 1353.84 1199.16 1362.81 1212.06 z"/>
<path transform="translate(0,0)" fill="rgb(111,225,167)" d="M 445.31 1610.37 C 467.345 1607.13 494.602 1616.07 514.012 1625.88 C 532.009 1634.99 548.797 1647.65 563.104 1661.83 C 595.664 1694.09 635.617 1755.61 649.957 1799.19 C 620.546 1821.44 573.77 1832.07 538.754 1842.95 A 7008.52 7008.52 0 0 1 450.802 1869.91 C 424.665 1877.78 398.564 1886.03 372.208 1893.13 L 308.957 1785.07 C 295.579 1761.99 283.054 1738.15 268.966 1715.51 A 119.021 119.021 0 0 1 284.433 1688.29 C 318.676 1643.53 390.417 1617.4 445.31 1610.37 z"/>
<path transform="translate(0,0)" fill="rgb(38,70,83)" d="M 439.632 1622.3 C 467.296 1619.37 498.18 1626.75 520.942 1642.94 C 543.484 1658.97 557.467 1683.63 561.875 1710.75 C 566.341 1738.22 559.028 1765.49 542.626 1787.81 C 523.977 1813.18 500.024 1826.05 469.231 1830.84 C 441.048 1833.41 415.35 1827.9 391.982 1811.53 C 369.056 1795.47 352.25 1769.82 347.677 1742.09 C 343.244 1715.22 350.864 1688.19 366.842 1666.38 C 384.656 1642.07 409.958 1626.98 439.632 1622.3 z"/>
<path transform="translate(0,0)" fill="rgb(233,196,106)" d="M 444.772 1628.41 C 470.454 1625.85 501.786 1634.87 521.942 1651.04 A 95.2258 95.2258 0 0 1 556.561 1715.26 C 559.384 1741.64 550.337 1768.33 533.75 1788.79 C 516.045 1810.64 492.597 1821.58 464.996 1824.61 A 103.94 103.94 0 0 1 390.277 1802.44 A 101.175 101.175 0 0 1 353.344 1735.25 C 350.59 1709.27 359.404 1684.87 375.774 1664.85 C 393.276 1643.43 417.358 1631.03 444.772 1628.41 z"/>
<path transform="translate(0,0)" fill="rgb(38,70,83)" d="M 503.491 1762.73 C 508.536 1763.13 512.508 1765.63 515.875 1769.38 C 518.165 1771.93 520.135 1775.9 519.51 1779.43 C 518.962 1782.52 516.568 1783.72 514.308 1785.53 C 509.222 1785.56 505.718 1784.13 502.148 1780.41 C 499.658 1777.82 497.911 1773.73 498.387 1770.07 C 498.837 1766.62 501.062 1764.92 503.491 1762.73 z"/>
<path transform="translate(0,0)" fill="rgb(38,70,83)" d="M 518.284 1690.85 C 522.562 1688.95 526.474 1686.58 531.195 1688.47 C 533.488 1689.39 535.83 1691.07 536.76 1693.44 C 537.703 1695.84 537.052 1697.93 535.844 1700.07 C 534.533 1702.38 532.121 1703.89 529.817 1705.04 C 528.394 1705.64 526.85 1706.33 525.343 1706.67 C 522.35 1707.35 517.277 1706.02 515.072 1703.78 C 512.965 1701.64 512.942 1700.49 512.579 1697.66 C 513.64 1694.22 515.568 1692.95 518.284 1690.85 z"/>
<path transform="translate(0,0)" fill="rgb(38,70,83)" d="M 385.629 1729.4 C 388.648 1729.45 390.8 1730.48 393.252 1732.07 C 394.179 1734.42 394.751 1735.87 393.795 1738.36 C 391.297 1744.85 386.262 1746.65 380.307 1748.95 C 378.725 1748.95 377.3 1748.71 375.741 1748.47 C 373.406 1746.73 371.437 1745.25 370.586 1742.26 C 369.662 1739.02 370.827 1735.72 372.951 1733.23 C 376.146 1729.48 381.114 1729.77 385.629 1729.4 z"/>
<path transform="translate(0,0)" fill="rgb(233,196,106)" d="M 376.477 1735.85 C 378.314 1735.8 380.177 1735.73 382.013 1735.81 C 384.777 1735.94 385.795 1735.98 387.723 1738.01 L 387.196 1740.49 C 384.365 1741.49 382.04 1742.5 378.976 1742.08 C 376.766 1739.97 376.989 1738.79 376.477 1735.85 z"/>
<path transform="translate(0,0)" fill="rgb(38,70,83)" d="M 521.638 1728.79 C 526.567 1729.17 533.174 1729.41 537.439 1732.12 C 539.08 1733.16 540.595 1734.93 540.975 1736.85 C 541.834 1741.18 539.765 1744.5 537.598 1748.08 C 532.163 1748.58 527.491 1748.5 522.748 1745.44 C 520.111 1743.74 518.081 1741.64 517.689 1738.36 C 517.191 1734.2 519.106 1731.74 521.638 1728.79 z"/>
<path transform="translate(0,0)" fill="rgb(233,196,106)" d="M 523.494 1735.95 C 527.077 1735.95 530.078 1735.79 533.388 1737.29 C 535.232 1739.69 535.11 1740.17 535.288 1743.24 C 532.563 1743.17 529.424 1743.22 526.996 1741.82 C 524.695 1740.49 524.202 1738.29 523.494 1735.95 z"/>
<path transform="translate(0,0)" fill="rgb(38,70,83)" d="M 405.853 1781.12 C 403.011 1783.04 399.254 1785.48 395.686 1785.35 C 392.999 1785.25 392.166 1784.22 390.369 1782.5 C 389.317 1779.7 388.999 1777.61 389.797 1774.72 A 15.6195 15.6195 0 0 1 397.098 1765.29 C 401.25 1762.89 404.352 1762.64 408.96 1763.73 C 410.907 1767.5 412.279 1770.08 410.773 1774.36 C 409.908 1776.81 407.529 1779.17 405.853 1781.12 z"/>
<path transform="translate(0,0)" fill="rgb(233,196,106)" d="M 403.994 1775.25 C 401.383 1777.22 399.65 1778.7 396.255 1778.98 L 395.035 1777.63 C 395.56 1775.36 396.157 1773.77 397.868 1772.1 C 400.457 1769.56 403.173 1768.27 406.764 1768.29 C 405.842 1770.61 404.948 1772.95 403.994 1775.25 z"/>
<path transform="translate(0,0)" fill="rgb(38,70,83)" d="M 499.675 1649.73 C 502.792 1650.2 505.711 1650.64 507.77 1653.35 C 510.038 1656.35 510.376 1660.49 509.399 1664.02 C 507.895 1669.45 505.153 1672.86 500.232 1675.44 C 496.574 1674.88 494.071 1674.65 491.521 1671.69 C 490.642 1669.32 490.153 1667.43 490.491 1664.88 C 491.239 1659.24 495.155 1653.02 499.675 1649.73 z"/>
<path transform="translate(0,0)" fill="rgb(38,70,83)" d="M 428.899 1782.97 C 432.382 1782.71 437.253 1782.03 439.863 1784.88 C 441.669 1786.85 442.575 1789.54 442.488 1792.19 C 442.304 1797.76 439.737 1803.25 435.842 1807.13 C 433.438 1807.27 430.825 1807.54 428.517 1806.7 A 7.46177 7.46177 0 0 1 423.78 1801.56 C 422.127 1795.47 425.996 1788.1 428.899 1782.97 z"/>
<path transform="translate(0,0)" fill="rgb(233,196,106)" d="M 432.543 1788.13 C 434.636 1788.71 434.688 1788.74 436.005 1790.47 C 436.596 1794.4 435.051 1797.9 433.831 1801.58 C 431.309 1800.2 430.999 1800.02 429.62 1797.52 C 429.517 1793.86 430.96 1791.36 432.543 1788.13 z"/>
<path transform="translate(0,0)" fill="rgb(38,70,83)" d="M 467.273 1782.93 C 468.437 1782.84 469.608 1782.74 470.775 1782.7 C 474.072 1782.6 476.354 1783.36 478.568 1785.82 C 481.028 1788.55 482.239 1792 482.17 1795.63 C 482.067 1801.09 481.152 1803.66 477.219 1807.39 C 476.835 1807.47 476.454 1807.56 476.067 1807.62 C 473.191 1808.05 470.837 1807.98 468.472 1806.07 C 465.439 1803.62 463.843 1799.55 463.586 1795.75 C 463.236 1790.56 463.834 1786.87 467.273 1782.93 z"/>
<path transform="translate(0,0)" fill="rgb(233,196,106)" d="M 470.91 1786.45 C 472.958 1787.65 474.115 1788.73 474.885 1791.01 C 476.202 1794.9 476.041 1798.74 474.283 1802.42 C 471.858 1801.12 470.789 1800.34 469.684 1797.72 C 468.092 1793.94 469.313 1789.96 470.91 1786.45 z"/>
<path transform="translate(0,0)" fill="rgb(38,70,83)" d="M 375.467 1685.82 C 380.737 1686.23 385.668 1686.86 390.349 1689.48 C 393.153 1691.05 395.866 1693.21 396.438 1696.59 C 397.112 1700.58 395.082 1703.3 392.636 1706.14 C 387.391 1706.35 381.906 1706.21 377.243 1703.54 C 374.493 1701.96 372.279 1699.87 371.83 1696.55 C 371.265 1692.38 373.145 1689.06 375.467 1685.82 z"/>
<path transform="translate(0,0)" fill="rgb(233,196,106)" d="M 379.122 1691.6 C 382.777 1692.31 387.453 1692.9 389.968 1695.93 C 391.141 1697.34 390.619 1698.22 390.487 1699.92 C 386.714 1699.7 382.299 1700.03 379.107 1697.8 C 377.957 1695.07 378.412 1694.53 379.122 1691.6 z"/>
<path transform="translate(0,0)" fill="rgb(38,70,83)" d="M 455.19 1636.86 C 458.925 1636.68 462.033 1636.68 464.995 1639.42 C 467.491 1641.73 468.526 1645.09 468.477 1648.42 C 468.397 1653.95 466.217 1658.21 462.454 1662.11 C 459.255 1662.82 456.637 1663.1 453.823 1661.05 C 450.785 1658.83 449.639 1655.13 449.583 1651.51 C 449.487 1645.3 451.069 1641.39 455.19 1636.86 z"/>
<path transform="translate(0,0)" fill="rgb(233,196,106)" d="M 458.132 1642.74 C 459.936 1643.89 460.307 1644.45 461.434 1646.19 C 462.083 1650.07 460.848 1653.07 459.664 1656.74 C 459.43 1656.65 459.182 1656.59 458.963 1656.47 C 457.429 1655.62 456.599 1655.28 456.1 1653.53 C 454.973 1649.59 456.37 1646.24 458.132 1642.74 z"/>
<path transform="translate(0,0)" fill="rgb(38,70,83)" d="M 409.265 1647.01 C 410.536 1646.97 412.219 1646.8 413.502 1647.05 C 422.505 1648.78 447.775 1693.95 454.233 1703.72 A 207.448 207.448 0 0 1 456.947 1703.71 C 464.227 1703.72 469.616 1704.47 474.849 1710.06 A 18.0828 18.0828 0 0 1 479.617 1723.28 C 479.257 1730.72 475.596 1735.94 470.347 1740.88 C 465.396 1743.27 460.699 1745.01 455.113 1744.09 C 450.459 1743.33 446.51 1740.89 443.858 1736.98 C 439.308 1730.26 439.919 1724.01 441.445 1716.48 C 432.044 1703 405.416 1667.39 403.8 1652.28 C 405.179 1649.28 406.557 1648.8 409.265 1647.01 z"/>
<path transform="translate(0,0)" fill="rgb(177,223,134)" d="M 452.151 1709.52 C 456.779 1710.02 467.614 1709.99 470.549 1713.69 C 472.27 1715.86 473.086 1717.7 472.995 1720.39 C 466.164 1723.43 456.916 1716.38 449.621 1716.11 L 452.151 1709.52 z"/>
<path transform="translate(0,0)" fill="rgb(111,225,167)" d="M 447.183 1719.01 C 454.783 1721.45 464.982 1723.43 470.672 1729.2 C 471.001 1732.04 469.963 1732.6 468.342 1734.88 C 465.357 1737.06 461.064 1738.6 457.329 1738.22 C 454.12 1737.9 451.702 1736.57 449.756 1734.04 C 446.049 1729.2 446.629 1724.74 447.183 1719.01 z"/>
<path transform="translate(0,0)" fill="rgb(233,196,106)" d="M 449.621 1716.11 C 445.022 1714.06 418.179 1671.43 413.898 1663.78 C 411.816 1660.06 410.099 1656.97 411.333 1652.67 C 419.287 1655.18 442.773 1698.81 451.217 1708.46 L 452.151 1709.52 L 449.621 1716.11 z"/>
<path transform="translate(0,0)" fill="rgb(231,111,81)" d="M 1639.04 1667.6 C 1666.29 1639.76 1696 1619.73 1734.42 1610.72 C 1779.45 1600.16 1831.51 1610.38 1868.89 1637.72 C 1877.8 1644.23 1890.25 1658.46 1897.9 1662.89 C 1898.32 1663.13 1898.74 1663.35 1899.16 1663.59 C 1934.16 1667.72 1967.12 1674.11 2001.14 1683.52 C 2016.82 1687.85 2032.28 1693.65 2048 1697.62 L 2048 1804.42 L 2048 1819.04 L 2048 2048 L 1343.04 2048 L 1105.62 2048 L 852.053 2048 C 884.266 2013.74 921.266 1982.2 957.893 1952.82 A 1317.5 1317.5 0 0 1 1563.15 1678.7 C 1588.32 1674.52 1613.62 1669.9 1639.04 1667.6 z"/>
<path transform="translate(0,0)" fill="rgb(244,162,97)" d="M 1639.04 1667.6 C 1666.29 1639.76 1696 1619.73 1734.42 1610.72 C 1779.45 1600.16 1831.51 1610.38 1868.89 1637.72 C 1877.8 1644.23 1890.25 1658.46 1897.9 1662.89 C 1898.32 1663.13 1898.74 1663.35 1899.16 1663.59 C 1908.96 1677.01 1919.45 1690.1 1927.09 1704.92 C 1930.63 1711.78 1932.07 1719.39 1935.69 1726.03 L 1935.18 1727.71 L 1933.6 1727.98 C 1932.46 1726.24 1931.91 1723.08 1931.15 1721.05 C 1925 1704.57 1903.72 1666.88 1887.84 1659.58 C 1847.38 1626.07 1807.85 1607.37 1753.99 1612.34 C 1712.47 1616.18 1677.15 1637.86 1647.26 1665.64 C 1623.86 1687.17 1602.65 1726.12 1601.13 1758.16 L 1598.89 1756.29 C 1599.01 1747.87 1601.24 1740.13 1603.73 1732.15 C 1611.59 1706.98 1623.23 1688.37 1639.04 1667.6 z"/>
<path transform="translate(0,0)" fill="url(#Gradient1)" d="M 1666.86 1662.45 C 1680.82 1647.38 1714.1 1633.57 1733.77 1628.58 C 1768.56 1619.77 1809.18 1623.08 1841.37 1639.45 C 1852.49 1645.11 1862.14 1652.77 1872.83 1659.1 C 1876.19 1664.27 1880.99 1668.68 1885.19 1673.19 C 1895.99 1684.76 1907.23 1698.22 1912.47 1713.43 C 1908.67 1711.18 1900.99 1696.58 1897.93 1692.23 C 1889.27 1679.9 1875.14 1663.16 1861.15 1656.71 C 1823.65 1633.15 1780.41 1624.52 1736.81 1634.71 C 1716.96 1639.34 1698.84 1648.16 1681.9 1659.37 C 1677.23 1660.94 1672.83 1665.45 1669.16 1668.68 C 1653.46 1682.49 1640.57 1696.8 1631.12 1715.67 C 1614.38 1749.11 1610.17 1790.54 1622.19 1826.17 C 1624.14 1831.93 1631.06 1846.01 1630.54 1850.94 C 1625.57 1842.29 1621.54 1832.54 1618.69 1822.97 C 1605.95 1780.28 1614.22 1729.18 1640.3 1692.89 C 1646.51 1684.24 1662.36 1671.6 1666.22 1663.82 C 1666.45 1663.37 1666.65 1662.9 1666.86 1662.45 z"/>
<path transform="translate(0,0)" fill="rgb(233,196,106)" d="M 1949.22 1791.14 C 1982.48 1793.49 2015.14 1799.02 2048 1804.42 L 2048 1819.04 A 6927.08 6927.08 0 0 0 1944.33 1824.06 C 1946.96 1813.18 1948.78 1802.34 1949.22 1791.14 z"/>
<path transform="translate(0,0)" fill="rgb(38,70,83)" d="M 1681.9 1659.37 C 1698.84 1648.16 1716.96 1639.34 1736.81 1634.71 C 1780.41 1624.52 1823.65 1633.15 1861.15 1656.71 C 1847.11 1657.8 1832.4 1654.84 1818.38 1653.64 C 1799.39 1652.02 1780.02 1651.62 1760.97 1652 A 321.702 321.702 0 0 0 1726.04 1654.64 C 1714.55 1656.04 1692.41 1661.25 1681.9 1659.37 z"/>
<path transform="translate(0,0)" fill="rgb(38,70,83)" d="M 1647.26 1665.64 C 1677.15 1637.86 1712.47 1616.18 1753.99 1612.34 C 1807.85 1607.37 1847.38 1626.07 1887.84 1659.58 C 1882.79 1660.08 1877.87 1659.53 1872.83 1659.1 C 1862.14 1652.77 1852.49 1645.11 1841.37 1639.45 C 1809.18 1623.08 1768.56 1619.77 1733.77 1628.58 C 1714.1 1633.57 1680.82 1647.38 1666.86 1662.45 A 85.5639 85.5639 0 0 1 1647.26 1665.64 z"/>
<path transform="translate(0,0)" fill="rgb(233,196,106)" d="M 1105.62 2048 C 1140.26 2025.09 1175.24 2002.3 1211.23 1981.56 A 1323.94 1323.94 0 0 1 1515.75 1853.03 C 1540.57 1846.07 1576.84 1835.04 1601.7 1832.51 C 1609.85 1855.8 1619.91 1874.71 1635.76 1893.65 C 1549.3 1919.05 1466.77 1964.69 1391.67 2013.87 C 1375.44 2024.5 1357.93 2034.85 1343.39 2047.69 L 1343.04 2048 L 1105.62 2048 z"/>
<path transform="translate(0,0)" fill="rgb(42,157,143)" d="M 0 0 L 1431.66 0 L 1443.42 0 L 2048 0 L 2048 329.548 L 2048 409.998 L 2048 566.33 L 2048 639.459 L 2048 774.978 L 2048 877.545 L 2048 887.754 C 2004.5 886.376 1961.58 880.545 1920.01 867.205 C 1815.05 833.524 1722.64 763.266 1641.45 690.45 C 1613.58 665.455 1586.98 639.034 1559.15 614.021 C 1550.01 605.803 1493.21 556.92 1489.81 550.286 C 1454.3 528.695 1417.56 508.705 1381.72 487.593 C 1301.78 440.503 1222.39 393.059 1139.44 351.329 A 1813.18 1813.18 0 0 0 733.234 202.358 C 685.663 191.168 638.005 181.448 589.432 175.738 C 536.383 169.503 484.222 167.79 430.899 169.37 C 422.217 169.855 415.504 171.197 407.502 174.662 C 440.744 210.117 488.874 246.5 487.209 300.211 C 486.658 317.976 479.555 335.104 466.422 347.257 C 456.612 356.335 444.433 360.953 431.029 360.056 C 417.859 359.176 406.466 352.437 398.069 342.442 C 377.863 318.391 377.008 282.57 379.791 252.929 C 382.136 227.966 386.537 200.991 395.145 177.422 C 378.869 183.121 362.958 190.182 347.015 196.752 A 2130.94 2130.94 0 0 0 215.853 255.755 C 253.595 272.172 295.53 298.061 311.373 337.991 C 317.474 353.37 320.343 372.626 313.145 388.121 A 41.0406 41.0406 0 0 1 288.37 409.628 C 273.204 414.481 257.794 410.95 244.201 403.522 C 220.073 390.338 204.448 366.953 196.902 340.935 C 188.337 311.404 191.564 281.854 196.694 252.109 C 228.091 238.755 258.055 222.428 289.206 208.508 C 298.888 204.182 364.638 178.181 367.584 174.836 C 338.268 177.401 308.908 183.085 280.103 188.94 C 199.08 205.407 119.334 228.45 43.9727 262.794 C 29.3231 269.47 13.7801 276.264 0 284.547 L 0 0 z"/>
<path transform="translate(0,0)" fill="rgb(38,70,83)" d="M 207.219 265.824 C 228.245 272.129 254.814 289.35 270.941 304.168 C 288.33 320.145 303.979 342.088 304.61 366.562 C 304.867 376.543 302.369 384.427 295.607 391.799 C 295.269 392.078 294.937 392.364 294.593 392.636 C 287.525 398.248 278.709 400.226 269.843 399.097 C 252.36 396.87 234.249 382.734 223.836 369.008 C 201.548 339.628 202.56 300.46 207.219 265.824 z"/>
<path transform="translate(0,0)" fill="rgb(38,70,83)" d="M 403.637 188.529 C 409.628 192.76 435.832 221.411 442.143 228.752 C 460.55 250.166 476.799 273.603 474.341 303.121 C 473.132 317.651 466.892 330.998 455.777 340.527 C 446.607 345.776 436.934 349.271 426.295 346.765 C 415.702 344.27 407.25 336.416 401.796 327.285 C 380.425 291.511 393.553 227.208 403.637 188.529 z"/>
<path transform="translate(0,0)" fill="rgb(38,70,83)" d="M 1527.86 569.382 C 1550.79 580.716 1573.06 593.339 1596.09 604.493 C 1745.36 676.801 1886.24 734.524 2048 774.978 L 2048 877.545 C 1949.13 875.19 1851.62 836.762 1771.48 779.802 A 1568.37 1568.37 0 0 1 1686.23 714.736 C 1652.23 686.651 1621.11 655.506 1588.5 625.899 C 1569.9 609.022 1549.16 593.716 1531.64 575.781 C 1529.61 573.699 1528.36 572.373 1527.86 569.382 z"/>
</svg>