<svg version="1.1" xmlns="http://www.w3.org/2000/svg" style="display: block;" viewBox="0 0 2048 2048" width="1024" height="1024">
<path transform="translate(0,0)" fill="rgb(254,254,254)" d="M 0 0 L 2048 0 L 2048 2048 L 2043.99 2048 L 2026.43 2048 L 1884.08 2048 L 1867.86 2048 L 1318.46 2048 L 1316.25 2048 L 1300.1 2048 L 1207.72 2048 L 1171.84 2048 L 1075.03 2048 L 1058.88 2048 L 1034.78 2048 L 1009.27 2048 L 1000.65 2048 L 963.007 2048 L 958.056 2048 L 867.159 2048 L 844.974 2048 L 831.07 2048 L 810.224 2048 L 395.29 2048 L 0 2048 L 0 0 z"/>
<path transform="translate(0,0)" fill="rgb(252,242,223)" d="M 537.528 112.331 C 548.417 110.204 563.106 112.333 573.374 116.437 C 583.502 120.484 588.495 125.929 592.536 135.8 C 605.501 133.554 618.152 131.482 631.368 132.504 C 656.128 134.417 688.902 141.918 705.682 161.796 C 717.662 175.989 722.989 193.495 721.165 211.95 C 718.796 235.93 702.441 253.311 684.043 267.167 C 656.014 288.276 623.586 302.516 589.934 311.989 C 567.892 318.194 544.738 321.536 522.154 325.132 C 510.665 326.96 498.868 328.355 487.639 331.433 C 481.557 333.1 474.607 335.314 469.835 339.555 C 467.345 341.768 466.9 343.585 466.755 346.808 C 467.958 349.777 469.451 351.509 471.989 353.4 C 495.187 370.682 523.739 362.087 549.356 358.488 C 546.115 367.334 542.951 375.764 537.07 383.277 C 529.353 393.135 518.513 399.304 507.353 404.513 C 426.837 442.091 319.86 412.405 232.912 423.122 C 223.915 424.771 215.309 427.241 206.957 431.015 C 150.93 456.332 186.643 490.394 174.062 522.081 C 164.919 545.111 140.369 550.907 119.779 560.036 C 118.905 559.482 118.023 558.938 117.186 558.329 C 105.659 549.945 100.741 536.116 98.8822 522.506 C 95.3025 496.288 101.625 472.943 119.014 452.928 C 126.155 444.709 134.225 436.322 137.387 425.628 C 140.794 414.105 138.921 400.998 138.421 389.172 C 136.692 348.346 144.984 313.598 169.993 280.961 C 177.725 270.87 185.978 261.329 195.867 253.281 C 237.167 219.668 297.521 206.211 349.46 202.22 C 365.146 201.014 386.339 203.357 400.654 196.648 C 411.082 191.76 417.986 181.026 425.881 172.97 C 456.946 141.275 492.943 118.311 537.528 112.331 z"/>
<path transform="translate(0,0)" fill="rgb(254,254,254)" d="M 257.693 265.189 L 258.518 266.374 C 254.866 271.382 241.777 275.352 235.945 279.158 C 224.881 286.379 214.362 295.444 205.117 304.864 C 180.691 329.753 166.336 362.337 159.606 396.247 C 158.064 404.013 156.419 411.818 156.461 419.768 C 155.594 418.732 155.107 417.909 154.71 416.59 C 153.413 412.275 154.427 406.246 154.859 401.837 C 157.135 378.617 163.256 357.067 174.101 336.264 C 189.649 306.441 225.631 275.355 257.693 265.189 z"/>
<path transform="translate(0,0)" fill="rgb(254,254,254)" d="M 132.887 451.634 C 134.358 452.36 133.728 451.794 134.58 453.527 C 132.211 459.65 131.186 464.957 130.856 471.479 C 129.913 490.134 141.532 502.614 153.245 515.434 C 150.98 519.173 148.519 522.504 145.743 525.878 C 138.915 523.321 134.661 520.578 130.402 514.53 C 122.059 502.685 118.351 485.313 120.927 471.043 C 122.508 462.287 125.754 456.809 132.887 451.634 z"/>
<path transform="translate(0,0)" fill="rgb(254,254,254)" d="M 307.68 330.419 C 321.616 328.577 396.101 328.07 406.863 332.797 C 394.476 335.878 377.514 333.862 364.662 334.057 C 315.04 334.81 259.69 337.221 215.929 362.977 C 194.456 377.745 178.992 398.484 161.821 417.595 C 167.842 405.192 176.621 394.227 185.493 383.758 C 192.923 374.99 200.673 366.218 209.846 359.221 C 236.922 338.567 274.708 333.139 307.68 330.419 z"/>
<path transform="translate(0,0)" fill="rgb(254,254,254)" d="M 560.586 135.407 C 582.096 134.981 594.897 139.183 613.497 149.402 C 620.745 148.641 627.004 149.398 633.72 152.399 C 643.624 156.826 650.765 165.011 654.611 175.08 C 660.112 189.48 658.967 204.805 652.481 218.6 C 645.872 232.658 634.771 244.65 619.987 250.001 C 628.173 242.786 636.678 235.507 642.43 226.103 C 649.573 214.424 652.198 200.436 648.914 187.097 C 646.464 177.146 641.815 166.946 632.488 161.724 C 628.342 159.402 621.821 156.281 617.002 157.757 C 614.81 161.201 623.528 174.816 622.027 185.532 C 619.964 200.258 608.794 214.524 596.937 222.94 L 595.628 223.862 L 593.563 223.54 C 593.192 221.646 594.978 220.929 596.294 219.688 C 604.555 211.901 612.563 202.354 615.615 191.195 C 618.218 181.677 616.19 171.858 611.119 163.514 C 605.304 153.943 595.302 147.913 584.59 145.289 C 548.676 136.494 507.693 153.518 478.213 172.876 C 467.449 179.944 457.674 188.442 446.583 195.022 L 445.233 195.814 A 59.3924 59.3924 0 0 1 447.543 193.04 C 474.507 162.678 519.786 137.824 560.586 135.407 z"/>
<path transform="translate(0,0)" fill="rgb(38,70,83)" d="M 97.4032 597.593 C 101.564 597.465 103.601 598.705 106.987 601.043 C 125.735 613.988 142.179 630.998 159.412 645.901 C 184.196 667.333 208.282 689.537 232.702 711.383 C 247.375 724.51 262.652 737.135 277.023 750.561 A 255.55 255.55 0 0 1 281.608 754.971 C 293.253 750.898 312.568 741.542 324.448 746.767 C 327.723 748.207 330.112 750.844 332.511 753.413 C 338.67 749.946 347.791 745.687 355.03 747.388 C 358.184 748.129 360.452 750.082 362.05 752.821 C 368.217 763.393 365.623 780.264 362.186 791.521 C 359.164 801.42 354.397 809.549 348.63 818.076 A 953.329 953.329 0 0 1 366.887 834.448 C 375.37 832.017 383.228 830.907 391.229 835.475 C 396.882 838.701 402.221 845.7 404.116 851.898 C 416.644 870.799 426.134 916.106 430.29 939.076 C 432.454 951.042 433.683 963.525 436.713 975.286 C 440.135 988.57 448.177 1001 453.202 1013.83 C 473.643 1066.05 491.113 1125.49 479.566 1181.79 C 477.041 1194.11 468.677 1212.5 468.264 1222.86 C 467.07 1252.8 478.648 1303.53 484.783 1333.85 C 495.541 1387.02 506.464 1439.91 518.759 1492.76 C 524.761 1518.57 532.04 1544.09 537.816 1569.93 C 547.862 1570.6 561.871 1571.58 569 1579.66 C 579.708 1591.78 619.588 1720.13 624.66 1743.19 C 628.011 1754.38 630.846 1770.51 639.211 1778.75 C 640.082 1779.61 640.925 1780.5 641.793 1781.36 C 653.281 1789.43 666.763 1809.04 674.873 1820.83 C 681.308 1828.11 686.557 1836.82 691.688 1845.08 C 718.464 1888.16 735.022 1939.27 731.806 1990.42 C 730.966 2003.78 728.779 2017.51 725.889 2030.58 L 726.564 2032.03 C 732.237 2029.39 735.043 2018.44 738.551 2013.14 C 742.773 2000.27 746.889 1987.11 748.465 1973.6 C 756.213 1907.2 716.462 1845.92 677.083 1796.16 C 671.876 1792.15 666.878 1784.6 662.167 1779.7 C 654.861 1772.1 646.76 1765.2 639.662 1757.42 C 638.544 1756.19 638.012 1755.24 637.538 1753.66 C 656.584 1765.86 677.779 1772.66 698.023 1782.38 C 740.138 1802.6 787.003 1837.7 813.914 1875.86 C 819.977 1884.46 823.785 1894.09 828.879 1903.21 C 827.997 1916.3 825.479 1929.5 823.625 1942.49 A 5700.3 5700.3 0 0 0 814.785 2006.73 C 813.055 2019.74 810.728 2033.05 810.804 2046.2 L 831.115 2046.69 L 831.07 2048 L 810.224 2048 L 395.29 2048 L 392.088 2046.02 C 390.179 2046.02 385.077 2046.42 383.739 2045.23 C 375.264 2037.7 361.777 1994.77 359.843 1983.27 C 358.392 1974.65 358.552 1965.77 358.475 1957.05 C 352.004 1954.08 345.295 1950.96 339.235 1947.22 C 331.64 1942.54 324.858 1936.78 319.953 1929.24 C 310.973 1915.44 305.494 1898.28 299.193 1883.06 C 280.781 1838.6 261.567 1793.93 250.24 1747.04 C 262.575 1711.74 316.386 1672.96 345.573 1649.48 C 343.434 1623.01 339.79 1596.54 337.233 1570.08 L 325.181 1431.88 A 6513.94 6513.94 0 0 1 319.139 1353.11 C 317.989 1337.42 317.266 1321.51 315.075 1305.93 C 313.181 1292.47 310.144 1277.99 304.395 1265.6 C 289.993 1234.56 258.502 1210.5 235.201 1185.94 C 204.228 1153.3 150.052 1102.88 132.785 1062.54 C 129.303 1054.4 127.114 1046.05 125.883 1037.29 C 123.187 1018.12 119.891 936.094 126.733 920.281 C 131.563 909.115 141.71 905.477 152.153 901.166 C 153.051 888.358 154.337 874.248 161.614 863.233 C 168.283 853.136 178.505 849.684 189.768 847.39 C 196.869 845.3 204.599 844.427 211.905 843.164 C 215.462 829.649 213.766 813.396 223.489 802.184 C 228.978 795.854 237.257 793.332 245.375 792.786 L 245.992 792.019 C 244.062 786.841 129.448 687.793 112.989 673.154 C 100.917 662.417 78.0899 643.826 69.2703 631.362 L 69.7797 629.129 C 77.0268 617.683 86.864 606.094 97.4032 597.593 z"/>
<path transform="translate(0,0)" fill="rgb(233,196,106)" d="M 368.805 837.349 C 377.147 836.852 385.487 836.182 392.173 842.25 C 394.336 844.213 395.99 846.865 397.624 849.271 C 398.777 854.63 401.087 859.514 402.328 864.803 C 399.634 863.282 399.714 861.588 398.736 858.727 L 397.522 864.941 A 84.4384 84.4384 0 0 0 396.968 862.229 C 393.784 848.096 379.646 844.252 368.805 837.349 z"/>
<path transform="translate(0,0)" fill="rgb(233,196,106)" d="M 188.024 999.113 C 189.816 987.945 190.816 966.185 195.993 956.794 L 197.753 956.52 C 199.757 959.941 198.083 968.803 199.363 973.36 C 200.604 977.78 202.924 980.128 206.815 982.39 C 207.088 982.549 207.365 982.7 207.641 982.855 L 208.956 983.326 L 188.024 999.113 z"/>
<path transform="translate(0,0)" fill="rgb(244,162,97)" d="M 289.898 763.089 C 298.344 760.962 306.629 756.457 315.371 755.775 C 319.156 755.48 323.058 755.827 325.858 758.722 C 334.502 767.659 325.193 783.839 325.675 793.968 C 325.699 794.468 325.743 794.966 325.776 795.466 L 324.591 796.147 C 320.296 791.918 315.827 788.62 310.854 785.234 C 312.883 785.287 314.979 785.407 317.002 785.251 C 319.658 785.045 320.772 784.679 322.511 782.7 L 322.107 780.56 C 319.405 778.771 315.694 778.871 312.537 778.565 C 304.246 777.762 296.048 768.51 289.898 763.089 z"/>
<path transform="translate(0,0)" fill="rgb(231,111,81)" d="M 69.7797 629.129 C 77.0268 617.683 86.864 606.094 97.4032 597.593 C 101.395 605.638 112.202 613.435 118.894 619.715 C 116.201 622.53 113.565 625.452 110.681 628.072 C 104.775 622.218 99.209 617.905 91.9131 613.796 C 92.1082 614.081 92.3002 614.368 92.4985 614.65 C 95.4767 618.892 106.275 628.172 105.59 632.807 L 103.148 633.952 C 96.9792 631.562 90.7349 625.654 85.25 621.811 C 89.2421 628.32 94.49 632.929 100.325 637.738 L 95.0733 645.076 C 87.3517 637.83 80.7796 630.542 69.7797 629.129 z"/>
<path transform="translate(0,0)" fill="rgb(231,111,81)" d="M 367.504 842.605 C 376.16 846.586 387.774 851.372 391.21 861.098 C 392.862 865.776 391.651 869.956 389.802 874.341 C 385.974 878.748 383.064 882.936 376.852 883.796 C 367.106 885.145 355.723 872.844 348.367 867.223 C 355.727 859.552 362.282 851.911 367.504 842.605 z"/>
<path transform="translate(0,0)" fill="rgb(233,196,106)" d="M 335.089 756.08 C 341.158 754.715 346.506 753.051 352.127 756.92 C 355.465 759.217 357.036 762.982 357.578 766.885 C 359.758 782.6 350.779 800.292 343.811 813.834 L 337.148 808.06 C 334.734 803.903 328.3 799.371 324.591 796.147 L 325.776 795.466 C 325.949 795.279 326.138 795.105 326.295 794.904 C 333.837 785.241 336.549 775.658 335.637 763.409 L 335.089 756.08 z"/>
<path transform="translate(0,0)" fill="rgb(231,111,81)" d="M 348.699 1676.88 C 350.246 1678.74 354.326 1722.62 355.375 1729.95 C 334.959 1736.28 314.383 1740.63 293.239 1743.66 C 291.732 1743.86 290.111 1743.8 288.587 1743.86 L 287.408 1742.55 C 294.674 1733.72 303.398 1725.71 311.302 1717.43 A 2051.06 2051.06 0 0 0 348.699 1676.88 z"/>
<path transform="translate(0,0)" fill="rgb(244,162,97)" d="M 256.143 798.108 C 263.899 808.236 294.706 831.737 306.287 840.414 C 309.212 843.408 312.554 846.143 315.659 848.961 C 294.88 845.766 273.43 837.566 252.412 837.652 C 240.854 837.699 229.305 840.148 217.939 842.062 C 221.26 832.834 224 821.371 228.864 812.972 C 234.929 802.497 245.308 800.782 256.143 798.108 z"/>
<path transform="translate(0,0)" fill="rgb(254,254,254)" d="M 331.793 872.113 L 333.271 867.134 L 334.26 866.667 C 335.855 872.328 335.412 878.632 335.894 884.482 C 337.512 904.139 342.131 919.672 355.817 934.267 L 357.058 943.896 C 358.701 965.076 362.108 988.928 359.734 1010.17 C 338.894 999.752 315.34 979.299 307.753 956.65 L 304.899 946.114 C 311.559 940.768 315.729 935.98 317.887 927.564 C 319.37 921.778 319.5 915.711 316.056 910.559 C 308.896 899.848 290.981 898.007 279.296 895.386 C 291.336 895.238 304.608 895.947 315.784 890.727 C 324.084 886.85 328.844 880.601 331.793 872.113 z"/>
<path transform="translate(0,0)" fill="rgb(244,162,97)" d="M 169.953 865.965 C 175.416 862.452 180.709 859.874 186.914 857.907 C 197.317 854.608 239.362 845.408 248.687 845.101 C 261.059 844.694 275.385 849.918 287.719 852.191 C 297.543 854.001 307.7 854.735 317.417 857.003 C 320.931 857.824 324.239 858.881 327.445 860.564 C 329.561 865.63 327.832 870.169 326.259 875.151 C 321.331 882.017 315.69 886.132 307.238 887.674 C 296.245 889.681 264.491 884.761 257.393 889.142 C 237.302 890.403 223.738 882.466 201.989 888.922 C 188.511 889.987 173.938 895.359 160.919 898.977 C 162.423 887.553 164.561 876.24 169.953 865.965 z"/>
<path transform="translate(0,0)" fill="rgb(231,111,81)" d="M 607.756 1787.78 C 610.408 1782.68 612.457 1777.05 614.7 1771.75 C 621.289 1786.23 625.897 1796.05 619.974 1811.96 C 615.37 1824.34 607.121 1835.1 598.803 1845.19 C 573.103 1876.37 544.43 1897.71 507.655 1914.14 C 471.057 1930.5 393.214 1949.6 355.123 1934.16 C 343.384 1929.41 335.399 1920.61 330.727 1909.01 A 62.8141 62.8141 0 0 1 328.924 1903.77 C 339.476 1907.37 349.843 1910 360.875 1911.6 C 391.897 1915.32 425.626 1910.81 455.436 1901.73 C 515.305 1883.48 577.732 1844.22 607.756 1787.78 z"/>
<path transform="translate(0,0)" fill="rgb(231,111,81)" d="M 560.732 1595.6 C 562.933 1608.67 569.267 1621 570.892 1633.95 C 561.377 1645.05 554.366 1659.13 545.623 1670.96 C 494.273 1726.85 416.199 1768.63 341.303 1780.9 C 336.989 1781.48 332.609 1781.93 328.33 1782.72 C 313.398 1783.76 299.938 1784.07 285.135 1781.5 C 283.753 1781.11 282.181 1780.74 280.9 1780.09 C 275.15 1777.19 272.155 1764.59 270.103 1758.75 C 319.716 1763.51 372.12 1745.53 416.516 1724.93 C 464.696 1702.57 524.537 1663.77 551.532 1616.94 C 555.428 1610.18 558.052 1602.9 560.732 1595.6 z"/>
<path transform="translate(0,0)" fill="rgb(233,196,106)" d="M 118.238 633.682 L 125.867 626.063 L 263.218 750.054 C 276.301 761.854 289.945 773.091 302.884 785.017 C 311.332 792.804 319.821 802.493 329.144 809.151 A 741.892 741.892 0 0 0 363.82 840.943 C 358.394 848.75 349.283 857.584 345.523 866.074 C 332.791 852.015 318.07 840.253 303.675 827.982 L 257.474 788.37 A 7267.28 7267.28 0 0 1 150.07 694.436 C 134.41 680.557 114.964 667.484 101.71 651.478 C 107.802 646.051 113.374 640.233 118.238 633.682 z"/>
<path transform="translate(0,0)" fill="rgb(231,111,81)" d="M 549.686 1673.18 C 558.391 1662.81 565.396 1650.72 572.554 1639.26 C 583.201 1665.5 591.941 1693.38 600.347 1720.43 C 604.83 1734.86 610.027 1749.55 612.915 1764.36 L 604.785 1781.15 C 573.876 1836.28 509.838 1880.41 449.612 1897.16 C 423.052 1904.55 395.857 1907.41 368.342 1906.8 C 354.192 1905.14 340.836 1902.29 327.193 1898.27 C 322.586 1893.34 282.624 1793.53 280.945 1783.67 C 297.791 1789.12 313.485 1790.71 331.136 1787.89 C 336.355 1787.8 342.025 1786.46 347.209 1785.64 C 423.256 1773.77 499.689 1731.68 549.686 1673.18 z"/>
<path transform="translate(0,0)" fill="rgb(42,157,143)" d="M 637.538 1753.66 C 656.584 1765.86 677.779 1772.66 698.023 1782.38 C 740.138 1802.6 787.003 1837.7 813.914 1875.86 C 819.977 1884.46 823.785 1894.09 828.879 1903.21 C 827.997 1916.3 825.479 1929.5 823.625 1942.49 A 5700.3 5700.3 0 0 0 814.785 2006.73 C 813.055 2019.74 810.728 2033.05 810.804 2046.2 L 831.115 2046.69 L 831.07 2048 L 810.224 2048 L 395.29 2048 L 392.088 2046.02 L 405.787 2046.09 C 392.216 2022.77 382.045 2000.18 374.56 1974.15 C 402.811 1998.86 433.621 2024.79 471.687 2031.63 A 239.025 239.025 0 0 1 381.113 1957.73 C 392.299 1959.62 404.069 1959.2 415.347 1958.54 C 487.693 1954.32 558.613 1922.75 607.195 1868.42 C 602.924 1882.8 591.003 1925.54 590.91 1938.18 C 597.861 1918.68 603.795 1872.79 614.657 1859.03 C 626.899 1845.09 635.967 1819.88 643.688 1803.05 C 642.269 1797.48 636.976 1785.28 638.073 1780.41 L 639.55 1781.71 C 672.559 1818.06 690.136 1886.62 687.887 1935.46 C 686.764 1959.85 679.375 1979.62 670.393 2001.89 C 670.61 2001.73 670.841 2001.59 671.045 2001.42 C 681.569 1992.56 690.072 1948.15 690.89 1934.09 C 693.027 1897.35 683.037 1863.52 670.969 1829.41 C 668.74 1823.12 669.353 1818.71 664.51 1813.41 C 663.447 1812.24 663.797 1813.02 663.682 1811.21 L 665.438 1811.39 A 792.66 792.66 0 0 1 672.501 1821.25 L 674.873 1820.83 C 681.308 1828.11 686.557 1836.82 691.688 1845.08 C 718.464 1888.16 735.022 1939.27 731.806 1990.42 C 730.966 2003.78 728.779 2017.51 725.889 2030.58 L 726.564 2032.03 C 732.237 2029.39 735.043 2018.44 738.551 2013.14 C 742.773 2000.27 746.889 1987.11 748.465 1973.6 C 756.213 1907.2 716.462 1845.92 677.083 1796.16 C 671.876 1792.15 666.878 1784.6 662.167 1779.7 C 654.861 1772.1 646.76 1765.2 639.662 1757.42 C 638.544 1756.19 638.012 1755.24 637.538 1753.66 z"/>
<path transform="translate(0,0)" fill="rgb(128,188,188)" d="M 810.804 2046.2 L 831.115 2046.69 L 831.07 2048 L 810.224 2048 C 793.375 2044.32 761.443 2047.3 742.731 2047.39 L 615.86 2047.16 C 601.198 2047.17 582.621 2049.46 568.427 2046.31 C 649.142 2045.82 730.1 2045.31 810.804 2046.2 z"/>
<path transform="translate(0,0)" fill="rgb(150,202,194)" d="M 405.787 2046.09 C 459.962 2046.41 514.275 2045.27 568.427 2046.31 C 582.621 2049.46 601.198 2047.17 615.86 2047.16 L 742.731 2047.39 C 761.443 2047.3 793.375 2044.32 810.224 2048 L 395.29 2048 L 392.088 2046.02 L 405.787 2046.09 z"/>
<path transform="translate(0,0)" fill="rgb(38,70,83)" d="M 677.083 1796.16 C 683.027 1796.99 686.025 1802.03 689.495 1806.65 C 722.484 1850.56 760.328 1915 751.794 1971.4 C 750.004 1983.23 746.897 2003.83 738.551 2013.14 C 742.773 2000.27 746.889 1987.11 748.465 1973.6 C 756.213 1907.2 716.462 1845.92 677.083 1796.16 z"/>
<path transform="translate(0,0)" fill="rgb(233,196,106)" d="M 614.657 1859.03 C 615.659 1869.79 614.688 1880.68 613.605 1891.4 C 608.909 1937.86 592.548 1984.46 562.491 2020.79 C 558.518 2025.59 552.613 2034.52 546.593 2036.08 L 545.448 2034.9 C 546.112 2029.81 564.15 2001.43 567.83 1994.51 C 576.516 1978.17 587.188 1956.31 590.91 1938.18 C 597.861 1918.68 603.795 1872.79 614.657 1859.03 z"/>
<path transform="translate(0,0)" fill="rgb(233,196,106)" d="M 643.688 1803.05 C 642.269 1797.48 636.976 1785.28 638.073 1780.41 L 639.55 1781.71 C 672.559 1818.06 690.136 1886.62 687.887 1935.46 C 686.764 1959.85 679.375 1979.62 670.393 2001.89 C 666.592 2004.91 662.265 2013.63 659.094 2017.8 C 655.636 2022.35 651.848 2026.34 647.762 2030.33 C 651.965 2013.28 658.983 1997.1 662.954 1979.91 C 677.26 1918.01 665.431 1861.17 643.688 1803.05 z"/>
<path transform="translate(0,0)" fill="rgb(244,162,97)" d="M 397.522 864.941 L 398.736 858.727 C 399.714 861.588 399.634 863.282 402.328 864.803 C 415.816 896.777 419.561 936.527 428.616 970.215 C 433.721 989.208 441.662 1007.52 448.449 1025.96 C 462.854 1065.11 472.79 1106.15 472.732 1148.1 C 472.702 1170.71 466.165 1190.63 462.836 1212.56 C 459.305 1235.82 461.199 1260.24 464.207 1283.48 C 475.777 1372.89 497.363 1461.64 519.038 1549.05 C 524.279 1570.19 531.251 1590.99 536.078 1612.2 C 493.24 1666.98 432.093 1701.17 368.296 1725.93 A 19884.6 19884.6 0 0 1 337.562 1428.49 C 333.062 1385.36 329.83 1300.05 314.376 1263.46 C 299.263 1227.69 264.995 1198.63 238.161 1171.28 C 216.245 1148.94 194.067 1126.84 173.385 1103.33 C 161.095 1089.36 147.06 1074.42 140.746 1056.68 C 132.774 1034.29 133.568 1007.55 133.173 984.014 C 132.887 966.994 129.965 936.508 135.588 920.767 C 154.012 904.767 183.283 903.693 205.75 895.927 C 226.596 892.66 234.038 889.018 254.934 896.044 C 266.382 899.367 298.023 905.574 306.118 910.727 C 307.98 911.913 309.33 913.463 310.377 915.395 C 312.652 919.596 312.611 924.832 311.11 929.291 C 309.637 933.672 306.298 936.827 302.143 938.721 C 280.668 948.515 253.95 936.408 232.705 932.126 C 217.39 938.592 201.928 945.838 186.094 950.919 C 180.655 952.664 170.241 952.652 166.01 955.504 L 166.205 957.111 C 171.271 960.745 181.103 960.198 187.248 960.046 C 183.279 975.34 180.199 990.613 178.926 1006.39 C 170.943 1014.31 162.473 1021.95 156.411 1031.5 C 169.234 1023.58 180.285 1012.96 192.492 1004.13 C 209.323 991.948 260.546 963.263 280.492 957.613 C 282.315 957.096 281.451 957.403 283.489 956.323 A 211.985 211.985 0 0 1 277.113 950.738 C 253.266 959.776 231.815 972.351 208.956 983.326 L 207.641 982.855 C 209.502 978.924 206.055 960.194 206.136 953.794 C 215.12 949.934 223.735 945.95 232.214 941.054 C 255.183 949.123 276.844 951.781 300.719 947.218 C 301.463 952.241 302.858 957.956 302.995 962.987 C 315.553 992.293 342.038 1014.96 371.493 1026.73 A 97.7336 97.7336 0 0 0 406.52 1033.69 C 396.728 1028.61 377.402 1017.66 367.153 1015.5 C 367.468 1013.97 367.64 1012.4 367.817 1010.85 C 369.419 996.823 370.775 953.182 361.859 941.896 L 362.347 939.09 C 369.085 936.655 378.001 940.942 384.871 938.507 C 386.398 937.966 386.31 937.299 386.941 935.966 C 385.739 934.532 366.084 931.017 358.181 923.757 C 344.415 911.11 342.804 889.502 341.926 871.976 C 353.769 879.482 361.381 887.456 375.437 891.488 C 382.89 886.598 389.154 882.725 394.105 875.085 C 395.306 871.729 396.387 868.32 397.522 864.941 z"/>
<path transform="translate(0,0)" fill="rgb(38,70,83)" d="M 296.314 980.491 C 295.625 972.856 295.726 964.724 289.708 959.086 C 289.473 958.866 289.207 958.68 288.956 958.478 C 291.021 958.291 291.428 958.961 292.94 960.26 C 297.056 963.799 298.039 970.332 298.237 975.453 C 298.691 987.152 292.766 994.118 285.139 1002.08 C 284.08 1003.19 284.398 1002.85 283.068 1004.02 L 282.639 1006.23 L 286.263 1006.04 L 286.935 1006.7 C 282.111 1016.16 252.999 1031.89 242.702 1040.48 C 232.173 1049.26 222.843 1059.51 212.569 1068.61 C 227.373 1037.03 254.503 1022.06 279.777 1000.04 C 285.705 993.966 292.221 988.008 296.314 980.491 z"/>
<path transform="translate(0,0)" fill="rgb(38,70,83)" d="M 270.227 1038.83 C 271.472 1040.08 271.015 1039.35 271.607 1041.15 C 273.994 1048.42 277.623 1056.94 283.089 1062.45 C 293.616 1073.07 312.585 1079.63 325.761 1086.49 C 341.062 1094.46 356.998 1103.81 370.095 1115.07 C 384.317 1127.31 395.585 1143.21 396.977 1162.4 C 395.521 1161.32 395.778 1161.75 394.983 1160.46 C 368.733 1117.97 354.999 1112.72 312.125 1088.72 C 301.332 1082.68 290.363 1076.6 281.891 1067.4 C 274.379 1059.24 269.862 1050.02 270.227 1038.83 z"/>
<path transform="translate(0,0)" fill="rgb(38,70,83)" d="M 907.051 84.8769 C 903.976 91.157 899.931 97.6946 902.249 104.914 C 904.505 111.942 912.301 118.342 918.698 121.478 C 925.747 124.934 933.196 125.051 940.471 122.214 C 961.393 114.056 969.251 89.8491 984.089 74.8785 C 1013.94 44.7603 1068.21 34.4542 1108.78 40.2966 C 1121.91 42.1877 1134.57 46.239 1146.83 51.2395 C 1185.25 66.9098 1214.76 91.1691 1242.85 121.127 C 1249.04 127.734 1258.99 128.613 1266.23 133.74 C 1278.72 142.592 1288.61 155.64 1298.42 167.254 C 1405.78 196.11 1526.46 259.21 1583.78 358.794 C 1610.12 404.555 1619.21 449.393 1611.5 501.582 L 1612.39 502.46 C 1618.94 508.74 1627.14 513.353 1633.8 519.74 C 1658.94 543.862 1671.93 577.927 1673.02 612.395 C 1673.82 637.915 1667.44 662.149 1659.84 686.269 C 1650.09 717.195 1611.94 792.804 1639.93 820.254 C 1647.1 827.285 1654.48 828.261 1663.93 828.226 C 1654.37 844.278 1642.14 856.352 1623.49 861.075 C 1615.78 863.028 1608.12 863.01 1600.22 863.001 C 1598.46 881.767 1596.14 897.211 1580.46 910.031 C 1570.59 918.103 1543.96 931.217 1531.35 930.361 C 1531 930.338 1530.67 930.258 1530.33 930.207 C 1528.85 919.645 1559.64 905.425 1537.97 850.308 C 1538.37 874.522 1532.34 892.936 1515.18 910.491 C 1488.97 937.319 1459.77 940.257 1425.12 946.455 C 1442.69 962.746 1456.77 979.794 1457.76 1004.8 C 1457.99 1010.75 1457.26 1016.85 1456.69 1022.78 C 1476.86 1034.6 1506.69 1061.04 1525.2 1076.83 C 1583.17 1126.25 1641.97 1189.87 1687.34 1251.1 C 1791.75 1392.03 1877.89 1570.35 1943.84 1732.37 C 1973.31 1804.78 2001.75 1878.5 2021.47 1954.28 C 2027.01 1975.56 2031.93 1997.04 2037 2018.43 C 2039.15 2027.54 2040.65 2037.21 2043.48 2046.09 L 2043.99 2048 L 2026.43 2048 L 1884.08 2048 L 1867.86 2048 L 1318.46 2048 L 1316.25 2048 L 1300.1 2048 L 1207.72 2048 L 1171.84 2048 L 1075.03 2048 L 1058.88 2048 L 1034.78 2048 L 1009.27 2048 L 1000.65 2048 L 963.007 2048 L 958.056 2048 L 867.159 2048 L 844.974 2048 L 831.07 2048 L 831.115 2046.69 L 810.804 2046.2 C 810.728 2033.05 813.055 2019.74 814.785 2006.73 A 5700.3 5700.3 0 0 1 823.625 1942.49 C 825.479 1929.5 827.997 1916.3 828.879 1903.21 C 823.785 1894.09 819.977 1884.46 813.914 1875.86 C 787.003 1837.7 740.138 1802.6 698.023 1782.38 C 677.779 1772.66 656.584 1765.86 637.538 1753.66 C 638.012 1755.24 638.544 1756.19 639.662 1757.42 C 646.76 1765.2 654.861 1772.1 662.167 1779.7 C 666.878 1784.6 671.876 1792.15 677.083 1796.16 C 716.462 1845.92 756.213 1907.2 748.465 1973.6 C 746.889 1987.11 742.773 2000.27 738.551 2013.14 C 735.043 2018.44 732.237 2029.39 726.564 2032.03 L 725.889 2030.58 C 728.779 2017.51 730.966 2003.78 731.806 1990.42 C 735.022 1939.27 718.464 1888.16 691.688 1845.08 C 686.557 1836.82 681.308 1828.11 674.873 1820.83 C 666.763 1809.04 653.281 1789.43 641.793 1781.36 C 640.925 1780.5 640.082 1779.61 639.211 1778.75 C 630.846 1770.51 628.011 1754.38 624.66 1743.19 C 627.974 1744.06 629.698 1745 632.447 1747.05 L 637.832 1746.62 C 650.685 1732.6 658.885 1714.22 670.964 1699.56 C 681.996 1686.16 698.623 1674.96 707.515 1660.26 C 710.526 1655.28 710.276 1648.23 710.004 1642.55 C 709.11 1623.87 706.981 1607.52 709.714 1588.76 C 712.406 1570.28 720.741 1554.82 726.323 1537.33 C 734.619 1511.34 739.148 1482.59 751.876 1458.37 C 761.467 1440.11 771.208 1421.55 781.796 1403.86 C 789.988 1390.18 799.944 1376.47 806.504 1361.97 L 805.189 1361.32 C 789.836 1353.88 757.307 1347.73 751.274 1329.81 C 748.851 1322.61 752.606 1313.49 756.072 1307.26 C 765.643 1290.04 782.217 1275.43 795.951 1261.42 C 819.604 1237.27 843.48 1212.87 868.426 1190.06 C 887.861 1172.3 908.601 1155.81 927.719 1137.74 C 910.826 1114.34 894.166 1090.3 880.919 1064.59 C 855.716 1015.68 841.102 960.795 800.052 921.82 C 761.813 885.515 710.28 861.945 662.593 840.695 C 645.149 832.922 626.314 826.5 610.112 816.333 C 598.865 809.275 588.929 800.384 582.396 788.696 A 69.5965 69.5965 0 0 1 574.465 743.721 C 580.01 710.372 605.199 706.762 619.014 681.891 L 619.044 680.227 C 619.323 659.441 608.482 643.288 625.845 625.709 C 635.358 616.078 644.79 612.118 658.129 611.945 C 650.256 605.047 639.398 592.055 638.597 581.272 C 638.19 575.783 640.619 570.876 644.387 567.018 C 654.657 556.501 677.693 551.655 678.363 534.241 C 678.827 522.172 668.695 509.414 663.645 498.996 C 655.369 481.924 648.508 457.402 663.599 442.112 C 683.878 421.565 779.13 432.357 810.373 406.87 C 824.658 395.218 820.876 375.35 822.701 359.076 C 823.646 350.651 825.787 343.109 829.162 335.344 C 840.972 308.174 859.723 288.07 880.011 267.164 C 870.035 267.461 860.148 267.029 852.565 259.523 C 846.132 253.156 844.723 244.018 844.923 235.328 C 844.978 232.921 845.027 231.191 846.586 229.236 C 848.41 230.228 847.707 229.502 848.595 231.288 C 852.466 239.073 855.661 242.002 863.901 244.71 C 869.742 246.629 877.241 248.147 882.916 244.965 C 894.153 238.663 918.6 196.274 932.704 184.171 C 915.16 182.513 899.364 178.97 887.68 164.457 C 879.933 154.834 876.706 143.364 878.152 131.119 C 880.171 114.015 890.291 97.4746 903.954 87.1572 A 169.35 169.35 0 0 1 907.051 84.8769 z"/>
<path transform="translate(0,0)" fill="rgb(128,188,188)" d="M 844.889 2046.99 C 852.387 2046.8 859.96 2046.38 867.448 2046.81 L 867.159 2048 L 844.974 2048 L 844.889 2046.99 z"/>
<path transform="translate(0,0)" fill="rgb(128,188,188)" d="M 2043.48 2046.09 L 2043.99 2048 L 2026.43 2048 L 2020.4 2046.37 L 2027.27 2046.36 C 2032.69 2046.5 2038.08 2046.78 2043.48 2046.09 z"/>
<path transform="translate(0,0)" fill="rgb(42,157,143)" d="M 1040.5 210.002 C 1037.04 204.956 1036.14 198.368 1032.76 193.046 C 1030.68 189.764 1028.86 186.578 1028.45 182.631 C 1028.09 179.211 1028.89 175.687 1031.11 173.008 A 10.1481 10.1481 0 0 1 1038.76 169.329 C 1043.66 169.27 1048.1 172.292 1051.25 175.796 C 1057.07 182.247 1061.55 195.95 1060.56 204.828 C 1060.32 206.985 1060.26 206.899 1058.43 208.229 C 1056.01 207.233 1056.32 206.629 1055.23 204.367 C 1054.1 197.078 1050.38 183.064 1044.22 178.236 C 1041.84 176.377 1041.19 176.486 1038.35 176.666 C 1037.06 177.731 1036.75 177.478 1036.6 178.844 C 1035.92 185.078 1049.61 204.991 1043.54 209.005 C 1043.1 209.293 1041.05 209.843 1040.5 210.002 z"/>
<path transform="translate(0,0)" fill="rgb(42,157,143)" d="M 1367.38 799.844 C 1376.19 801.842 1408.89 824.503 1419.95 830.184 C 1433.67 837.229 1450.12 836.678 1461.3 849.126 C 1459.59 849.603 1458.05 849.986 1456.26 849.981 C 1427.43 849.892 1387.73 819.351 1367.38 799.844 z"/>
<path transform="translate(0,0)" fill="rgb(42,157,143)" d="M 1233.78 165.369 L 1236.34 167.222 C 1238.04 170.606 1238.87 173.679 1239.35 177.443 C 1241.52 194.58 1239.57 214.396 1228.52 228.325 C 1217.03 242.806 1199.36 247.684 1181.85 249.901 C 1179.7 249.45 1179.07 249.352 1177.3 247.931 C 1180.51 244.615 1201.99 239.392 1210.67 232.791 C 1226.16 221.012 1232.26 204.915 1232.86 186.051 C 1233.05 179.913 1232.54 173.335 1233.47 167.292 C 1233.57 166.65 1233.68 166.01 1233.78 165.369 z"/>
<path transform="translate(0,0)" fill="rgb(42,157,143)" d="M 1125.99 447.595 C 1132.87 451.205 1142.14 466.423 1147.7 472.838 C 1171.23 499.997 1200.54 517.468 1233.85 529.812 C 1218.84 531.289 1200.64 523.674 1187.59 516.873 C 1165.24 505.229 1133.41 471.56 1125.99 447.595 z"/>
<path transform="translate(0,0)" fill="rgb(42,157,143)" d="M 1259.78 153.303 C 1260.9 153.959 1261.92 154.66 1262.85 155.58 C 1277.57 170.147 1285.88 195.989 1285.92 216.35 C 1285.96 231.303 1281.61 247.386 1270.86 258.182 C 1268.3 257.853 1266.57 257.683 1264.31 256.356 C 1264.93 252.501 1267.67 249.104 1269.42 245.636 C 1279 226.576 1278.53 199.926 1269.77 180.686 C 1266.11 172.656 1260.23 164.923 1257.41 156.642 L 1259.78 153.303 z"/>
<path transform="translate(0,0)" fill="rgb(42,157,143)" d="M 1179.87 138.489 C 1180.18 138.631 1180.51 138.738 1180.81 138.916 C 1185.98 142.028 1190.49 151.668 1191.99 157.18 C 1196.95 175.398 1194.04 195.586 1184.93 211.995 C 1176.15 227.807 1163.06 237.058 1145.87 241.921 C 1143.53 241.972 1142.31 242.366 1140.23 241.112 C 1144.01 234.694 1154.7 229.628 1160.56 224.641 C 1167.41 218.812 1173.24 211.053 1177.32 203.061 C 1188.1 181.921 1187.13 160.481 1179.87 138.489 z"/>
<path transform="translate(0,0)" fill="rgb(233,196,106)" d="M 1003.17 1270.68 C 1009.27 1283.27 1010.85 1324.4 1013.48 1341.24 C 1004.86 1341.86 996.393 1341.95 987.752 1341.75 L 974.925 1340.89 C 985.004 1317.89 991.714 1292.91 1003.17 1270.68 z"/>
<path transform="translate(0,0)" fill="rgb(42,157,143)" d="M 1168.67 787.237 L 1169.57 787.122 L 1170.19 787.955 C 1152.81 811.956 1141.63 840.044 1143.54 870.103 C 1143.81 874.352 1143.89 879.473 1145.13 883.552 C 1147.67 891.905 1155.74 900.633 1156.98 908.625 L 1155.28 908.013 C 1148.13 900.425 1142.58 892.648 1138.75 882.881 C 1127.4 853.956 1132.68 819.481 1144.86 791.75 C 1152.85 790.578 1160.76 788.852 1168.67 787.237 z"/>
<path transform="translate(0,0)" fill="rgb(231,111,81)" d="M 624.004 641.82 C 625.724 633.906 629.422 626.92 636.396 622.377 C 643.025 618.058 651.191 615.845 659.01 617.603 C 678.874 622.07 693.49 645.484 708.495 651.111 L 704.393 651.618 C 685.073 654.002 646.945 643.168 624.004 641.82 z"/>
<path transform="translate(0,0)" fill="rgb(233,196,106)" d="M 998.796 1265.94 L 999.494 1267.35 C 985.629 1288.13 975.055 1317.71 967.004 1341.41 C 957.566 1339.57 948.336 1337.68 939.208 1334.6 C 936.256 1333.48 934.092 1332.49 931.655 1330.46 C 932.607 1319.13 988.249 1275.85 998.796 1265.94 z"/>
<path transform="translate(0,0)" fill="rgb(42,157,143)" d="M 1081.19 190.365 C 1080.11 176.461 1077.12 163.666 1065.96 154.134 C 1054.12 144.025 1037.83 140.093 1022.51 141.497 C 1007.01 142.918 988.456 151.808 978.269 163.737 C 975.052 167.505 972.464 172.78 968.276 175.467 L 966.694 174.922 C 965.972 171.049 966.81 168.839 969.105 165.66 C 980.397 150.022 1001.85 135.889 1021.11 133.271 C 1039.86 130.724 1060.42 134.295 1075.52 146.227 C 1087.39 155.604 1094.25 168.498 1095.56 183.53 C 1096.22 190.985 1095.46 199.988 1093.65 207.254 C 1093.46 208.027 1093.19 209.316 1092.84 210.001 C 1091.88 211.897 1089.7 213.254 1087.57 213.351 C 1084.68 213.48 1083.84 212.707 1081.69 211.068 C 1080.57 208.782 1080.29 207.573 1080.54 205.021 C 1081.01 200.14 1081.07 195.264 1081.19 190.365 z"/>
<path transform="translate(0,0)" fill="rgb(42,157,143)" d="M 978.037 130.208 C 997.796 111.647 1019.23 99.8389 1047.13 100.597 C 1070 101.219 1094.94 111.358 1110.73 128.089 C 1124.72 142.916 1131.27 162.693 1130.56 182.888 C 1130.27 191.177 1126.9 222.151 1121.21 227.607 C 1120.81 227.99 1120.25 228.284 1119.76 228.559 L 1117.25 227.297 C 1117.2 226.696 1117.13 226.097 1117.09 225.496 C 1116.58 218.345 1118.62 209.968 1119.53 202.739 C 1122.93 175.453 1121.92 149.649 1100.16 129.873 C 1085.04 116.139 1061.83 108.74 1041.58 109.817 C 1015.21 111.219 1000.96 118.923 978.037 130.208 z"/>
<path transform="translate(0,0)" fill="rgb(42,157,143)" d="M 1191.24 780.18 C 1192.13 781.106 1207.46 820.774 1210.33 826.9 C 1220.06 847.661 1233.63 864.578 1247.14 882.812 C 1216.7 861.265 1205.23 838.273 1189.59 805.626 C 1182.23 816.074 1178.64 827.281 1174.56 839.253 C 1172.68 847.569 1170.92 855.835 1170.36 864.36 C 1168.74 888.934 1178.2 907.457 1193.95 925.561 C 1186.32 921.781 1178.93 917.895 1172.68 911.99 C 1161.76 901.658 1157.05 887.611 1156.88 872.884 C 1156.55 845.295 1168.66 818.904 1187.74 799.311 L 1182.57 784.956 L 1191.24 780.18 z"/>
<path transform="translate(0,0)" fill="rgb(42,157,143)" d="M 1187.62 291.782 C 1189.04 292.303 1190.22 292.762 1191.52 293.549 C 1223.53 312.915 1250.2 359.743 1257.62 395.669 C 1248.11 394.726 1240.41 390.24 1233.26 384.128 C 1212.44 366.341 1201.43 343.094 1193.5 317.391 C 1190.95 309.131 1188.27 300.437 1187.62 291.782 z"/>
<path transform="translate(0,0)" fill="rgb(38,70,83)" d="M 1199.71 309.485 C 1212.27 316.155 1242.77 369.594 1248.08 384.596 C 1247.55 384.422 1247 384.3 1246.49 384.074 C 1224.25 374.234 1207.22 330.663 1199.71 309.485 z"/>
<path transform="translate(0,0)" fill="rgb(42,157,143)" d="M 1103.8 371.628 C 1108.4 378.287 1111.32 387.663 1114.84 395.061 A 229.639 229.639 0 0 0 1143.18 441.056 C 1180.82 487.66 1219.92 498.887 1277.59 501.364 C 1294.04 502.07 1310.58 502.105 1326.96 503.906 C 1336.6 504.967 1364.02 506.966 1369.48 513.77 A 506.055 506.055 0 0 0 1320.1 510.896 C 1263.21 510.647 1203.63 514.907 1157.94 473.982 C 1129.84 448.818 1105.8 410.041 1103.8 371.628 z"/>
<path transform="translate(0,0)" fill="rgb(42,157,143)" d="M 1053.63 67.4222 C 1058.92 66.683 1064.93 66.864 1070.26 67.1889 C 1100.19 69.0157 1133.06 78.9901 1153.4 102.199 C 1167.13 117.86 1174.32 140.164 1172.87 160.924 C 1170.96 188.159 1158.8 212.186 1137.96 229.846 C 1135.78 231.693 1133.61 233.843 1130.7 233.601 C 1130.66 226.004 1146.28 206.985 1150.71 199.059 C 1153.76 193.597 1156.01 187.98 1158.16 182.118 C 1163.64 160.763 1163.97 139.128 1152.67 119.542 C 1140.71 98.801 1120.21 88.9662 1097.86 82.9637 C 1066.37 74.5082 1031.49 73.9185 1001.29 87.545 C 992.058 91.7136 984.127 97.2795 975.424 102.312 C 998.87 78.8241 1020.45 70.5604 1053.63 67.4222 z"/>
<path transform="translate(0,0)" fill="rgb(233,196,106)" d="M 1377.86 1201.81 C 1381.66 1205.88 1387.92 1219.81 1391.68 1225.81 C 1421.47 1273.46 1451.65 1320.23 1478.87 1369.46 C 1482.5 1376.03 1489.96 1386.58 1491.08 1393.85 C 1488.6 1395.82 1484.7 1395.95 1481.65 1396.43 L 1477.98 1396.22 C 1475.22 1394.78 1473.45 1391.13 1471.85 1388.52 C 1460.21 1369.59 1450.17 1349.53 1438.85 1330.37 C 1425.42 1307.63 1410.65 1285.69 1396.69 1263.28 C 1387.66 1248.77 1379.03 1231.29 1367.93 1218.42 C 1371.12 1212.82 1374.54 1207.34 1377.86 1201.81 z"/>
<path transform="translate(0,0)" fill="rgb(42,157,143)" d="M 1112.3 327.649 C 1114.2 333.866 1114.29 340.975 1115.99 347.401 C 1121.29 367.485 1137.77 387.797 1151.87 402.468 C 1188.3 440.402 1235.97 464.04 1287.03 475.379 C 1312.7 481.079 1337.66 485.575 1360.62 499.275 C 1365.55 502.221 1379.01 509.622 1380.42 515.313 L 1378.52 515.925 C 1366.56 510.627 1356.61 502.862 1343.82 498.75 C 1290.52 481.603 1235.65 481.042 1187.55 448.542 C 1149.68 422.958 1115.81 386.414 1106.9 340.41 C 1108.45 336.053 1110.41 331.869 1112.3 327.649 z"/>
<path transform="translate(0,0)" fill="rgb(42,157,143)" d="M 845.954 1371.82 C 865.578 1380.27 883.483 1390.39 901.167 1402.3 C 888.329 1448.28 882.317 1495.72 874.922 1542.78 C 874.023 1550.43 873.013 1557.78 871.021 1565.24 L 870.588 1565.1 C 870.618 1549.16 871.068 1533.4 870.261 1517.45 C 868.594 1484.46 859.834 1398.59 845.954 1371.82 z"/>
<path transform="translate(0,0)" fill="rgb(231,111,81)" d="M 781.682 1301.67 C 785.26 1302.91 788.831 1304.14 792.449 1305.25 L 800.091 1307.39 C 833.399 1318.41 864.231 1332.53 893.893 1351.35 C 894.13 1351.51 894.37 1351.67 894.604 1351.84 C 905.76 1359.87 907.097 1378.95 909.238 1391.65 C 880.248 1373.55 849.934 1359.13 818.569 1345.64 C 806.19 1340.32 785.471 1334.91 774.959 1327.5 C 772.788 1325.97 771.447 1324.3 771.391 1321.52 C 771.242 1314.15 777.146 1306.99 781.682 1301.67 z"/>
<path transform="translate(0,0)" fill="rgb(233,196,106)" d="M 1123.56 1596.25 C 1129.09 1599.75 1137.85 1602.37 1141.98 1607.36 C 1144.14 1636.05 1147.65 1664.59 1150.87 1693.17 C 1154.06 1721.45 1156.94 1749.82 1161.03 1777.98 L 1172.51 1852.05 C 1177.13 1881.53 1183.14 1912.01 1179.89 1941.97 L 1180.98 1943.34 C 1181.2 1947.08 1181.03 1949.7 1183.59 1952.6 C 1183.68 1952.7 1183.76 1952.8 1183.85 1952.91 C 1184.33 1964 1182.88 1975.79 1182.06 1986.89 C 1179.31 1969.93 1178.82 1953.07 1175.3 1936.15 C 1165.98 1896.83 1159.6 1857.73 1153.1 1817.91 C 1145.37 1770.49 1137.69 1722.87 1131.75 1675.18 C 1128.48 1648.93 1126.43 1622.54 1123.56 1596.25 z"/>
<path transform="translate(0,0)" fill="rgb(42,157,143)" d="M 1271.79 645.731 C 1279.7 651.876 1289.62 682.616 1297.87 694.417 C 1328.98 738.911 1380.72 727.031 1426.8 735.216 C 1457.13 740.604 1477.85 752.22 1495.49 777.704 C 1508.05 795.85 1516.92 823.498 1512.36 845.676 C 1511.7 848.872 1510.79 850.817 1507.94 852.624 C 1489.47 854.82 1453.91 822.604 1442.75 809.947 C 1434.44 800.513 1428.28 789.195 1418.46 781.136 C 1407.12 771.832 1393.43 766.54 1379.71 761.819 C 1374.61 759.869 1369.42 757.88 1364.48 755.533 C 1371.97 755.509 1380.35 757.925 1387.57 759.829 C 1443.39 774.542 1455.24 820.05 1502.86 841.428 C 1504.08 818.205 1498.71 803.312 1485.49 784.499 C 1447.58 730.559 1401.19 747.969 1346.8 737.956 C 1322.6 733.503 1303.12 721.893 1289.24 701.355 C 1280.99 689.149 1268.86 660.49 1271.79 645.731 z"/>
<path transform="translate(0,0)" fill="rgb(42,157,143)" d="M 1276.97 631.933 C 1279.27 632.42 1281.38 632.825 1283.3 634.255 C 1288.9 638.436 1293.32 644.93 1297.53 650.422 C 1310.86 667.817 1324.58 687.574 1344.72 697.6 C 1376.75 713.54 1409.84 711.703 1444.35 715.098 C 1476.33 718.245 1513.35 730.56 1539.18 750.019 C 1560.48 766.066 1574.96 787.876 1578.42 814.556 C 1579.04 819.323 1579.98 824.425 1576.88 828.398 C 1574 828.462 1572.59 827.924 1570.28 826.115 C 1562 819.626 1554.66 811.306 1546.6 804.426 C 1529.88 790.154 1512.04 776.809 1494.01 764.243 C 1486.39 760.214 1478.88 756.218 1471.7 751.418 C 1505.45 760.114 1547.78 785.852 1569.79 812.862 C 1568.84 807.737 1567.71 803.083 1565.44 798.362 C 1556.41 779.483 1542.47 767.906 1525.03 756.939 C 1482.68 730.301 1447.3 726.211 1399.07 721.888 C 1381.55 720.318 1363.77 718.506 1347.1 712.53 C 1310.61 699.445 1292.41 665.089 1276.97 631.933 z"/>
<path transform="translate(0,0)" fill="rgb(233,196,106)" d="M 1058.88 2048 C 1053.89 2019.11 1050.65 1989.87 1046.97 1960.79 C 1039.13 1898.69 1032.06 1836.3 1021.91 1774.53 A 1522.27 1522.27 0 0 0 1004.19 1681.23 C 996.499 1646.78 967.314 1557.66 974.656 1527.33 C 977.285 1516.47 989.561 1496.09 999.039 1490.51 L 999.838 1491.88 L 997.878 1496.12 C 990.873 1499.92 981.606 1517.32 979.356 1524.69 C 974.754 1539.75 977.78 1555.36 981.682 1570.24 A 1434.4 1434.4 0 0 0 991.322 1604.44 C 999.908 1630.74 1008.66 1657.32 1015.53 1684.12 C 1031.09 1744.87 1041.23 1807.98 1049.35 1870.15 A 8160.94 8160.94 0 0 0 1065.11 1989.97 C 1067.68 2008.22 1068.98 2029.7 1074.88 2047.09 L 1075.03 2048 L 1058.88 2048 z"/>
<path transform="translate(0,0)" fill="rgb(233,196,106)" d="M 867.448 2046.81 C 870.384 2028.98 871.383 2010.53 873.097 1992.54 C 875.708 1965.14 878.667 1937.68 880.517 1910.22 C 881.506 1895.54 880.971 1880.4 882.773 1865.85 C 893.253 1930.08 912.029 1999.59 958.056 2048 L 867.159 2048 L 867.448 2046.81 z"/>
<path transform="translate(0,0)" fill="rgb(42,157,143)" d="M 1538.82 1426.23 C 1554.42 1431.1 1569.52 1439.74 1583.85 1447.52 C 1676.26 1497.75 1733.63 1583.11 1781.35 1674.13 C 1807.27 1723.58 1828.82 1775.21 1850.78 1826.49 L 1870.73 1873.01 C 1873.71 1879.89 1876.4 1887.7 1880.12 1894.19 C 1881.59 1897.88 1877.01 1951.34 1876.26 1959.31 A 1502.81 1502.81 0 0 0 1769.27 1674.02 C 1761.77 1659.2 1753.02 1645.09 1745.11 1630.49 C 1723.82 1591.16 1701.22 1548.3 1666.6 1518.78 C 1655.45 1509.27 1644.03 1500.12 1633.02 1490.42 C 1620.72 1479.57 1609.48 1468.27 1595.79 1459.06 C 1586.31 1452.69 1543.39 1431.82 1540.75 1429.19 C 1539.91 1428.36 1539.46 1427.22 1538.82 1426.23 z"/>
<path transform="translate(0,0)" fill="rgb(233,196,106)" d="M 830.541 1366.88 L 842.44 1370.75 C 853.046 1430.89 858.892 1490.95 863.207 1551.81 C 866.806 1602.57 869.509 1653.1 868.606 1704.02 C 867.402 1771.95 861.567 1840.06 856.365 1907.79 A 4992.83 4992.83 0 0 1 848.91 2002.31 C 847.669 2017.05 847.214 2032.41 844.889 2046.99 L 844.974 2048 L 831.07 2048 L 831.115 2046.69 C 833.374 2016.66 837.399 1986.79 840.676 1956.85 A 3960.61 3960.61 0 0 0 849.486 1857.81 C 857.437 1743.67 854.828 1630.08 846.635 1516.07 C 843.066 1466.4 839.843 1415.86 830.541 1366.88 z"/>
<path transform="translate(0,0)" fill="rgb(233,196,106)" d="M 1496.12 1408.44 C 1505.07 1407.71 1513.24 1407.6 1522.11 1409.15 C 1556.19 1415.12 1604.25 1440.25 1632.77 1460.64 L 1653.78 1476.89 C 1669.75 1490.43 1685.23 1504.35 1699.17 1520 C 1756.46 1584.31 1800.03 1675.89 1834.72 1754.22 C 1849.52 1787.63 1865.76 1821.76 1875.79 1856.97 C 1877.72 1869.24 1880.3 1881.73 1880.12 1894.19 C 1876.4 1887.7 1873.71 1879.89 1870.73 1873.01 L 1850.78 1826.49 C 1828.82 1775.21 1807.27 1723.58 1781.35 1674.13 C 1733.63 1583.11 1676.26 1497.75 1583.85 1447.52 C 1569.52 1439.74 1554.42 1431.1 1538.82 1426.23 C 1527.95 1422.97 1518.43 1421.02 1507.09 1420.78 C 1503.56 1416.5 1500.07 1412.35 1496.12 1408.44 z"/>
<path transform="translate(0,0)" fill="rgb(233,196,106)" d="M 1412.07 1445.62 C 1426.66 1434.78 1449.68 1414.88 1468.96 1417.39 C 1474.63 1418.12 1478.8 1421.32 1482.81 1425.15 C 1390.27 1455.66 1313.64 1573.47 1271.56 1657.04 A 903.663 903.663 0 0 0 1193.1 1885.05 C 1189.72 1901.45 1188.25 1918.08 1185.15 1934.45 C 1184.91 1930.06 1185.32 1928.13 1182.26 1924.88 A 1380.84 1380.84 0 0 1 1185.26 1884.51 C 1195.81 1777.04 1235.16 1684.49 1290.05 1592.41 C 1312.56 1554.64 1338.13 1515.88 1368.48 1483.89 C 1381.77 1469.87 1397.15 1457.86 1412.07 1445.62 z"/>
<path transform="translate(0,0)" fill="rgb(42,157,143)" d="M 658.851 1733.22 C 698.539 1722.55 741.958 1720.15 782.881 1721.31 C 795.224 1721.66 808.026 1725.53 820.248 1724.81 C 824.005 1763.38 830.226 1818.04 824.271 1856.13 C 822.785 1856.42 822.501 1856.76 821.085 1855.7 C 817.423 1852.97 813.557 1846.54 810.326 1843 C 794.677 1825.84 779.326 1807.45 759.846 1794.52 C 750.959 1788.58 742.036 1782.56 732.192 1778.3 C 705.3 1763.06 687.012 1751.72 656.973 1741.83 C 656.448 1739.2 658.034 1735.8 658.851 1733.22 z"/>
<path transform="translate(0,0)" fill="rgb(42,157,143)" d="M 818.521 1375.22 C 824.961 1415.37 826.634 1455.74 829.488 1496.23 C 833.459 1552.57 837.494 1608.2 838.397 1664.69 C 838.65 1680.52 841.353 1698.79 836.997 1714.16 C 833.008 1707.91 823.062 1660.3 819.632 1648.28 C 810.424 1616.01 799.032 1584.22 789.48 1552.01 C 784.517 1535.27 779.04 1517.72 776.926 1500.35 C 774.5 1480.41 777.708 1460.65 781.344 1441.09 C 789.837 1434.05 811.834 1387.12 818.521 1375.22 z"/>
<path transform="translate(0,0)" fill="rgb(42,157,143)" d="M 686.948 1710.36 C 684.889 1710.75 683.115 1710.9 681.02 1710.84 L 683.517 1708.27 L 682.603 1708.26 C 682.969 1708.15 683.375 1708.13 683.701 1707.93 C 691.664 1703.12 722.166 1670.89 725.347 1662.09 C 732.035 1643.59 724.293 1619.74 726.055 1600.2 C 727.661 1582.4 735.115 1564.39 740.116 1547.28 C 746.429 1525.7 751.538 1502.14 760.729 1481.62 C 761.871 1498.52 762.157 1516.18 766.404 1532.62 C 769.638 1545.14 774.779 1557.14 778.181 1569.64 C 783.669 1583.47 787.588 1598.01 791.687 1612.31 C 800.511 1643.08 808.025 1672.96 812.49 1704.69 C 790.814 1699.38 763.492 1695.9 741.413 1699.78 C 722.343 1701.46 705.224 1704.41 686.948 1710.36 z"/>
<path transform="translate(0,0)" fill="rgb(231,111,81)" d="M 935.506 1153.54 C 950.162 1169.73 959.777 1189.02 971.364 1207.29 C 951.089 1225.53 889.059 1292.19 887.766 1317.47 C 887.276 1327.04 891.455 1336.07 894.631 1344.89 C 886.365 1340.82 878.773 1334.38 870.605 1329.85 C 850.57 1318.76 826.837 1309.75 804.919 1303.08 L 795.663 1300.36 C 792.037 1299.45 788.689 1298.41 785.249 1296.94 C 833.426 1246.99 884.772 1200.79 935.506 1153.54 z"/>
<path transform="translate(0,0)" fill="rgb(231,111,81)" d="M 1011.96 817.723 A 532.539 532.539 0 0 0 1031.93 813.102 C 1026.42 826.67 1019.23 839.012 1009.98 850.39 C 978.864 888.67 907.185 939.653 861.132 959.373 C 856.866 961.2 852.475 962.699 848.074 964.163 C 820.152 914.839 776.146 881.727 725.059 859.192 C 717.533 855.872 697.419 849.284 692.303 844.455 L 694.07 844.066 C 710.723 849.981 728.63 852.534 746.007 855.437 C 809.159 865.984 883.579 873.3 945.733 855.122 L 947.525 854.707 C 966.215 850.203 1001.7 834.705 1011.96 817.723 z"/>
<path transform="translate(0,0)" fill="rgb(233,196,106)" d="M 780.808 1568.48 C 773.108 1543.52 765.724 1518.51 762.97 1492.43 C 761.137 1475.08 770.555 1454.58 781.344 1441.09 C 777.708 1460.65 774.5 1480.41 776.926 1500.35 C 779.04 1517.72 784.517 1535.27 789.48 1552.01 C 799.032 1584.22 810.424 1616.01 819.632 1648.28 C 823.062 1660.3 833.008 1707.91 836.997 1714.16 C 835.775 1722.04 836.779 1730.97 836.963 1738.99 A 1223.34 1223.34 0 0 1 837.38 1779.22 C 837.245 1803.54 835.09 1827.69 833.288 1851.92 C 832.018 1868.99 831.34 1886.26 828.879 1903.21 C 823.785 1894.09 819.977 1884.46 813.914 1875.86 C 787.003 1837.7 740.138 1802.6 698.023 1782.38 C 677.779 1772.66 656.584 1765.86 637.538 1753.66 C 638.012 1755.24 638.544 1756.19 639.662 1757.42 C 646.76 1765.2 654.861 1772.1 662.167 1779.7 C 666.878 1784.6 671.876 1792.15 677.083 1796.16 C 716.462 1845.92 756.213 1907.2 748.465 1973.6 C 746.889 1987.11 742.773 2000.27 738.551 2013.14 C 735.043 2018.44 732.237 2029.39 726.564 2032.03 L 725.889 2030.58 C 728.779 2017.51 730.966 2003.78 731.806 1990.42 C 735.022 1939.27 718.464 1888.16 691.688 1845.08 C 686.557 1836.82 681.308 1828.11 674.873 1820.83 C 666.763 1809.04 653.281 1789.43 641.793 1781.36 C 640.925 1780.5 640.082 1779.61 639.211 1778.75 C 630.846 1770.51 628.011 1754.38 624.66 1743.19 C 627.974 1744.06 629.698 1745 632.447 1747.05 L 637.832 1746.62 C 642.708 1746.9 647.759 1746.45 652.564 1747.18 C 681.022 1751.53 708.043 1769.11 732.844 1782.96 A 681.254 681.254 0 0 1 764.004 1803.7 C 785.442 1821.49 805.041 1839.52 822.823 1861.03 L 823.882 1860.88 C 824.019 1859.31 824.234 1857.71 824.271 1856.13 C 830.226 1818.04 824.005 1763.38 820.248 1724.81 C 810.743 1716.47 737.339 1717.78 721.613 1718.81 C 710.428 1719.54 680.362 1721.52 671.349 1725.54 C 668.304 1726.25 665.743 1726.94 662.584 1726.49 L 662.66 1725.23 C 669.975 1719.52 680.203 1716.62 688.885 1713.7 C 707.865 1708.43 726.624 1705.71 746.18 1704.01 C 770.037 1703.11 793.494 1703.98 817 1708.52 C 807.403 1660.92 795.552 1614.76 780.808 1568.48 z"/>
<path transform="translate(0,0)" fill="rgb(42,157,143)" d="M 1256.63 279.025 C 1308.67 276.66 1357.3 296.423 1400.58 323.905 C 1423.2 338.274 1442.96 354.96 1463.28 372.296 C 1476.88 383.91 1490.97 394.94 1503.8 407.433 C 1533.41 436.251 1559.62 475.287 1568.51 516.026 C 1571.45 529.518 1572.09 539.98 1564.49 551.945 C 1560.97 540.342 1560.77 527.683 1557.49 515.907 C 1548.46 483.435 1530.85 456.226 1509.3 430.691 C 1502.66 422.812 1496.19 414.913 1488.03 408.536 C 1492.13 413.737 1495.87 419.254 1499.69 424.656 C 1514.21 447.037 1525.33 472.951 1532.67 498.596 C 1542.57 533.154 1546.92 574.561 1528.8 607.343 C 1525.64 597.688 1523.88 587.428 1521.28 577.587 C 1518.13 565.652 1514.02 553.916 1510.03 542.242 C 1504.81 527.019 1497.54 512.769 1490.43 498.381 C 1481.21 479.728 1472.07 460.913 1460.17 443.774 C 1412.09 374.495 1331.75 315.772 1256.63 279.025 z"/>
<path transform="translate(0,0)" fill="rgb(38,70,83)" d="M 1288.83 286.185 C 1353.85 300.456 1425.03 344.747 1467.88 395.664 C 1510.04 445.752 1534.66 514.496 1529.02 579.979 C 1527.96 580.023 1523.84 564.422 1520.26 549.654 C 1512.86 519.241 1501.27 490.986 1485.79 463.852 C 1449.58 400.376 1391.51 349.905 1331.04 310.216 C 1317.84 301.548 1302.29 295.872 1289.55 286.713 C 1289.31 286.541 1289.07 286.361 1288.83 286.185 z"/>
<path transform="translate(0,0)" fill="rgb(233,196,106)" d="M 975.734 1216.71 C 986.218 1227.09 992.658 1244.93 998.827 1258.1 C 989.617 1265.27 980.75 1272.87 971.579 1280.09 C 958.983 1290 945.542 1299.7 934.56 1311.45 C 930.003 1316.33 923.438 1324.1 924.375 1331.29 C 924.886 1335.21 926.745 1338.05 929.831 1340.43 C 948.205 1354.55 1005.41 1351.92 1028.63 1349.25 C 1010.35 1388.64 991.547 1432.55 982.964 1475.2 L 990.871 1482.26 C 986.344 1488.76 980.954 1494.7 976.315 1501.14 C 960.07 1523.69 961.84 1541.85 966.506 1567.71 L 972.77 1604.14 C 977.026 1625.28 979.143 1646.56 981.637 1667.95 C 977.699 1661.46 975.373 1641.06 972.905 1632.04 C 964.23 1600.33 953.818 1569.41 946.94 1537.18 A 4323.5 4323.5 0 0 1 926.099 1429.67 C 923.029 1412.68 920.849 1395.27 917.016 1378.46 C 913.299 1362.15 897.938 1332.73 897.891 1318.93 C 897.82 1297.86 960.079 1233.69 975.734 1216.71 z"/>
<path transform="translate(0,0)" fill="rgb(231,111,81)" d="M 1415.31 958.091 C 1427.03 965.566 1435.31 982.516 1438.14 995.77 C 1443.68 1021.64 1433.11 1049.59 1422.93 1073.01 C 1400.87 1123.78 1370.23 1171.2 1341.75 1218.55 C 1312.58 1267.04 1284.24 1317.07 1260.23 1368.32 C 1244.97 1400.89 1230.61 1435.21 1218.4 1469.03 L 1195.07 1534.01 C 1190.22 1547.85 1186.37 1566.51 1178.31 1578.51 C 1174.58 1584.07 1168.63 1588.29 1161.91 1589.25 C 1144.67 1591.71 1121.84 1572.54 1109.57 1562.46 L 1054.33 1516.65 C 1035.54 1500.77 1017.62 1484.95 997.148 1471.18 C 1000.27 1464.34 1008.08 1442.4 1013.77 1438.45 C 1027.63 1452.68 1142.86 1556.14 1154.69 1556.53 C 1155.06 1556.13 1155.44 1555.74 1155.79 1555.32 C 1161.9 1548.07 1167.15 1521.72 1170.52 1510.92 A 1390.77 1390.77 0 0 1 1207.89 1408.46 A 1386.47 1386.47 0 0 1 1285.72 1249.85 C 1324.74 1181.44 1406.99 1068.52 1416.61 991.403 C 1417.99 980.325 1416.75 969.092 1415.31 958.091 z"/>
<path transform="translate(0,0)" fill="rgb(233,196,106)" d="M 916.176 1435.65 C 919.191 1449.36 921.108 1463.29 923.755 1477.07 C 930.691 1513.16 938.333 1549.89 948.698 1585.16 C 955.569 1608.55 964.103 1631.59 972.435 1654.49 C 975.989 1664.26 981.18 1674.26 983.41 1684.4 C 1000.07 1760.13 1005.84 1838.37 1017.31 1914.96 C 1005.56 1907.5 993.455 1900.43 982.062 1892.44 C 963.134 1879.17 945.568 1864.31 928.044 1849.27 C 949.093 1878.28 985.27 1912.03 1018.04 1927.4 C 1025.67 1967.2 1028.06 2008.05 1034.78 2048 L 1009.27 2048 L 1000.65 2048 L 963.007 2048 C 929.369 2002.53 891.218 1896.37 887.109 1839.98 C 885.719 1820.92 887.576 1801.27 888.263 1782.17 A 6494.9 6494.9 0 0 0 890.302 1702.23 C 891.245 1658.82 889.611 1613.92 895.416 1570.86 L 896.311 1572.02 L 896.977 1573.87 C 899.401 1580.83 900.415 1588.77 901.955 1595.99 C 904.501 1607.93 907.376 1619.53 910.957 1631.21 C 928.204 1687.43 950.8 1743.39 979.331 1794.89 C 981.43 1798.68 986.257 1809.32 989.474 1811.21 C 988.662 1804.4 983.256 1795.5 980.636 1788.95 A 2992.95 2992.95 0 0 1 959.047 1733.69 A 5651.53 5651.53 0 0 1 924.263 1641.22 C 915.97 1618.18 908.455 1594.61 899.407 1571.87 L 895.453 1563.91 C 900.51 1521.28 907.083 1477.58 916.176 1435.65 z"/>
<path transform="translate(0,0)" fill="rgb(38,70,83)" d="M 939.61 1950.67 C 963.738 1984.04 981.869 2015.78 1009.27 2048 L 1000.65 2048 C 974.814 2019.49 952.236 1987.31 939.61 1950.67 z"/>
<path transform="translate(0,0)" fill="rgb(42,157,143)" d="M 997.878 1496.12 C 1001.9 1497.07 1005.15 1498.19 1008.62 1500.53 C 1022.26 1509.29 1034.02 1522.95 1046.3 1533.69 C 1064.87 1549.93 1085.74 1565.28 1102.86 1582.93 L 1103.07 1583.99 C 1101.65 1585.2 1099.26 1586.47 1099.13 1588.4 C 1098.71 1594.33 1101.21 1601.71 1101.95 1607.72 A 2923.49 2923.49 0 0 0 1117.22 1710.89 C 1128.61 1780.68 1136.62 1851.08 1148.41 1920.79 C 1153.65 1951.8 1160.27 1982.64 1166.28 2013.51 C 1168.41 2024.49 1171.1 2035.54 1172.72 2046.59 L 1175.64 2046.2 C 1191.82 2047.77 1208.26 2045.5 1224.44 2046.79 C 1218.93 2047.18 1213.17 2047.25 1207.72 2048 L 1171.84 2048 L 1075.03 2048 L 1074.88 2047.09 C 1068.98 2029.7 1067.68 2008.22 1065.11 1989.97 A 8160.94 8160.94 0 0 1 1049.35 1870.15 C 1041.23 1807.98 1031.09 1744.87 1015.53 1684.12 C 1008.66 1657.32 999.908 1630.74 991.322 1604.44 A 1434.4 1434.4 0 0 1 981.682 1570.24 C 977.78 1555.36 974.754 1539.75 979.356 1524.69 C 981.606 1517.32 990.873 1499.92 997.878 1496.12 z"/>
<path transform="translate(0,0)" fill="rgb(128,188,188)" d="M 1172.72 2046.59 L 1175.64 2046.2 C 1191.82 2047.77 1208.26 2045.5 1224.44 2046.79 C 1218.93 2047.18 1213.17 2047.25 1207.72 2048 L 1171.84 2048 L 1075.03 2048 L 1074.88 2047.09 C 1088.94 2046.6 1103.93 2045.61 1117.9 2046.79 C 1135.41 2045.24 1155.25 2045.18 1172.72 2046.59 z"/>
<path transform="translate(0,0)" fill="rgb(150,202,194)" d="M 1074.88 2047.09 C 1088.94 2046.6 1103.93 2045.61 1117.9 2046.79 C 1134.75 2048.22 1155.89 2044.61 1171.84 2048 L 1075.03 2048 L 1074.88 2047.09 z"/>
<path transform="translate(0,0)" fill="rgb(38,70,83)" d="M 986.385 1550.79 C 983.314 1543.48 984.522 1536.06 987.238 1528.73 C 990.607 1519.63 998.387 1508.46 1007.5 1504.34 C 1007.3 1504.85 1007.11 1505.37 1006.9 1505.88 C 1005.5 1509.32 1003.12 1512.4 1001.21 1515.57 C 994.577 1526.61 990.791 1536.8 990.897 1549.82 C 991.123 1552.66 991.017 1555.56 992.607 1558.02 C 998.688 1547.95 1007.55 1541.06 1019.05 1538.13 C 1027.51 1535.98 1036.03 1537.59 1043.41 1542.17 C 1056.43 1550.26 1065.66 1566.81 1068.52 1581.68 C 1070.6 1592.51 1068.86 1604.21 1062.66 1613.47 C 1058.22 1620.1 1051.88 1624.24 1044.01 1625.62 C 1033.31 1627.49 1020.95 1624.98 1012.26 1618.35 C 1005.52 1613.21 1000.52 1605.7 996.296 1598.44 L 993.647 1597.44 C 991.808 1599.66 991.557 1601.55 991.322 1604.44 A 1434.4 1434.4 0 0 1 981.682 1570.24 L 983.708 1569.66 C 984.642 1568.01 984.662 1568.49 984.729 1566.95 C 984.859 1564 984.93 1561.21 985.306 1558.26 L 986.385 1550.79 z"/>
<path transform="translate(0,0)" fill="rgb(231,111,81)" d="M 1021.46 1546.18 C 1027.13 1545.72 1032.26 1546.26 1037.43 1548.83 C 1048.36 1554.28 1056.9 1565.73 1060.44 1577.27 C 1063.19 1586.28 1062.85 1597.08 1058.32 1605.49 C 1054.68 1612.23 1049.94 1615.71 1042.79 1618.02 C 1037.07 1618.56 1031.13 1617.91 1025.84 1615.62 C 1015.34 1611.07 1008.65 1601.66 1004.91 1591.14 C 1001.34 1581.1 999.698 1568.48 1004.78 1558.69 C 1008.63 1551.27 1013.9 1548.78 1021.46 1546.18 z"/>
<path transform="translate(0,0)" fill="rgb(38,70,83)" d="M 1022.53 1571.09 C 1025.29 1570.96 1028.21 1570.71 1030.96 1571.12 C 1035.84 1571.86 1041.3 1575.33 1044.14 1579.34 C 1045.89 1581.8 1046.54 1584.79 1045.77 1587.73 C 1044.64 1592.02 1041.74 1593.94 1038.29 1596.3 C 1035.77 1596.49 1033.11 1596.75 1030.6 1596.35 C 1025.53 1595.56 1019.88 1592.01 1016.94 1587.8 C 1015.18 1585.28 1014.37 1582.31 1015.24 1579.28 C 1016.38 1575.34 1019.24 1573.2 1022.53 1571.09 z"/>
<path transform="translate(0,0)" fill="rgb(254,254,254)" d="M 1022.12 1576.53 C 1024.27 1576.59 1026.36 1576.72 1028.43 1577.32 C 1033.19 1578.68 1036.16 1580.3 1038.65 1584.6 C 1039.21 1587.84 1038.73 1589 1037.45 1591.88 C 1035.17 1592.03 1033.25 1592.16 1030.98 1591.71 C 1027.9 1591.11 1024.5 1588.9 1022.88 1586.2 C 1020.83 1582.77 1021.16 1580.25 1022.12 1576.53 z"/>
<path transform="translate(0,0)" fill="rgb(42,157,143)" d="M 1360.11 1231.48 C 1373.42 1257.47 1391.45 1282.13 1406.72 1307.07 C 1425.91 1338.4 1442.76 1374.37 1466.91 1402.06 C 1452.12 1409.01 1419.57 1430.88 1412.07 1445.62 C 1397.15 1457.86 1381.77 1469.87 1368.48 1483.89 C 1338.13 1515.88 1312.56 1554.64 1290.05 1592.41 C 1235.16 1684.49 1195.81 1777.04 1185.26 1884.51 A 1380.84 1380.84 0 0 0 1182.26 1924.88 C 1185.32 1928.13 1184.91 1930.06 1185.15 1934.45 L 1183.85 1952.91 C 1183.76 1952.8 1183.68 1952.7 1183.59 1952.6 C 1181.03 1949.7 1181.2 1947.08 1180.98 1943.34 L 1179.89 1941.97 C 1183.14 1912.01 1177.13 1881.53 1172.51 1852.05 L 1161.03 1777.98 C 1156.94 1749.82 1154.06 1721.45 1150.87 1693.17 C 1147.65 1664.59 1144.14 1636.05 1141.98 1607.36 C 1152.35 1609.42 1162.42 1610.72 1172.86 1608.1 C 1185.29 1604.97 1193.62 1596.68 1199.46 1585.59 C 1206.03 1573.12 1210.03 1558.96 1214.55 1545.64 C 1223.13 1520.37 1231.12 1494.73 1241.02 1469.95 C 1255.11 1434.7 1270.09 1398.63 1286.72 1364.53 C 1308.82 1319.24 1334.33 1274.77 1360.11 1231.48 z"/>
<path transform="translate(0,0)" fill="rgb(233,196,106)" d="M 1182.26 1924.88 C 1185.32 1928.13 1184.91 1930.06 1185.15 1934.45 L 1183.85 1952.91 C 1183.76 1952.8 1183.68 1952.7 1183.59 1952.6 C 1181.03 1949.7 1181.2 1947.08 1180.98 1943.34 C 1180.28 1937.14 1181.39 1931.02 1182.26 1924.88 z"/>
<path transform="translate(0,0)" fill="rgb(233,196,106)" d="M 1398.31 1311.67 C 1391.7 1323.44 1374.22 1338.75 1365.09 1350.26 C 1334.46 1388.86 1307.94 1428.16 1286.72 1472.77 C 1282.32 1481.59 1277.82 1490.67 1274.5 1499.95 C 1272.57 1505.34 1271.35 1510.92 1268.99 1516.15 C 1267.33 1503.03 1278.9 1476.66 1283.57 1463.23 L 1284.41 1461.65 C 1290.67 1449.68 1294.62 1436.47 1300.86 1424.41 C 1324.19 1379.36 1357.67 1341.78 1398.31 1311.67 z"/>
<path transform="translate(0,0)" fill="rgb(38,70,83)" d="M 1230.66 1675.11 C 1232.82 1651.46 1233.53 1627.68 1236.18 1604.06 C 1238.65 1582.05 1242.99 1560.17 1247.17 1538.43 C 1258.32 1480.51 1271.68 1422.18 1305.9 1372.99 C 1302.26 1382.36 1297.97 1391.42 1294.65 1400.93 C 1290.09 1413.99 1277.77 1456.33 1279.65 1469.02 C 1279.71 1468.85 1279.77 1468.67 1279.82 1468.5 C 1280.39 1466.38 1280.82 1464.79 1282.03 1462.93 L 1283.57 1463.23 C 1278.9 1476.66 1267.33 1503.03 1268.99 1516.15 C 1271.35 1510.92 1272.57 1505.34 1274.5 1499.95 C 1277.82 1490.67 1282.32 1481.59 1286.72 1472.77 C 1286.93 1484.95 1279.44 1500.74 1276.26 1512.73 C 1267.05 1547.42 1258.43 1582.22 1248.58 1616.74 C 1242.99 1636.33 1236.32 1655.56 1230.66 1675.11 z"/>
<path transform="translate(0,0)" fill="rgb(231,111,81)" d="M 1243.71 917.39 C 1271.73 926.564 1291.84 951.178 1326.47 948.826 C 1331.81 948.463 1339.28 947.854 1342.89 943.759 L 1342.71 941.467 C 1337.22 932.702 1324.42 927.714 1316.12 921.526 C 1326.27 923.618 1336.19 927.253 1346.12 930.187 C 1362.75 935.101 1380.24 939.238 1396.07 946.339 C 1403.19 949.531 1409.15 953.328 1415.31 958.091 L 1415.17 958.923 C 1412.74 973.256 1412.42 987.44 1408.7 1001.71 C 1389.04 1076.94 1342.66 1143 1302.29 1208.24 A 1578.46 1578.46 0 0 0 1259.13 1283.77 A 1291.37 1291.37 0 0 0 1152.35 1548.4 C 1117.13 1522.52 1084.41 1493.03 1051.61 1464.16 C 1040.5 1454.39 1029.82 1444.15 1018.32 1434.84 L 1016.6 1432.4 C 1017.04 1422.32 1043.47 1367.41 1049.49 1353.8 C 1093.69 1253.87 1135.2 1152.09 1188.33 1056.42 C 1203.91 1028.37 1220.73 1000.49 1238.04 973.492 C 1245.97 961.129 1255.87 949.039 1262.96 936.29 C 1264.11 934.216 1263.83 934.723 1263.24 932.69 C 1260.37 930.536 1257.71 931.664 1254.66 930.625 C 1250.69 929.276 1246.05 920.872 1243.71 917.39 z"/>
<path transform="translate(0,0)" fill="rgb(42,157,143)" d="M 1454.41 1041.51 C 1471.73 1053.9 1489.18 1066.34 1505.36 1080.21 C 1524.86 1096.92 1542.85 1115.59 1560.78 1133.96 A 1196.73 1196.73 0 0 1 1678.84 1274.2 C 1706.95 1313.08 1732.02 1354.2 1756.57 1395.39 A 2577.11 2577.11 0 0 1 2027.27 2046.36 L 2020.4 2046.37 L 2026.43 2048 L 1884.08 2048 L 1884.72 2046.23 C 1888.11 2012.62 1887.81 1976.39 1893.14 1943.19 C 1893.89 1934.23 1893.86 1925.14 1894.09 1916.15 C 1883.47 1900.5 1887.69 1874.39 1875.79 1856.97 C 1865.76 1821.76 1849.52 1787.63 1834.72 1754.22 C 1800.03 1675.89 1756.46 1584.31 1699.17 1520 C 1685.23 1504.35 1669.75 1490.43 1653.78 1476.89 L 1653.54 1475.23 C 1650.46 1471.55 1648.32 1467.72 1647.1 1463.05 C 1646.38 1460.32 1645.37 1457.82 1644.28 1455.22 C 1646.64 1456.99 1648.91 1458.47 1651.51 1459.84 C 1651.05 1458.99 1650.99 1458.8 1650.26 1457.96 C 1643.46 1450.23 1632.35 1443.71 1623.66 1438.32 C 1589.36 1417.04 1552.63 1400.12 1512.16 1395.8 C 1500.61 1352.08 1452.23 1282.46 1424.24 1245.18 L 1422.76 1243.28 C 1419.17 1240.38 1416.57 1236.31 1413.81 1232.64 C 1430.84 1221.76 1472.94 1205.52 1493.09 1199.06 C 1501 1196.52 1509.22 1194.97 1517.21 1192.62 L 1516.91 1189.61 L 1518.58 1191.88 L 1519.05 1191.26 L 1516.81 1191.83 L 1517.47 1191.28 C 1489.75 1195.4 1462.98 1201.9 1437.47 1213.75 C 1428.36 1217.98 1419.8 1223.26 1410.66 1227.45 C 1401.79 1215.35 1392.79 1204.8 1381.84 1194.45 C 1407.7 1144.85 1440.37 1096.28 1454.41 1041.51 z"/>
<path transform="translate(0,0)" fill="rgb(150,202,194)" d="M 1884.72 2046.23 C 1929.94 2047.17 1975.21 2045.59 2020.4 2046.37 L 2026.43 2048 L 1884.08 2048 L 1884.72 2046.23 z"/>
<path transform="translate(0,0)" fill="rgb(233,196,106)" d="M 1422.76 1243.28 C 1435.88 1229.08 1492.7 1207.81 1512.09 1202.6 C 1524.01 1199.4 1536.57 1197.08 1548.92 1196.56 L 1550.02 1196.53 C 1529.67 1209.13 1505.75 1214.21 1483.13 1221.43 C 1462.88 1227.89 1443.17 1235.45 1424.24 1245.18 L 1422.76 1243.28 z"/>
<path transform="translate(0,0)" fill="rgb(233,196,106)" d="M 1814.43 1591.8 C 1829.94 1604.57 1839.35 1624.48 1848.47 1642 C 1877.23 1697.22 1911.09 1781.05 1917.14 1843.05 C 1920.07 1873.01 1915.13 1902.33 1901.23 1929.08 C 1898.8 1933.76 1896.39 1939.03 1893.14 1943.19 C 1893.89 1934.23 1893.86 1925.14 1894.09 1916.15 C 1913.57 1886.03 1907.6 1838.39 1900.4 1805.02 C 1887.65 1745.92 1848.26 1641.64 1814.43 1591.8 z"/>
<path transform="translate(0,0)" fill="rgb(42,157,143)" d="M 1207.48 2045.73 C 1208.47 1892.88 1243.39 1757.65 1319.36 1624.89 C 1345.75 1578.77 1376.09 1534.12 1414 1496.65 C 1431.62 1479.24 1478.35 1436.85 1502.77 1436.74 C 1556.54 1436.51 1630.54 1506.26 1666.57 1543.19 C 1682.81 1559.83 1694.65 1578.32 1706.85 1597.87 C 1735.89 1644.4 1758.69 1692.25 1780.61 1742.41 C 1790.2 1764.34 1800.14 1786.03 1808.46 1808.49 C 1822.38 1846.03 1833.9 1884.56 1845.43 1922.89 C 1851.7 1943.72 1864.3 1979.07 1866.73 1998.95 C 1867.43 2004.62 1867.11 2010.43 1867.02 2016.13 C 1866.88 2026.1 1866.61 2036.03 1866.93 2046 L 1867.86 2048 L 1318.46 2048 L 1316.25 2048 L 1300.1 2048 L 1207.72 2048 C 1213.17 2047.25 1218.93 2047.18 1224.44 2046.79 C 1208.26 2045.5 1191.82 2047.77 1175.64 2046.2 C 1186.21 2045.42 1196.89 2045.72 1207.48 2045.73 z"/>
<path transform="translate(0,0)" fill="rgb(150,202,194)" d="M 1224.44 2046.79 C 1240.3 2046.27 1286.51 2044.66 1300.32 2046.85 L 1300.1 2048 L 1207.72 2048 C 1213.17 2047.25 1218.93 2047.18 1224.44 2046.79 z"/>
<path transform="translate(0,0)" fill="rgb(128,188,188)" d="M 1318.46 2048 C 1335.95 2044.29 1358.53 2046.6 1376.73 2046.67 L 1478.41 2046.85 L 1866.93 2046 L 1867.86 2048 L 1318.46 2048 z"/>
<path transform="translate(0,0)" fill="rgb(233,196,106)" d="M 1663.93 1819.09 L 1664.45 1820.27 C 1591.23 1913.07 1492.28 1983.07 1383.43 2028.01 L 1382.73 2027.61 C 1385.66 2022.29 1464.46 1977.04 1477.29 1968.67 C 1516.31 1943.22 1554.5 1916.13 1589.7 1885.55 C 1614.2 1864.27 1637.17 1840.01 1662.65 1820.08 L 1663.93 1819.09 z"/>
<path transform="translate(0,0)" fill="rgb(233,196,106)" d="M 1300.32 2046.85 C 1305.72 2038.68 1316.26 1999.03 1322.08 1985.46 C 1349.91 1920.5 1384.95 1857.03 1427.2 1800.27 C 1436.19 1788.18 1445.49 1775.33 1456.51 1765.01 C 1410.4 1840.99 1367.76 1912.67 1334.86 1995.79 C 1328.24 2012.51 1320.31 2030.45 1316.25 2048 L 1300.1 2048 L 1300.32 2046.85 z"/>
<path transform="translate(0,0)" fill="rgb(244,162,97)" d="M 1054.25 211.867 C 1076.03 212.468 1098.18 216.275 1117.25 227.297 L 1119.76 228.559 L 1130.27 237.513 C 1096.16 284.903 1082.6 331.075 1092.16 389.303 C 1100.88 442.42 1114.14 481.726 1102.47 537.041 C 1098.43 556.183 1087.05 572.938 1087.15 593.036 C 1087.21 604.51 1090.97 615.393 1100.67 622.177 C 1112.38 630.373 1129.95 628.416 1143.26 625.635 C 1173.3 619.359 1207.63 600.705 1236.91 619.007 C 1251.29 627.997 1260 643.652 1263.32 659.962 C 1268.41 684.91 1257.49 708.083 1243.95 728.464 C 1222.62 760.557 1183.2 773.758 1146.94 780.901 C 1123.1 785.598 1067.4 795.94 1047.15 782.771 C 1041.05 778.809 1038.06 773.051 1036.87 765.993 C 1035.49 757.833 1036.69 751.573 1040.18 744.269 C 1041.01 742.52 1040.77 743.228 1040.82 741.112 C 1038.58 741.051 1037.18 742.014 1035.51 743.439 C 1030.85 747.415 1029.79 754.926 1029.68 760.652 C 1029.49 770.568 1032.1 781.631 1039.51 788.731 C 1052.16 800.866 1082.91 797.741 1099.17 796.832 A 286.517 286.517 0 0 0 1132.98 792.72 C 1120.67 823.573 1116.89 856.315 1130.45 887.58 C 1141.35 912.678 1164.78 929.657 1189.72 939.317 C 1202.39 944.225 1216.04 947.25 1229.66 947.114 A 1849.4 1849.4 0 0 0 1106.76 1172.38 C 1095.62 1196.44 1085.54 1220.95 1074.82 1245.19 C 1060.79 1276.93 1045.76 1308.47 1032.53 1340.53 C 1029.51 1340.36 1024.95 1340.69 1022.54 1338.83 C 1016.37 1308.59 1017.55 1281.63 1007.41 1251.27 C 993.095 1208.38 967.435 1168.63 941.5 1131.87 C 927.678 1112.29 913.136 1093.01 900.827 1072.41 C 880.244 1037.98 866.082 999.974 848.074 964.163 C 852.475 962.699 856.866 961.2 861.132 959.373 C 907.185 939.653 978.864 888.67 1009.98 850.39 C 1019.23 839.012 1026.42 826.67 1031.93 813.102 A 532.539 532.539 0 0 1 1011.96 817.723 C 1006.16 818.039 994.789 828.595 988.909 831.86 C 973.421 840.457 956.983 844.714 939.815 848.622 C 913.159 853.967 884.985 855.287 857.849 854.582 C 801.069 853.108 638.161 835.972 599.586 794.632 C 588.284 782.519 582.469 765.514 583.363 748.992 C 584.564 726.798 599.704 715.664 614.612 702.045 C 638.415 680.301 623.026 667.1 624.004 641.82 C 646.945 643.168 685.073 654.002 704.393 651.618 L 708.495 651.111 C 708.179 648.551 707.337 646.353 706.442 643.958 C 698.344 635.129 690.156 626.313 681.431 618.095 C 672.502 609.684 661.887 601.812 654.548 591.937 C 649.449 585.076 647.642 579.861 648.86 571.416 C 657.764 560.4 673.684 557.154 682.002 544.713 C 695.008 525.26 667.153 496.833 663.216 473.697 C 661.715 464.876 662.892 454.799 668.55 447.525 C 675.029 439.194 716.112 437.491 728.207 435.995 C 888.124 416.22 794.034 388.894 858.199 307.476 A 257.911 257.911 0 0 1 1028.36 212.642 C 1036.99 212.102 1045.61 211.971 1054.25 211.867 z"/>
<path transform="translate(0,0)" fill="rgb(38,70,83)" d="M 1084.48 743.411 C 1090.02 743.333 1098.05 743.071 1103.12 745.336 L 1100.53 744.34 L 1102.19 746.091 C 1093.98 749.188 1084.13 749.381 1075.47 750.795 C 1070.38 752.267 1065.88 754.056 1060.57 752.931 L 1059.96 751.55 C 1060.25 751.196 1060.53 750.831 1060.83 750.489 C 1066.48 744.213 1076.71 743.916 1084.48 743.411 z"/>
<path transform="translate(0,0)" fill="rgb(38,70,83)" d="M 1180.84 648.972 C 1181.5 648.945 1182.15 648.902 1182.81 648.892 C 1193.4 648.732 1211.22 660.304 1218.38 667.884 C 1220.78 670.429 1223.26 673.485 1223.18 677.053 C 1216.25 673.339 1184.84 655.931 1180.54 651.471 L 1180.84 648.972 z"/>
<path transform="translate(0,0)" fill="rgb(38,70,83)" d="M 756.199 514.496 C 756.913 515.104 757.632 515.637 758.132 516.467 C 759.54 518.809 760.227 523.647 759.486 526.333 C 758.118 531.288 753.861 535.176 749.769 537.964 C 739.275 545.113 728.704 545.763 716.69 543.388 L 712.907 541.526 L 712.574 540.268 C 722.119 538.948 731.079 540.225 740.114 535.719 C 749.287 531.145 752.954 523.645 756.199 514.496 z"/>
<path transform="translate(0,0)" fill="rgb(38,70,83)" d="M 687.049 491.599 A 27.3564 27.3564 0 0 1 691.418 492.274 C 701.428 494.655 711.081 504.278 716.387 512.873 C 719.95 518.646 722.02 522.746 720.376 529.497 C 719.098 529.531 718.313 529.591 716.996 529.437 C 711.197 528.756 701.954 518.08 698.117 513.64 C 692.633 507.296 686.429 500.457 687.049 491.599 z"/>
<path transform="translate(0,0)" fill="rgb(231,111,81)" d="M 648.86 571.416 C 659.543 570.574 665.871 567.695 674.757 575.499 C 692.503 591.083 704.117 620.914 706.442 643.958 C 698.344 635.129 690.156 626.313 681.431 618.095 C 672.502 609.684 661.887 601.812 654.548 591.937 C 649.449 585.076 647.642 579.861 648.86 571.416 z"/>
<path transform="translate(0,0)" fill="rgb(38,70,83)" d="M 1196.8 632.263 C 1203.49 631.178 1210.53 631.287 1217.05 633.261 C 1226.31 636.064 1233.32 642.665 1237.68 651.191 C 1244.55 664.614 1244.59 681.346 1239.74 695.455 C 1235.19 708.712 1223.12 726.798 1210.1 732.661 C 1207.52 733.822 1204.84 734.437 1202.13 733.429 C 1203.44 730.087 1210.22 726.462 1212.95 723.73 C 1221.21 715.482 1229.32 705.89 1233.73 694.967 C 1238.4 683.422 1236.96 668.692 1231.78 657.433 C 1228.42 650.134 1222.86 644.422 1215.16 641.821 C 1207.42 639.202 1180.25 639.397 1173.03 644.034 C 1169.06 646.588 1168.71 652.744 1167.97 656.989 C 1170.77 676.494 1192.27 683.163 1195.06 703.761 A 37.7761 37.7761 0 0 1 1187.22 732.705 C 1176.21 746.749 1161.17 751.232 1144.29 753.381 C 1144.16 752.41 1143.53 751.371 1143.91 750.469 C 1144.99 747.885 1178.01 741.373 1187.15 721.776 C 1198.2 698.109 1167.99 685.765 1162.17 667.109 C 1160.21 660.835 1161.09 653.44 1164.5 647.805 C 1170.89 637.234 1185.69 634.704 1196.8 632.263 z"/>
<path transform="translate(0,0)" fill="rgb(38,70,83)" d="M 1140.89 655.735 L 1142.46 657.28 C 1142.06 667.342 1144.86 676.692 1147.29 686.33 C 1149.52 695.127 1149.37 704.654 1144.37 712.518 C 1134.07 728.714 1103.28 728.96 1085.39 733.342 C 1082.89 732.461 1080.89 731.587 1079.15 729.54 C 1076.95 726.963 1075.98 724.008 1076.32 720.643 C 1076.81 715.775 1079.72 711.056 1082.71 707.323 C 1087.68 701.135 1094.47 696.156 1100.27 690.744 C 1107.78 683.734 1114.84 676.16 1122.76 669.605 C 1128.64 664.737 1135.08 660.741 1140.89 655.735 z"/>
<path transform="translate(0,0)" fill="rgb(244,162,97)" d="M 1133.8 662.714 L 1134.92 664.107 C 1135.3 676.897 1142.48 696.289 1136.56 707.881 C 1130.61 719.536 1102.6 720.688 1090.22 724.234 C 1089.54 724.281 1088.58 724.388 1087.93 724.233 C 1085.53 723.66 1085.39 722.711 1084.54 720.663 C 1085.09 716.897 1086.38 714.412 1088.86 711.504 C 1095.19 704.088 1104.52 699.437 1111.27 692.294 C 1119.77 683.3 1125.7 672.145 1133.8 662.714 z"/>
<path transform="translate(0,0)" fill="rgb(38,70,83)" d="M 862.004 435.831 C 870.36 423.75 877.893 400.451 894.005 397.269 C 898.777 396.327 905.4 396.955 909.316 400.105 C 911.163 401.59 912.216 402.707 912.413 405.119 C 910.162 405.595 908.721 405.204 906.514 404.757 C 900.936 403.625 896.511 404.04 891.656 407.172 C 883.847 412.208 878.393 421.182 873.675 428.996 C 898.186 433.703 912.759 456.967 933.784 468.723 C 912.026 465.384 883.593 427.517 870.271 434.587 C 869.051 435.234 867.889 436.623 866.913 437.594 C 866.592 437.913 866.264 438.224 865.945 438.544 C 865.753 438.736 865.569 438.936 865.381 439.132 L 863.958 441.494 C 867.463 445.637 875.774 448.769 880.516 451.971 C 898.74 464.278 910.517 476.905 931.688 484.954 C 921.112 484.908 908.488 485.344 898.182 482.916 C 896.175 480.349 895.309 478.648 892.28 477.345 C 889.341 477.889 889.121 477.756 887.173 479.969 C 886.698 482.329 886.003 484.27 886.66 486.635 C 889.778 486.854 892.35 486.319 895.411 485.741 C 897.016 485.438 896.367 485.406 897.606 485.669 C 887.755 492.321 872.756 498.306 860.839 495.661 C 853.949 494.131 846.047 490.554 842.11 484.49 C 841.865 482.07 841.478 482.463 843.043 480.307 C 845.908 481.13 846.872 485.667 849.171 485.438 L 848.829 486.216 L 849.627 486.108 C 849.505 485.653 849.377 485.2 849.261 484.744 C 848.865 483.18 848.614 481.68 848.397 480.086 L 849.251 478.928 C 849.256 472.958 849.567 467.01 849.858 461.049 L 848.715 460.512 C 849.619 458.633 851.563 455.256 851.571 453.191 C 851.581 450.385 838.628 442.116 836.434 437.985 C 834.742 434.799 834.302 430.341 833.661 426.807 C 838.172 431.894 842.832 436.339 848.008 440.745 C 847.467 438.627 847.179 436.533 846.874 434.372 L 847.858 433.099 C 850.491 434.827 854.077 437.842 857.208 438.303 C 858.816 438.539 860.692 436.71 862.004 435.831 z"/>
<path transform="translate(0,0)" fill="rgb(233,196,106)" d="M 884.671 466.787 C 885.566 468.293 886.504 469.845 887.104 471.498 C 889.252 477.419 882.897 486.283 880.13 491.478 C 877.932 491.222 878.975 491.634 877.09 490.037 C 875.309 483.901 882.048 472.659 884.671 466.787 z"/>
<path transform="translate(0,0)" fill="rgb(254,254,254)" d="M 856.001 450.824 C 858.81 456.096 858.214 475.042 857.541 482.091 L 856.294 483.701 C 853.015 482.962 851.365 481.57 849.251 478.928 C 849.256 472.958 849.567 467.01 849.858 461.049 C 851.586 457.264 853.031 453.848 856.001 450.824 z"/>
<path transform="translate(0,0)" fill="rgb(38,70,83)" d="M 873.697 322.317 L 875.195 322.879 C 875.025 325.128 875.273 327.218 876.403 329.174 C 888.536 327.268 900.579 326.94 911.838 332.741 C 944.622 349.633 979.61 408.598 990.643 442.294 C 986.827 440.3 983.095 438.131 979.341 436.023 C 947.42 416.446 920.589 390.31 889.327 369.853 C 883.836 366.26 877.789 361.671 871.81 359.023 C 868.554 357.58 864.016 357.058 860.816 358.512 L 859.398 357.318 C 857.56 347.102 866.494 334.911 871.592 326.44 L 870.858 326.719 C 871.436 324.209 871.969 324.095 873.697 322.317 z"/>
</svg>