<?xml version="1.0" encoding="utf-8" ?>
<svg xmlns="http://www.w3.org/2000/svg" xmlns:xlink="http://www.w3.org/1999/xlink" width="1000" height="1000">
	<path fill="#F3F3ED" transform="scale(0.976562 0.976562)" d="M0 0L1024 0L1024 1024L0 1024L0 0Z"/>
	<path fill="#264653" transform="scale(0.976562 0.976562)" d="M323.048 23.2515L758.655 23.1283L898.532 23.0542L942.211 23.077C950.006 23.085 958.118 22.6674 965.885 23.3326C972.191 23.8727 977.574 26.43 982.19 30.7039C988.34 36.3983 990.768 43.0621 990.986 51.307C991.566 73.2244 990.813 95.309 990.784 117.245L990.637 255.051L990.984 610.93L990.927 858.672L990.727 930.247C990.798 944.544 991.851 959.532 990.757 973.745C990.343 979.132 986.925 985.793 983.175 989.611C978.882 993.98 973.211 996.535 967.189 997.338C959.349 998.383 950.454 997.502 942.493 997.493L890.324 997.588L694.25 997.588L242.644 997.311L107.398 997.253L71.3906 997.252C64.4484 997.313 57.0362 997.966 50.1591 997.203C44.6209 996.588 38.1543 993.538 34.1534 989.643C28.7072 984.341 26.5035 976.948 26.3906 969.529C26.0786 949.014 26.4806 928.433 26.4878 907.91L26.4959 775.477L26.5354 374.683L26.5325 160.793L26.4591 87.429C26.4558 75.1742 25.7242 62.4274 26.6158 50.2266C27.154 42.8603 29.477 36.6411 34.7805 31.4101Q35.5544 30.636 36.389 29.9278Q37.2236 29.2195 38.1133 28.5819Q39.0031 27.9442 39.9419 27.3814Q40.8807 26.8186 41.8624 26.3344Q42.8441 25.8502 43.8621 25.4478Q44.8801 25.0455 45.9276 24.7277Q46.9751 24.4099 48.045 24.1788Q49.1149 23.9477 50.2002 23.8048C59.3809 22.6521 69.4489 23.4595 78.7186 23.4889L133.877 23.6032L323.048 23.2515Z"/>
	<path fill="#FDE4AD" transform="scale(0.976562 0.976562)" d="M490.028 55.1793C490.728 55.4269 491.875 55.7795 492.418 56.3192C493.251 57.1469 493.749 58.0232 493.594 59.2217C493.394 60.7669 492.201 61.6128 491.072 62.4915C490.434 62.2318 489.534 61.9464 488.999 61.5204C487.868 60.6192 487.815 60.135 487.587 58.8073C488.059 57.1563 488.867 56.3629 490.028 55.1793Z"/>
	<path fill="#FDE4AD" transform="scale(0.976562 0.976562)" d="M597.61 302.295C598.364 302.424 599.301 302.559 599.99 302.92C601.16 303.532 601.484 304.307 601.879 305.487C601.48 307.358 601.104 307.665 599.863 309.045C599.099 308.91 598.213 308.798 597.498 308.491C596.256 307.958 595.965 307.226 595.56 306.032C595.817 304.282 596.432 303.58 597.61 302.295Z"/>
	<path fill="#FDE4AD" transform="scale(0.976562 0.976562)" d="M710.455 94.811C711.316 94.8915 712.451 94.9439 713.239 95.3198C714.461 95.9025 714.7 96.5417 715.087 97.7047C714.864 99.4421 714.275 100.091 713.091 101.346C712.344 101.259 711.468 101.202 710.763 100.936C709.498 100.46 709.149 99.7018 708.673 98.5352C708.849 96.8307 709.381 96.1188 710.455 94.811Z"/>
	<path fill="#FDE4AD" transform="scale(0.976562 0.976562)" d="M873.099 253.257C874.291 253.476 875.479 253.789 876.384 254.666C877.26 255.515 877.524 256.523 877.412 257.712C877.271 259.222 876.033 260.232 875.008 261.204C873.874 261.02 872.641 260.731 871.73 259.975C870.801 259.203 870.462 258.229 870.537 257.046C870.639 255.435 872.024 254.302 873.099 253.257Z"/>
	<path fill="#FDE4AD" transform="scale(0.976562 0.976562)" d="M939.484 321.871C940.813 322.035 942.099 322.203 943.08 323.258C943.928 324.17 944.158 325.259 943.989 326.465C943.778 327.974 942.669 328.937 941.626 329.915C940.516 329.731 939.315 329.521 938.449 328.725C937.485 327.837 937.05 326.851 937.145 325.539C937.257 323.968 938.441 322.902 939.484 321.871Z"/>
	<path fill="#FDE4AD" transform="scale(0.976562 0.976562)" d="M674.984 169.357C676.731 170.46 681.288 175.883 683.857 177.926C681.097 180.871 678.389 183.835 675.778 186.914C672.956 183.765 669.798 180.908 666.737 177.994C669.977 175.405 672.632 172.786 674.984 169.357Z"/>
	<path fill="#E9C46A" transform="scale(0.976562 0.976562)" d="M369.236 86.9367C375.207 93.4674 373.928 95.099 382.897 99.7679C376.912 103.193 373.699 106.384 370.024 112.204C368.687 111.445 367.516 109.095 366.446 107.876C363.416 104.424 360.425 102.122 356.409 99.9325C361.926 96.1689 366.168 93.0573 369.236 86.9367Z"/>
	<path fill="#E9C46A" transform="scale(0.976562 0.976562)" d="M585.556 83.7964C589.572 89.828 593.442 93.3067 599.584 97.1329C593.366 101.435 589.816 105.018 586.049 111.633C582.257 105.107 578.054 101.011 571.562 97.166C577.8 93.7013 582.816 90.7705 585.556 83.7964Z"/>
	<path fill="#F3F3ED" transform="scale(0.976562 0.976562)" d="M914.929 31.2441C915.62 31.3999 916.17 31.7274 916.798 32.0458C917.296 33.1227 917.353 33.2898 916.676 34.4181C915.726 36.0011 914.097 37.5596 912.911 39.0271C909.859 42.8007 908.225 47.191 907.203 51.9021C904.013 66.6041 907.694 81.5712 903.946 96.8195C900.404 111.227 892.603 123.97 879.737 131.72C878.692 131.761 878.837 131.659 878.067 131.058L878.009 129.76C879.719 126.573 885.333 123.374 887.988 120.606C901.256 106.776 903.525 88.0283 903.089 69.7348C902.738 54.9877 904.36 42.3114 914.929 31.2441Z"/>
	<path fill="#E9C46A" transform="scale(0.976562 0.976562)" d="M922.888 193.879C927.556 200.208 930.929 203.688 937.823 207.772C931.64 212.604 927.323 216.562 923.507 223.576C919.334 217.008 914.503 211.972 908.081 207.579C914.634 204.012 919.256 200.631 922.888 193.879Z"/>
	<path fill="#F3F3ED" transform="scale(0.976562 0.976562)" d="M834.106 30.8187C834.323 31.0471 834.568 31.2515 834.757 31.5038C835.407 32.3732 835.608 33.0764 835.141 34.0852C834.406 35.6766 832.724 37.2769 831.776 38.8498C828.126 44.9068 826.805 52.0768 826.713 59.0686C826.464 78.0363 835.521 95.5068 833.857 114.731C832.732 127.736 826.737 138.325 819.831 149.089C818.105 151.78 816.326 155.225 813.897 157.265C813.096 156.174 812.44 155.818 812.867 154.414C813.787 151.386 816.539 147.964 818.223 145.292C823.076 137.594 827.992 129.462 830.206 120.542C835.335 99.8813 823.217 79.875 823.53 59.1131C823.69 48.5292 826.39 38.3911 834.106 30.8187Z"/>
	<path fill="#F3F3ED" transform="scale(0.976562 0.976562)" d="M868.625 31.3026C869.735 31.6595 869.852 31.6739 870.558 32.5882C869.498 36.5807 864.578 40.2541 862.8 44.328C851.087 71.1588 869.457 92.5057 863.001 119.2C858.456 137.989 846.836 149.356 830.831 159.113C829.789 158.561 829.597 158.495 829.017 157.486C830.089 154.271 839.876 149.564 842.806 146.886C857.424 133.532 863.929 114.949 860.502 95.4302C858.522 84.1536 855.023 73.0811 855.605 61.5088C856.164 50.4021 860.238 38.8867 868.625 31.3026Z"/>
	<path fill="#E76F51" transform="scale(0.976562 0.976562)" d="M784.967 163.712C797.689 166.913 827.653 189.59 834.341 200.364C830.507 200.087 826.775 199.006 823.183 197.677C807.206 191.764 792.116 179.357 784.967 163.712Z"/>
	<path fill="#F3F3ED" transform="scale(0.976562 0.976562)" d="M956.485 30.7871C956.63 30.8185 956.781 30.8294 956.921 30.8813C958.075 31.3113 958.353 31.4984 958.925 32.5194C957.922 34.939 952.187 37.5828 950.088 39.6782C945.812 43.9461 941.995 50.2533 939.812 55.8748C933.441 72.2793 938.288 89.387 932.724 106.372C923.851 133.463 902.598 138.497 879.976 150.063C866.953 156.722 858.302 165.834 853.872 179.808C852.624 179.721 852.541 179.566 851.559 178.76C851.477 178.179 851.398 177.693 851.504 177.107C852.185 173.36 854.255 169.499 856.266 166.305C867.874 147.871 888.969 144.32 906.318 133.496C923.992 122.468 932.525 106.493 933.235 85.747C933.519 77.4439 933.01 69.2817 934.961 61.1174C937.966 48.5461 945.437 37.607 956.485 30.7871Z"/>
	<path fill="#E76F51" transform="scale(0.976562 0.976562)" d="M520.809 485.293C523.318 485.775 525.816 486.708 528.206 487.598C547.395 494.749 563.668 510.676 572.235 529.155L565.049 538.404C563.5 536.88 562.945 531.349 561.938 529.01C560.129 524.807 557.301 520.662 554.441 517.105C543.807 503.877 530.315 496.292 513.541 494.424C515.804 491.24 518.292 488.277 520.809 485.293Z"/>
	<path fill="#E9C46A" transform="scale(0.976562 0.976562)" d="M817.168 323.918C823.199 333.072 829.174 338.46 838.465 344.205C828.557 349.863 822.48 356.048 817.127 366.085C812.588 355.563 804.995 350.073 795.475 344.275C805.045 338.755 811.17 333.23 817.168 323.918Z"/>
	<path fill="#E9C46A" transform="scale(0.976562 0.976562)" d="M545.742 206.364C547.671 208.503 548.826 211.94 550.542 214.345C554.873 220.411 561.472 224.313 567.586 228.331C557.116 233.981 551.791 238.779 545.904 249.185C541.066 239.385 533.46 232.585 523.513 228.271C533.717 222.208 540.465 217.145 545.742 206.364Z"/>
	<path fill="#F3F3ED" transform="scale(0.976562 0.976562)" d="M708.235 254.808C709.878 254.843 711.369 255.066 712.965 255.429C734.215 260.255 751.51 276.355 762.785 294.314C760.286 297.577 757.559 300.699 754.94 303.868C754.739 303.833 739.345 286.78 736.499 284.184C726.259 274.845 714.046 268.275 700.916 264.04C703.287 260.895 705.671 257.798 708.235 254.808Z"/>
	<path fill="#F3F3ED" transform="scale(0.976562 0.976562)" d="M698.603 266.89C722.736 276.302 737.191 286.282 751.89 307.872C749.206 311.637 745.828 315.119 742.813 318.636C730.986 299.892 711.607 283.365 689.776 278.035C692.619 274.254 695.662 270.596 698.603 266.89Z"/>
	<path fill="#E76F51" transform="scale(0.976562 0.976562)" d="M512.209 498.151Q514.693 497.934 517.181 498.107Q519.669 498.281 522.099 498.841C535.16 501.748 548.359 513.788 555.351 524.873C558.319 529.58 562.103 537.568 560.537 543.197C560.273 544.144 560.17 543.971 559.376 544.394Q555.439 543.968 551.697 542.675Q550.104 542.145 548.539 541.536Q546.974 540.928 545.442 540.242Q543.909 539.557 542.412 538.797Q540.915 538.036 539.458 537.203Q538 536.369 536.586 535.464Q535.171 534.559 533.804 533.586Q532.436 532.612 531.118 531.572Q529.8 530.531 528.535 529.427Q527.27 528.323 526.062 527.157Q524.853 525.992 523.704 524.768Q522.555 523.544 521.467 522.265Q520.38 520.985 519.357 519.653Q518.335 518.322 517.38 516.941Q516.424 515.56 515.538 514.134Q514.653 512.708 513.838 511.239Q513.024 509.771 512.284 508.264C511.16 505.94 509.171 501.644 510.329 499.054C510.611 498.422 511.594 498.352 512.209 498.151Z"/>
	<path fill="#E76F51" transform="scale(0.976562 0.976562)" d="M416.782 832.661C430.597 831.412 442.548 833.546 455.066 839.531C450.961 850.05 445.417 860.25 440.453 870.397C434.074 883.434 427.94 896.746 420.936 909.453C409.05 909.62 397.139 909.458 385.25 909.456L345.853 909.425C345.773 893.528 352.684 876.89 362.102 864.308C375.552 846.34 394.774 835.89 416.782 832.661Z"/>
	<path fill="#E76F51" transform="scale(0.976562 0.976562)" d="M780.792 164.765C783.202 166.455 786.156 173.952 788.321 176.778C799.939 191.942 816.623 202.056 835.609 204.441Q799.944 247.321 765.441 291.141L764.812 290.949Q764.487 290.314 764.138 289.692C752.693 269.313 732.811 257.256 710.914 251.185C720.744 239.979 730.006 228.185 739.351 216.575L780.792 164.765Z"/>
	<path fill="#E9C46A" transform="scale(0.976562 0.976562)" d="M686.907 281.23C688.183 281.389 689.443 281.699 690.682 282.043C710.456 287.532 730.292 303.956 740.356 321.709C733.952 330.455 726.815 338.794 720.027 347.258L677.126 400.301L575.654 525.24L574.645 525.716C572.835 523.984 572.035 520.927 570.673 518.788C559.943 501.946 542.757 487.073 522.989 482.564C531.383 471.663 540.384 461.196 549.07 450.524L596.059 392.612C626.285 355.476 656.045 317.834 686.907 281.23Z"/>
	<path fill="#F3F3ED" transform="scale(0.976562 0.976562)" d="M49.6872 34.5405C60.9276 33.9582 72.4782 34.4728 83.7483 34.4892L151.846 34.6003C206.004 34.6342 260.267 33.7514 314.411 34.6613C312.143 41.9617 308.325 48.7873 305.888 56.0724C298.026 79.5685 294.549 104.922 293.92 129.625L293.836 136.467L36.9662 136.531C36.9138 125.309 35.762 49.8553 38.0078 44.558C40.1954 39.398 44.7034 36.5208 49.6872 34.5405Z"/>
	<path fill="#E9C46A" transform="scale(0.976562 0.976562)" d="M36.9785 146.953L457.436 147.002L457.516 477.896L167.934 477.988L80.536 477.964C66.0302 477.973 51.4709 478.295 36.97 478.045L36.9785 146.953Z"/>
	<path fill="#E76F51" transform="scale(0.976562 0.976562)" d="M73.05 334.987C74.1896 333.287 75.2565 331.444 77.2741 330.695C80.2677 329.583 155.859 329.638 165.644 330.073C167.808 330.169 172.002 330.266 173.8 331.426C177.53 333.831 175.351 340.231 176.359 343.769C176.431 344.021 176.513 344.269 176.59 344.52C174.163 347.237 170.698 349.902 168.789 352.908L167.314 353.416L167.394 339.242L82.3864 339.148L82.4913 421.48L167.051 421.502L167.12 393.476C167.128 388.02 167.427 382.352 166.818 376.935C168.105 375.336 169.821 374.17 171.079 372.473L176.18 368.07C176.748 376.486 176.416 385.08 176.414 393.517C176.412 404.301 176.632 415.142 176.217 425.917C174.652 427.754 173.084 429.755 170.629 430.321C166.379 431.301 149.517 430.451 143.703 430.441C123.773 430.409 103.628 431.12 83.7275 430.394C81.6473 430.318 76.537 430.374 75.0048 429.074C73.4564 427.762 73.3534 425.493 73.152 423.622C72.1141 413.984 72.9481 403.559 72.9628 393.842L73.05 334.987Z"/>
	<path fill="#F4A261" transform="scale(0.976562 0.976562)" d="M221.562 209.594C229.558 210.121 237.68 209.881 245.69 209.889L286.637 209.935L420.963 210.017C420.978 213.496 421.844 227.616 420.344 229.884C354.09 228.863 287.74 229.676 221.473 229.59L221.562 209.594Z"/>
	<path fill="#F4A261" transform="scale(0.976562 0.976562)" d="M221.484 345.94L421.107 346.013L421.405 366.197C397.965 367.138 374.213 366.464 350.739 366.459L221.449 366.603L221.484 345.94Z"/>
	<path fill="#F4A261" transform="scale(0.976562 0.976562)" d="M221.554 381.427L421.092 381.577C421.157 388.011 421.971 395.725 420.802 401.995L420.008 402.386C353.863 402.285 287.663 402.937 221.527 402.122L221.554 381.427Z"/>
	<path fill="#F4A261" transform="scale(0.976562 0.976562)" d="M221.591 245.104L421.01 245.453L421.052 267.024L221.534 267.009L221.591 245.104Z"/>
	<path fill="#E9C46A" transform="scale(0.976562 0.976562)" d="M193.774 327.242C197.611 331.2 201.4 335.233 205.318 339.111Q195.499 348.702 185.919 358.531C182.811 361.67 179.628 365.331 176.18 368.07L171.079 372.473C169.821 374.17 168.105 375.336 166.818 376.935C167.427 382.352 167.128 388.02 167.12 393.476L167.051 421.502L82.4913 421.48L82.3864 339.148L167.394 339.242L167.314 353.416L168.789 352.908C170.698 349.902 174.163 347.237 176.59 344.52Q185.303 336.001 193.774 327.242Z"/>
	<path fill="#2A9D8F" transform="scale(0.976562 0.976562)" d="M193.774 327.242C197.611 331.2 201.4 335.233 205.318 339.111Q195.499 348.702 185.919 358.531C182.811 361.67 179.628 365.331 176.18 368.07L171.079 372.473C169.821 374.17 168.105 375.336 166.818 376.935C153.375 390.411 140.049 404.827 125.555 417.147L99.3654 391.095C94.8311 386.552 88.4617 381.338 85.1894 375.857C84.7685 375.152 84.4112 374.456 84.6754 373.633C85.7822 370.187 90.3625 367.429 93.3639 365.67C100.837 371.303 117.701 387.849 123.614 395.157L167.314 353.416L168.789 352.908C170.698 349.902 174.163 347.237 176.59 344.52Q185.303 336.001 193.774 327.242Z"/>
	<path fill="#E76F51" transform="scale(0.976562 0.976562)" d="M76.5694 186.81C93.9675 186.297 111.503 186.783 128.914 186.817C141.077 186.841 153.585 186.212 165.702 186.951C167.652 187.07 171.36 187.236 172.883 188.378C176.382 191.004 174.691 203.624 175.132 207.801L175.198 208.383C180.784 202.635 186.467 196.952 191.882 191.043L204.66 204.126C194.889 212.413 186.25 224.16 176.173 231.541L176.222 267.101C176.239 273.431 176.794 280.342 175.906 286.617C175.67 288.284 175.348 289.953 174.074 291.154C173.117 292.055 172.012 292.644 170.705 292.828C162.041 294.049 149.102 293.134 140.007 293.131C119.368 293.125 98.6885 293.359 78.0543 292.959C77.0292 292.31 75.9057 291.656 75.0385 290.801C73.8968 289.676 73.3724 288.286 73.1712 286.722C72.0633 278.111 72.9936 264.241 73.016 254.924L73.0387 190.241C74.1163 189 75.361 187.921 76.5694 186.81Z"/>
	<path fill="#E9C46A" transform="scale(0.976562 0.976562)" d="M82.6102 238.51L110.376 266.371C115.304 271.311 119.991 276.541 125.372 281.001C139.783 268.703 152.646 254.504 166.337 241.412C167.198 246.961 166.877 252.803 166.872 258.408L166.888 283.28L82.4963 283.372C82.4645 269.426 81.3051 252.109 82.6102 238.51Z"/>
	<path fill="#2A9D8F" transform="scale(0.976562 0.976562)" d="M175.198 208.383C180.784 202.635 186.467 196.952 191.882 191.043L204.66 204.126C194.889 212.413 186.25 224.16 176.173 231.541C175.246 232.303 174.068 233.523 173.03 234.065C171.068 236.596 167.946 238.799 166.337 241.412C152.646 254.504 139.783 268.703 125.372 281.001C119.991 276.541 115.304 271.311 110.376 266.371L82.6102 238.51C82.114 237.124 82.2303 237.005 82.6593 235.574C85.1554 232.725 88.1527 228.327 91.8655 227.21C97.1324 229.597 118.462 252.706 124.141 258.545C127.631 254.947 131.071 251.288 134.822 247.958C144.718 237.161 156.109 227.343 166.564 217.036C169.565 214.548 172.757 211.414 175.198 208.383Z"/>
	<path fill="#E9C46A" transform="scale(0.976562 0.976562)" d="M82.0625 195.609L166.546 195.66Q166.447 206.348 166.564 217.036C156.109 227.343 144.718 237.161 134.822 247.958C131.071 251.288 127.631 254.947 124.141 258.545C118.462 252.706 97.1324 229.597 91.8655 227.21C88.1527 228.327 85.1554 232.725 82.6593 235.574C82.1091 231.12 82.4533 226.308 82.4086 221.804L82.0625 195.609Z"/>
	<path fill="#E76F51" transform="scale(0.976562 0.976562)" d="M457.516 477.896L457.288 711.944C457.277 750.816 458.317 789.858 457.385 828.706C433.878 819.587 413.572 818.907 390.13 829.172Q389.082 829.627 388.046 830.108Q387.01 830.588 385.986 831.095Q384.962 831.601 383.951 832.132Q382.94 832.663 381.943 833.219Q380.945 833.776 379.961 834.356Q378.978 834.937 378.009 835.542Q377.04 836.146 376.086 836.775Q375.133 837.403 374.195 838.055Q373.257 838.707 372.335 839.382Q371.414 840.057 370.509 840.754Q369.605 841.451 368.718 842.171Q367.831 842.89 366.962 843.632Q366.093 844.373 365.242 845.135Q364.392 845.898 363.561 846.681Q362.729 847.464 361.917 848.268Q361.106 849.071 360.314 849.895Q359.523 850.718 358.751 851.56Q357.98 852.403 357.23 853.265Q356.48 854.126 355.752 855.006Q355.023 855.885 354.317 856.783Q353.61 857.68 352.926 858.595Q352.242 859.51 351.581 860.441Q350.92 861.372 350.281 862.319Q349.643 863.266 349.029 864.229Q348.414 865.192 347.824 866.17Q347.233 867.147 346.667 868.139Q346.101 869.131 345.559 870.137Q345.018 871.142 344.501 872.161Q343.984 873.18 343.493 874.211Q343.002 875.242 342.536 876.285Q342.071 877.328 341.631 878.382Q341.192 879.436 340.778 880.501C337.209 889.712 335.298 899.746 334.391 909.563L37.116 909.55C36.3917 845.658 37.0579 781.71 36.9554 717.811L36.96 561.665C36.9686 533.8 36.6671 505.905 36.97 478.045C51.4709 478.295 66.0302 477.973 80.536 477.964L167.934 477.988L457.516 477.896Z"/>
	<path fill="#E9C46A" transform="scale(0.976562 0.976562)" d="M200.055 671.49C225.311 670.904 250.707 671.465 275.978 671.489L419.38 671.518Q419.462 681.007 419.255 690.494L200.053 690.499L200.055 671.49Z"/>
	<path fill="#E9C46A" transform="scale(0.976562 0.976562)" d="M199.914 787.511L419.459 787.708L419.381 806.481L199.984 806.373L199.914 787.511Z"/>
	<path fill="#E9C46A" transform="scale(0.976562 0.976562)" d="M199.981 639.533L419.161 639.513L419.25 658.375C414.186 659.731 405.302 658.673 399.831 658.647L361.063 658.54L200.015 658.647L199.981 639.533Z"/>
	<path fill="#E9C46A" transform="scale(0.976562 0.976562)" d="M199.981 755.394C273.127 754.662 346.359 755.423 419.513 755.482L419.517 774.557L199.992 774.937L199.981 755.394Z"/>
	<path fill="#E9C46A" transform="scale(0.976562 0.976562)" d="M199.994 557.979L419.577 557.904L419.486 577.435L200.002 577.309L199.994 557.979Z"/>
	<path fill="#E9C46A" transform="scale(0.976562 0.976562)" d="M199.848 525.091L419.465 525.027L419.413 544.99L199.994 545.004Q199.87 535.048 199.848 525.091Z"/>
	<path fill="#F3F3ED" transform="scale(0.976562 0.976562)" d="M118.774 620.673C128.124 619.451 138.352 622.9 145.745 628.539C154.552 635.256 160.282 645.723 161.738 656.658C163.322 668.566 160.176 680.048 152.794 689.523C145.671 698.665 135.972 703.345 124.625 704.808C115.299 706.16 104.741 702.795 97.3297 697.183Q96.5447 696.582 95.7904 695.942Q95.0362 695.303 94.3145 694.627Q93.5928 693.951 92.9054 693.24Q92.2181 692.529 91.5668 691.785Q90.9154 691.041 90.3018 690.266Q89.6881 689.49 89.1135 688.686Q88.539 687.881 88.0049 687.049Q87.4709 686.216 86.9788 685.359Q86.4866 684.501 86.0375 683.62Q85.5884 682.739 85.1835 681.837Q84.7785 680.935 84.4187 680.014Q84.0589 679.093 83.7452 678.155Q83.4314 677.217 83.1645 676.265Q82.8975 675.313 82.678 674.349Q82.4585 673.385 82.287 672.411Q82.1155 671.437 81.9924 670.456Q81.838 669.339 81.7386 668.216Q81.6392 667.092 81.595 665.966Q81.5508 664.839 81.562 663.711Q81.5732 662.584 81.6396 661.458Q81.7061 660.332 81.8278 659.211Q81.9494 658.09 82.1259 656.976Q82.3024 655.862 82.5333 654.759Q82.7643 653.655 83.0491 652.564Q83.3339 651.473 83.6719 650.397Q84.0099 649.321 84.4003 648.263Q84.7907 647.205 85.2326 646.168Q85.6744 645.13 86.1666 644.116Q86.6588 643.101 87.2002 642.112Q87.7416 641.123 88.3309 640.161Q88.9202 639.2 89.556 638.268Q90.1917 637.337 90.8724 636.438C97.9508 627.173 107.353 622.226 118.774 620.673Z"/>
	<path fill="#E76F51" transform="scale(0.976562 0.976562)" d="M141.427 640.334C144.522 642.392 146.877 646.53 148.812 649.629C135.464 662.523 122.707 676.172 109.022 688.692C105.287 684.16 100.974 679.916 96.9748 675.603C94.3328 672.656 91.7579 669.726 89.3975 666.546C91.2022 663.636 93.2381 660.937 95.3039 658.209C100.123 662.679 104.389 667.72 109.183 672.236C114.017 668.366 118.403 663.622 122.809 659.264C129.092 653.048 135.515 646.908 141.427 640.334Z"/>
	<path fill="#F3F3ED" transform="scale(0.976562 0.976562)" d="M120.084 507.21C129.814 507.485 138.374 509.885 146.103 516.014C154.85 522.949 160.501 532.65 161.781 543.769C163.159 555.734 159.907 567.631 152.277 576.995C144.698 586.295 134.802 590.148 123.121 591.343C113.403 592.185 103.46 588.382 96.0356 582.25Q95.246 581.604 94.49 580.92Q93.734 580.235 93.0136 579.513Q92.2933 578.791 91.6103 578.034Q90.9274 577.276 90.2836 576.485Q89.6398 575.694 89.0369 574.872Q88.4339 574.049 87.8734 573.197Q87.3128 572.345 86.7961 571.466Q86.2793 570.586 85.8077 569.682Q85.3361 568.778 84.9108 567.851Q84.4855 566.924 84.1076 565.977Q83.7298 565.029 83.4003 564.064Q83.0708 563.099 82.7906 562.118Q82.5104 561.138 82.2801 560.144Q82.0498 559.15 81.8701 558.146Q81.6904 557.143 81.5616 556.131Q81.4329 555.119 81.3555 554.102Q81.2546 552.994 81.2089 551.882Q81.1633 550.77 81.173 549.657Q81.1827 548.544 81.2478 547.433Q81.3129 546.322 81.4332 545.216Q81.5535 544.109 81.7286 543.01Q81.9038 541.911 82.1335 540.823Q82.3631 539.734 82.6466 538.657Q82.9302 537.581 83.2669 536.521Q83.6037 535.46 83.9928 534.417Q84.3818 533.375 84.8223 532.353Q85.2628 531.331 85.7536 530.332Q86.2444 529.333 86.7843 528.36Q87.3242 527.387 87.9118 526.442Q88.4994 525.497 89.1334 524.582Q89.7673 523.667 90.4459 522.785Q91.1246 521.903 91.8463 521.056C99.3978 512.366 108.723 508.038 120.084 507.21Z"/>
	<path fill="#E76F51" transform="scale(0.976562 0.976562)" d="M144.27 523.533C146.966 526.153 148.979 529.467 150.841 532.705C145.542 539.953 137.786 546.5 131.447 552.942C124.774 559.724 118.31 567.364 111.013 573.414C105.826 569.66 101.778 564.442 97.5983 559.642C95.4989 557.417 91.8838 554.412 91.5166 551.214C91.1382 547.919 94.4144 544.915 96.3651 542.597C100.925 547.767 105.839 552.587 110.719 557.452Q127.913 540.907 144.27 523.533Z"/>
	<path fill="#F3F3ED" transform="scale(0.976562 0.976562)" d="M117.826 738.68C126.278 737.433 135.988 740.343 143.049 744.912Q143.94 745.49 144.802 746.111Q145.664 746.733 146.494 747.395Q147.324 748.058 148.121 748.761Q148.917 749.464 149.678 750.205Q150.439 750.946 151.163 751.724Q151.887 752.501 152.571 753.314Q153.256 754.126 153.9 754.971Q154.544 755.816 155.145 756.692Q155.747 757.567 156.305 758.471Q156.863 759.375 157.375 760.306Q157.888 761.236 158.354 762.191Q158.821 763.145 159.24 764.121Q159.659 765.098 160.029 766.093Q160.399 767.089 160.72 768.102Q161.041 769.114 161.312 770.141Q161.583 771.169 161.803 772.208C164.141 783.572 161.918 796.005 155.518 805.713C148.506 816.349 138.823 821.653 126.584 824.184C116.534 825.393 106.644 822.952 98.4122 817.025Q97.5563 816.403 96.7326 815.739Q95.9089 815.075 95.1195 814.371Q94.33 813.667 93.5768 812.924Q92.8236 812.181 92.1085 811.402Q91.3933 810.622 90.7181 809.808Q90.0429 808.993 89.4093 808.146Q88.7757 807.299 88.1853 806.421Q87.5949 805.543 87.0491 804.637Q86.5033 803.731 86.0036 802.798Q85.5038 801.866 85.0514 800.909Q84.5989 799.953 84.1949 798.975Q83.7908 797.998 83.4362 797.001Q83.0816 796.004 82.7773 794.991Q82.473 793.978 82.2198 792.951Q81.9665 791.923 81.765 790.885Q81.5635 789.846 81.4142 788.799C79.6247 776.755 82.5417 763.965 89.9252 754.216C96.9982 744.876 106.371 740.191 117.826 738.68Z"/>
	<path fill="#2A9D8F" transform="scale(0.976562 0.976562)" d="M145.416 755.331C145.563 755.422 145.721 755.496 145.856 755.604C147.756 757.136 150.664 760.57 150.386 763.23C150.21 764.92 148.469 766.745 147.39 767.928C135.585 780.864 120.897 791.676 108.795 804.858C103.81 800.202 99.2539 794.97 94.7004 789.897Q91.3068 785.671 88.1285 781.281C89.972 779.039 91.9081 776.962 93.9404 774.892Q101.773 781.981 108.834 789.839C120.725 778.099 133.267 766.828 145.416 755.331Z"/>
	<path fill="#F3F3ED" transform="scale(0.976562 0.976562)" d="M468.02 331.475C483.481 336.09 498.537 339.253 514.706 340.091C530.127 340.89 545.538 339.607 560.956 339.324C583.271 338.914 603.9 342.967 624.68 350.911C604.907 377.446 583.097 402.732 562.348 428.525Q544.397 450.953 526.192 473.175C519.686 481.173 513.405 489.522 506.412 497.097C508.615 513.113 517.002 525.062 529.764 534.78C539.188 541.958 549.928 546.627 561.747 547.908L634.608 458.556Q652.464 436.179 670.78 414.177C676.389 407.389 681.767 400.348 687.693 393.836Q690.469 395.526 693.286 397.147Q696.102 398.769 698.958 400.321Q701.813 401.874 704.706 403.356Q707.598 404.838 710.526 406.249Q713.454 407.66 716.415 408.999Q719.377 410.338 722.37 411.605Q725.363 412.871 728.386 414.064Q731.41 415.257 734.461 416.375Q737.512 417.494 740.59 418.538Q743.668 419.582 746.771 420.55Q749.873 421.518 752.998 422.411Q756.124 423.303 759.27 424.119Q762.416 424.934 765.581 425.673Q768.746 426.411 771.928 427.073Q775.11 427.734 778.307 428.317Q781.505 428.9 784.715 429.405Q787.926 429.91 791.148 430.336Q794.37 430.762 797.602 431.11Q800.833 431.457 804.072 431.726Q807.311 431.994 810.555 432.184Q813.8 432.373 817.048 432.483Q820.296 432.593 823.546 432.623Q826.796 432.654 830.046 432.605Q833.296 432.556 836.543 432.428Q839.791 432.3 843.034 432.093Q846.278 431.885 849.515 431.599Q852.753 431.312 855.982 430.947Q859.212 430.581 862.431 430.137Q865.651 429.693 868.858 429.17Q872.066 428.647 875.26 428.046Q878.454 427.445 881.633 426.766Q884.811 426.087 887.972 425.331C921.528 417.43 951.979 403.356 980.599 384.284C981.066 402.474 980.833 420.703 980.838 438.9L980.87 528.377L980.982 761.763L980.754 897.409L980.816 946.887C980.794 955.097 981.356 963.864 980.435 972.007C979.976 976.067 979.195 979.155 976.138 982.068C972.779 985.267 968.201 986.813 963.633 987.102C955.477 987.618 947.013 987.199 938.824 987.219L888.823 987.319L728.484 987.103L602.267 987.196L559.701 987.341C551.887 987.376 543.785 987.835 535.995 987.254C535.782 987.238 535.571 987.201 535.359 987.175C494.089 986.213 452.665 986.896 411.372 986.907L188.429 986.974L96.6354 986.981L68.2253 987.028C62.7187 987.04 57.0386 987.308 51.5537 986.823Q50.8593 986.756 50.1732 986.629Q49.4872 986.502 48.8145 986.317Q48.1418 986.133 47.4874 985.891Q46.833 985.649 46.2018 985.352Q45.5705 985.055 44.967 984.705Q44.3635 984.355 43.7922 983.954Q43.2209 983.554 42.6861 983.106Q42.1512 982.658 41.6566 982.166C39.5565 980.062 38.0221 977.469 37.3576 974.562C36.0476 968.831 36.8647 961.579 36.8751 955.648L36.9498 919.786C47.5148 919.433 58.1654 919.698 68.741 919.666L131.688 919.55L302.246 919.654L386.141 919.81C398.47 919.814 416.311 918.661 428.061 920.309L453.099 868.626C457.958 858.649 462.525 848.43 467.922 838.735L468.02 331.475Z"/>
	<path fill="#E76F51" transform="scale(0.976562 0.976562)" d="M722.411 680.375C719.445 674.773 712.138 667.528 710.184 662.649L711.279 661.359C710.106 658.116 706.935 655.87 705.795 652.582L706.316 652.04C709.832 652.668 711.268 657.299 713.513 659.767L715.225 659.19L716.313 659.763C721.115 667.743 727.343 674.916 732.924 682.352C737.044 682.302 741.584 682.176 745.38 684.013C748.147 685.352 749.606 687.391 750.535 690.258C750.021 693.577 748.453 695.981 745.776 698.008C743.652 699.615 741.27 700.754 738.886 701.912C737.403 700.584 735.471 698.48 733.602 697.748C733.19 697.586 732.752 697.499 732.339 697.34L731.854 697.15L731.092 696.861C731.004 695.56 731.663 694.828 731.605 693.3C729.51 688.854 725.848 685.436 723.111 681.391C721.806 682.482 720.513 683.594 719.157 684.622C720.185 687.552 721.25 692.369 724.231 693.926C726.19 694.95 728.461 694.412 730.425 693.694C730.405 693.795 730.391 693.897 730.365 693.996C729.906 695.754 729.84 695.629 728.263 696.512C726.882 696.427 725.661 696.013 724.487 695.256C720.351 692.587 719.019 688.273 718.134 683.757C719.427 682.497 720.965 681.455 722.411 680.375Z"/>
	<path fill="#F3F3ED" transform="scale(0.976562 0.976562)" d="M733.615 683.738C737.722 683.413 741.663 683.664 745.431 685.505C747.106 686.324 748.627 687.655 749.07 689.54C749.583 691.718 748.644 693.108 747.488 694.824L744.36 697.581C740.273 693.529 736.989 688.393 733.615 683.738Z"/>
	<path fill="#E9C46A" transform="scale(0.976562 0.976562)" d="M775.565 699.666C778.569 689.771 779.62 679.058 780.952 668.826C783.231 651.314 784.98 633.674 787.435 616.199C788.419 609.193 789.999 604.563 795.869 600.1C797.144 611.594 799.836 622.857 801.526 634.288C802.03 637.698 802.85 641.488 802.829 644.918C802.72 645.141 802.605 645.361 802.502 645.587C801.067 648.741 801.284 657.128 800.979 660.932C799.738 676.404 797.412 704.093 789.652 717.425C787.8 720.607 785.181 723.281 781.753 724.726C775.144 727.51 767.725 725.684 761.444 722.921C750.595 718.148 741.842 710.979 732.251 704.261C734.424 703.506 736.809 702.876 738.886 701.912C741.27 700.754 743.652 699.615 745.776 698.008C748.453 695.981 750.021 693.577 750.535 690.258C758.378 694.466 767.205 696.697 775.565 699.666Z"/>
	<path fill="#E76F51" transform="scale(0.976562 0.976562)" d="M789.308 569.518C787.252 562.353 787.984 554.924 786.097 547.942C784.188 540.88 771.772 539.31 779.127 526.003C780.329 523.826 782.646 521.709 785.066 521.015C787.737 520.25 790.916 520.336 793.36 521.743C797.521 524.14 799.722 529.016 803.486 531.99C803.704 531.999 803.923 532.011 804.142 532.016C808.77 532.115 818.953 528.383 822.373 531.856C828.089 537.662 823.699 568.879 824.594 578.164C824.935 581.701 826.639 584.994 827.65 588.376C829.191 589.245 843.242 588.549 846.021 588.381C848.382 588.003 849.474 588.569 851.373 589.95C856.412 593.617 860.454 599.053 864.259 603.944C881.89 626.606 895.537 654.194 899.561 682.823C901.464 696.361 901.922 720.74 899.528 733.931C921.205 738.472 941.926 744.345 962.438 752.707C968.714 755.265 975.386 757.915 980.982 761.763L980.754 897.409L980.816 946.887C980.794 955.097 981.356 963.864 980.435 972.007C979.976 976.067 979.195 979.155 976.138 982.068C972.779 985.267 968.201 986.813 963.633 987.102C955.477 987.618 947.013 987.199 938.824 987.219L888.823 987.319L728.484 987.103L602.267 987.196L559.701 987.341C551.887 987.376 543.785 987.835 535.995 987.254C535.782 987.238 535.571 987.201 535.359 987.175Q534.629 982.37 534.052 977.545C528.079 926.942 546.228 877.038 577.439 837.662C624.572 778.196 696.011 744.61 769.465 731.444C778.83 729.766 788.439 728.945 797.891 727.859C802.588 711.125 805.409 682.85 804.906 665.408C804.707 658.532 803.729 651.729 802.829 644.918C802.85 641.488 802.03 637.698 801.526 634.288C799.836 622.857 797.144 611.594 795.869 600.1C798.396 598.653 801.034 597.008 803.735 595.926C806.558 594.796 809.642 594.293 812.191 592.591C813.464 589.214 810.761 583.962 809.543 580.587C805.838 581.941 802.833 582.274 798.938 582.245L798.214 581.818C795.065 579.986 793.553 578.396 791.651 575.288L789.756 570.477C787.002 574.342 783.744 579.635 778.567 580.385C777.178 580.586 775.985 580.291 774.851 579.456C767.615 574.132 774.638 559.869 758.855 552.906C755.647 551.491 752.02 550.684 748.497 550.985C743.495 551.413 737.926 554.681 734.807 558.554Q734.22 559.284 733.707 560.069Q733.195 560.853 732.763 561.685Q732.33 562.516 731.982 563.386Q731.634 564.256 731.374 565.156Q731.114 566.057 730.944 566.978Q730.773 567.9 730.695 568.833Q730.617 569.767 730.631 570.704Q730.646 571.641 730.753 572.572C731.334 577.796 734.243 582.629 738.443 585.762C741.832 588.29 746.118 589.494 750.311 588.706C753.45 588.116 757.385 586.064 759.187 583.333C759.688 582.573 759.798 582.172 759.834 581.289C759.068 579.307 757.036 577.925 755.654 576.337C758.647 577.505 760.572 579.461 762.748 581.75C758.446 586.175 754.38 589.729 747.84 589.911C743.06 590.043 738.652 588.169 735.265 584.831Q734.916 584.484 734.584 584.119Q734.252 583.755 733.939 583.375Q733.626 582.995 733.331 582.6Q733.037 582.205 732.762 581.796Q732.487 581.388 732.233 580.966Q731.979 580.544 731.745 580.11Q731.512 579.676 731.3 579.231Q731.088 578.787 730.898 578.332Q730.709 577.877 730.541 577.414Q730.374 576.951 730.23 576.48Q730.086 576.009 729.964 575.531Q729.843 575.054 729.746 574.571Q729.648 574.088 729.575 573.601Q729.501 573.114 729.451 572.624Q729.402 572.134 729.376 571.642Q729.35 571.15 729.349 570.657Q729.347 570.132 729.372 569.608Q729.396 569.084 729.448 568.561Q729.499 568.039 729.577 567.52Q729.655 567.001 729.76 566.486Q729.864 565.972 729.995 565.464Q730.126 564.955 730.282 564.454Q730.439 563.953 730.62 563.461Q730.802 562.969 731.009 562.486Q731.216 562.004 731.447 561.532Q731.678 561.061 731.933 560.602Q732.188 560.144 732.466 559.698Q732.744 559.253 733.044 558.823Q733.345 558.392 733.667 557.978Q733.989 557.563 734.332 557.166Q734.674 556.768 735.037 556.389Q735.399 556.009 735.781 555.649C739.705 551.952 745.603 549.363 751.044 549.662C756.786 549.978 763.134 552.595 766.998 556.939Q767.622 557.646 768.169 558.414Q768.716 559.183 769.18 560.005Q769.644 560.826 770.019 561.691Q770.394 562.557 770.676 563.457C772.216 568.337 771.634 578.092 778.838 578.717C780.902 578.897 782.834 577.464 784.169 576.032C786.032 574.031 787.653 571.696 789.308 569.518Z"/>
	<path fill="#F3F3ED" transform="scale(0.976562 0.976562)" d="M882.343 755.607C886.663 757.011 892.728 756.541 896.551 758.489C895.415 761.381 895.848 764.801 893.767 767.295C892.904 768.329 891.623 769.041 890.253 769.048C888.053 769.06 885.867 767.64 884.504 766.008C881.886 762.869 881.922 759.49 882.343 755.607Z"/>
	<path fill="#F3F3ED" transform="scale(0.976562 0.976562)" d="M788.455 547.825C793.517 549.897 798.679 551.425 803.918 552.969C804.129 557.33 803.773 563.864 807.185 567.092C808.628 567.71 809.946 567.393 811.447 567.194C814.28 568.859 814.646 574.01 816.737 576.472C818.522 578.575 822.212 578.923 823.846 580.858C824.952 582.168 825.522 585.802 826.222 587.545C826.425 588.467 826.789 589.621 826.78 590.558C826.768 591.802 826.174 592.873 825.194 593.633C822.952 595.37 818.39 594.906 815.638 594.908C813.533 589.728 812.213 583.935 810.64 578.552C807.313 579.902 803.228 581.634 799.581 580.707C795.838 579.756 794.301 576.843 792.371 573.82L792.231 573.133C791.721 570.68 790.81 568.313 790.264 565.859C788.917 559.815 788.558 554 788.455 547.825Z"/>
	<path fill="#E9C46A" transform="scale(0.976562 0.976562)" d="M846.021 588.381C848.382 588.003 849.474 588.569 851.373 589.95C856.412 593.617 860.454 599.053 864.259 603.944C881.89 626.606 895.537 654.194 899.561 682.823C901.464 696.361 901.922 720.74 899.528 733.931C898.72 742.136 897.296 750.318 896.551 758.489C892.728 756.541 886.663 757.011 882.343 755.607C882.079 754.531 881.919 754.075 881.094 753.322C879.782 753.485 878.577 753.779 877.308 754.129L876.4 753.6C875.971 752.339 875.973 750.808 876.374 749.531C877.062 747.342 878.524 745.242 879.365 743.045C880.831 739.212 881.484 734.922 882.31 730.918C879.193 730.97 876.135 730.991 873.025 730.734C874.45 723.257 873.994 715.773 873.596 708.216C872.254 682.752 867.421 658.663 860.851 634.073C859.489 631.365 858.62 627.97 857.448 625.101C852.595 613.217 846.828 601.365 846.021 588.381Z"/>
	<path fill="#F3F3ED" transform="scale(0.976562 0.976562)" d="M860.851 634.073L861.521 633.926C864.463 639 866.459 645.184 868.753 650.611C880.595 678.626 885.281 700.004 882.298 730.579C879.221 730.609 876.092 730.524 873.025 730.734C874.45 723.257 873.994 715.773 873.596 708.216C872.254 682.752 867.421 658.663 860.851 634.073Z"/>
	<path fill="#264653" transform="scale(0.976562 0.976562)" d="M804.155 731.926C826.019 732.182 847.84 732.334 869.643 730.352C869.227 749.326 867.767 768.344 866.906 787.308L860.781 922.658C860.368 926.781 859.676 931.953 860.122 936.061C860.142 938.974 860.274 942.356 858.185 944.679C857.733 945.181 857.185 945.579 856.653 945.987Q856.288 946.141 855.921 946.29C851.455 948.051 845.292 948.344 840.868 946.283C837.945 944.921 836.514 943.047 835.498 940.049C836.559 934.974 835.806 928.151 835.858 922.897Q835.967 873.377 836.653 823.862Q837.148 799.248 837.253 774.63C837.275 763.977 838.159 752.52 835.502 742.141C828.943 751.659 823.462 762.043 817.456 771.925L772.338 847.084C777.88 855.422 782.646 864.298 787.8 872.881C798.127 890.081 808.55 907.355 819.52 924.149L819.6 924.61C821.73 927.847 822.504 931.042 823.272 934.766C818.869 938.466 805.68 948.298 800.23 947.95C798.966 947.87 798.706 947.567 797.772 946.789C796.719 943.979 797.852 942.066 799.017 939.521C799.203 939.115 799.398 938.713 799.593 938.311C796.176 935.681 791.275 925.816 788.542 921.843C781.36 910.864 774.032 899.944 767.202 888.742C759.274 875.739 751.726 862.321 743.02 849.824C748.529 837.187 755.915 825.007 762.546 812.913Q776.069 788.369 789.027 763.521C794.559 753.154 801.681 743.587 804.155 731.926Z"/>
	<path fill="#FDE4AD" transform="scale(0.976562 0.976562)" d="M837.525 939.743C837.651 938.772 837.868 938.057 838.261 937.16C844.352 936.059 852.128 936.982 858.401 937.107C857.809 939.534 857.488 942.828 855.221 944.275C854.924 944.465 854.623 944.649 854.309 944.81C851.04 945.153 846.669 945.658 843.507 944.75C840.402 943.858 839.077 942.516 837.525 939.743Z"/>
	<path fill="#FDE4AD" transform="scale(0.976562 0.976562)" d="M801.137 938.874C803.259 935.711 814.405 930.543 818.255 928.561C819.082 930.321 819.992 932.08 820.669 933.904C817.415 936.658 803.888 946.348 800.074 946.199C799.928 946.193 799.786 946.152 799.641 946.128C799.052 944.144 800.761 941.016 801.137 938.874Z"/>
</svg>
