<svg version="1.1" xmlns="http://www.w3.org/2000/svg" style="display: block;" viewBox="0 0 2048 2048" width="1024" height="1024">
<path transform="translate(0,0)" fill="rgb(254,254,254)" d="M 0 0 L 2048 0 L 2048 972.713 L 2048 985.845 L 2048 1001.5 L 2048 1012.31 L 2048 1027.47 L 2048 1041.27 L 2048 1046.69 L 2048 1058.3 L 2048 1156.7 L 2048 1168.1 L 2048 1221.12 L 2048 1231.93 L 2048 1236.04 L 2048 1247.12 L 2048 1296.87 L 2048 1310.35 L 2048 1432.67 L 2048 1440.85 L 2048 1442.87 L 2048 1455.35 L 2048 1458.8 L 2048 1466.09 L 2048 1472.95 L 2048 1492.91 L 2048 1503.18 L 2048 1558.77 L 2048 1569.99 L 2048 1574.95 L 2048 1584.5 L 2048 1639.45 L 2048 1653.07 L 2048 1665.44 L 2048 1681.15 L 2048 1706.05 L 2048 1721.1 L 2048 1740.16 L 2048 1753.96 L 2048 1855.28 L 2048 1866.06 L 2048 1906.6 L 2048 1912.82 L 2048 1929.36 L 2048 1937.28 L 2048 1989.75 L 2048 2004.51 L 2048 2048 L 2043.25 2048 L 2030.01 2048 L 2026.06 2048 L 2014.08 2048 L 2010.28 2048 L 1998.95 2048 L 1972.22 2048 L 1962.18 2048 L 1957.89 2048 L 1947.66 2048 L 1946.83 2048 L 1942.97 2048 L 1933.01 2048 L 1929.42 2048 L 1928.73 2048 L 1920.08 2048 L 1903.04 2048 L 1888.84 2048 L 1875.6 2048 L 1874.83 2048 L 1870.12 2048 L 1852.97 2048 L 1846.92 2048 L 1834.87 2048 L 1823.42 2048 L 1813.9 2048 L 1757.24 2048 L 1746.68 2048 L 1680.42 2048 L 1674.83 2048 L 1600.28 2048 L 1590.03 2048 L 1586.37 2048 L 1576.97 2048 L 1573.58 2048 L 1563.64 2048 L 1557.13 2048 L 1547.96 2048 L 1545.92 2048 L 1537.95 2048 L 1537.33 2048 L 1522.78 2048 L 1518.21 2048 L 1469.46 2048 L 1459.8 2048 L 1453.03 2048 L 1443.96 2048 L 1434.26 2048 L 1425.16 2048 L 1401.12 2048 L 1390.81 2048 L 1352.99 2048 L 1344.04 2048 L 1342.93 2048 L 1335.1 2048 L 1329.99 2048 L 1319.84 2048 L 1315.94 2048 L 1307.05 2048 L 1303.01 2048 L 1293.15 2048 L 1267.26 2048 L 1255.42 2048 L 1177.39 2048 L 1168.36 2048 L 1134.81 2048 L 1124.25 2048 L 1122.83 2048 L 1119.13 2048 L 1081.63 2048 L 1072.56 2048 L 1016.8 2048 L 1009.19 2048 L 1008.55 2048 L 1001.94 2048 L 991.749 2048 L 969.003 2048 L 962.931 2048 L 954.131 2048 L 945.115 2048 L 923.917 2048 L 914.124 2048 L 908.021 2048 L 896.155 2048 L 891.131 2048 L 880.165 2048 L 843.103 2048 L 832.951 2048 L 764.878 2048 L 755.64 2048 L 712.946 2048 L 706.236 2048 L 700.837 2048 L 675.611 2048 L 670.467 2048 L 660.118 2048 L 643.103 2048 L 632.316 2048 L 615.103 2048 L 606.037 2048 L 592.163 2048 L 584.04 2048 L 576.332 2048 L 489.905 2048 L 479.339 2048 L 441.981 2048 L 435.059 2048 L 423.897 2048 L 418.897 2048 L 408.598 2048 L 406.668 2048 L 396.433 2048 L 394.168 2048 L 383.598 2048 L 357.892 2048 L 347.773 2048 L 332.589 2048 L 319.159 2048 L 318.028 2048 L 309.736 2048 L 306.505 2048 L 301.835 2048 L 15.0904 2048 L 1.75881 2048 L 0 2048 L 0 2031.37 L 0 0 z"/>
<path transform="translate(0,0)" fill="rgb(0,0,0)" d="M 1623.68 906.288 C 1625.14 879.584 1624.64 852.835 1625.03 826.104 L 1627.47 707.77 L 1636.01 269.601 C 1637.06 223.782 1636.67 177.961 1638.06 132.159 C 1638.44 119.841 1637.8 107.257 1638.73 94.9897 C 1639.01 91.3537 1640 86.2641 1642.74 83.5853 C 1644.64 81.7228 1646.79 80.6912 1649.51 80.9154 C 1651.84 81.1078 1655 82.3823 1656.44 84.3194 C 1661.22 90.7546 1659.1 106.949 1658.9 114.928 C 1680.56 97.7767 1697.12 88.8217 1725.62 92.0153 C 1772.91 97.3164 1781.67 145.456 1842.68 140.353 C 1866.34 138.375 1889.88 128.677 1910.75 117.752 C 1916 115.004 1921.36 110.04 1927.03 108.503 C 1930.56 107.549 1933.5 108.354 1935.73 111.288 C 1936.98 112.935 1937.25 114.904 1936.87 116.935 C 1932.76 138.562 1879.86 182.819 1860.45 196.423 C 1881.36 201.187 1899.87 203.632 1921.34 203.254 C 1928.42 203.13 1942.01 196.379 1947.75 201.077 C 1949.81 202.767 1949.73 203.866 1950.04 206.327 C 1945.21 220.556 1898.59 247.115 1885.23 253.759 C 1856.16 268.213 1822.58 279.323 1790.61 268.258 C 1756.2 256.349 1734.23 221.881 1691.52 242.026 C 1678.89 247.985 1666.65 257.653 1658.46 269.007 C 1655.23 301.95 1656.81 336.074 1656.21 369.205 L 1652.81 570.994 L 1649.07 808.144 C 1648.76 840.496 1646.07 873.429 1648.03 905.719 C 1655.67 906.893 1662.37 906.743 1668.22 912.449 C 1669.33 915.217 1669.06 917.364 1668.8 920.243 C 1671.09 922.992 1672.8 923.386 1676.33 923.742 C 1693.52 925.47 1769.15 919.854 1776.62 927.182 C 1777.63 928.173 1777.24 929.443 1777.26 930.758 C 1775.96 933.579 1774.51 935.438 1771.51 936.435 C 1761.14 939.884 1737.06 937.171 1724.69 937.153 C 1711.17 937.133 1584.72 937.945 1584.68 937.97 C 1584.05 938.383 1582.91 940.279 1582.56 941.005 C 1577.66 951.122 1576.02 1033.58 1575.39 1050.3 C 1574.98 1061.33 1576 1075.14 1572.48 1085.6 C 1571.51 1088.46 1570.26 1089.98 1567.38 1091.13 C 1554.87 1096.12 1533.87 1093.16 1520.36 1093.08 C 1494.13 1092.93 1467.95 1093.62 1441.73 1094.11 C 1431.5 1094.29 1420.38 1093.13 1410.28 1094.46 C 1406.84 1094.91 1400.1 1096.33 1398.33 1099.8 C 1395.81 1104.73 1396.75 1119.36 1396.48 1125.12 A 6552 6552 0 0 1 1392.25 1217.76 C 1391.64 1229.26 1392.41 1242.26 1390.26 1253.48 C 1389.63 1256.76 1388.84 1259.49 1386.24 1261.73 C 1374.48 1265.03 1342.38 1263.11 1328.45 1263.11 L 1164.93 1263.14 C 1142.94 1263.15 1106.73 1260.78 1086.78 1264.48 L 1086.56 1266.18 C 1084.48 1282.36 1081.94 1400.29 1079.81 1402.98 C 1079.4 1403.5 1078.79 1403.83 1078.28 1404.25 C 1052.07 1409.93 890.838 1399.09 884.697 1407.61 C 883.329 1409.51 883.233 1412.45 883.058 1414.69 C 882.064 1427.43 883.085 1440.71 882.976 1453.52 C 882.816 1472.19 881.772 1490.84 881.601 1509.51 C 881.443 1526.74 884.148 1559 877.21 1574.03 C 850.235 1573.09 694.807 1568.69 680.295 1577.1 C 668.911 1593.37 671.291 1635.39 670.019 1655.77 C 669.286 1667.5 667.527 1679.2 667.242 1690.96 C 667.062 1698.41 669.892 1706.94 667.697 1714.07 C 666.642 1717.5 663.556 1720.27 660.033 1720.97 C 658.331 1721.31 655.929 1720.74 654.206 1720.52 C 648.4 1719.78 642.329 1721.17 636.486 1721.37 C 629.085 1721.62 621.623 1721.34 614.221 1721.21 C 587.986 1720.72 561.74 1721.08 535.519 1720.56 C 509.471 1720.05 483.354 1718.25 457.288 1720.13 A 66.5796 66.5796 0 0 0 435.99 1725.2 C 435.839 1725.65 435.683 1726.1 435.537 1726.55 C 430.028 1743.57 429.061 1797.87 428.457 1817.8 C 428.16 1827.6 428.673 1838.16 426.753 1847.81 C 426.007 1851.56 425.475 1854.88 421.931 1856.89 C 419.669 1858.17 417.174 1858.84 414.595 1859.08 C 403.565 1860.08 391.748 1858.98 380.596 1859.15 C 357.641 1859.51 334.582 1860.72 311.637 1859.98 C 284.461 1859.1 254.993 1853.94 228.136 1858.68 C 227.019 1886.87 225.577 1915.13 224.995 1943.34 C 224.611 1961.99 225.501 1986.06 223.07 2004.21 C 222.77 2006.46 221.619 2008.11 219.902 2009.55 C 217.691 2011.39 214.301 2011.31 211.548 2011.4 C 196 2011.95 180.25 2010.87 164.673 2010.91 A 7104.86 7104.86 0 0 0 17.8988 2011.72 A 283.779 283.779 0 0 0 15.0904 2048 L 1.75881 2048 C 0.977258 2040.52 1.53639 2032.93 1.83688 2025.43 C 2.70902 2017.04 2.81343 2007.44 9.72966 2001.5 C 11.3896 2000.08 12.7788 1999.23 14.9791 1998.85 C 29.9105 1996.22 61.8326 1997.68 78.6851 1997.76 A 10481.7 10481.7 0 0 0 209.917 1998.01 C 211.485 1950.84 213.905 1903.68 214.486 1856.49 L 195.706 1847.21 C 194.862 1842.65 193.948 1838.07 194.227 1833.41 C 195.537 1811.53 209.208 1775.61 214.686 1752.25 C 209.575 1747.26 207.72 1744.92 207.701 1737.62 C 207.673 1726.67 211.323 1714.46 213.282 1703.66 C 218.657 1674.02 225.204 1644.35 229.391 1614.54 A 9244.32 9244.32 0 0 0 258.471 1374.01 C 266.777 1303.37 273.093 1231.41 295.51 1163.54 C 292.492 1159.72 291.278 1156.71 291.795 1151.8 C 293.315 1137.38 328.75 1083.99 337.008 1065.57 C 351.389 1033.48 357.782 1001.47 367.401 967.98 C 372.342 950.781 379.432 933.757 383.85 916.555 C 362.803 905.255 344.994 887.777 337.913 864.364 C 333.3 849.114 334.52 833.544 342.311 819.513 C 356.277 794.358 382.671 794.192 402.185 776.911 C 438.579 744.68 432.995 695.084 490.191 679.286 C 519.684 671.139 551.798 674.47 578.305 690.01 C 595.197 699.914 603.772 715.754 608.346 734.288 C 611.824 748.386 612.344 764.722 610.525 779.097 C 609.816 784.705 607.617 791.344 608.18 796.934 C 609.117 806.252 617.116 812.077 615.356 822.083 C 612.463 825.757 607.634 826.727 603.334 828.059 C 596.723 843.969 588.994 857.854 572.084 864.724 C 559.453 869.855 545.774 869.144 532.425 869 C 555.639 874.384 580.509 874.625 604.238 876.023 C 642.763 878.292 694.283 883.172 731.649 876.207 C 747.23 873.303 779.97 855.682 795.301 848.208 L 911.052 791.252 A 1321.37 1321.37 0 0 1 944.789 775.56 C 951.528 772.573 959.964 769.892 966.095 765.846 C 977.987 757.997 1007.18 714.628 1017.88 700.277 L 1110.55 574.793 C 1131.93 545.806 1154.33 517.283 1176.2 488.639 A 3591.91 3591.91 0 0 1 1215.22 439.255 C 1220.78 432.36 1227.2 425.829 1232.18 418.522 C 1216.22 424.142 1201.44 429.29 1185.15 421.341 C 1169.21 413.567 1152.69 397.292 1146.96 380.268 C 1142.45 366.838 1143.03 350.433 1142.38 336.365 C 1130.13 334.398 1121.24 330.88 1113.64 320.37 C 1106.15 310.001 1103.31 296.642 1105.35 284.061 A 48.9156 48.9156 0 0 1 1125.35 252.321 C 1135.52 245.014 1146.9 242.734 1158.95 240.488 C 1156.93 235.62 1155 230.688 1152.85 225.877 C 1159.67 216.782 1166.95 212.766 1178.24 211.215 C 1191.43 209.403 1206.95 211.546 1217.51 220.066 C 1224.95 226.077 1230.4 234.659 1236.13 242.257 C 1255.69 239.471 1276.5 240.696 1293.05 252.75 C 1306.14 262.285 1314.87 279.153 1316.98 295.048 C 1321.02 325.376 1305.02 356.325 1290.73 381.913 C 1328.94 384.429 1357.94 392.792 1383.89 422.298 C 1392.66 432.271 1399.95 443.748 1407.75 454.496 A 5001.9 5001.9 0 0 1 1462.09 532.159 C 1483.93 563.936 1507.88 594.671 1528.36 627.335 C 1529.69 629.457 1531.78 632.187 1531.65 634.766 C 1531.53 637.13 1530.93 638.999 1529.02 640.529 C 1526.26 642.742 1521.77 642.994 1518.41 643.521 L 1516.39 643.849 C 1519.57 658.02 1521.47 672.059 1520.13 686.594 C 1514.08 752.049 1457.15 839.1 1432.15 902.392 C 1452.6 922.337 1470.33 945.83 1489.24 967.278 C 1512.38 993.516 1537.09 1018.43 1560.62 1044.33 C 1564.61 1020.03 1564.03 993.534 1565.22 968.891 C 1565.63 960.489 1565.33 951.62 1566.88 943.353 C 1567.87 938.102 1569.96 930.607 1574.33 927.09 C 1584.2 919.135 1602.15 929.167 1609.72 920.365 C 1610.09 917.043 1609.71 912.31 1612.21 909.912 C 1614.93 907.308 1620.08 906.936 1623.68 906.288 z"/>
<path transform="translate(0,0)" fill="rgb(254,254,254)" d="M 1474.79 1042.92 C 1476.22 1044.54 1475.96 1044.98 1476.23 1047.04 C 1472.48 1052.46 1461.24 1055.63 1455.26 1058.01 L 1454.16 1056.99 C 1457.25 1051.85 1469.44 1046.25 1474.79 1042.92 z"/>
<path transform="translate(0,0)" fill="rgb(254,254,254)" d="M 1515.19 1016.06 C 1522.11 1021.08 1528.22 1029.04 1533.97 1035.37 C 1524.07 1039.22 1514.02 1042.25 1503.79 1045.04 L 1496.03 1047.14 C 1493.06 1047.97 1491.31 1048.7 1488.21 1047.79 C 1486.79 1045.47 1486.78 1043.71 1487.08 1040.97 C 1488.31 1029.58 1506.17 1023.22 1514.16 1016.89 C 1514.51 1016.62 1514.85 1016.34 1515.19 1016.06 z"/>
<path transform="translate(0,0)" fill="rgb(254,254,254)" d="M 523.598 1640.59 C 539.305 1641.4 555.149 1643.72 570.864 1642.95 C 568.779 1650.8 567.046 1658.66 565.444 1666.62 C 552.307 1669.58 532.469 1664.66 518.177 1665.14 A 354.562 354.562 0 0 1 523.598 1640.59 z"/>
<path transform="translate(0,0)" fill="rgb(254,254,254)" d="M 1287.75 1167.57 C 1299.95 1166.73 1312.49 1167.13 1324.67 1168.02 A 1446.89 1446.89 0 0 1 1325.16 1198.41 L 1309.77 1200.14 C 1300.31 1201.58 1291.08 1203.57 1281.76 1205.71 L 1277.35 1169.45 C 1279.85 1167.45 1284.58 1167.77 1287.75 1167.57 z"/>
<path transform="translate(0,0)" fill="rgb(254,254,254)" d="M 227.598 1757.9 C 241.693 1761.79 266.625 1765.54 280.929 1764.23 C 278.174 1774.24 275.675 1783.98 270.918 1793.26 L 269.368 1795.8 C 260.833 1799.99 239.155 1793.61 230.31 1790.87 C 228.181 1790.2 223.08 1788.78 222.262 1786.54 C 219.942 1780.2 225.347 1764.46 227.598 1757.9 z"/>
<path transform="translate(0,0)" fill="rgb(254,145,108)" d="M 1544.49 1047.05 C 1549.06 1048.1 1556.44 1059.06 1559.87 1063.12 C 1559.31 1067.8 1558.86 1072.49 1558.35 1077.17 C 1544.22 1080.27 1528.29 1079.12 1513.86 1079.17 C 1493.14 1079.23 1472.45 1079.18 1451.75 1080.28 L 1433.8 1080.96 C 1452.16 1075.37 1470.22 1068.85 1488.52 1063.09 C 1507.01 1057.26 1525.82 1052.27 1544.49 1047.05 z"/>
<path transform="translate(0,0)" fill="rgb(254,254,254)" d="M 841.402 996.564 C 841.47 996.553 841.538 996.53 841.607 996.529 C 853.741 996.5 871.507 999.328 881.472 1006.6 L 880.323 1008.97 L 882.249 1008.03 C 870.083 1011.51 859.899 1002.51 848.648 1004.99 C 845.847 1005.61 844.443 1006.8 842.832 1009.14 C 842.753 1010.8 842.363 1011.63 843.369 1013.07 C 847.121 1018.45 859.449 1017.77 865.629 1018.9 C 869.734 1019.65 875.449 1020.47 877.981 1024.17 L 877.216 1025.74 C 862.856 1031.13 841.334 1016.57 828.509 1018.99 C 825.735 1019.51 823.168 1021.38 821.598 1023.69 C 820.606 1025.16 821.13 1025.44 821.551 1026.99 C 827.323 1031.6 837.178 1031.88 844.318 1033.05 C 849.425 1033.89 859.951 1034.55 863.085 1038.91 L 861.82 1041.17 C 857.789 1042.16 853.081 1040.58 849.076 1039.74 C 839.498 1038.42 830.223 1034.46 820.542 1033.52 C 816.612 1033.13 813.635 1033.22 810.441 1035.83 C 809.644 1038.12 809.533 1038.44 810.078 1040.79 C 819.393 1048.76 834.79 1045.46 845.145 1051.76 L 845.109 1053.05 C 834.633 1056.71 816.913 1053.28 805.678 1052.91 C 798.784 1057.46 791.37 1060.63 785.058 1066.11 C 784.156 1048.07 786.013 1030.33 788.899 1012.55 C 807.297 1010.74 823.295 997.681 841.402 996.564 z"/>
<path transform="translate(0,0)" fill="rgb(232,125,120)" d="M 513.87 1681.54 C 514.21 1680.1 514.763 1679.21 515.5 1677.94 C 520.567 1677.65 526.335 1679.33 531.445 1680.02 L 540.736 1680.06 C 547.657 1680.26 554.581 1680.41 561.489 1680.91 C 568.065 1680.81 574.507 1680.62 581.038 1681.55 L 591.861 1684.21 C 598.891 1685.43 605.24 1687.69 611.913 1690.17 L 624.716 1696.04 C 631.93 1699.45 638.245 1702.88 644.524 1707.86 C 637.949 1708.32 631.123 1709.17 624.546 1709 L 615.509 1708.88 A 4113.97 4113.97 0 0 1 555.266 1708.03 L 539.925 1707.9 C 534.651 1707.84 529.573 1706.88 524.295 1707.61 C 521.661 1707.4 519.006 1707.22 516.387 1706.87 C 513.194 1706.44 511.912 1705.49 510.028 1702.97 C 509.211 1698.46 510.801 1693.95 511.861 1689.56 L 513.87 1681.54 z"/>
<path transform="translate(0,0)" fill="rgb(232,125,120)" d="M 1319.76 1211.39 C 1321.53 1210.97 1322.39 1210.95 1324.14 1211.46 C 1329.37 1218.44 1328.45 1239.67 1329.08 1248.88 C 1314.03 1246.59 1297.34 1247.89 1282.1 1247.91 A 2622.6 2622.6 0 0 0 1203.25 1248.5 L 1190.31 1248.37 C 1199.99 1243.35 1210.99 1240.09 1221.26 1236.4 C 1259.1 1222.78 1279.28 1216.5 1319.76 1211.39 z"/>
<path transform="translate(0,0)" fill="rgb(232,125,120)" d="M 216.009 1799.59 C 225.907 1802.9 235.831 1805.61 245.938 1808.17 C 263.888 1810.5 281.042 1814.11 296.765 1823.74 C 304.653 1826.71 312.201 1830.67 319.419 1835.01 C 326.906 1839.17 334.349 1843.62 342.101 1847.26 C 333.006 1846.78 323.901 1845.73 314.798 1845.69 C 311.285 1845.14 307.649 1845.27 304.096 1845.21 C 279.68 1844.33 255.183 1843.33 230.749 1844.32 C 223.566 1844.65 217.118 1842.31 211.521 1837.89 L 210.78 1837.46 C 210.53 1837.06 210.248 1836.67 210.03 1836.24 C 206.081 1828.55 213.792 1807.94 216.009 1799.59 z"/>
<path transform="translate(0,0)" fill="rgb(254,254,254)" d="M 1015.58 774.4 C 1028.38 781.824 1042.1 792.604 1053.21 802.388 L 1052.24 803.887 C 1041.9 819.569 979.348 891.382 964.49 894.322 C 962.236 893.667 960.75 893.215 958.96 891.665 C 959.39 891.365 959.798 891.032 960.249 890.765 C 962.844 889.233 965.063 887.972 967.417 885.999 C 974.512 880.053 996.977 858.432 997.03 849.1 C 997.045 846.477 996.459 845.471 994.665 843.68 C 985.622 843.948 967.112 869.894 960.218 877.189 C 956.796 880.269 953.696 883.176 949.575 885.323 L 948.699 884.611 C 953.942 866.045 977.807 853.587 983.219 836.464 C 982.469 833.154 979.094 830.657 976.697 828.361 C 963.187 843.52 951.348 861.665 936.091 875.119 C 933.655 877.267 930.082 880.634 926.619 880.385 C 926.095 877.517 927.301 875.429 928.786 872.999 C 933.078 865.978 939.457 860.085 944.663 853.723 C 950.357 846.766 955.348 839.081 961.456 832.488 C 977.967 814.665 1004.35 795.578 1015.58 774.4 z"/>
<path transform="translate(0,0)" fill="rgb(254,254,254)" d="M 1237.85 432.769 C 1238.36 438.076 1236.96 443.603 1237.06 449.026 C 1237.2 456.866 1239.97 460.672 1245.48 466.036 C 1231.71 485.661 1216.01 504.31 1201.07 523.075 A 9454.61 9454.61 0 0 0 1127.68 615.424 L 1118.79 612.2 C 1113.68 610.623 1108.87 608.416 1103.99 606.242 A 6769.61 6769.61 0 0 1 1193.7 488.118 C 1207.79 469.9 1221.55 448.991 1237.85 432.769 z"/>
<path transform="translate(0,0)" fill="rgb(254,254,254)" d="M 440.932 1293.85 C 448.203 1296.8 485.64 1331.44 489.329 1338.43 C 488.957 1341.24 487.312 1342.55 485.401 1344.6 C 470.062 1361.05 452.062 1375.79 435.799 1391.4 A 7973.13 7973.13 0 0 1 285.064 1531.34 C 278.785 1537.09 271.106 1545.87 263.017 1548.63 C 261.283 1548.46 260.547 1548.7 259.144 1547.51 C 257.146 1545.81 256.163 1543.8 256.239 1541.15 C 256.331 1537.98 260.456 1533.88 262.59 1531.62 C 270.269 1523.5 279.246 1516.23 287.535 1508.69 C 301 1496.43 314.274 1484.03 327.879 1471.93 C 354.166 1448.53 379.593 1424.69 406.511 1401.98 A 6106.91 6106.91 0 0 0 426.957 1335.99 C 431.137 1322.21 434.566 1306.73 440.932 1293.85 z"/>
<path transform="translate(0,0)" fill="rgb(254,254,254)" d="M 1095.45 618.701 C 1102.92 622.369 1111 624.551 1118.49 628.488 C 1087.87 664.633 1058.79 702.216 1028.67 738.804 C 1012.96 757.896 997.722 777.571 979.911 794.778 C 969.193 796.254 959.528 799.252 949.017 801.413 C 942.231 802.809 934.259 803.083 927.941 805.936 C 925.408 807.08 924.732 807.774 923.895 810.367 C 924.254 812.578 924.426 814.493 925.853 816.32 C 930.156 821.829 956.451 810.708 963.152 811.54 L 963.076 812.89 C 954.614 822.236 942.309 826.623 930.305 829.243 C 926.542 830.064 922.151 830.503 918.592 831.882 C 916.092 832.851 915.38 833.785 914.388 836.173 C 914.908 838.518 915.925 839.412 917.603 841.07 C 921.95 842.443 926.737 841.803 931.246 841.622 L 931.794 843.341 L 930.658 845.233 C 928.693 845.691 927.198 846.005 925.426 847.024 C 925.052 847.239 924.699 847.489 924.336 847.722 C 921.146 847.398 918.821 846.846 915.824 845.708 C 899.057 853.31 889.484 868.848 875.299 879.842 C 866.861 865.521 862.708 848.591 855.896 833.413 C 866.376 826.935 878.64 822.156 889.777 816.744 C 909.863 806.984 930.175 796.342 950.838 787.871 C 955.778 785.845 961.848 786.143 966.568 783.96 C 981.927 776.854 1078.58 640.771 1095.45 618.701 z"/>
<path transform="translate(0,0)" fill="rgb(254,254,254)" d="M 1130.92 632.702 C 1147.99 639.905 1164.65 648.16 1181.38 656.109 C 1166.56 670.879 1153.76 687.66 1140.21 703.574 C 1117.3 730.471 1093.96 757.484 1070.25 783.672 L 1062.08 791.166 C 1050.05 781.709 1037.29 773.164 1025.51 763.394 C 1037.64 750.922 1048.01 736.173 1058.79 722.531 C 1072.02 705.793 1086.09 689.756 1099.35 673.038 C 1109.96 659.662 1119.68 645.551 1130.92 632.702 z"/>
<path transform="translate(0,0)" fill="rgb(254,254,254)" d="M 1196.96 290.504 C 1198.23 290.42 1198.23 290.385 1199.69 290.488 C 1216.8 291.689 1214.35 315.998 1223.07 326.334 C 1230.28 328.503 1237.12 317.236 1245.37 316.631 C 1247.23 317.236 1248.31 317.647 1249.67 319.138 C 1252.05 321.738 1253.29 326.58 1254.06 329.908 C 1259.05 351.405 1240.55 350.372 1240.29 363.582 C 1240.08 374.46 1254.75 390.57 1261.82 397.8 C 1256.26 402.952 1251.39 409.305 1246.46 415.065 C 1243.9 411.462 1240.82 406.795 1236.61 405.027 C 1230.51 402.47 1224.18 405.669 1218.59 408.05 C 1213.68 410.175 1208.77 411.603 1203.62 413.02 C 1199.72 412.11 1195.91 411.01 1192.25 409.353 C 1177.97 402.898 1164.77 389.574 1159.47 374.8 C 1154.37 360.562 1152.01 326.427 1158.45 313.324 C 1164.46 315.806 1170.75 318.553 1177.27 319.173 C 1183.42 319.758 1191.75 318.675 1196.59 314.568 C 1197.71 312.004 1198.28 311.144 1198 308.307 C 1192.68 303.552 1184.13 305.631 1177.41 305.18 C 1174.6 304.991 1172.77 304.974 1170.83 302.882 C 1171.24 301.591 1171.72 300.673 1172.67 299.691 C 1180.5 291.639 1186.47 290.994 1196.96 290.504 z"/>
<path transform="translate(0,0)" fill="rgb(0,0,0)" d="M 1171.01 336.276 C 1173.01 336.339 1174.77 336.324 1176.67 336.977 C 1182.21 338.883 1186.39 337.441 1191.91 337.86 C 1194.52 338.058 1195.27 338.928 1196.77 340.914 C 1196.96 344.353 1195.78 346.286 1194.2 349.193 C 1193.76 349.386 1193.32 349.592 1192.88 349.771 C 1187.36 351.99 1179.04 351.688 1173.66 349.073 C 1171.36 347.955 1169.69 346.257 1169.16 343.692 C 1168.6 341.012 1169.75 338.528 1171.01 336.276 z"/>
<path transform="translate(0,0)" fill="rgb(0,0,0)" d="M 1179.16 369.315 C 1181.04 369.444 1182.56 369.525 1184.22 370.524 C 1188.91 373.34 1191.44 379.5 1192.11 384.681 C 1192.91 390.847 1191.82 393.283 1188.02 398.138 C 1185.27 397.682 1182.45 396.558 1180.42 394.568 C 1176.61 390.814 1175.07 385.332 1174.97 380.133 C 1174.88 375.192 1175.8 372.932 1179.16 369.315 z"/>
<path transform="translate(0,0)" fill="rgb(254,254,254)" d="M 593.886 737.524 C 603.403 743.346 591.661 795.005 595.819 807.873 L 595.725 807.208 C 590.686 817.931 589.109 830.429 581.969 840.027 C 571.839 853.644 557.669 857.036 541.512 855.935 C 537.656 855.672 532.581 854.698 528.884 855.505 C 519.998 857.445 517.51 871.379 513.423 878.254 C 511.688 881.17 508.984 883.865 506.994 886.694 C 497.101 881.142 486.802 875.452 477.545 868.885 L 478.008 867.33 C 483.137 862.069 487.767 856.609 491.896 850.52 C 498.086 841.392 508.99 821.367 505.73 810.018 C 502.56 798.982 493.733 805.482 487.541 800.213 C 482.654 796.053 482.543 784.088 482.346 778.093 A 53.6236 53.6236 0 0 1 486.533 772.211 C 488.678 769.612 491.525 767.327 495.071 767.308 C 501.159 767.275 505.242 773.493 508.708 777.686 C 518.026 775.029 527.213 771.803 536.536 769.102 C 560.519 762.152 577.2 757.159 593.886 737.524 z"/>
<path transform="translate(0,0)" fill="rgb(0,0,0)" d="M 581.499 769.195 C 583.779 768.829 585.03 769.182 587.201 769.915 C 588.626 771.572 589.274 772.24 588.883 774.638 C 588.342 777.96 585.048 781.145 582.426 782.985 C 577.783 786.242 573.849 786.014 568.455 785.129 C 568.109 785.14 567.757 785.224 567.416 785.161 C 564.7 784.657 561.327 782.471 559.784 780.171 C 558.347 778.029 558.534 777.535 559.182 775.268 C 562.516 772.321 566.28 771.429 570.646 771.028 C 574.369 770.686 577.849 769.982 581.499 769.195 z"/>
<path transform="translate(0,0)" fill="rgb(0,0,0)" d="M 548.278 808.433 C 550.679 808.442 552.667 808.741 555.002 809.293 C 560.089 813.409 561.679 820.547 566.526 824.499 C 570.483 827.724 576.261 827.268 579.145 832.018 C 579.362 835.268 577.865 837.595 576.441 840.393 C 574.397 840.872 571.598 841.306 569.508 840.855 C 562.142 839.269 554.382 830.138 550.782 823.926 C 547.645 818.511 546.737 814.512 548.278 808.433 z"/>
<path transform="translate(0,0)" fill="rgb(254,254,254)" d="M 1348.97 990.425 C 1361.36 997.832 1373.08 1008.79 1384.56 1017.62 C 1404.04 1032.6 1423.9 1046.52 1442.43 1062.72 C 1434.64 1065.89 1424.62 1067.16 1417.7 1071.86 C 1413.75 1074.54 1416 1079.42 1410.86 1081.05 C 1403.48 1083.39 1396.4 1081.33 1390.06 1087.42 C 1386.09 1091.24 1384.49 1097.5 1383.55 1102.75 C 1381.45 1114.47 1381.76 1127.13 1381.28 1139.06 L 1378.6 1205.25 L 1377.07 1249.02 A 986.839 986.839 0 0 1 1343 1248.87 C 1339.21 1223.89 1338.67 1195.18 1336.88 1169.71 C 1339.25 1166.31 1345.01 1167.13 1348.02 1163.73 C 1349.13 1162.47 1349.65 1161.13 1349.81 1159.48 C 1351.36 1144.09 1350.01 1127.22 1350.05 1111.66 A 9700.1 9700.1 0 0 0 1348.97 990.425 z"/>
<path transform="translate(0,0)" fill="rgb(254,254,254)" d="M 914.991 860.06 C 918.332 865.793 909.879 878.155 912.088 886.145 C 917.186 904.584 929.569 890.573 937.304 893.817 C 940.62 895.208 948.994 901.999 953.23 904.417 C 944.827 917.199 889.22 970.863 875.723 981.45 C 872.784 983.756 869.771 985.376 866.336 986.812 C 838.839 980.335 817.094 988.809 791.737 998.645 C 774.89 988.448 736.032 990.697 715.751 989.855 C 691.467 987.525 679.528 990.108 656.34 978.8 C 678.062 977.09 700.672 976.744 722.117 972.991 C 763.014 965.834 798.95 940.035 834.054 919.09 C 848.514 910.463 871.815 899.613 884.176 890.095 C 895.346 881.494 902.58 868.72 913.979 860.749 C 914.313 860.515 914.653 860.29 914.991 860.06 z"/>
<path transform="translate(0,0)" fill="rgb(254,254,254)" d="M 841.879 839.93 L 842.836 840.215 C 848.375 846.127 858.776 876.504 863.484 886.313 C 841.345 900.267 818.508 913.205 795.771 926.15 C 781.148 934.475 766.469 943.729 750.991 950.317 A 137.498 137.498 0 0 1 724.46 958.504 C 708.908 961.629 642.309 968.562 629.375 964.031 C 612.721 958.197 585.541 938.149 570.147 927.822 C 554.079 917.556 537.29 908.449 521.583 897.621 C 523.788 892.929 525.232 888.057 526.766 883.119 C 562.266 886.931 597.332 888.141 632.966 889.659 C 662.831 890.931 708.668 895.414 737.402 887.799 C 760.363 881.714 781.891 868.277 803.155 857.973 C 815.979 851.759 829.212 846.484 841.879 839.93 z"/>
<path transform="translate(0,0)" fill="rgb(254,254,254)" d="M 555.644 1042.66 C 564.884 1049.16 574.037 1054.31 584.942 1057.5 C 619.075 1067.45 657.522 1064.89 692.828 1065.62 C 709.309 1065.97 725.698 1067.22 742.158 1067.88 C 754.677 1068.38 767.716 1068.15 780.041 1070.45 C 767.457 1084.91 752.007 1097.41 737.801 1110.25 C 716.418 1129.59 694.95 1149.26 674.179 1169.25 C 644.894 1195.08 617.644 1223.2 587.609 1248.15 C 567.878 1230.43 553.158 1207.15 534.503 1188.25 C 524.88 1133.83 537.739 1093.3 555.644 1042.66 z"/>
<path transform="translate(0,0)" fill="rgb(254,254,254)" d="M 1282.9 394.741 C 1302.75 394.081 1324.94 397.874 1342.79 406.636 C 1351.19 410.76 1359.95 415.978 1366.38 422.869 C 1379.83 437.291 1391.18 454.354 1402.53 470.436 L 1446.63 533.431 C 1466.16 561.614 1487.6 589.049 1505.63 618.201 C 1508.28 622.477 1510.34 626.597 1511.99 631.365 C 1492.54 636.755 1474.15 646.434 1455.06 653.121 C 1409.12 669.209 1341.42 685.836 1293.19 688.439 C 1294.24 652.139 1289.78 608.472 1267.28 578.307 A 7067.62 7067.62 0 0 1 1319.21 519.718 C 1325.01 513.126 1332.6 505.929 1336.6 498.07 C 1337.9 495.499 1338.43 493.579 1337.61 490.743 C 1336.16 489.655 1335.87 489.189 1333.99 488.918 C 1331.3 488.532 1329.43 488.603 1327.12 490.142 C 1322.05 493.519 1308.75 511.069 1304.02 516.487 L 1231.14 599.857 C 1218.11 614.778 1205.09 633.649 1189.21 645.388 C 1172.96 638.413 1156.48 629.361 1140.91 620.9 C 1156.17 602.311 1170.57 582.845 1185.62 564.046 L 1291.73 432.892 C 1295.19 428.632 1302.01 421.114 1300.94 415.296 C 1300.66 413.77 1299.84 413.598 1298.69 412.736 C 1297.1 412.533 1294.72 412.045 1293.12 412.538 C 1281.05 416.272 1262.68 452.733 1253.08 456.289 C 1252.26 456.594 1252.12 456.601 1251.48 456.049 C 1249.25 454.126 1248.54 449.842 1248.58 447.049 C 1248.81 428.569 1270.54 406.624 1282.9 394.741 z"/>
<path transform="translate(0,0)" fill="rgb(254,254,254)" d="M 512.175 1361.52 C 512.616 1361.57 513.064 1361.57 513.498 1361.66 C 519.569 1362.95 528.509 1373.51 532.227 1378.38 C 539.049 1387.31 543.235 1398.86 544.502 1409.98 C 549.054 1449.96 525.976 1532.33 515.023 1573.73 C 511.528 1586.94 506.229 1601.4 504.79 1615 C 503.864 1623.74 506.77 1627.76 511.946 1634.26 C 505.677 1652.5 496.1 1688.09 495.978 1706.86 C 477.303 1707.75 443.405 1702.35 429.2 1715.66 C 425.341 1719.28 422.805 1723.62 421.388 1728.7 C 416.312 1746.91 417.448 1768.62 416.67 1787.5 L 413.931 1846.82 C 396.48 1847.35 378.997 1846.99 361.54 1846.83 C 356.124 1839.98 351.013 1836.06 343.301 1832.06 C 333.633 1827.45 324.557 1821.82 315.015 1816.99 C 304.944 1811.89 294.348 1807.69 283.949 1803.31 C 286.43 1792.04 289.711 1779.77 294.006 1769.07 C 297.397 1760.63 301.574 1752.47 304.418 1743.81 L 369.116 1544.7 C 374.886 1527.37 387.163 1483.44 396.319 1469.85 C 401.274 1462.49 415.299 1451.71 422.408 1445 L 512.175 1361.52 z"/>
<path transform="translate(0,0)" fill="rgb(254,254,254)" d="M 446.931 877.415 C 454.638 876.796 463.528 877.653 470.59 880.861 C 481.954 886.023 491.494 894.685 502.046 901.264 C 546.737 929.13 590.253 960.082 637.093 984.294 C 646.56 989.188 656.143 994.662 666.355 997.838 C 682.382 1002.82 701.345 1001.91 718.034 1002.57 L 775.04 1004.94 C 773.156 1017.9 773.726 1045.36 769.124 1055.88 C 748.9 1057.98 726.66 1053.57 706.192 1053.21 C 671.499 1052.59 613.868 1054.87 582.758 1042.31 C 560.905 1033.49 532.611 1013.37 512.918 999.696 C 504.152 993.608 467.885 967.349 460.43 965.64 C 458.696 965.243 457.276 965.087 455.921 966.49 C 453.932 968.55 453.912 970.013 453.758 972.663 C 456.877 980.191 465.818 984.636 472.38 989.052 C 494.483 1006.12 520.221 1020.03 543.506 1035.55 C 530.828 1074.1 517.073 1111.44 516.957 1152.63 C 516.923 1164.85 518.527 1177.02 519.327 1189.2 C 505.525 1189.78 491.483 1188.45 477.717 1187.5 C 425.381 1183.86 354.016 1174.7 306.572 1151.73 C 323.296 1119.32 343.378 1088.84 356.687 1054.76 C 360.985 1043.76 365.065 1032.5 368.246 1021.12 C 378.942 982.849 386.349 933.979 409.631 901.336 C 418.991 888.211 431.056 880.153 446.931 877.415 z"/>
<path transform="translate(0,0)" fill="rgb(254,254,254)" d="M 1501.59 650.366 C 1523.17 683.862 1481.11 766.354 1466.02 798.572 A 3194.55 3194.55 0 0 1 1433.54 866.336 C 1429.85 873.861 1417.18 895.303 1417.61 903.208 C 1418.01 910.527 1495.84 994.254 1506.66 1005.46 C 1489.24 1017.28 1462.88 1037.56 1445.18 1046.06 L 1352.23 976.662 C 1303.25 939.582 1308.94 907.564 1321.1 853.577 A 5401.68 5401.68 0 0 1 1336.49 785.186 C 1338.86 775.232 1344.79 760.042 1342.99 750.241 C 1342.4 747.018 1341.58 745.066 1338.93 743.256 C 1338.33 743.406 1337.7 743.469 1337.13 743.706 C 1333.44 745.237 1330.26 751.885 1328.93 755.374 C 1326.4 762.04 1325.41 770.158 1323.79 777.159 C 1318.51 799.968 1314.26 823.005 1308.76 845.762 C 1304.18 865.139 1298.53 885.123 1298.68 905.162 C 1298.94 937.872 1312.25 958.416 1334.96 980.658 A 7283.83 7283.83 0 0 1 1335.98 1151.2 C 1313.41 1153.17 1289.84 1152.67 1267.18 1152.18 C 1264.24 1140.91 1262.98 1129.01 1261.1 1117.5 A 5906.38 5906.38 0 0 0 1250.95 1057.15 A 6327.68 6327.68 0 0 1 1234.91 967.274 C 1231.9 949.733 1228.25 932.219 1227.1 914.426 C 1226.11 899.131 1226.78 883.144 1231.17 868.378 C 1236.97 848.908 1247.24 830.267 1255.55 811.73 C 1271.83 775.402 1287.92 739.327 1301.35 701.82 C 1340.26 697.186 1379.77 690.094 1417.45 679.233 C 1445.92 671.027 1473.73 660.407 1501.59 650.366 z"/>
<path transform="translate(0,0)" fill="rgb(254,254,254)" d="M 1258.56 589.788 C 1274.57 610.876 1279.23 647.543 1279.05 673.341 C 1279 680.432 1277.37 692.104 1279.12 698.584 C 1280.32 703.027 1286.18 701.448 1284.94 706.586 C 1281.98 718.941 1275.3 731.834 1270.3 743.491 L 1241.74 809.173 C 1231.5 832.518 1218.87 856.121 1214.69 881.456 C 1212.63 893.907 1212.76 907.136 1214.11 919.656 C 1217.62 952.253 1224.32 984.953 1230.19 1017.21 C 1235.28 1045.21 1239.68 1073.37 1244.58 1101.41 C 1246.94 1114.93 1251.13 1152.24 1255.37 1162.87 C 1256.51 1165.73 1261.01 1167.46 1263.61 1168.85 C 1265.62 1181.27 1267.43 1193.52 1267.39 1206.14 C 1251.97 1209.41 1193.85 1228.92 1182.71 1237.15 C 1180.62 1240.73 1180.61 1244.48 1180.29 1248.51 C 1174.6 1250.58 1164.98 1249.15 1158.74 1249.1 C 1138.76 1248.92 1099.23 1247.02 1081.43 1251.45 A 30.2427 30.2427 0 0 0 1078.75 1253.75 C 1075.84 1256.5 1074.46 1259.11 1073.38 1262.96 C 1068.26 1281.24 1068.72 1327.74 1067.83 1349.25 C 1067.53 1358.45 1068.72 1382 1064.68 1388.78 C 1063.8 1390.26 1063.51 1389.99 1061.97 1390.41 C 1058.62 1387.67 1058.96 1383.7 1058.52 1379.55 C 1057.32 1377.57 1056.38 1376.57 1054.46 1375.37 C 1054.23 1375.23 1052.56 1374.21 1052.32 1374.03 C 1050.14 1372.41 1049.11 1371.39 1048.97 1368.62 C 1048.38 1357.26 1049.7 1345.15 1050.2 1333.77 A 3666.65 3666.65 0 0 0 1052.65 1267.09 L 1061.31 953.336 L 1063.16 879.548 C 1063.43 869.141 1065.09 856.542 1063.57 846.316 C 1061.69 833.623 1051.5 840.844 1045.36 836.314 C 1046.25 830.738 1056.84 819.224 1060.65 814.548 C 1068.8 804.539 1077.8 795.125 1086.33 785.433 L 1136.07 728.433 C 1176.52 682.017 1216.43 634.697 1258.56 589.788 z"/>
<path transform="translate(0,0)" fill="rgb(254,254,254)" d="M 1032.65 875.97 C 1033.54 877.285 1033.67 877.945 1033.72 879.556 C 1034.38 903.779 1032.94 928.308 1032.45 952.551 A 7021.34 7021.34 0 0 1 1028.14 1112.81 L 1022.16 1372.23 C 1014.13 1374.88 1006.4 1376.46 1002.29 1384.51 C 1001.71 1385.63 1000.17 1389.01 999.288 1389.74 C 995.783 1392.62 903.23 1387.56 887.02 1390.97 C 882.825 1391.85 879.278 1393.53 876.235 1396.58 A 24.7115 24.7115 0 0 0 869.606 1409.23 C 867.278 1421.01 868.546 1434.81 868.215 1446.86 A 2995.45 2995.45 0 0 0 866.901 1557.66 C 851.506 1560.34 834.462 1559.11 818.859 1559.12 C 775.416 1559.15 726.71 1556.15 683.814 1562.89 C 678.182 1563.78 671.531 1565.18 668.138 1570.16 C 654.384 1590.33 658.477 1630.96 656.596 1654.96 C 655.601 1667.66 651.527 1683.32 653.799 1695.72 C 631.787 1681.09 604.262 1674.64 579.351 1666.77 C 580.852 1659.93 582.308 1647.34 586.91 1641.97 C 588.507 1639.78 589.936 1637.49 590.887 1634.94 C 595.999 1621.24 599.569 1606.82 604.377 1592.98 L 638.762 1496.63 A 2441.7 2441.7 0 0 1 655.339 1449.73 C 660.304 1436.07 666.327 1421.79 669.254 1407.56 C 672.376 1392.38 672.369 1376.41 668.381 1361.39 C 666.033 1352.54 662.304 1344.45 657.271 1336.82 C 650.54 1326.61 608.247 1280 608.345 1272.9 C 626.735 1253.74 647.902 1236.54 667.625 1218.72 C 695.957 1193.11 723.775 1166.71 751.826 1140.77 C 769.286 1124.62 786.328 1108.02 803.84 1091.91 C 810.722 1085.58 817.746 1077.96 825.5 1072.81 C 832.184 1068.36 840.359 1067.87 847.922 1065.82 C 860.019 1062.56 872.902 1053 879.046 1042.05 L 879.685 1040.89 C 884.791 1038.34 890.043 1035.74 893.723 1031.21 C 900.397 1023 893.807 1018.68 893.839 1010.63 C 893.848 1008.56 894.922 1007.17 896.258 1005.71 C 915.512 984.695 937.741 965.347 958.366 945.653 C 982.816 922.307 1006.84 897.8 1032.65 875.97 z"/>
<path transform="translate(0,0)" fill="rgb(232,125,120)" d="M 1644.84 980.163 L 1646.14 978.932 L 1644.6 977.383 C 1643.79 974.583 1643.51 973.38 1644.3 970.455 C 1646.18 968.157 1647.91 967.502 1650.58 966.469 C 1653.5 966.586 1654.66 967.317 1656.89 969.025 C 1657.13 969.212 1657.37 969.406 1657.62 969.597 C 1660.1 968.903 1662.81 968.208 1665.4 968.068 C 1668.38 967.907 1710.92 969.391 1711.43 969.571 C 1712.01 971.053 1712.19 971.618 1713.38 972.729 C 1713.5 970.515 1713.33 971.662 1713.97 969.298 C 1717.91 968.298 1721.78 970.011 1725.49 971.316 C 1727.99 970.422 1730.94 969.132 1733.57 968.792 C 1736.7 968.386 1738.88 968.51 1741.49 970.179 L 1740.45 973.628 L 1741.76 973.97 C 1742.71 972.496 1743.46 971.183 1744.88 970.102 C 1747.68 967.973 1786.19 969.259 1791.37 970.213 C 1793.4 969.77 1794.93 969.426 1797.02 969.394 C 1803.28 969.368 1811.34 968.128 1816.98 971.185 C 1817 971.148 1817.02 971.105 1817.05 971.074 C 1819.72 968.533 1821.92 969.045 1825.49 968.749 L 1829.15 971.365 C 1836.14 968.082 1840.1 969.79 1846.97 972.203 C 1848.69 970.032 1850.22 969.341 1852.85 968.675 C 1856.32 969.42 1857.26 970.694 1859.86 973.028 C 1862.16 973.267 1862.5 970.552 1865 969.267 C 1867.63 969.356 1868.9 969.668 1871.2 971.029 C 1872.95 972.068 1873.09 972.295 1875.22 972.436 C 1876.39 971.492 1877.88 970.053 1879.25 969.466 C 1881.9 968.325 1883.21 969.144 1885.78 969.995 C 1886.95 971.37 1888.11 972.669 1889.42 973.905 C 1890.61 973.018 1891.65 972.132 1892.73 971.104 L 1893.89 969.972 C 1902.62 967.856 1901.71 974.402 1908 976.691 L 1908.59 976.032 C 1907.42 974.484 1906.28 972.935 1905.18 971.342 C 1908.05 969.736 1955.88 971.483 1965.01 970.775 C 1968.05 970.566 1970.01 970.925 1972.67 972.437 C 1976.02 971.062 1987.4 969.745 1990.4 971.065 C 1991.72 971.643 1992.57 972.195 1993.67 973.084 L 1995.95 973.18 L 1997.51 970.516 C 2008.2 969.538 2019.27 971.328 2030.08 971.044 C 2031.23 972.064 2032.13 972.97 2033.14 974.157 L 2034.11 973.319 C 2034.92 971.076 2034.28 972.045 2036.04 970.419 C 2040.21 969.818 2044.06 971.484 2048 972.713 L 2048 985.845 L 2048 1001.5 L 2048 1012.31 L 2048 1027.47 L 2048 1041.27 L 2048 1046.69 L 2048 1058.3 L 2048 1156.7 L 2048 1168.1 L 2048 1221.12 L 2048 1231.93 L 2048 1236.04 L 2048 1247.12 L 2048 1296.87 L 2048 1310.35 L 2048 1432.67 L 2048 1440.85 L 2048 1442.87 L 2048 1455.35 L 2048 1458.8 L 2048 1466.09 L 2048 1472.95 L 2048 1492.91 L 2048 1503.18 L 2048 1558.77 L 2048 1569.99 L 2048 1574.95 L 2048 1584.5 L 2048 1639.45 L 2048 1653.07 L 2048 1665.44 L 2048 1681.15 L 2048 1706.05 L 2048 1721.1 L 2048 1740.16 L 2048 1753.96 L 2048 1855.28 L 2048 1866.06 L 2048 1906.6 L 2048 1912.82 L 2048 1929.36 L 2048 1937.28 L 2048 1989.75 L 2048 2004.51 L 2048 2048 L 2043.25 2048 L 2030.01 2048 L 2026.06 2048 L 2014.08 2048 L 2010.28 2048 L 1998.95 2048 L 1972.22 2048 L 1962.18 2048 L 1957.89 2048 L 1947.66 2048 L 1946.83 2048 L 1942.97 2048 L 1933.01 2048 L 1929.42 2048 L 1928.73 2048 L 1920.08 2048 L 1903.04 2048 L 1888.84 2048 L 1875.6 2048 L 1874.83 2048 L 1870.12 2048 L 1852.97 2048 L 1846.92 2048 L 1834.87 2048 L 1823.42 2048 L 1813.9 2048 L 1757.24 2048 L 1746.68 2048 L 1680.42 2048 L 1674.83 2048 L 1600.28 2048 L 1590.03 2048 L 1586.37 2048 L 1576.97 2048 L 1573.58 2048 L 1563.64 2048 L 1557.13 2048 L 1547.96 2048 L 1545.92 2048 L 1537.95 2048 L 1537.33 2048 L 1522.78 2048 L 1518.21 2048 L 1469.46 2048 L 1459.8 2048 L 1453.03 2048 L 1443.96 2048 L 1434.26 2048 L 1425.16 2048 L 1401.12 2048 L 1390.81 2048 L 1352.99 2048 L 1344.04 2048 L 1342.93 2048 L 1335.1 2048 L 1329.99 2048 L 1319.84 2048 L 1315.94 2048 L 1307.05 2048 L 1303.01 2048 L 1293.15 2048 L 1267.26 2048 L 1255.42 2048 L 1177.39 2048 L 1168.36 2048 L 1134.81 2048 L 1124.25 2048 L 1122.83 2048 L 1119.13 2048 L 1081.63 2048 L 1072.56 2048 L 1016.8 2048 L 1009.19 2048 L 1008.55 2048 L 1001.94 2048 L 991.749 2048 L 969.003 2048 L 962.931 2048 L 954.131 2048 L 945.115 2048 L 923.917 2048 L 914.124 2048 L 908.021 2048 L 896.155 2048 L 891.131 2048 L 880.165 2048 L 843.103 2048 L 832.951 2048 L 764.878 2048 L 755.64 2048 L 712.946 2048 L 706.236 2048 L 700.837 2048 L 675.611 2048 L 670.467 2048 L 660.118 2048 L 643.103 2048 L 632.316 2048 L 615.103 2048 L 606.037 2048 L 592.163 2048 L 584.04 2048 L 576.332 2048 L 489.905 2048 L 479.339 2048 L 441.981 2048 L 435.059 2048 L 423.897 2048 L 418.897 2048 L 408.598 2048 L 406.668 2048 L 396.433 2048 L 394.168 2048 L 383.598 2048 L 357.892 2048 L 347.773 2048 L 332.589 2048 L 319.159 2048 L 318.028 2048 L 309.736 2048 L 306.505 2048 L 301.835 2048 L 301.472 2042.13 C 301.29 2030.15 302.208 2017.86 303.034 2005.9 C 302.255 1998.04 303.072 1989.53 303.191 1981.61 C 303.368 1973.72 303.268 1965.75 304.821 1957.99 C 303.553 1953.13 304.13 1948.01 304.313 1943.03 C 305.42 1941.8 305.325 1941.68 305.163 1939.99 C 304.082 1928.8 304.782 1892.61 309.092 1882.87 C 310.734 1879.16 312.666 1878.53 316.212 1877.28 C 319.285 1876.06 322.48 1875.97 325.739 1875.68 C 334.222 1873.46 346.321 1875.27 355.229 1875.29 C 360.202 1874.61 364.516 1874.84 369.452 1875.37 C 373.407 1874.41 377.521 1875.47 381.556 1875.11 C 383.019 1874.98 384.468 1874.82 385.936 1874.72 C 392.122 1875.27 409.567 1876.54 414.854 1875.03 L 417.019 1875.99 C 423.202 1874.91 429.108 1874.16 435.297 1875.55 L 436.456 1876.52 C 437.749 1875.34 438.824 1874.52 440.613 1874.2 C 443.789 1873.64 459.747 1871.47 461.59 1873.52 C 462.883 1874.95 461.122 1875.96 463.509 1877.59 C 463.715 1875.75 463.895 1874.74 464.948 1873.21 C 466.661 1872.62 467.884 1872.44 469.698 1872.57 C 480.877 1873.36 483.695 1869.32 493.55 1866.97 C 494.916 1868.56 495.393 1869.38 497.409 1870.11 L 497.772 1868.52 C 495.83 1865.73 493.458 1862.79 492.978 1859.33 C 492.644 1856.92 493.654 1854.54 495.121 1852.73 C 497.133 1852.26 496.43 1852.76 497.468 1851.66 C 493.626 1845.53 494.528 1831.76 495.719 1824.75 L 497.243 1823.48 L 496.97 1821.09 L 495.464 1819.67 C 494.341 1812.36 495.026 1804.43 495.152 1797.02 C 495.444 1793.99 495.798 1792.1 497.402 1789.4 L 498.839 1789.07 C 498.379 1788.64 497.855 1788.27 497.461 1787.78 C 495.511 1785.35 496.587 1782 497.111 1779.32 L 498.216 1776.44 C 497.368 1773.92 497.108 1772.33 497.324 1769.68 L 498.593 1763.43 L 500.284 1762.36 L 504.032 1763.68 C 502.735 1761.99 502.109 1761.9 500.662 1760.59 C 499.048 1759.14 498.99 1758.16 499.168 1756.05 C 499.72 1749.52 505.796 1739.31 510.636 1735.1 C 512.936 1733.26 515.561 1733.01 518.373 1732.47 C 525.117 1728.26 593.52 1731.69 606.43 1731.84 C 627.863 1732.08 650.224 1730.05 671.482 1733.01 L 672.608 1734.05 L 672.451 1737.31 L 674.224 1737.49 C 674.291 1737.09 674.346 1736.69 674.424 1736.29 C 674.782 1734.46 674.599 1735.14 675.58 1733.32 C 678.956 1732.89 680.681 1733.55 683.809 1734.73 C 685.633 1735.42 687.157 1736.52 689.028 1735.76 L 690.545 1732.95 C 694.843 1732.25 696.568 1733.3 700.123 1735.7 C 702.789 1735.29 704.529 1734.09 706.744 1732.67 C 709.941 1732.6 711.761 1733.34 714.026 1735.65 C 714.299 1735.93 714.543 1736.23 714.801 1736.52 C 715.477 1735.24 716.228 1734.29 717.137 1733.17 C 722.145 1732.01 728.605 1733.24 734.008 1732.79 C 736.4 1730.98 739.907 1730.71 742.797 1730.11 C 742.609 1728.21 742.487 1726.31 742.322 1724.41 C 741.849 1718.92 746.319 1712.83 744.279 1708.54 C 741.855 1703.44 744.446 1679.65 745.88 1672.65 C 746.109 1671.53 746.217 1670.54 746.265 1669.4 C 745.654 1668.58 745.166 1668.02 744.764 1667.03 C 742.705 1661.96 744.571 1655.84 746.07 1650.92 C 744.984 1648.14 744.948 1647.92 745.638 1645.01 L 746.008 1638.48 C 747.137 1632.17 747.837 1625.72 748.801 1619.37 C 750.272 1613.68 751.462 1607.9 754.412 1602.76 L 755.994 1599.5 C 762.629 1594.25 766.866 1593.41 775.023 1593.61 C 777.154 1593.13 778.941 1592.67 781.136 1593.08 C 787.039 1594.16 793.354 1594.5 799.357 1594.53 C 801.318 1592.83 802.696 1591.36 805.401 1591.08 C 806.787 1592.27 808.131 1593.49 809.456 1594.75 C 809.981 1594.13 810.616 1593.33 811.23 1592.82 C 813.42 1590.99 814.109 1591.06 816.815 1591.13 C 824.929 1597.05 825.104 1592.14 833.427 1591.85 C 838.039 1591.68 835.956 1594.77 838.517 1597.17 C 839.75 1595.53 841.044 1594.05 842.444 1592.55 C 845.305 1591.62 847.239 1592.24 850.038 1592.94 C 859.991 1590.8 875.157 1594.97 877.363 1594.43 L 878.747 1591.98 C 881.088 1591.87 884.783 1591.27 886.783 1592.71 C 887.437 1593.18 887.815 1594 888.517 1594.39 C 888.926 1594.62 889.418 1594.66 889.869 1594.79 C 890.289 1592.35 890.404 1591.8 891.927 1589.87 C 892.607 1589.83 893.287 1589.72 893.968 1589.76 C 896.801 1589.92 899.179 1592.81 901.043 1594.67 L 902.01 1595.65 L 903.783 1595.24 C 903.089 1593.43 902.74 1592.44 902.656 1590.46 C 905.014 1589.43 906.907 1590.15 909.287 1590.73 C 911.856 1591.36 913.533 1591.87 916.127 1591.02 C 920.756 1589.51 925.547 1589.7 930.167 1588.48 C 936.511 1586.8 940.522 1580.14 943.406 1574.71 C 944.473 1572.7 946.091 1572.59 948.141 1571.75 A 145.42 145.42 0 0 1 943.622 1569.34 C 941.654 1564.63 942.965 1560.69 943.894 1555.85 L 945.568 1554.99 L 943.19 1551.56 C 943.157 1547.96 942.552 1542.68 943.651 1539.27 C 944.847 1535.56 946.895 1534.31 950.202 1532.73 C 950.5 1532.58 950.801 1532.45 951.1 1532.31 L 951.101 1530.73 C 949.539 1530.19 947.276 1529.64 945.933 1528.71 C 944.681 1527.84 944.045 1526.95 943.968 1525.45 C 943.785 1521.91 945.917 1519.04 948.024 1516.41 C 946.503 1514.5 945.77 1512.93 945.419 1510.48 C 944.818 1506.28 946.534 1502.43 949.316 1499.33 C 949.732 1498.87 950.168 1498.42 950.594 1497.97 L 950.159 1493.73 L 947.669 1496.04 L 946.52 1495.37 C 945.613 1491.97 946.176 1487.63 947.194 1484.25 C 947.848 1482.08 949.528 1481.38 951.386 1480.37 C 950.407 1479.58 949.1 1478.65 948.289 1477.65 C 946.722 1475.72 945.596 1473.56 946.036 1471.01 C 946.61 1467.68 949.117 1465.84 951.555 1463.81 C 951.209 1463.49 950.846 1463.19 950.516 1462.85 C 948.321 1460.63 946.774 1457.24 947.036 1454.03 C 947.263 1451.25 948.198 1449.92 950.079 1448 C 953.028 1446.62 952.925 1441.03 954.956 1437.97 C 957.618 1436.46 958.005 1436.62 961.094 1436.89 L 961.984 1436.63 C 960.203 1435.16 959.804 1435.15 958.962 1432.88 C 960.047 1432.12 961.18 1431.34 962.53 1431.12 C 965.617 1430.62 968.344 1432.32 971.339 1432.38 C 975.493 1432.47 980.112 1430.98 984.442 1430.85 C 999.64 1430.38 1015.02 1430.97 1030.24 1430.9 L 1035.16 1430.9 L 1039.02 1430.75 L 1048.23 1431.17 C 1051.27 1430.64 1054.37 1429.88 1057.24 1431.52 C 1058.11 1432.02 1058.5 1432.5 1059.16 1433.19 L 1059.97 1435.09 C 1060.6 1434.96 1061.3 1434.97 1061.86 1434.63 C 1060.55 1433.48 1061.2 1434.25 1060.23 1432.08 L 1061.52 1431.06 C 1069.24 1430.62 1091.29 1429.77 1097.71 1432.47 C 1100.11 1430.38 1103.75 1430.19 1106.83 1430.32 C 1109.53 1430.44 1111.98 1431.28 1113.96 1433.12 L 1115.39 1436.96 C 1115.29 1435.12 1115.28 1433.71 1115.54 1431.87 C 1118.6 1430.04 1121.17 1430.86 1124.67 1431.07 L 1126.13 1431.26 C 1131.47 1430.77 1135.18 1430.48 1140.27 1432.73 L 1142.16 1435.41 C 1143.8 1434.98 1143.12 1435.45 1144.07 1433.84 L 1143.41 1432.43 L 1143.93 1431.28 C 1147.5 1430.46 1150.6 1431.11 1154.18 1431.68 C 1159.38 1430.65 1163.02 1430.18 1167.77 1432.91 C 1166.79 1429.92 1164.93 1425.61 1165.58 1422.42 C 1166.19 1419.42 1167.7 1419.2 1170.18 1418.04 C 1169.83 1417.76 1169.48 1417.49 1169.14 1417.19 C 1166.59 1414.95 1165.47 1412.51 1165.44 1409.08 C 1165.41 1405.42 1166.94 1403.2 1169.25 1400.55 C 1166.64 1398.65 1165.95 1397.47 1165.37 1394.4 C 1166.2 1391.34 1167.72 1390.37 1170.14 1388.57 C 1171.39 1387.64 1171 1388.29 1171.27 1386.75 C 1170.11 1385.86 1169 1385 1167.96 1383.96 C 1166.56 1382.57 1167.9 1361.42 1167.96 1357.67 C 1169.04 1356.67 1169.69 1355.95 1170.54 1354.71 C 1169.43 1352.25 1167.36 1348.43 1167.25 1345.74 C 1167.15 1343.15 1168.04 1342.33 1169.5 1340.38 C 1171.64 1341.79 1172.51 1343.79 1173.82 1345.96 L 1173.88 1343.48 C 1171.55 1339.43 1168.66 1334.03 1167.8 1329.41 C 1167.15 1325.94 1167.46 1321.28 1169.6 1318.41 C 1168.85 1314.92 1167.94 1295.58 1169.02 1292.78 C 1170.03 1290.14 1170.65 1289.72 1173.01 1288.52 L 1175.35 1289.3 C 1175.49 1287.86 1175.91 1286.48 1176.26 1285.08 C 1178.25 1283.32 1178.19 1283.45 1180.86 1283.49 C 1184.14 1283.18 1187.77 1282.51 1190.98 1283.24 L 1194.65 1285.91 C 1194.98 1284.93 1195.52 1284.28 1196.11 1283.44 C 1202.25 1282.97 1206.29 1282.65 1212.07 1285.11 C 1213.95 1285.91 1214.84 1286.44 1216.89 1286.55 L 1217 1283.76 C 1217.6 1283.5 1218.16 1283.17 1218.78 1282.97 C 1225.94 1280.66 1227.51 1285.63 1229.88 1286.55 C 1232.97 1283.92 1234.68 1282.91 1238.71 1282.27 C 1240.34 1282.98 1239.52 1282.4 1240.84 1284.4 C 1242.33 1287.31 1242.5 1288.38 1245.51 1289.95 C 1245.58 1289.99 1245.66 1290 1245.74 1290.03 C 1245.08 1288.17 1244.57 1286.72 1244.56 1284.73 L 1246.96 1282.79 C 1250.26 1282.1 1252.31 1282.75 1255.43 1283.71 L 1256.6 1286.28 L 1257.64 1287.12 C 1258.2 1285.75 1258.02 1286.33 1258.4 1284.85 L 1258.67 1283.79 C 1262.37 1281.84 1267.74 1284.1 1271.92 1283.69 C 1273.98 1283.48 1275.98 1283.34 1278.05 1283.26 L 1285.39 1283.3 L 1291.27 1282.62 L 1292.6 1287.22 L 1293.88 1287.7 C 1294.59 1285.87 1294.59 1285.43 1294.45 1283.56 L 1294.86 1282.84 L 1305.16 1282.63 C 1306.27 1285.62 1307.22 1288.21 1310.05 1289.82 L 1310.78 1288.5 L 1307.51 1283.89 L 1307.59 1283.49 C 1310.85 1282.35 1316.38 1282.05 1319.62 1283.41 L 1320.53 1285.42 C 1322.83 1285.06 1324.09 1284 1325.95 1282.68 L 1330.93 1282.44 L 1338.05 1282.95 C 1342.34 1282.73 1346.48 1282.42 1350.75 1283.05 C 1355.54 1281.84 1372.17 1282.05 1376.16 1284.31 L 1377.04 1284.07 C 1379.19 1281.88 1380.99 1280.85 1384.16 1280.9 C 1386.18 1280.93 1388.52 1281.26 1390.04 1282.72 C 1390.47 1283.14 1390.82 1283.64 1391.2 1284.09 C 1393.01 1282.56 1394.54 1281.46 1396.93 1281 C 1400.52 1280.29 1402.94 1281.32 1405.84 1283.31 L 1406.47 1281.57 C 1414.25 1279.73 1412.84 1284.26 1417.81 1284.27 L 1421 1280.06 C 1423.43 1278.99 1423.83 1279.03 1426.48 1279.39 C 1428.38 1281.05 1429.81 1282.35 1432.16 1283.33 C 1432.92 1281.33 1432.86 1282.11 1432.78 1280.08 C 1432.76 1279.63 1432.71 1279.17 1432.67 1278.72 L 1435.67 1276.37 C 1438.52 1276.37 1441.23 1276.19 1443.95 1277.18 C 1444.51 1275.34 1445.35 1274.3 1446.56 1272.83 C 1449.4 1271.3 1451.52 1271.38 1454.72 1271.42 L 1455.97 1271.45 C 1455.82 1269.38 1455.12 1269.08 1453.85 1267.51 C 1455.44 1262.63 1461.47 1258.52 1464.01 1253.59 C 1464.69 1252.26 1465.6 1252.37 1466.97 1251.9 C 1465.96 1250.04 1465.69 1247.56 1466.18 1245.48 C 1466.93 1242.31 1468.61 1241.33 1471.16 1239.59 C 1469.74 1237.5 1468.55 1236.26 1468.43 1233.68 C 1468.22 1228.97 1470.23 1225.87 1473.26 1222.5 L 1472.95 1221.99 C 1470.59 1219.16 1470.17 1215.3 1470.44 1211.71 C 1470.74 1207.61 1471.77 1205.35 1474.82 1202.64 C 1472.22 1199.78 1471.44 1197.5 1471.08 1193.77 C 1471.76 1190.66 1473.65 1189.46 1475.97 1187.52 C 1477.48 1186.26 1476.94 1187.15 1477.23 1184.82 A 112.23 112.23 0 0 0 1473.18 1184.28 C 1473.04 1183.78 1472.88 1183.29 1472.77 1182.79 C 1471.84 1178.19 1474.16 1175.74 1476.73 1172.29 L 1477.64 1171.09 C 1477.32 1168.54 1474.5 1168.32 1472.67 1166.05 C 1472.29 1161.36 1475.36 1156.26 1476.41 1151.58 C 1475.38 1148.99 1474.2 1146.35 1474.11 1143.52 C 1474.04 1141.31 1474.98 1139.3 1476.39 1137.68 C 1477.66 1136.23 1477.6 1136.64 1478.13 1134.96 C 1478.62 1133.42 1476.82 1131.1 1476.09 1129.69 C 1475.49 1124.39 1475.26 1120.62 1478.08 1115.94 C 1479.15 1113.37 1479.01 1110.79 1479.06 1108.06 C 1480.08 1106.13 1481.87 1104.69 1484.05 1104.24 C 1486.46 1103.74 1487.99 1104.3 1490.08 1105.37 C 1491.73 1106.21 1493.08 1106.86 1494.9 1107.33 L 1498.13 1103.84 C 1499.7 1103.45 1500.66 1103.31 1502.21 1103.9 C 1510.71 1107.16 1537.19 1102.54 1548.51 1103.15 C 1551.61 1105.1 1549.2 1105.91 1551.02 1108.67 L 1552.55 1108.24 L 1553.2 1104.07 C 1555.32 1102.35 1555.6 1102.1 1558.29 1101.77 C 1561.1 1102.72 1562.44 1104.19 1564.42 1106.27 L 1565.2 1107.11 L 1566.62 1106.56 C 1566.42 1104.62 1566.43 1104.46 1567.28 1102.57 L 1570.98 1101.68 C 1571.33 1101.7 1571.68 1101.72 1572.03 1101.74 C 1575.68 1102.01 1577.55 1102.67 1580.44 1104.89 L 1579.27 1103.62 L 1581.44 1105.42 C 1582.66 1104.58 1583.82 1103.71 1584.98 1102.79 C 1591 1102.41 1607.12 1100.3 1611.51 1103.21 L 1611.74 1106.11 L 1613.43 1106.72 L 1614.83 1105.73 L 1614.54 1102.37 C 1618.45 1101.8 1624.53 1100.94 1627.82 1103.13 L 1628.38 1106.44 L 1630.3 1106.22 C 1631.85 1104.13 1632.73 1101.85 1635.6 1101.57 C 1637.5 1101.38 1639.92 1101.91 1641.84 1102.15 C 1642.98 1101.3 1642.59 1101.71 1643.39 1100.67 C 1645.25 1098.27 1646.97 1096.64 1649.42 1094.85 C 1648.79 1092.92 1649.16 1093.35 1648.12 1092.11 C 1646.84 1090.6 1645.63 1089.53 1645.06 1087.53 C 1644.2 1084.47 1644.62 1081.86 1645.98 1079.1 L 1647.5 1076.02 C 1649.27 1072.46 1643.61 1066.7 1644.99 1061.21 C 1645.81 1060.53 1647.77 1059.12 1648.21 1058.34 C 1648.46 1057.88 1644.83 1039.48 1644.84 1036.06 C 1644.86 1032.79 1645.76 1029.34 1646.52 1026.17 C 1646.89 1024.64 1647.23 1023.93 1646.78 1022.33 C 1644.66 1014.92 1643.13 1010.68 1645.64 1003.07 C 1645.37 1001.73 1645.17 999.876 1645.15 998.473 C 1645.09 993.41 1643.25 988.97 1643.11 984.114 C 1643.05 981.807 1643.27 981.644 1644.84 980.163 z"/>
<path transform="translate(0,0)" fill="rgb(0,0,0)" d="M 1661.66 1215.92 C 1686.15 1191.11 1711.23 1166.97 1736.06 1142.52 C 1748.28 1130.49 1760.36 1116.4 1773.77 1105.8 C 1776.44 1103.69 1777.83 1102.9 1781.38 1103.28 C 1785.08 1104.95 1787.12 1108.23 1789.53 1111.35 A 1312.19 1312.19 0 0 1 1770.52 1128.61 C 1763.52 1134.92 1755.93 1141.74 1749.78 1148.89 L 1740.48 1158.08 C 1737.93 1160.63 1735.29 1163.12 1732.83 1165.76 L 1721.62 1176.6 C 1718.74 1179.29 1715.72 1181.92 1713.08 1184.84 C 1711.35 1186.65 1709.68 1188.34 1707.74 1189.93 C 1704.39 1192.74 1700.46 1195.52 1697.73 1198.93 C 1687.05 1208.43 1677.85 1220.23 1666.77 1229.03 L 1658.63 1236.5 L 1652.3 1242.43 C 1650.08 1244.53 1647.82 1246.58 1645.76 1248.84 C 1642.63 1251.71 1639.31 1254.49 1636.58 1257.73 C 1634.21 1259.7 1631.82 1261.59 1629.79 1263.92 L 1621.49 1271.44 L 1613.83 1278.77 L 1608.99 1283.07 L 1601.77 1289.97 C 1594.58 1295.08 1588.26 1301.72 1581.83 1307.76 C 1579.69 1309.87 1577.31 1311.97 1575.35 1314.23 C 1564.77 1323.48 1555.44 1333.99 1545.01 1343.36 C 1537.12 1351.53 1527.97 1358.7 1520.35 1367.02 C 1514.66 1372.68 1507.63 1378.44 1502.78 1384.76 C 1496.34 1390.6 1489.78 1396.47 1483.77 1402.75 C 1481.88 1404.5 1479.94 1406.17 1478.31 1408.17 C 1467.98 1416.85 1457.93 1426.83 1448.55 1436.55 C 1445.29 1439.01 1442.47 1441.69 1439.62 1444.61 C 1436.63 1447.23 1433.34 1449.76 1430.76 1452.76 C 1413.13 1467.78 1395.97 1484.2 1379.6 1500.59 C 1377.66 1502.4 1375.98 1504.05 1374.37 1506.18 C 1371.89 1508.33 1369.27 1510.42 1366.93 1512.72 L 1362.18 1517.4 C 1359.67 1519.48 1357.05 1521.51 1354.67 1523.73 A 3100.19 3100.19 0 0 0 1315.84 1558.61 C 1309.78 1564.12 1302.49 1569.7 1297.3 1575.95 C 1294.45 1578.37 1291.1 1580.77 1288.71 1583.65 C 1285.5 1586.29 1282.04 1588.84 1279.01 1591.68 L 1273 1597.65 C 1267.52 1602.52 1262.14 1607.65 1256.47 1612.28 L 1244.06 1624.02 C 1239.3 1628.51 1234.09 1632.9 1229.76 1637.79 C 1209.38 1654.14 1191.99 1673.92 1172.52 1691.24 C 1170.61 1693.14 1168.51 1694.99 1166.8 1697.05 C 1161.17 1702.05 1155.52 1707.02 1150.11 1712.25 L 1142.21 1719.17 C 1139.72 1721.43 1137.1 1723.64 1134.88 1726.17 A 1672.99 1672.99 0 0 0 1117.91 1742.28 C 1115.94 1744.04 1113.47 1745.88 1111.79 1747.89 C 1109.04 1750.48 1105.86 1753.02 1103.4 1755.86 L 1100.14 1758.86 C 1089.77 1768.16 1081 1779.38 1070.33 1788.25 L 1056.8 1800.93 C 1052.07 1804.57 1048.04 1808.49 1043.92 1812.81 C 1041.71 1814.98 1039.46 1817.13 1037.31 1819.37 C 1035.51 1821.07 1033.25 1822.79 1031.78 1824.76 C 1029.01 1827.32 1026.09 1829.8 1023.5 1832.53 C 1018.85 1836.65 1014.15 1840.72 1009.67 1845.04 A 917.807 917.807 0 0 1 971.224 1881.48 L 963.716 1888.7 C 961.251 1890.88 958.674 1893 956.305 1895.27 C 954.194 1897.3 951.501 1899.45 949.714 1901.73 L 940.3 1910.81 C 921.222 1928.23 903.965 1947.27 884.302 1964.17 L 878.522 1969.47 C 875.72 1971.98 872.668 1974.43 870.177 1977.25 C 867.765 1978.93 865.41 1980.62 862.42 1980.97 C 860.688 1981.17 859.201 1980.3 857.923 1979.16 C 856.084 1977.53 855.091 1976.27 854.962 1973.77 C 865.043 1960.68 884.032 1945.9 896.729 1934.24 L 900.279 1930.26 C 908.921 1923.57 916.438 1914.88 924.298 1907.28 C 932.558 1899.29 941.377 1891.71 949.239 1883.34 L 957.83 1875.66 C 961.309 1871.61 965.671 1868.41 969.209 1864.36 C 990.838 1846.29 1011.94 1826.7 1032.17 1807.07 L 1038.56 1800.36 L 1039.75 1799.25 C 1042.09 1797.36 1044.24 1795.06 1046.41 1792.97 L 1053.67 1786 L 1060.24 1779.17 L 1069 1770.21 L 1075.58 1763.93 C 1078.69 1760.82 1082.23 1758.05 1085.58 1755.19 C 1088.9 1752.35 1092.02 1749.3 1095.17 1746.28 L 1100.41 1741.83 L 1102.48 1739.83 A 2399.88 2399.88 0 0 1 1126.83 1716.38 L 1132.27 1711.19 L 1164.9 1679.19 A 1625.31 1625.31 0 0 1 1180.18 1665.17 L 1182.7 1662.99 L 1187.73 1657.73 A 743.645 743.645 0 0 0 1206.27 1640.27 C 1210.78 1637 1214.92 1632.57 1219.2 1628.95 C 1224.94 1624.29 1230.13 1618.97 1235.41 1613.81 L 1241.29 1608.29 L 1249.22 1601.04 C 1252.18 1598.25 1255.37 1595.64 1258.44 1592.96 C 1262.61 1588.67 1267.71 1584.86 1272.21 1580.87 L 1276.18 1577.66 A 357.013 357.013 0 0 0 1315.43 1541.76 C 1318.89 1538.93 1322.11 1535.6 1325.39 1532.54 C 1331.48 1529.43 1344.83 1515.74 1350.74 1510.5 L 1355.92 1505.43 C 1365.27 1496.95 1374.12 1487.7 1383.16 1478.89 C 1386.03 1476.57 1388.64 1473.8 1391.3 1471.24 L 1398.12 1464.76 C 1410.5 1454.44 1422.21 1443.92 1433.33 1432.25 C 1435.88 1429.64 1438.59 1427.17 1441.24 1424.66 L 1446.01 1419.72 A 763.743 763.743 0 0 0 1463.21 1404.92 C 1475.03 1394.83 1486.56 1383.45 1497.45 1372.37 C 1499.8 1370.78 1501.94 1368.29 1503.98 1366.29 C 1506.73 1363.99 1509.11 1361.73 1511.37 1358.95 C 1519.05 1352.91 1526.13 1345.26 1533.19 1338.47 A 765.418 765.418 0 0 1 1552.69 1318.96 L 1555.04 1316.63 C 1557.52 1314.62 1559.84 1312.29 1562.21 1310.13 L 1567.1 1305.79 L 1572.04 1300.99 C 1576.16 1297.37 1580.01 1293.47 1583.91 1289.61 C 1595.38 1278.88 1607.07 1268.43 1618.12 1257.26 C 1626.8 1248.78 1637.85 1240.6 1645.1 1231.01 C 1651.07 1226.54 1656.32 1221.11 1661.66 1215.92 z"/>
</svg>