<svg version="1.1" xmlns="http://www.w3.org/2000/svg" style="display: block;" viewBox="0 0 2048 2048" width="1024" height="1024">
<path transform="translate(0,0)" fill="rgb(38,70,83)" d="M 0 0 L 2045.54 0 L 2048 0 L 2048 2048 L 2046.62 2048 L 0 2048 L 0 1.9291 L 0 0 z"/>
<path transform="translate(0,0)" fill="rgb(233,196,106)" d="M 262.46 753.445 L 264.797 754.391 C 265.473 760.379 246.129 789.538 241.925 796.631 L 239.964 796.127 L 238.999 794.131 C 241.287 782.775 255.397 763.148 262.46 753.445 z"/>
<path transform="translate(0,0)" fill="rgb(233,196,106)" d="M 616.372 187.567 C 618.801 188.679 617.837 187.832 619.251 190.125 C 617.635 199.798 601.185 220.005 594.986 229.104 L 593.406 228.55 L 592.512 226.605 C 594.243 217.493 610.126 195.357 616.372 187.567 z"/>
<path transform="translate(0,0)" fill="rgb(233,196,106)" d="M 173.351 207.636 C 174.65 207.788 175.827 207.916 176.948 208.674 C 183.555 213.139 204.773 238.879 207.118 246.407 C 205.257 246.519 204.525 246.464 202.868 245.459 C 195.649 241.08 174.811 215.742 173.351 207.636 z"/>
<path transform="translate(0,0)" fill="rgb(233,196,106)" d="M 86.2237 510.575 C 90.7183 510.013 96.6541 509.338 100.817 511.358 L 98.7722 513.912 C 89.2112 517.434 71.5727 516.565 60.7588 517.285 C 56.6058 517.904 50.4172 518.884 46.7108 516.308 C 47.4515 515.521 48.031 514.543 48.9329 513.947 C 53.5529 510.896 79.4252 511.127 86.2237 510.575 z"/>
<path transform="translate(0,0)" fill="rgb(233,196,106)" d="M 502.337 133.406 C 503.512 133.95 504.317 134.624 505.324 135.426 C 507.202 145.589 497.973 174.323 494.987 185.666 C 493.536 184.862 493.004 184.288 491.938 183.063 C 490.629 172.178 498.743 144.539 502.337 133.406 z"/>
<path transform="translate(0,0)" fill="rgb(233,196,106)" d="M 384.909 120.251 C 386.272 120.744 387.089 121.329 388.257 122.164 C 392.212 132.774 392.262 161.063 391.203 172.77 C 389.882 172.348 389.068 171.886 387.905 171.163 C 384.299 162.097 383.302 130.023 384.909 120.251 z"/>
<path transform="translate(0,0)" fill="rgb(233,196,106)" d="M 101.753 292.782 C 109.537 295.689 142.108 315.779 146.654 321.687 L 146.205 325.042 C 141.733 324.356 103.701 300.535 101.488 297.315 C 100.687 296.149 101.524 294.106 101.753 292.782 z"/>
<path transform="translate(0,0)" fill="rgb(233,196,106)" d="M 179.027 687.763 C 180.917 688.668 180.643 688.699 181.592 690.394 C 178.412 698.096 150.762 718.048 142.663 723.974 L 141.233 723.609 L 140.072 721.6 C 142.096 715.783 172.268 693.256 179.027 687.763 z"/>
<path transform="translate(0,0)" fill="rgb(233,196,106)" d="M 699.582 264.7 C 701.208 265.68 700.973 265.757 701.678 267.39 C 699.504 273.695 668.962 297.162 662.537 302.473 C 661.649 301.372 661.192 300.384 660.596 299.113 C 663.575 291.736 692.246 270.626 699.582 264.7 z"/>
<path transform="translate(0,0)" fill="rgb(233,196,106)" d="M 722.36 163.729 C 722.972 167.878 723.304 173.205 725.325 176.951 C 728.194 182.273 734.985 183.628 740.288 185.416 C 736.699 185.725 732.026 185.932 728.85 187.748 C 724.279 190.363 723.704 196.592 722.749 201.23 C 722.23 197.971 721.557 192.907 719.531 190.23 C 717.388 187.4 715.441 186.673 712.062 186.154 C 709.649 185.784 707.567 185.353 705.238 184.624 L 706.906 184.2 L 706.749 183.845 C 709.742 182.843 712.997 181.917 715.656 180.174 C 720.573 176.951 721.203 169.073 722.36 163.729 z"/>
<path transform="translate(0,0)" fill="rgb(233,196,106)" d="M 127.967 603.921 C 129.423 603.644 129.976 603.864 131.371 604.256 L 132.09 605.892 C 128.468 612.301 91.4847 626.322 83.3859 629.796 C 81.9903 629.737 81.366 629.235 80.1746 628.558 L 80.2356 627.494 C 84.0075 621.812 119.551 607.712 127.967 603.921 z"/>
<path transform="translate(0,0)" fill="rgb(233,196,106)" d="M 54.4266 397.995 C 64.5237 399.62 101.994 408.922 108.385 414.563 L 108.55 417.963 C 108.104 417.993 107.658 418.034 107.211 418.052 C 101.218 418.291 58.3836 405.108 54.2786 401.335 L 54.4266 397.995 z"/>
<path transform="translate(0,0)" fill="rgb(233,196,106)" d="M 271.07 141.86 C 276.351 145.562 288.094 179.542 290.475 187.633 C 291.569 191.348 291.374 192.012 289.484 195.421 C 284.835 191.244 269.247 152.611 268.872 145.806 C 268.755 143.694 269.742 143.38 271.07 141.86 z"/>
<path transform="translate(0,0)" fill="rgb(233,196,106)" d="M 109.252 943.671 C 110.168 945.355 110.65 947.149 111.214 948.973 C 111.96 951.385 112.623 954.434 114.239 956.434 C 117.693 960.706 124.501 960.938 129.599 961.877 C 101.642 968.559 118.086 974.155 109.26 982.365 C 108.836 978.208 108.399 972.982 106.02 969.456 C 102.024 963.533 93.9624 962.918 87.5271 961.679 C 92.2566 961.185 98.6212 961.189 102.701 958.557 C 107.607 955.392 108.16 948.9 109.252 943.671 z"/>
<path transform="translate(0,0)" fill="rgb(233,196,106)" d="M 78.6709 724.85 C 81.3643 728.429 81.893 734.063 84.0519 738.109 C 86.449 742.601 92.5047 743.372 96.985 744.462 C 93.266 745.18 88.7654 745.78 85.6557 748.126 C 80.5831 751.953 80.3092 760.422 79.3009 766.223 C 77.3325 760.812 77.366 754.8 75.4478 749.184 C 69.7572 746.754 63.9194 745.005 58.0058 743.215 C 62.3114 742.618 67.7656 742.355 71.5219 740.047 C 76.6066 736.921 77.3696 730.179 78.6709 724.85 z"/>
<path transform="translate(0,0)" fill="rgb(233,196,106)" d="M 590.531 71.7809 C 595.458 76.8898 594.361 85.8859 597.658 91.6621 C 602.185 99.5966 621.779 101.471 630.247 102.867 C 620.839 104.484 611.524 106.338 602.608 109.815 C 597.05 117.617 595.387 126.48 594.283 135.755 L 593.707 138.141 C 590.337 133.849 591.504 125.852 588.444 120.626 C 588.213 120.23 587.955 119.851 587.714 119.461 C 586.509 117.511 585.322 115.593 583.834 113.839 C 577.224 106.05 567.193 105.088 557.679 104.276 C 565.403 102.556 574.521 101.152 580.952 96.268 C 588.661 90.4142 589.421 80.6493 590.531 71.7809 z"/>
<path transform="translate(0,0)" fill="rgb(233,196,106)" d="M 165.33 827.734 C 171.964 834.845 166.621 851.978 173.199 859.837 C 181.316 869.536 196.326 870.158 207.903 871.56 C 198.667 873.394 187.01 872.393 178.764 877.358 C 169.801 882.756 167.655 900.858 165.658 910.271 C 164.092 900.744 163.118 887.163 155.923 880.059 C 148.12 872.354 134.14 873.842 124.016 873.872 C 133.459 870.785 145.079 870.443 153.46 864.758 C 164.029 857.589 163.49 839.185 165.33 827.734 z"/>
<path transform="translate(0,0)" fill="rgb(127,151,158)" d="M 2045.54 0 L 2048 0 L 2048 2048 L 2046.62 2048 L 2046.98 551.019 L 2046.88 144.251 L 2046.83 47.2743 C 2046.85 33.368 2048.75 14.5699 2046.09 1.20779 L 2045.54 0 z"/>
<path transform="translate(0,0)" fill="rgb(42,157,143)" d="M 0 0 L 2045.54 0 L 2046.09 1.20779 C 2021.48 2.42234 1996.61 1.59074 1971.96 1.50629 L 1838.85 0.912984 L 1472.06 1.32408 L 614.677 1.49696 A 36644.8 36644.8 0 0 0 154.309 0.974126 A 7460.36 7460.36 0 0 0 0 1.9291 L 0 0 z"/>
<path transform="translate(0,0)" fill="rgb(233,196,106)" d="M 672.4 1809.97 C 675.784 1809.94 678.917 1810.57 681.461 1812.9 C 684.434 1815.63 685.564 1819.62 685.678 1823.55 C 686.153 1839.9 677.449 1856.43 666.843 1868.29 C 675.745 1864.47 684.851 1861.91 694.597 1861.96 C 702.542 1862 712.5 1863.41 718.077 1869.72 C 720.27 1872.2 721.422 1875.3 720.959 1878.63 C 720.506 1881.89 718.407 1884.67 715.915 1886.69 C 704.088 1896.3 684.24 1895.5 670.036 1893.72 C 679.767 1900.65 687.237 1907.77 692.295 1918.83 C 694.973 1924.68 697.211 1932.43 694.461 1938.67 C 693.299 1941.31 691.335 1943.4 688.579 1944.39 C 684.863 1945.74 680.954 1944.94 677.5 1943.23 C 662.277 1935.7 656.521 1915.69 651.427 1900.87 C 651.315 1903.59 651.112 1906.27 650.741 1908.97 C 648.485 1925.37 641.239 1940.29 627.822 1950.3 C 623.867 1951.72 620.326 1952.48 616.302 1950.76 C 614.182 1949.86 612.972 1947.64 612.351 1945.52 C 607.799 1929.95 621.173 1909.39 629.307 1896.8 C 623.961 1898.95 618.655 1900.97 612.975 1902.06 C 603.181 1903.94 589.792 1904.34 581.411 1898.28 C 578.535 1896.2 576.328 1893.21 576.19 1889.54 C 576.051 1885.87 578.257 1882.53 580.886 1880.17 C 592.35 1869.88 611.481 1870.05 625.732 1871.25 C 619.255 1865.46 613.094 1859.13 608.086 1852.01 C 603.03 1844.83 598.482 1835.57 600.378 1826.55 C 601.006 1823.56 602.473 1820.62 605.288 1819.14 C 607.782 1817.83 610.75 1817.98 613.384 1818.72 C 631.27 1823.77 639.095 1843.29 647.168 1857.98 C 647.681 1853.4 648.313 1848.89 649.356 1844.39 C 652.698 1829.97 659.534 1817.89 672.4 1809.97 z"/>
<path transform="translate(0,0)" fill="rgb(38,70,83)" d="M 649.403 1868.09 C 651.092 1868.22 652.861 1868.33 654.509 1868.75 C 657.505 1869.5 660.555 1872.05 662.052 1874.72 C 663.939 1878.08 663.739 1882.14 662.53 1885.69 C 660.509 1891.63 656.221 1894.91 650.702 1897.4 C 649.15 1897.2 647.489 1896.99 646.023 1896.43 C 642.268 1894.97 638.752 1891.34 637.314 1887.61 A 14.2657 14.2657 0 0 1 637.708 1876.6 C 640.132 1871.4 644.221 1869.72 649.403 1868.09 z"/>
<path transform="translate(0,0)" fill="rgb(244,162,97)" d="M 826.283 1012.11 C 834.839 1011.79 855.671 1009.31 862.268 1014.95 C 865.89 1018.04 867.114 1025.21 867.647 1029.64 C 869.152 1042.13 868.126 1055.81 868.13 1068.43 A 6004.67 6004.67 0 0 0 868.316 1146.76 C 876.883 1146.86 918.803 1144.68 923.184 1148.74 C 928.41 1153.58 927.269 1168.02 927.2 1174.55 C 927.129 1181.42 925.692 1185.58 920.787 1190.41 C 909.549 1192.53 833.019 1193.81 827.09 1188.27 C 823.496 1184.91 822.258 1173.22 821.952 1168.34 C 820.206 1140.46 821.749 1111.56 821.721 1083.59 C 821.703 1065.8 819.756 1035.62 822.498 1018.96 C 822.994 1015.95 824.287 1014.34 826.283 1012.11 z"/>
<path transform="translate(0,0)" fill="rgb(244,162,97)" d="M 709.879 1012.36 C 710.2 1012.34 710.521 1012.31 710.843 1012.29 C 721.614 1011.71 786.14 1009.84 791.259 1014.62 C 795.958 1019.02 795.938 1026.23 796.033 1032.21 C 796.155 1039.86 796.409 1049.53 790.383 1055.22 C 782.779 1062.4 752.28 1058.74 741.183 1058.56 L 741.143 1077.98 C 748.337 1077.4 763.458 1074.66 769.729 1078.74 C 771.461 1079.87 772.395 1082.89 772.864 1084.82 C 775.253 1094.63 775.661 1109.78 770.511 1118.61 C 765.607 1122.7 747.507 1120.21 740.913 1119.99 A 1685.54 1685.54 0 0 0 740.899 1145.62 L 764.75 1145.2 C 771.836 1144.97 784.759 1142.94 791.281 1145.18 C 793.735 1146.03 794.959 1147.68 795.961 1149.99 C 799.714 1158.65 798.474 1174.84 795.034 1183.48 C 794.186 1185.62 792.363 1189.06 790.108 1189.85 C 783.063 1192.31 709.869 1192.21 704.537 1189.02 C 700.994 1186.9 698.631 1182.03 697.718 1178.18 C 694.752 1165.69 696.399 1126.98 696.34 1112.47 C 696.219 1083.01 694.282 1052.07 696.709 1022.79 C 696.869 1020.86 697.11 1018.36 698.421 1016.8 C 701.476 1013.17 705.476 1013 709.879 1012.36 z"/>
<path transform="translate(0,0)" fill="rgb(244,162,97)" d="M 1022.06 1010.37 C 1034.94 1008.2 1051.42 1010.97 1063.4 1015.99 C 1069.65 1018.61 1076.61 1022.65 1079.15 1029.34 C 1082.02 1036.89 1077.94 1056.87 1074.26 1064.23 C 1073.49 1065.76 1071.71 1068.53 1069.76 1068.29 C 1067.13 1067.97 1062.82 1065.61 1060.23 1064.61 C 1044.75 1058.59 1032.26 1055.43 1015.94 1060.76 C 1003.38 1064.86 992.598 1073.28 986.866 1085.36 C 981.893 1095.84 981.161 1108.52 985.206 1119.43 C 989.679 1131.49 1000.03 1142.3 1011.84 1147.37 C 1034.98 1157.32 1045.68 1147.1 1065.71 1140.48 C 1067.12 1140.01 1069.13 1139.59 1070.43 1140.43 C 1075.59 1143.76 1076.39 1155.69 1077.2 1161.44 C 1077.98 1169.61 1077.62 1176.47 1075.41 1184.46 C 1067.65 1189.61 1058.56 1192.51 1049.41 1193.97 C 1022.68 1198.25 992.433 1191.25 970.66 1175.08 C 951.836 1161.1 938.614 1140.56 935.404 1117.22 C 932.017 1092.58 937.844 1067.18 953.2 1047.41 C 970.486 1025.16 994.597 1013.95 1022.06 1010.37 z"/>
<path transform="translate(0,0)" fill="rgb(244,162,97)" d="M 1523.69 1012.4 C 1537.02 1011.86 1606.13 1010.16 1613.3 1015.52 C 1614.42 1018.02 1614.95 1020.2 1615.29 1022.92 C 1616.01 1028.73 1617.6 1049.73 1613.88 1053.74 C 1606.73 1061.45 1570.5 1057.82 1559.27 1057.54 L 1559.45 1078.05 C 1570.93 1078.19 1583.84 1075.88 1595.06 1077.83 C 1597.09 1080.23 1597.38 1083.62 1597.71 1086.72 C 1598.21 1091.46 1599.81 1115.29 1596.88 1118.01 C 1592.28 1122.28 1566.63 1119.3 1559.91 1119.09 C 1559.7 1127.68 1559.82 1136.29 1559.81 1144.87 L 1579.5 1144.7 C 1588.14 1144.77 1607.48 1141.26 1613.88 1147.28 C 1619.18 1152.26 1617.54 1170.94 1617.16 1178.23 C 1616.94 1182.44 1616.81 1186.16 1613.55 1189.1 C 1601.85 1192.51 1527.68 1193.02 1517.12 1188.57 C 1515.37 1187.83 1513.78 1187.06 1513.03 1185.25 C 1510.77 1179.8 1510.94 1043.65 1511.91 1026.71 C 1512.08 1023.65 1512.23 1019.3 1513.96 1016.63 C 1516 1013.47 1520.32 1012.98 1523.69 1012.4 z"/>
<path transform="translate(0,0)" fill="rgb(244,162,97)" d="M 1315.53 1012.2 C 1324.19 1011.94 1336.57 1010.27 1344.88 1013.03 C 1348.48 1014.23 1350.72 1017.47 1352.69 1020.55 C 1357.72 1028.44 1361.41 1037.68 1365.39 1046.17 L 1390.04 1099.67 C 1401.64 1078.29 1409.17 1054.16 1420.04 1032.23 C 1422.42 1027.42 1424.78 1021.59 1428.04 1017.42 C 1430.9 1013.77 1434.06 1012.56 1438.54 1012 C 1447.16 1010.92 1459.38 1010.85 1466.52 1016.17 C 1468.23 1021.62 1469.53 1027.02 1470.24 1032.69 C 1472.52 1050.86 1473.28 1069.45 1475.01 1087.71 C 1476.68 1105.35 1486.12 1174.46 1483.54 1186.22 C 1480.38 1189.84 1476.85 1190.93 1472.18 1191.66 C 1464.15 1192.91 1447.85 1195.67 1441.06 1190.04 C 1434.02 1184.19 1434.88 1170.62 1434.26 1162.18 C 1433 1144.44 1432.08 1126.67 1430.05 1109 C 1421.6 1124.16 1411.36 1159.03 1396.27 1167.22 C 1392.52 1169.26 1387.5 1170.36 1383.35 1168.95 C 1369.08 1164.11 1351.51 1118.76 1344.72 1104.46 C 1342.1 1123.18 1341.01 1142.56 1339.56 1161.43 C 1339.06 1167.92 1339.47 1174.7 1338.29 1181.1 C 1337.84 1183.53 1337.03 1185.93 1335.53 1187.91 C 1332.89 1191.38 1329.33 1191.97 1325.29 1192.36 C 1316.85 1193.17 1298.99 1194.29 1292.13 1188.64 C 1288.76 1177.23 1303.66 1037.38 1307.99 1020.73 C 1309.14 1016.29 1311.77 1014.48 1315.53 1012.2 z"/>
<path transform="translate(0,0)" fill="rgb(244,162,97)" d="M 1178.72 1010.44 C 1198.71 1008.8 1220.48 1015.84 1236.66 1027.39 A 92.2161 92.2161 0 0 1 1274.63 1088.53 C 1278.46 1113.4 1271.88 1138.03 1256.9 1158.15 C 1240.38 1180.32 1217.21 1190.89 1190.47 1194.93 C 1165 1195.8 1142.76 1190.31 1122.86 1173.76 C 1104.13 1158.17 1093.52 1137.16 1091.39 1112.96 C 1089.15 1087.54 1095.16 1063.43 1111.73 1043.7 C 1129.2 1022.9 1151.98 1012.67 1178.72 1010.44 z"/>
<path transform="translate(0,0)" fill="rgb(38,70,83)" d="M 1176.62 1056.33 C 1187.87 1055.35 1198.92 1057.39 1208.5 1063.58 C 1219.21 1070.48 1226.25 1081.46 1228.45 1093.99 C 1230.76 1107.16 1227.42 1121.94 1219.48 1132.71 C 1211.77 1143.17 1201.78 1147.8 1189.36 1149.9 C 1179.41 1150.15 1170.66 1149.5 1161.69 1144.58 A 46.9564 46.9564 0 0 1 1139.07 1115.52 A 48.5482 48.5482 0 0 1 1143.95 1078.62 C 1151.38 1066.01 1162.84 1059.73 1176.62 1056.33 z"/>
<path transform="translate(0,0)" fill="rgb(244,162,97)" d="M 555.641 1010.38 C 559.675 1010.32 564.509 1010.54 568.227 1012.23 C 571.558 1013.74 573.8 1016.15 575.335 1019.43 C 579.785 1028.95 581.286 1041.23 583.694 1051.49 C 588.941 1073.86 594.06 1097.43 602.407 1118.88 L 602.934 1120.22 C 608.936 1101.31 613.261 1081.54 616.85 1062.03 C 619.152 1049.52 620.739 1036.26 624.275 1024.03 C 625.193 1020.86 626.275 1017.57 628.582 1015.11 C 631.595 1011.9 635.83 1010.65 640.163 1010.85 C 649.273 1011.27 665.926 1013.24 672.172 1020.12 C 675.645 1023.94 676.308 1029.11 675.765 1034.08 C 674.362 1046.9 669.293 1060.03 665.915 1072.47 C 659.506 1096.08 652.984 1119.22 645.596 1142.54 C 642.235 1153.15 639.337 1164.15 634.552 1174.23 C 632.11 1179.37 628.904 1184.26 624.28 1187.69 C 617.23 1192.92 608.253 1193.36 599.849 1192.21 C 594.01 1191.41 587.314 1189.83 582.772 1185.86 C 570.587 1175.21 565.287 1140.09 560.88 1124.31 C 559.709 1120.11 558.247 1113.11 555.452 1109.74 C 555.162 1109.39 554.851 1109.06 554.551 1108.72 C 553.619 1111.35 552.958 1114.04 552.241 1116.73 C 547.53 1134.38 538.487 1180.28 521.861 1189.18 C 513.823 1193.48 497.486 1193.4 488.942 1190.53 C 481.823 1188.14 477.046 1183.07 473.733 1176.46 C 466.739 1162.52 462.59 1140.13 458.057 1124.48 C 450.16 1097.23 440.132 1069.36 434.463 1041.6 C 433.391 1036.35 432.02 1029.62 433.979 1024.48 C 436.095 1018.93 441.572 1015.43 446.905 1013.44 C 454.921 1010.45 467.044 1009.23 474.988 1013.04 C 478.476 1014.72 480.179 1017.24 481.511 1020.78 C 484.706 1029.27 485.976 1039.27 487.856 1048.19 C 492.839 1071.82 497.406 1099.69 505.816 1122 A 2609.08 2609.08 0 0 0 518.656 1076.16 C 522.152 1062.78 527.679 1027.1 534.127 1017.82 C 538.293 1011.83 549.043 1011.14 555.641 1010.38 z"/>
<path transform="translate(0,0)" fill="rgb(233,196,106)" d="M 393.909 192.407 C 396.598 192.33 398.473 192.773 401.027 193.485 L 400.395 194.495 C 386.888 194.693 348.009 210.518 334.671 216.857 C 269.933 247.627 214.921 305.454 191.04 373.498 C 165.348 446.703 167.723 527.675 201.626 597.966 C 233.34 663.722 290.566 718.649 359.939 742.687 C 414.035 761.432 477.4 762.813 532.116 745.648 C 549.606 740.161 566.349 732.16 582.827 724.197 C 570.04 734.675 555.641 742.486 540.943 749.879 C 507.995 765.48 471.155 775.893 434.812 778.92 A 270.443 270.443 0 0 1 235.974 713.489 C 173.337 660.07 133.5 589.496 127.025 506.579 C 120.807 426.932 148.274 352.107 200.094 291.989 A 284.945 284.945 0 0 1 393.909 192.407 z"/>
<path transform="translate(0,0)" fill="rgb(233,196,106)" d="M 1009.1 1607.17 C 1018.27 1606.62 1027.68 1606.87 1035.38 1612.52 C 1043.16 1618.23 1047.72 1628.5 1048.98 1637.86 C 1053.54 1671.71 1019.02 1710.4 999.773 1735.65 C 1024.92 1724.9 1056.33 1719.12 1082.52 1729.73 C 1098.26 1736.1 1106.59 1746.55 1113.13 1761.78 C 1104.16 1753.55 1095.58 1745.74 1084.48 1740.4 C 1057.36 1727.37 1027.18 1733.77 1000.02 1743.27 C 1014.97 1759.59 1023 1778.74 1023.93 1800.98 C 1024.58 1816.67 1021.32 1835.32 1010.07 1847.04 C 1002.13 1855.33 992.357 1857.78 981.285 1858.14 C 971.921 1856.25 964.153 1853.53 956.71 1847.17 C 944.319 1836.58 939.944 1822.99 938.442 1807.37 L 937.545 1808.66 C 926.05 1825.07 906.282 1846.33 885.355 1849.44 C 874.962 1850.99 864.985 1847.98 856.841 1841.43 A 48.7421 48.7421 0 0 1 839.188 1808.79 C 837.899 1795.78 842.552 1782.96 850.669 1772.88 C 864.7 1755.45 884.393 1749.16 905.824 1746.71 C 898.544 1737.94 892.463 1728.06 889.651 1716.92 C 886.252 1703.47 887.482 1688.45 894.996 1676.56 A 45.3156 45.3156 0 0 1 925.133 1656.44 C 940.878 1653.52 954.54 1657.83 967.265 1666.89 C 967.609 1653.15 969.197 1640.52 976.724 1628.64 C 984.408 1616.52 995.398 1610.24 1009.1 1607.17 z"/>
<path transform="translate(0,0)" fill="rgb(38,70,83)" d="M 1010.53 1616.14 C 1014.18 1615.92 1017.93 1615.79 1021.56 1616.3 C 1027.87 1617.2 1032.52 1620.53 1036.01 1625.78 C 1060.73 1663.04 998.232 1709.01 991.332 1743.03 C 991.247 1743.44 991.171 1743.86 991.091 1744.28 C 1001.74 1755.58 1008.38 1766.23 1012.09 1781.42 C 1016.33 1798.76 1016.81 1820.4 1006.88 1836.01 C 1002.79 1842.44 996.627 1847.36 989.073 1848.92 C 980.57 1850.68 971.661 1847.82 964.723 1842.87 A 40.6135 40.6135 0 0 1 947.977 1816.12 C 944.497 1793.61 957.783 1774.68 970.449 1757.72 C 942.856 1777.83 933.668 1802.26 910.461 1826 C 909.818 1826.63 909.178 1827.25 908.511 1827.85 C 900.044 1835.42 890.207 1841.94 878.314 1841.03 C 869.649 1840.37 861.868 1835.6 856.403 1828.99 A 38.0442 38.0442 0 0 1 848.093 1799.55 C 849.733 1787.3 856.842 1777 866.505 1769.57 C 890.556 1751.1 917.561 1754.56 945.54 1758.26 C 933.598 1752.99 920.515 1749.01 911.211 1739.41 C 901.644 1729.55 895.964 1715.85 896.275 1702.06 C 896.513 1691.5 900.437 1681.47 908.38 1674.34 C 916.936 1666.67 928.803 1663.37 940.137 1664.47 C 961.735 1666.58 974.831 1681.37 987.37 1697.14 C 984.53 1691.42 981.33 1685.6 979.276 1679.55 C 974.63 1665.87 975.219 1650.95 981.927 1638.03 C 988.095 1626.14 998.075 1619.83 1010.53 1616.14 z"/>
<path transform="translate(0,0)" fill="rgb(233,196,106)" d="M 1173.15 1705.21 C 1178.96 1704.92 1183.6 1705.46 1189 1707.75 C 1210.04 1716.68 1222.86 1745.2 1228.79 1765.84 C 1231.29 1774.52 1232.67 1783.68 1236.03 1792.07 C 1236.16 1792.39 1236.29 1792.71 1236.43 1793.03 C 1244.33 1768.73 1249.42 1741.95 1266.5 1721.96 C 1273.48 1713.79 1283.45 1707.06 1294.48 1706.56 C 1301.25 1706.25 1308 1708.32 1312.82 1713.21 C 1318.82 1719.3 1320.45 1728.09 1319.99 1736.35 C 1318.22 1768.03 1293.37 1791.29 1271.47 1811 C 1295.94 1801.18 1322.48 1788.84 1349.56 1791.3 C 1360.45 1792.28 1371.16 1796.58 1378.15 1805.27 C 1382.97 1811.27 1385.49 1819.15 1384.26 1826.81 C 1382.86 1835.56 1377.19 1842.89 1370.16 1848 C 1340.28 1869.72 1307.65 1855.22 1276.58 1851.13 L 1274.92 1850.92 C 1277.39 1844.17 1278.64 1837.57 1277.91 1830.37 A 36.8075 36.8075 0 0 0 1264.45 1805.47 C 1256.01 1798.64 1245.25 1796.08 1234.56 1797.28 C 1223.89 1798.48 1213.61 1803.57 1206.94 1812.1 C 1199.85 1821.15 1197.65 1833.11 1199.39 1844.33 C 1200.73 1852.97 1204.93 1860.92 1212.11 1866.08 C 1221.73 1872.99 1234.71 1875.88 1246.32 1873.48 C 1258.53 1870.96 1266.59 1863.91 1273.21 1853.76 L 1286.52 1864.2 C 1291.04 1868.18 1295.66 1872.15 1299.92 1876.41 C 1313.83 1890.31 1323.74 1909 1323.34 1929.06 C 1323.15 1938.58 1320.47 1948.46 1313.28 1955.1 C 1308.15 1959.82 1301.32 1961.87 1294.43 1961.48 C 1271.77 1960.19 1256.78 1935.37 1251.75 1915.46 C 1249.5 1906.56 1247.54 1883.89 1242.21 1877.61 C 1237.26 1883.99 1235.05 1896.57 1231.98 1904.36 A 171.728 171.728 0 0 1 1220.11 1928.94 C 1209.2 1947.39 1196.2 1961.3 1174.91 1966.7 C 1167.69 1964.97 1162.5 1962.65 1158.06 1956.49 C 1154.09 1950.97 1152.32 1944.32 1152.01 1937.6 C 1150.18 1899.15 1200.07 1869.85 1201.59 1859.36 C 1196.59 1858.74 1176.86 1867.85 1170.57 1869.73 C 1155.19 1874.33 1136.46 1877.79 1120.4 1875.42 C 1110.27 1873.93 1100.04 1868.86 1093.98 1860.38 A 27.1682 27.1682 0 0 1 1089.58 1838.63 C 1091.42 1830.45 1097.2 1824.28 1104.14 1819.95 C 1130.56 1803.46 1169.28 1804.87 1198.34 1811.93 C 1182.62 1797.05 1165.27 1781.86 1155.87 1761.92 C 1150.6 1750.73 1148.01 1736.09 1152.56 1724.27 C 1156.27 1714.63 1163.99 1709.04 1173.15 1705.21 z"/>
<path transform="translate(0,0)" fill="rgb(233,196,106)" d="M 418.268 1184.64 C 420.535 1187.37 421.925 1191.8 423.39 1195.09 C 429.359 1208.47 435.098 1221.75 446.115 1231.86 C 463.245 1247.57 486.831 1251.01 509.184 1249.96 A 1047.28 1047.28 0 0 0 437.258 1760.24 L 417.5 1760.27 C 386.118 1760.27 354.693 1760.94 323.317 1760.42 C 322.228 1737.19 320.403 1714.07 320.017 1690.8 C 317.831 1558.92 334.768 1431.46 373.753 1305.34 C 386.356 1264.57 399.854 1223.21 418.268 1184.64 z"/>
<path transform="translate(0,0)" fill="rgb(244,162,97)" d="M 660.586 1247.42 C 667.549 1251.24 673.284 1256.97 680.696 1260.56 C 712.544 1276 758.191 1276.12 793.311 1278.2 C 789.167 1289.5 783.146 1300.37 778.282 1311.41 A 670.329 670.329 0 0 0 757.908 1364.69 A 781.537 781.537 0 0 0 723.943 1702.76 C 726.235 1721.7 730.201 1740.44 733.587 1759.2 L 733.446 1759.45 L 732.107 1759.47 L 732.648 1760.04 C 689.187 1761.99 644.944 1760.63 601.404 1760.42 C 598.786 1740.02 595.293 1719.93 593.597 1699.39 C 580.837 1544.81 606.245 1392.26 660.586 1247.42 z"/>
<path transform="translate(0,0)" fill="rgb(233,196,106)" d="M 553.471 1233.79 C 555.204 1234.08 554.916 1233.86 556.129 1234.52 C 562.721 1238.16 569.181 1242.39 576.201 1245.17 C 591.286 1251.16 615.556 1251.34 630.697 1246.32 C 637.452 1244.08 643.643 1240.13 650.213 1237.37 L 651.892 1238.53 C 652.684 1245.75 642.172 1269.72 639.057 1278.48 A 959.778 959.778 0 0 0 610.006 1376.65 C 579.806 1502.15 570.744 1633.01 592.026 1760.66 L 563.5 1760.81 A 8119.16 8119.16 0 0 1 446.616 1760.49 C 424.545 1587.49 455.978 1410.73 518.958 1249.23 C 532.843 1246.19 542.109 1242.37 553.471 1233.79 z"/>
<path transform="translate(0,0)" fill="rgb(244,162,97)" d="M 775.27 969.861 C 882.27 843.538 1012.36 749.492 1168.91 693.705 C 1319.11 640.183 1491.55 625.775 1646.34 668.057 C 1670.15 674.564 1695.11 680.773 1717.48 691.414 A 630.919 630.919 0 0 1 1711.36 711.531 C 1679.96 717.815 1657.71 734.762 1638.01 759.115 C 1627.94 758.786 1618.67 763.128 1611.25 769.838 C 1604.15 776.263 1598.4 785.768 1595.2 794.781 A 631.406 631.406 0 0 0 1465.73 777.126 C 1429.09 775.597 1391.85 778.587 1355.51 783.234 C 1184.15 805.145 1032.53 885.863 906.334 1001.82 C 895.878 987.262 884.991 977.366 867.355 972.805 C 849.685 968.235 826.284 969.437 810.408 978.948 C 798.331 972.894 788.82 970.083 775.27 969.861 z"/>
<path transform="translate(0,0)" fill="rgb(244,162,97)" d="M 494.255 777.222 L 494.39 777.333 C 494.679 778.675 494.602 777.96 494.569 779.483 C 493.721 779.977 492.875 780.473 492.043 780.994 L 492.907 782.581 L 491.85 782.82 C 480.023 797.188 469.521 812.683 458.832 827.903 A 1268.27 1268.27 0 0 0 394.828 926.753 A 1421.21 1421.21 0 0 0 204.196 1760.24 A 6095.88 6095.88 0 0 0 129.736 1760.42 C 116.381 1760.5 102.655 1761.21 89.3454 1760.36 C 87.7627 1760.26 88.56 1760.51 87.1476 1758.91 L 86.8844 1757.56 C 83.8946 1741.33 84.4619 1723.33 84.104 1706.85 A 2193.51 2193.51 0 0 1 83.6371 1614.52 A 1533.99 1533.99 0 0 1 347.125 782.787 C 389.861 790.943 453.039 793.005 494.255 777.222 z"/>
<path transform="translate(0,0)" fill="rgb(244,162,97)" d="M 1452.59 114.46 C 1474.53 113.658 1496.56 114.738 1518.5 115.325 C 1636.78 118.491 1756.36 134.854 1868.86 172.817 C 1856.79 211.425 1845.51 250.383 1834.05 289.18 C 1564.69 201.039 1272.49 218.88 1008.25 316.46 A 1350.37 1350.37 0 0 0 787.192 423.144 C 763.216 437.447 739.064 452.086 716.813 468.999 C 713.593 423.306 704.36 391.564 686.932 349.23 C 862.7 239.275 1052.3 160.73 1258.22 130.439 A 1644.87 1644.87 0 0 1 1452.59 114.46 z"/>
<path transform="translate(0,0)" fill="rgb(233,196,106)" d="M 1415.11 511.438 C 1437.97 510.199 1461.28 511.024 1484.13 512.057 C 1558.06 515.397 1629.37 526.426 1700.5 547.03 C 1718.57 552.267 1737.07 557.516 1754.47 564.73 A 8687.11 8687.11 0 0 0 1720.11 682.293 C 1649.27 656.431 1577.68 640.441 1502.29 636.231 C 1258.46 622.614 1035.07 711.378 854.618 872.907 C 821.355 903.354 791.081 936.399 761.877 970.708 C 737.262 971.313 703.575 965.916 682.264 980.369 C 669.744 974.517 656.831 970.168 642.967 969.1 C 624.077 967.645 610.19 973.574 595.976 985.658 L 588.916 979.205 C 600.122 962.634 611.066 945.749 622.885 929.612 C 647.21 896.403 674.376 864.463 702.145 834.113 C 738.422 794.465 779.777 758.365 822.207 725.504 C 995.604 591.214 1196.65 520.979 1415.11 511.438 z"/>
<path transform="translate(0,0)" fill="rgb(233,196,106)" d="M 1408.72 389.441 C 1424.48 388.374 1440.61 388.821 1456.42 388.886 A 953.765 953.765 0 0 1 1787.63 450.022 C 1776.13 484.914 1766.81 520.767 1756.76 556.112 A 879.023 879.023 0 0 0 1425.75 502.172 A 1027.46 1027.46 0 0 0 708.323 814.707 A 1030.51 1030.51 0 0 0 615.982 923.989 C 603.823 940.588 591.622 957.392 581.63 975.413 C 575.335 973.391 569.021 971.276 562.505 970.087 C 540.657 966.099 525.52 973.702 508.134 985.718 C 487.779 972.006 473.03 968.429 448.541 968.077 C 481.531 911.237 536.465 838.491 580.641 789.674 C 774.035 575.965 1014.41 436.932 1301.88 398.4 A 1337.54 1337.54 0 0 1 1408.72 389.441 z"/>
<path transform="translate(0,0)" fill="rgb(233,196,106)" d="M 432.511 199.415 C 434.693 199.147 434.057 199.176 436.008 199.097 C 502.858 196.395 563.875 220.775 612.925 265.916 C 671.884 320.176 703.617 393.345 706.84 473.105 C 709.671 543.161 684.801 617.217 636.726 668.713 A 254.757 254.757 0 0 1 458.934 748.017 C 391.543 749.082 331.894 729.09 280.457 684.827 A 277.098 277.098 0 0 1 183.179 492.362 C 178.406 422.818 199.615 348.954 245.972 296.064 C 293.576 241.751 359.758 204.217 432.511 199.415 z"/>
<path transform="translate(0,0)" fill="rgb(38,70,83)" d="M 317.044 437.129 C 322.458 437.074 327.121 437.604 332.12 439.865 C 348.436 447.242 360.247 464.913 365.943 481.364 C 369.407 491.368 371.94 504.665 366.796 514.416 C 363.891 519.923 361.01 522.241 355.137 524.036 C 351.069 524.085 347.406 523.793 343.541 522.415 C 328.852 517.179 316.844 502.514 310.319 488.817 C 305.026 477.709 300.266 461.524 304.853 449.625 C 307.38 443.072 310.784 439.969 317.044 437.129 z"/>
<path transform="translate(0,0)" fill="rgb(38,70,83)" d="M 480.805 342.081 C 485.276 342.082 489.371 342.266 493.604 343.849 C 507.169 348.92 518.065 361.75 524.117 374.611 C 529.755 386.594 534.227 404.59 529.31 417.321 C 526.724 424.015 523.344 427.03 516.952 429.929 C 513.186 430.06 509.559 430.229 505.949 428.97 C 491.276 423.857 479.591 409.205 473.348 395.439 C 468.073 383.807 463.776 366.935 468.802 354.665 C 471.248 348.692 474.925 344.678 480.805 342.081 z"/>
<path transform="translate(0,0)" fill="rgb(38,70,83)" d="M 619.492 461.803 C 624.58 463.456 629.024 465.434 633.742 467.908 A 289.681 289.681 0 0 1 614.934 537.481 C 592.546 590.722 552.388 638.491 497.983 660.606 C 452.573 679.064 407.388 672.774 363.378 654.016 C 360.095 652.393 356.884 650.59 353.652 648.866 C 355.837 643.869 358.655 639.226 361.381 634.512 C 377.808 644.458 394.087 651.087 413.076 654.533 C 453.792 661.921 494.982 650.57 528.526 626.965 C 566.515 600.233 594.611 558.633 608.1 514.46 C 613.379 497.173 616.396 479.573 619.492 461.803 z"/>
<path transform="translate(0,0)" fill="rgb(244,162,97)" d="M 304.178 530.389 A 54.7126 54.7126 0 0 1 337.549 544.926 A 52.7958 52.7958 0 0 1 354.802 583.511 C 355.068 598.111 349.957 612.585 339.674 623.083 C 328.514 634.477 315.242 638.128 299.798 638.219 C 287.234 637.347 275.713 634.44 265.794 626.185 C 255.032 617.229 248.55 603.826 247.326 589.959 A 54.9656 54.9656 0 0 1 260.636 549.137 C 272.356 535.778 287.24 531.586 304.178 530.389 z"/>
<path transform="translate(0,0)" fill="rgb(244,162,97)" d="M 594.504 330.162 C 606.576 329.243 617.761 330.394 628.694 336.066 A 55.3478 55.3478 0 0 1 655.973 368.582 C 660.312 382.334 659.261 397.243 652.395 409.992 C 644.412 424.814 631.821 432.466 616.203 437.359 C 602.092 439.685 587.389 437.769 575.15 430.104 A 53.3437 53.3437 0 0 1 551.287 396.514 A 57.8305 57.8305 0 0 1 558.742 353.631 C 567.228 340.274 579.506 333.53 594.504 330.162 z"/>
<path transform="translate(0,0)" fill="rgb(233,196,106)" d="M 1426.82 241.439 A 1187 1187 0 0 1 1831.7 297.908 A 4153.65 4153.65 0 0 0 1790.1 440.87 C 1764.96 432.282 1739.65 423.22 1714.05 416.092 C 1568.36 375.522 1417.91 370.63 1268.93 394.445 C 980.014 440.629 728.49 595.366 542.977 819.534 A 1337.38 1337.38 0 0 0 467.772 920.82 C 456.237 937.936 445.886 956.046 433.787 972.74 C 415.886 979.492 401.741 990.788 393.265 1008.19 A 80.3672 80.3672 0 0 0 385.237 1039.69 C 383.989 1073.67 403.476 1136.18 414.735 1169.46 C 405.247 1186.7 398.829 1206.16 391.879 1224.56 A 1248.22 1248.22 0 0 0 338.785 1398.33 C 313.111 1522.1 305.183 1634.53 314.363 1760.37 C 281.021 1760.82 247.564 1761.27 214.228 1760.5 A 1494.77 1494.77 0 0 1 209.642 1602.44 C 215.425 1349.34 302.739 1073.93 445 864.205 A 1577.43 1577.43 0 0 1 489.635 800.7 C 495.874 792.324 502.041 783.248 509.159 775.599 C 514.965 769.36 551.54 755.347 562.314 749.359 A 272.145 272.145 0 0 0 616.271 709.222 C 680.999 647.256 715.13 570.014 717.127 480.271 C 747.065 456.38 782.696 437.153 815.822 417.954 A 1341.27 1341.27 0 0 1 1265.03 257.425 C 1318.67 248.798 1372.62 244.343 1426.82 241.439 z"/>
<path transform="translate(0,0)" fill="rgb(0,0,0)" d="M 1711.36 711.531 C 1743.47 705.761 1776.99 708.288 1804.44 727.352 C 1826.14 742.425 1839.78 762.464 1849.16 786.878 C 1851.06 791.821 1853.74 797.611 1854.63 802.83 C 1854.91 804.469 1854.79 806.03 1854.73 807.672 C 1854.71 808.226 1854.72 808.781 1854.7 809.336 C 1854.69 809.689 1854.67 810.041 1854.66 810.394 C 1860.3 812.309 1868.1 810.554 1874.23 811.329 C 1898.78 814.434 1923.25 832.621 1934.12 854.71 C 1946.87 880.605 1935.3 901.751 1929.43 927.363 C 1921.96 959.995 1934.08 981.875 1965.55 992.893 C 1972.46 995.313 1982.84 995.043 1988.55 998.902 C 1988.79 1001.67 1988.14 1002.72 1986.4 1004.89 C 1972.23 1022.63 1940.59 1034.91 1918.4 1036.39 C 1894.85 1037.96 1871.48 1030.98 1853.68 1015.29 C 1839.08 1002.44 1830.12 986.403 1828.92 966.819 C 1826.96 934.677 1844.18 907.186 1850.28 876.487 C 1830.09 914.289 1817.65 927.662 1778.05 945.101 C 1779.27 972.334 1793.38 995.175 1803.54 1019.82 A 518.19 518.19 0 0 1 1822.47 1074.33 A 986.307 986.307 0 0 1 1858.03 1333.16 C 1858 1354.16 1855.17 1374.84 1854.8 1395.7 C 1846.43 1401.36 1837.45 1405.92 1828.2 1409.96 C 1827.35 1428.23 1820.06 1451.76 1820.94 1466.87 C 1821.8 1481.78 1826.73 1498.03 1829.86 1512.67 C 1845.17 1584.47 1867.59 1646.13 1892.42 1714.71 C 1904.3 1747.51 1915.41 1780.53 1927.44 1813.28 C 1930.94 1822.82 1933.47 1829.5 1926.16 1837.52 C 1933.36 1852.65 1972.63 1936.17 1970.57 1947.13 C 1969.49 1952.88 1960.13 1957.09 1955.34 1959.3 C 1912.02 1979.36 1859.06 1988.49 1811.51 1989.15 C 1804.59 1989.24 1793.9 1990.39 1787.5 1987.87 C 1784.01 1986.5 1782.1 1984.01 1780.96 1980.56 C 1778.21 1972.29 1779.76 1960.76 1783.94 1953.2 C 1791.3 1939.91 1810.94 1933.41 1824.81 1929.83 C 1837.69 1926.51 1853.67 1924.98 1863.97 1915.92 C 1869.2 1911.32 1873.35 1905.51 1878.57 1900.89 A 649.946 649.946 0 0 1 1869.71 1875.82 C 1856.31 1878.74 1843.11 1881.08 1829.4 1882.06 A 9713.71 9713.71 0 0 1 1735.94 1661.82 C 1730.07 1677.26 1722.85 1692.15 1716.31 1707.32 L 1678.09 1796.84 L 1652.89 1857.82 C 1648.62 1868.03 1644.69 1880.79 1638.17 1889.67 C 1631.63 1888.61 1625.3 1887.32 1618.9 1885.63 C 1615.41 1900.56 1605.33 1913.53 1599.94 1927.83 C 1589.37 1955.88 1591.91 1983.71 1571.99 2009.3 C 1532.13 2000.03 1437.77 1948.97 1403.06 1924.27 C 1406.7 1914.88 1410.58 1907.11 1420.49 1903.02 C 1445.44 1892.72 1500.49 1918.09 1534.69 1908.21 A 1998.26 1998.26 0 0 0 1550.45 1864.41 C 1539.84 1860.47 1530.31 1856.04 1521.17 1849.28 C 1524.11 1830.91 1530.84 1812.26 1536.29 1794.47 A 4506.76 4506.76 0 0 1 1564.95 1703.7 L 1620.29 1531.48 C 1632.01 1495.19 1644.64 1459.15 1655.4 1422.56 C 1647.42 1414.12 1641.49 1399.37 1640.49 1387.88 C 1624.05 1396.21 1608.68 1403.21 1589.9 1403.02 L 1588.15 1403.01 L 1587.1 1402.99 C 1575.22 1413 1561.73 1416.87 1546.73 1419.6 C 1533.13 1437.11 1518.72 1447.06 1497.97 1454.48 C 1490.66 1457.09 1482.91 1459.49 1476.94 1464.67 C 1468.71 1471.8 1467.26 1488.43 1455.12 1490.25 C 1451.68 1490.76 1449.12 1490.35 1446.2 1488.41 C 1444.89 1486.4 1443.87 1484.51 1442.85 1482.34 C 1442.04 1480.62 1441.45 1478.87 1439.56 1478.08 C 1439.29 1477.97 1437.05 1477.43 1436.86 1477.38 C 1430.44 1475.75 1424.42 1466.6 1421.14 1460.99 C 1414.14 1449.05 1414.65 1436.81 1418.34 1423.94 C 1421.65 1412.39 1427.72 1406.3 1438.09 1400.69 C 1459.36 1389.17 1482.5 1383.38 1504.77 1374.6 C 1506.51 1373.91 1508.99 1372.87 1510.27 1371.45 C 1516.07 1365.03 1519.29 1353.58 1528.92 1343.53 C 1530.7 1324.56 1557.22 1298.81 1571.47 1287.01 C 1585.44 1275.44 1600.52 1266.66 1617.03 1259.27 C 1629.42 1238.53 1636.66 1184.63 1641.92 1159.48 C 1644.95 1144.97 1648.69 1130.4 1653.53 1116.39 C 1670.23 1067.99 1708.27 1028.43 1702.79 974.562 C 1679.98 976.422 1653.86 987.711 1633.98 971.104 C 1620.39 959.745 1613.4 940.566 1612.14 923.285 C 1610.95 906.888 1614.33 890.287 1617.39 874.252 C 1602.08 858.24 1590.13 842.053 1590.67 818.912 C 1590.87 810.755 1592.6 802.498 1595.2 794.781 C 1598.4 785.768 1604.15 776.263 1611.25 769.838 C 1618.67 763.128 1627.94 758.786 1638.01 759.115 C 1657.71 734.762 1679.96 717.815 1711.36 711.531 z"/>
<path transform="translate(0,0)" fill="rgb(38,70,83)" d="M 1663.24 1396.36 L 1660.72 1405.83 C 1660.05 1408.69 1659.65 1411.52 1657.77 1413.88 C 1655.43 1411.97 1654.43 1408.67 1653.2 1405.92 L 1651.39 1401.29 C 1652.18 1399.5 1652.22 1399.2 1654.15 1398.45 C 1657.01 1397.33 1660.26 1397.11 1663.24 1396.36 z"/>
<path transform="translate(0,0)" fill="rgb(42,157,143)" d="M 1620.58 805.93 C 1621.67 807.019 1621.39 806.34 1621.16 808.111 C 1620.56 812.949 1619.25 817.613 1618.84 822.502 C 1617.94 833.273 1618.73 844.36 1618.76 855.171 C 1618.63 854.835 1618.49 854.503 1618.38 854.164 C 1612.47 836.878 1612.33 822.624 1620.58 805.93 z"/>
<path transform="translate(0,0)" fill="rgb(169,230,192)" d="M 1713.82 1400.52 C 1714.86 1400.9 1715.87 1401.55 1716.85 1402.07 C 1725.73 1420.94 1736.8 1434.1 1754.93 1444.24 C 1759.09 1446.57 1763.66 1448.18 1767.75 1450.54 C 1770.15 1451.92 1769.92 1452.33 1770.63 1454.94 C 1763.08 1453.69 1755.18 1450.19 1748.65 1446.27 C 1731.68 1436.09 1718.66 1419.79 1713.82 1400.52 z"/>
<path transform="translate(0,0)" fill="rgb(169,230,192)" d="M 1626.93 1859.82 L 1643.51 1861.83 C 1640.37 1869.01 1637.39 1876.26 1634.33 1883.47 C 1631.32 1883.98 1622.61 1880.54 1619.24 1879.64 L 1626.93 1859.82 z"/>
<path transform="translate(0,0)" fill="rgb(42,157,143)" d="M 1635.63 769.799 C 1635.76 770.03 1635.94 770.24 1636.04 770.491 C 1638.98 778.383 1618.11 803.18 1614.17 811.288 C 1605.81 828.496 1610.84 843.732 1616.63 860.441 C 1615.9 859.732 1615.89 859.759 1615.12 858.819 C 1608.33 850.544 1606.45 830.122 1607.77 819.503 C 1610.18 800.154 1620.12 781.692 1635.63 769.799 z"/>
<path transform="translate(0,0)" fill="rgb(38,70,83)" d="M 1840.98 877.917 C 1840.86 878.573 1840.72 879.555 1840.52 880.232 C 1832.35 908.163 1806.25 923.964 1782.58 937.017 C 1781.72 933.407 1783.96 927.427 1784.8 923.71 C 1811.89 917.781 1826.03 899.679 1840.98 877.917 z"/>
<path transform="translate(0,0)" fill="rgb(42,157,143)" d="M 1630.33 765.901 L 1632.45 766.058 C 1632.23 768.274 1624.96 774.294 1623.1 776.53 C 1610.96 791.135 1601.1 812.466 1603.99 831.92 C 1604.99 838.614 1608.2 844.719 1608.89 851.535 L 1607.95 852.13 C 1604.89 847.2 1602.01 841.803 1600.22 836.272 C 1595.15 820.613 1597.24 803.99 1604.76 789.523 C 1610.39 778.674 1618.39 769.662 1630.33 765.901 z"/>
<path transform="translate(0,0)" fill="rgb(38,70,83)" d="M 1845.25 841.318 L 1845.72 841.715 L 1844.97 843.505 C 1832.31 852.546 1819.99 861.208 1805.39 866.878 C 1800.87 868.635 1791.34 872.47 1786.86 870.477 L 1786.14 868.433 L 1779.45 853.014 C 1803.2 856.099 1824.32 853.174 1845.25 841.318 z"/>
<path transform="translate(0,0)" fill="rgb(38,70,83)" d="M 1842.7 847.046 C 1842.56 848.938 1842.08 849.962 1841.16 851.602 C 1830.05 871.458 1810.18 885.88 1788.4 891.989 C 1787.48 886.548 1788.03 880.119 1788 874.553 C 1807.69 870.269 1828.55 861.986 1842.7 847.046 z"/>
<path transform="translate(0,0)" fill="rgb(127,151,158)" d="M 1556.58 1866.85 C 1574.82 1874.31 1593.54 1879.9 1612.59 1884.84 L 1608.31 1895.44 C 1589.15 1893.77 1570.69 1886.81 1553.28 1879.03 L 1556.58 1866.85 z"/>
<path transform="translate(0,0)" fill="rgb(38,70,83)" d="M 1844.7 988.039 C 1853.66 1003.63 1867.08 1013.19 1884.34 1017.95 C 1914.47 1026.26 1936.74 1018.17 1965.69 1013.91 C 1940.29 1027.79 1916.11 1035.26 1887.25 1026.94 C 1868.78 1021.62 1852.62 1009.73 1843.02 992.999 C 1842.36 991.864 1841.85 990.725 1841.33 989.528 L 1844.7 988.039 z"/>
<path transform="translate(0,0)" fill="rgb(233,196,106)" d="M 1775.2 854.742 C 1775.81 855.319 1776.05 855.486 1776.55 856.29 C 1786.95 872.883 1783.57 914.49 1777.51 932.182 C 1775.31 938.595 1770.3 943.956 1768.54 950.469 C 1769.93 952.7 1770.82 953.737 1770.96 956.462 L 1769.33 956.592 L 1765.96 953.264 C 1764.23 955.066 1762.88 956.612 1760.37 957.223 C 1758.53 957.669 1758.39 957.085 1756.89 956.17 C 1756.73 955.334 1767.96 926.716 1769.25 921.012 C 1774.1 899.575 1774.7 876.664 1775.2 854.742 z"/>
<path transform="translate(0,0)" fill="rgb(38,70,83)" d="M 1751.06 895.066 L 1767.71 894.413 C 1766.45 910.204 1765.07 927.777 1756.96 941.78 C 1747.29 958.461 1728.29 961.321 1711.23 965.963 C 1707.75 966.998 1704.47 967.947 1700.86 968.358 C 1701.07 966.507 1708.07 964.589 1710.04 963.789 C 1722.92 958.541 1738.34 948.023 1746.42 936.469 C 1755.34 923.708 1753.51 909.443 1751.06 895.066 z"/>
<path transform="translate(0,0)" fill="rgb(169,230,192)" d="M 1724.44 1403.43 C 1741.79 1408.45 1759.08 1413.63 1776.71 1417.56 C 1775.45 1425.61 1773.77 1433.63 1772.27 1441.64 C 1771.96 1443.05 1771.64 1443.34 1770.72 1444.41 C 1768.83 1444.59 1767.49 1444.48 1765.74 1443.75 C 1748.47 1436.55 1731.87 1420.56 1724.44 1403.43 z"/>
<path transform="translate(0,0)" fill="rgb(42,157,143)" d="M 1848.63 844.763 C 1848.5 856.971 1841.21 871.281 1834.89 881.43 C 1823.75 899.333 1807.37 914.262 1786.42 918.996 C 1786.04 911.691 1787.59 903.296 1788.09 895.899 A 95.77 95.77 0 0 0 1804.74 889.655 C 1822.63 880.83 1841.97 864.142 1848.63 844.763 z"/>
<path transform="translate(0,0)" fill="rgb(38,70,83)" d="M 1664.02 784.772 C 1666.24 788.434 1667.14 793.156 1668.79 797.144 A 112.313 112.313 0 0 0 1687.17 827.168 C 1708.74 852.747 1735.43 866.434 1768.51 869.342 C 1770.03 871.92 1769.02 874.726 1768.69 877.654 C 1767.8 877.926 1767.55 878.035 1766.51 878.163 C 1746.44 880.629 1724.25 872.572 1708.32 860.739 C 1684.47 843.022 1668.4 813.957 1664.02 784.772 z"/>
<path transform="translate(0,0)" fill="rgb(42,157,143)" d="M 1857.69 827.179 C 1901.36 886.611 1824.03 922.583 1844.7 988.039 L 1841.33 989.528 C 1827.29 955.688 1843.81 930.102 1852.21 898.125 C 1857.89 876.529 1860.53 849.342 1857.69 827.179 z"/>
<path transform="translate(0,0)" fill="rgb(38,70,83)" d="M 1883.94 829.019 L 1886.15 829.429 C 1911.31 853.807 1918.86 883.781 1912.9 918.385 C 1909.94 935.556 1903.41 951.177 1910.81 968.427 C 1917.86 984.861 1934.67 997.039 1950.96 1003.05 C 1955.54 1004.74 1960.35 1005.1 1964.9 1006.85 L 1963.7 1007.69 C 1957.47 1008.23 1951.49 1006.01 1945.72 1003.87 C 1932.79 999.057 1919.21 990.318 1910.5 979.463 C 1883.06 945.268 1909.27 908.282 1903.16 870.691 C 1901.67 861.536 1898.67 848.521 1893.14 841.028 C 1890.16 836.985 1886.03 833.615 1883.94 829.019 z"/>
<path transform="translate(0,0)" fill="rgb(42,157,143)" d="M 1702.24 730.918 C 1720.95 733.325 1738 741.806 1755.1 749.324 C 1779.03 759.842 1840.44 787.991 1849.5 811.212 C 1815.35 791.32 1778.83 776.82 1744.24 757.914 C 1729.55 749.881 1716.09 740.273 1702.24 730.918 z"/>
<path transform="translate(0,0)" fill="rgb(244,162,97)" d="M 1529.93 1351.61 C 1533.65 1353.8 1539.78 1367.84 1543.47 1372.15 C 1553.54 1383.95 1567.06 1392.29 1580.13 1400.32 C 1575.71 1403.51 1571.05 1405.79 1566.16 1408.15 C 1560.07 1410.47 1554.13 1411.92 1547.74 1413.14 C 1531.04 1404.67 1522.87 1391.74 1517.16 1374.53 C 1520.45 1366.19 1525.12 1359.12 1529.93 1351.61 z"/>
<path transform="translate(0,0)" fill="rgb(169,230,192)" d="M 1787.37 1550.6 C 1789.48 1552.71 1799.22 1586.91 1801.82 1593.7 L 1893.61 1827.98 L 1891.77 1831.2 L 1889.33 1830.54 C 1888.67 1829.62 1888.04 1828.76 1887.53 1827.75 C 1877.77 1808.29 1870.29 1786.91 1862.26 1766.66 A 5984.08 5984.08 0 0 1 1818.11 1652.99 L 1796.41 1596.66 C 1792.38 1585.93 1787.46 1574.34 1785.24 1563.1 C 1784.43 1559 1786.21 1554.52 1787.37 1550.6 z"/>
<path transform="translate(0,0)" fill="rgb(38,70,83)" d="M 1678.51 738.759 C 1679.34 744.075 1680.14 749.181 1680.04 754.585 L 1678.49 750.498 L 1678.12 751.435 L 1678.63 751.779 L 1678.02 753.102 C 1678.25 764.841 1682.52 774.347 1688.69 784.103 A 160.1 160.1 0 0 0 1797.5 840.49 C 1813.5 842.018 1830.24 841.352 1845.8 837.116 C 1818.29 852.365 1794.66 854.51 1764.57 845.788 C 1736.82 837.746 1702.15 819.478 1687.15 793.5 C 1686.9 793.062 1686.71 792.589 1686.49 792.133 C 1685.32 790.471 1684.25 788.836 1683.31 787.03 C 1676.74 774.405 1672.12 758.089 1677.02 743.998 C 1677.63 742.234 1678.07 740.572 1678.51 738.759 z"/>
<path transform="translate(0,0)" fill="rgb(38,70,83)" d="M 1684.67 728.408 C 1691.37 732.554 1694.94 745.657 1699.63 752.164 C 1713.06 770.805 1734.39 786.078 1754.98 795.791 C 1764.64 800.35 1774.97 803.062 1785.45 804.998 C 1801.38 807.941 1840.76 808.559 1850.97 821.015 C 1832.85 818.199 1813.66 816.553 1795.34 815.511 C 1786.57 815.012 1777.64 815.245 1768.96 813.777 C 1748.37 810.294 1728.06 795.483 1712.86 781.797 C 1697.36 767.844 1685.87 749.656 1684.67 728.408 z"/>
<path transform="translate(0,0)" fill="rgb(169,230,192)" d="M 1534.37 1824.54 C 1559.34 1843.26 1592.03 1852.18 1621.99 1859.23 C 1619.03 1865.12 1616.71 1871.51 1614.16 1877.59 L 1613.35 1878.05 C 1596.06 1877.71 1542.33 1856.09 1527.75 1846.3 C 1529.53 1838.96 1532.07 1831.74 1534.37 1824.54 z"/>
<path transform="translate(0,0)" fill="rgb(169,230,192)" d="M 1917.36 1810.73 C 1920.47 1814.83 1921.78 1821.97 1924.06 1826.8 A 157.532 157.532 0 0 1 1916.09 1838.33 C 1896.25 1863.95 1864.12 1870.64 1833.82 1874.73 C 1831.19 1868.64 1828.84 1862.42 1826.39 1856.25 C 1867.79 1852.16 1890.39 1843.06 1917.36 1810.73 z"/>
<path transform="translate(0,0)" fill="rgb(233,196,106)" d="M 1551.35 1884.54 C 1567.42 1893.31 1586.39 1898.53 1604.27 1901.96 L 1589.11 1936.47 C 1588.5 1937.03 1588.34 1937.23 1587.45 1937.69 C 1580.42 1941.39 1568.32 1938.9 1561.24 1936.44 C 1554.68 1934.15 1543.77 1928.94 1541.26 1921.75 C 1538.05 1912.58 1548 1893.42 1551.35 1884.54 z"/>
<path transform="translate(0,0)" fill="rgb(38,70,83)" d="M 1859.17 824.415 C 1868.04 826.439 1872.32 828.845 1878.79 835.363 C 1887.28 867.06 1881.9 883.934 1867.61 912.646 C 1862.65 922.603 1858.44 932.275 1856.99 943.403 C 1854.86 959.78 1857.77 977.064 1868.37 990.185 C 1878.14 1002.29 1902.06 1013.48 1917.5 1014.83 C 1920.96 1015.13 1928.85 1014.9 1931.4 1016.96 L 1929.97 1017.96 C 1921.88 1018.12 1913.65 1018.33 1905.58 1017.67 C 1886.46 1016.1 1865.23 1009.33 1852.77 993.85 C 1846.47 986.023 1844.46 976.995 1844.3 967.142 C 1843.68 928.79 1869.94 907.831 1873.91 873.954 C 1876.16 854.697 1871.1 839.572 1859.17 824.415 z"/>
<path transform="translate(0,0)" fill="rgb(42,157,143)" d="M 1667.29 743.769 C 1670.35 747.147 1671.12 766.977 1672.88 772.912 C 1674.91 779.799 1678.62 787.119 1682.45 793.191 C 1701.09 822.739 1736.66 842.879 1769.99 850.673 C 1770.14 855.882 1770.04 860.973 1769.77 866.172 C 1741.05 865.851 1714.32 851.335 1694.46 831.145 C 1680.64 817.093 1665.35 794.74 1665.08 774.275 C 1664.96 764.598 1667.33 754.947 1667.3 745.183 L 1667.29 743.769 z"/>
<path transform="translate(0,0)" fill="rgb(42,157,143)" d="M 1689.96 728.856 C 1708.08 737.159 1723.1 751.821 1740.45 761.701 C 1767.74 777.249 1797.4 788.803 1825.83 802.09 C 1833.15 805.513 1839.18 809.11 1845.53 814.118 C 1815.46 804.149 1782.64 804.116 1754.23 791.261 C 1728.17 779.472 1700.16 756.384 1689.96 728.856 z"/>
<path transform="translate(0,0)" fill="rgb(169,230,192)" d="M 1783.27 1416.59 C 1787.35 1424.09 1782.62 1444.81 1781.07 1452.97 C 1777.69 1470.8 1772.01 1487.96 1765.89 1505.01 C 1754.25 1537.45 1740.72 1569.3 1727.92 1601.29 A 5866.62 5866.62 0 0 0 1695.95 1684.62 L 1652.16 1800.17 C 1645.62 1817.29 1639.7 1835.2 1632.28 1851.93 C 1631.52 1853.65 1630.69 1854.5 1629.16 1855.55 C 1628.91 1854.95 1628.56 1854.38 1628.41 1853.75 C 1626.84 1847.41 1657.14 1773.17 1662.08 1759.75 A 9027.31 9027.31 0 0 1 1727 1588.16 C 1737.33 1561.73 1749.36 1535.94 1758.85 1509.19 C 1764.76 1492.52 1771.16 1475.49 1775 1458.21 C 1777.91 1445.1 1778.21 1428.85 1783.27 1416.59 z"/>
<path transform="translate(0,0)" fill="rgb(233,196,106)" d="M 1920.41 1844.8 C 1928.51 1858.15 1933.99 1873.77 1939.97 1888.16 C 1937.63 1891.98 1935.07 1895.32 1931.59 1898.17 C 1921.44 1906.49 1910.64 1907.73 1898.07 1906.54 C 1893.96 1905.41 1890.05 1903.77 1886.09 1902.21 L 1876.96 1872.76 C 1894.45 1865.91 1907.51 1858.61 1920.41 1844.8 z"/>
<path transform="translate(0,0)" fill="rgb(42,157,143)" d="M 1883.94 829.019 L 1882.65 828.297 C 1876.17 824.727 1870.34 822.888 1862.96 821.977 C 1860.36 821.657 1859.07 821.984 1857.14 819.981 L 1856.72 817.14 C 1858.37 815.339 1859.44 815.033 1861.92 814.96 C 1880.41 814.407 1902.65 825.69 1915.18 838.861 C 1926.81 851.093 1934.44 865.678 1933.81 882.991 C 1932.59 916.574 1904.29 948.095 1932.83 979.379 C 1936.9 983.83 1941.41 986.962 1946.55 990.022 C 1947.02 990.304 1947.49 990.599 1947.96 990.879 C 1956.07 995.683 1965.88 997.653 1973.57 1002.99 L 1973.47 1003.75 C 1957.42 1004.62 1940.25 997.102 1928.31 986.699 C 1919.49 979.014 1911.53 965.911 1910.87 954.222 C 1910.17 941.965 1915.23 930.576 1917.3 918.698 C 1922.08 891.322 1916.63 855.304 1895.35 835.694 C 1892.48 833.047 1889.68 831.088 1886.15 829.429 L 1883.94 829.019 z"/>
<path transform="translate(0,0)" fill="rgb(42,157,143)" d="M 1678.51 738.759 C 1678.06 735.875 1678.06 735.293 1679.05 732.557 L 1680.85 732.572 C 1684.2 738.134 1686.76 751.373 1690.76 759.159 C 1703.4 783.735 1739.14 810.396 1765.78 816.804 C 1775.39 819.115 1785.46 819.175 1795.28 819.776 C 1814.02 820.922 1833.66 821.636 1852.1 825.02 C 1839.16 837 1822.95 838.25 1806.02 837.635 C 1767.42 836.234 1723.69 818.612 1697.2 790.007 C 1688.91 781.06 1680.14 767.133 1680.04 754.585 C 1680.14 749.181 1679.34 744.075 1678.51 738.759 z"/>
<path transform="translate(0,0)" fill="rgb(169,230,192)" d="M 1958.77 1931.29 C 1961.78 1934.4 1962.91 1940.96 1964.07 1945.05 C 1924.44 1975.86 1841.4 1982.49 1791.75 1982.14 C 1790.61 1981.98 1789.69 1982.15 1788.88 1981.21 C 1785.74 1977.58 1786.64 1969.18 1786.62 1964.58 C 1803.01 1963.21 1819.56 1963.23 1835.99 1962.25 C 1879 1959.68 1920.18 1951.07 1958.77 1931.29 z"/>
<path transform="translate(0,0)" fill="rgb(38,70,83)" d="M 1663.78 740.988 C 1666.25 744.047 1659.69 768.688 1659.17 774.272 C 1658.71 779.206 1659.49 784.565 1660.34 789.427 C 1667.68 831.681 1699.71 870.619 1742.41 880.123 C 1749.69 881.743 1763.74 880.332 1769.41 884.33 L 1769.69 886.316 C 1769.12 887.244 1769.24 887.176 1768.17 888.09 C 1763.5 892.077 1757.97 891.107 1752.27 890.891 C 1721.47 887.459 1691.02 877.395 1669.77 853.946 C 1650.68 832.874 1639.21 807.397 1640.91 778.583 C 1641.97 760.626 1651.28 752.261 1663.78 740.988 z"/>
<path transform="translate(0,0)" fill="rgb(169,230,192)" d="M 1421.17 1908.49 C 1430.27 1912.19 1444.16 1923.1 1454.41 1928.4 C 1494.34 1949.06 1535.45 1968.59 1578.18 1982.7 C 1575.53 1989.44 1572.32 1995.72 1568.91 2002.11 C 1523.82 1986.91 1449.02 1948.56 1409.59 1921.36 C 1413.1 1916.66 1417.04 1912.63 1421.17 1908.49 z"/>
<path transform="translate(0,0)" fill="rgb(244,162,97)" d="M 1791.65 1011.12 C 1794.47 1014.2 1795.58 1018.1 1797.03 1021.95 A 464.908 464.908 0 0 0 1770.13 1032.41 C 1754.51 1039.2 1737.22 1046.71 1723.72 1057.09 C 1687.51 1084.93 1660.27 1149.21 1643.67 1191.78 L 1642.63 1194.16 L 1642.17 1193.43 C 1646.19 1162.45 1655.07 1130.26 1666.98 1101.38 C 1672.04 1089.11 1678.43 1073.57 1687.11 1063.45 C 1706.98 1040.27 1762.86 1023.08 1791.65 1011.12 z"/>
<path transform="translate(0,0)" fill="rgb(42,157,143)" d="M 1731.61 715.357 C 1750.59 714.162 1770.77 716.867 1788.1 724.996 C 1820.66 740.271 1835.69 768.91 1847.55 801.02 A 177.111 177.111 0 0 0 1825.48 782.28 C 1793.32 759.551 1730.28 726.707 1691.89 724.552 A 193.8 193.8 0 0 1 1731.61 715.357 z"/>
<path transform="translate(0,0)" fill="rgb(169,230,192)" d="M 1429.15 1907.16 C 1459.19 1906.35 1506.96 1923.65 1532.43 1916.19 C 1534.01 1925.01 1538.41 1931.1 1545.77 1936.21 C 1557.89 1944.6 1573.32 1947.45 1587.7 1945.11 C 1586.79 1953.41 1585.33 1961.44 1583.24 1969.52 L 1580.51 1977.72 C 1543.46 1965.23 1507.56 1947.59 1472.48 1930.37 C 1458.03 1923.27 1442.24 1916.53 1429.15 1907.16 z"/>
<path transform="translate(0,0)" fill="rgb(244,162,97)" d="M 1674.09 1367.01 C 1743.88 1365.71 1773.9 1411.46 1849.11 1373.97 L 1847.78 1391.86 C 1840.18 1396.66 1832.49 1400.63 1824.27 1404.26 C 1765.6 1429.01 1707.77 1372 1649.24 1394.08 L 1647.81 1385.11 L 1674.09 1367.01 z"/>
<path transform="translate(0,0)" fill="rgb(169,230,192)" d="M 1942.93 1895.88 C 1948.2 1901.41 1953.34 1918.66 1956.39 1926.39 C 1907.97 1953.36 1849.84 1954.95 1795.88 1958.31 C 1793.2 1958.45 1792.54 1958.94 1790.19 1957.47 C 1794.34 1940.87 1845.92 1934.17 1859.92 1926.56 C 1868 1922.17 1874.59 1914.43 1880.84 1907.86 C 1889.19 1911.45 1898.02 1914 1907.2 1913.73 C 1922.08 1913.3 1932.92 1906.2 1942.93 1895.88 z"/>
<path transform="translate(0,0)" fill="rgb(233,196,106)" d="M 1771.18 960.515 C 1772.71 961.8 1786.11 999.621 1788.73 1005.52 C 1758.94 1018.11 1730.13 1026.51 1702.37 1043.9 C 1698.48 1046.39 1695.07 1049.3 1691.57 1052.3 C 1703.93 1025.43 1713.48 1002.53 1708.7 972.451 C 1725.99 970.542 1738.1 963.707 1753.19 961.136 C 1759.3 960.096 1764.84 962.133 1771.18 960.515 z"/>
<path transform="translate(0,0)" fill="rgb(42,157,143)" d="M 1881.1 837.754 C 1885.99 841.164 1890.05 846.942 1892.88 852.138 C 1914.59 892.062 1876.25 938.382 1902.27 978.321 C 1914.45 997.003 1936.81 1007.1 1957.97 1011.2 C 1951.23 1012.87 1944.25 1013.85 1937.41 1015.04 C 1923.01 1015.82 1905.18 1010.11 1892.37 1003.77 C 1878.74 997.026 1867.77 986.605 1863.02 971.789 C 1854.78 946.05 1865.9 926.456 1876.92 903.994 C 1888.01 881.395 1889.15 861.476 1881.1 837.754 z"/>
<path transform="translate(0,0)" fill="rgb(233,196,106)" d="M 1508.56 1381.1 L 1510.33 1381.01 C 1512.14 1382.3 1511.76 1381.71 1512.71 1383.43 C 1520.24 1397.1 1527.67 1406.59 1540.26 1416.16 C 1528.35 1432.88 1513.85 1441.95 1495.04 1449.1 C 1489.45 1451.23 1482.12 1453.53 1477.28 1457.07 C 1468.43 1463.56 1465.29 1476.19 1456.81 1482.72 C 1454.7 1484.35 1453.65 1484.62 1451.07 1484.27 C 1449.96 1482.95 1449.36 1482.55 1448.98 1480.8 C 1446.28 1468.3 1463.52 1452.33 1469.87 1442.54 C 1455.26 1449.78 1448.32 1459.49 1441.45 1473.75 C 1439.02 1471.93 1437.16 1470.73 1436 1467.79 C 1436.2 1455.83 1455.36 1442.86 1462.75 1433.71 L 1463.77 1432.44 C 1459.65 1434.43 1455.73 1436.71 1451.77 1439 C 1445.33 1443.61 1434.88 1452.04 1431.38 1459.2 C 1430.76 1460.46 1430.31 1461.26 1429.42 1462.34 C 1427.36 1459.89 1426.12 1456.46 1424.75 1453.56 C 1435.87 1440.89 1450.6 1432.55 1462.18 1420.5 C 1440.15 1428.12 1439.97 1434.86 1422.92 1446.04 C 1422.65 1446.21 1422.38 1446.37 1422.12 1446.54 L 1422.14 1446.54 L 1422.39 1446.14 L 1421.43 1445.79 C 1421.05 1444.32 1420.93 1442.72 1420.91 1441.21 C 1420.77 1429.78 1446.79 1417.27 1454.22 1409.52 L 1453.39 1408.68 C 1442.39 1410.91 1436.74 1416.75 1427.28 1421.65 L 1426.11 1421.16 C 1426.43 1419.86 1426.82 1418.74 1427.52 1417.59 C 1436.83 1402.51 1490.5 1385.92 1508.56 1381.1 z"/>
<path transform="translate(0,0)" fill="rgb(169,230,192)" d="M 1817.04 1414.27 C 1819 1414.05 1818.06 1413.85 1819.83 1415 C 1822.2 1430.59 1812.2 1462.35 1807.72 1477.88 C 1792.37 1531.15 1764.75 1580.39 1742.59 1631.02 A 10687.8 10687.8 0 0 0 1682.47 1769.2 C 1671.08 1796.22 1660.75 1823.84 1648.79 1850.59 C 1647.19 1854.17 1646.5 1856.42 1643.02 1858.34 C 1641.31 1857.7 1639.66 1857 1637.99 1856.27 C 1637.17 1853.54 1638.41 1851.02 1639.33 1848.38 C 1648.47 1822.18 1659.91 1796.42 1669.79 1770.45 C 1690.54 1715.9 1710.63 1661.12 1731.92 1606.76 C 1747.3 1567.49 1765.06 1529.01 1777.9 1488.79 C 1785.34 1465.48 1788.19 1442.52 1790.91 1418.36 C 1799.71 1417.29 1808.35 1416.04 1817.04 1414.27 z"/>
<path transform="translate(0,0)" fill="rgb(169,230,192)" d="M 1816.08 1474.61 C 1819.2 1482.28 1819.55 1497.94 1821.24 1506.79 C 1826.13 1532.43 1831.98 1558.26 1839.25 1583.34 C 1860.82 1657.69 1890.78 1729.89 1915.72 1803.2 C 1912.57 1807.57 1909.46 1812.01 1906.02 1816.15 C 1903.68 1818.98 1901.31 1822.05 1897.55 1822.4 L 1895.78 1819.65 L 1831.04 1653.56 C 1817.03 1617.45 1802.93 1581.5 1790.84 1544.69 C 1800.48 1521.33 1808.97 1498.94 1816.08 1474.61 z"/>
<path transform="translate(0,0)" fill="rgb(233,196,106)" d="M 1634.35 788.661 C 1635.59 793.079 1635.68 798.227 1636.6 802.797 C 1639.85 818.966 1645.12 832.652 1654.79 846.104 C 1677.08 877.128 1709.41 890.412 1746.22 896.314 C 1748.22 906.004 1749.88 915.361 1746.6 925.025 C 1740.46 943.098 1721.77 953.098 1705.77 961.005 L 1705.29 961.212 C 1687.9 968.623 1664.2 978.626 1645.5 970.539 C 1635.35 966.152 1628.38 957.168 1624.43 947.066 C 1616.77 927.486 1617.54 907.982 1621.14 887.672 C 1621.86 883.657 1622.28 878.533 1624.19 874.951 C 1625.27 872.938 1626.55 872.285 1628.58 871.588 C 1630.31 870.997 1631.63 870.451 1633.19 869.454 C 1635.71 862.724 1632.43 842.53 1630.29 835.447 C 1628.15 836.261 1627.62 838.533 1626.58 840.521 C 1626.35 840.141 1626.06 839.788 1625.89 839.38 C 1620.81 827.664 1629.07 799.865 1634.35 788.661 z"/>
<path transform="translate(0,0)" fill="rgb(0,0,0)" d="M 1654.35 856.69 C 1656.56 856.75 1658.86 856.816 1660.94 857.698 C 1663.04 858.591 1664.71 860.619 1665.15 862.851 C 1665.7 865.647 1664.22 868.23 1662.95 870.585 C 1661.43 870.625 1659.12 870.9 1657.7 870.41 C 1656.2 869.889 1654.68 869.062 1653.87 867.657 C 1651.82 864.116 1653.23 860.285 1654.35 856.69 z"/>
<path transform="translate(0,0)" fill="rgb(0,0,0)" d="M 1667.96 915.736 L 1670.47 918.768 C 1671 920.853 1671.72 923.172 1671.18 925.32 C 1670.43 928.271 1667.53 930.934 1665.09 932.593 C 1652.98 940.819 1638.96 941.084 1625.22 938.091 C 1624.1 935.979 1623.7 936.065 1624.14 933.587 C 1627.34 932.44 1631.71 934.712 1635.02 935.35 C 1642.85 936.857 1651.48 936.012 1658.23 931.53 C 1664.54 927.341 1666.55 922.989 1667.96 915.736 z"/>
<path transform="translate(0,0)" fill="rgb(169,230,192)" d="M 1780.14 1563.59 C 1790.73 1600.33 1805.27 1635.67 1818.76 1671.43 C 1839.4 1726.14 1860.33 1781.54 1884.15 1834.93 C 1869.8 1842.38 1856.39 1846.67 1840.53 1849.68 C 1834.93 1850.44 1829.34 1850.83 1823.71 1851.2 C 1803.92 1806.78 1785.92 1761.5 1766.72 1716.81 C 1757.98 1696.45 1749.89 1674.87 1739.06 1655.54 C 1751.68 1624.44 1767.38 1594.64 1780.14 1563.59 z"/>
<path transform="translate(0,0)" fill="rgb(244,162,97)" d="M 1798.62 1027.17 C 1798.85 1027.45 1799.14 1027.7 1799.32 1028.02 C 1805 1037.97 1808.02 1051.96 1811.48 1062.91 C 1837.76 1146 1858.03 1280.37 1849.3 1367.01 C 1776.62 1406.87 1745.89 1358.64 1679.62 1361.61 C 1716.44 1330.07 1740.77 1303.46 1764.93 1261.24 L 1769.6 1252.96 C 1775.78 1259.88 1781.91 1267.24 1788.87 1273.38 C 1797 1280.55 1805.94 1286.94 1813.7 1294.51 C 1817.61 1298.33 1823.95 1304.74 1823.99 1310.41 L 1822.4 1311.41 C 1807.4 1310.11 1790.08 1294.64 1780.43 1283.92 C 1776.77 1279.85 1774.07 1273.3 1768.93 1271.33 L 1766.93 1272.58 C 1766.57 1274.44 1766.42 1275.08 1767.3 1276.88 C 1774.33 1291.34 1795.96 1309.06 1810.98 1314.48 C 1815.79 1316.21 1822.99 1317.63 1827.67 1314.74 C 1829.61 1313.54 1830.85 1311.86 1831.15 1309.58 C 1832.73 1297.53 1800.29 1275.31 1792.06 1267.24 C 1785.26 1260.56 1779.41 1252.95 1773.24 1245.7 A 330.808 330.808 0 0 0 1799.45 1171.17 C 1806.91 1138.47 1813.13 1091.49 1793.52 1061.62 C 1786.04 1050.23 1775.87 1044.52 1762.79 1041.96 C 1774.37 1036.42 1786.7 1031.97 1798.62 1027.17 z"/>
<path transform="translate(0,0)" fill="rgb(244,162,97)" d="M 1752.75 1049.11 A 185.706 185.706 0 0 1 1756.76 1048.88 C 1766.39 1048.44 1774.67 1051.12 1781.76 1057.85 C 1795.77 1071.17 1798.88 1094.36 1799.26 1112.71 C 1800.77 1186.12 1762.53 1269.98 1712.13 1322.5 C 1687.5 1348.16 1631.51 1397.04 1595.83 1396.81 C 1578.97 1396.7 1562.26 1381.85 1551 1370.66 C 1543.38 1361.98 1537.4 1352.75 1534.2 1341.55 C 1540.1 1330.24 1548.02 1319.79 1556.48 1310.28 C 1578.45 1285.56 1615.35 1258.62 1649.93 1258.6 C 1656.82 1258.59 1667.68 1264.9 1673.17 1264.13 C 1674.47 1263.94 1674.15 1263.59 1675 1262.18 C 1674.08 1260.33 1673.12 1259.41 1671.39 1258.35 C 1656.67 1249.39 1642.3 1251.9 1626.5 1255.8 C 1641.65 1214.65 1657.55 1173.13 1677.12 1133.85 C 1693.66 1100.68 1715.53 1061.6 1752.75 1049.11 z"/>
<path transform="translate(0,0)" fill="rgb(169,230,192)" d="M 1671.71 1395.21 C 1683.59 1396.56 1695.25 1397.46 1707.06 1399.52 C 1708.57 1406.42 1711.2 1413.22 1714.52 1419.44 C 1726.18 1441.23 1745.37 1453.49 1768.43 1460.64 C 1755.09 1505.95 1735.87 1549.08 1718.99 1593.13 A 11203.8 11203.8 0 0 0 1624.07 1845.94 L 1621.25 1853.72 C 1591.12 1845.74 1562.44 1837.32 1536.23 1819.7 C 1540.53 1801.62 1546.82 1783.65 1552.28 1765.87 A 4730.47 4730.47 0 0 1 1589.05 1651.15 L 1671.71 1395.21 z"/>
</svg>